<?xml version="1.0" encoding="UTF-8"?>
<svg version="1.1" xmlns="http://www.w3.org/2000/svg" width="235" height="209">
<path d="M0 0 C77.55 0 155.1 0 235 0 C235 68.97 235 137.94 235 209 C157.45 209 79.9 209 0 209 C0 140.03 0 71.06 0 0 Z " fill="#0C65C1" transform="translate(0,0)"/>
<path d="M0 0 C77.55 0 155.1 0 235 0 C235 68.97 235 137.94 235 209 C157.45 209 79.9 209 0 209 C0 140.03 0 71.06 0 0 Z M35.9375 32.3125 C34.96669317 33.54827998 33.99017928 34.77968731 33 36 C32.67 36 32.34 36 32 36 C31.28402177 39.880328 30.86865552 43.56955727 30.83937073 47.51361084 C30.8293251 48.58441895 30.81927948 49.65522705 30.80892944 50.75848389 C30.80309845 51.91809631 30.79726746 53.07770874 30.79125977 54.27246094 C30.78147598 55.5057312 30.7716922 56.73900146 30.76161194 58.00964355 C30.73173553 62.08454453 30.70998054 66.15941076 30.69140625 70.234375 C30.68810893 70.9296848 30.68481161 71.6249946 30.68141437 72.3413744 C30.65064594 78.90824737 30.62396335 85.47512532 30.60699558 92.04204941 C30.58510022 100.41474145 30.54312264 108.78679159 30.47355801 117.15922713 C30.42619433 123.06178719 30.40204593 128.96417476 30.3947987 134.8669188 C30.3898622 138.38526153 30.37497468 141.90287853 30.3350544 145.42101288 C30.29104512 149.35084926 30.29511233 153.27987029 30.30297852 157.20996094 C30.28297791 158.36147644 30.26297729 159.51299194 30.24237061 160.69940186 C30.31128779 168.39292227 31.92025875 174.06693545 37 180 C39.57620478 181.74840752 42.11617578 182.86860628 45 184 C45.99 184.66 46.98 185.32 48 186 C54.40736124 187.13252792 60.75347699 187.14813524 67.24609375 187.14526367 C68.89643112 187.15030159 68.89643112 187.15030159 70.58010864 187.15544128 C74.19925073 187.16490235 77.81834634 187.16689174 81.4375 187.16796875 C83.96280944 187.1711839 86.48811869 187.17454816 89.01342773 187.17805481 C94.29899393 187.18403338 99.58454842 187.18593891 104.87011719 187.18530273 C110.96406529 187.18470163 117.05792497 187.19526628 123.1518507 187.2110464 C129.0358204 187.22573504 134.91975527 187.22928985 140.80374146 187.22869301 C143.2979468 187.22987134 145.79215283 187.23428487 148.28634644 187.24202538 C151.77560749 187.25184316 155.2646414 187.24894036 158.75390625 187.24291992 C160.29088669 187.25134918 160.29088669 187.25134918 161.85891724 187.25994873 C169.99009149 187.22437148 176.80131316 186.62727938 183.25 181.1875 C184.05953125 180.52105469 184.8690625 179.85460937 185.703125 179.16796875 C190.52098192 174.62050176 193.65706608 170.47966606 194.17734146 163.68342972 C194.24616329 160.83005645 194.2472433 157.98353941 194.22705078 155.12939453 C194.22734283 154.04587204 194.22763489 152.96234955 194.22793579 151.84599304 C194.22654566 148.27485059 194.21099909 144.70391838 194.1953125 141.1328125 C194.19158125 138.65274164 194.18873481 136.1726693 194.18673706 133.69259644 C194.17910944 127.17256585 194.1594683 120.6526247 194.1373291 114.13262939 C194.11576814 107.47645759 194.10773134 100.82025973 194.09765625 94.1640625 C194.07622169 81.10933576 194.04209615 68.05467532 194 55 C188.06 55 182.12 55 176 55 C175.01 53.02 175.01 53.02 174 51 C173.030625 50.54625 172.06125 50.0925 171.0625 49.625 C167.14325963 47.54540307 166.59575109 46.11390166 165 42 C164.52745769 38.87750766 164.40053611 35.77920802 164.3125 32.625 C164.27833984 31.79355469 164.24417969 30.96210938 164.20898438 30.10546875 C164.12712854 28.07076649 164.06187299 26.03540792 164 24 C152.82762882 23.86789004 141.6552399 23.7374011 130.48282719 23.60884857 C125.29217176 23.54907551 120.1015234 23.48879308 114.91088867 23.42724609 C112.88525401 23.40331122 110.85961925 23.37938538 108.83398438 23.35546875 C107.34291451 23.33776428 107.34291451 23.33776428 105.82172203 23.31970215 C100.89507474 23.26202483 95.96844438 23.20874617 91.04165649 23.16455078 C89.15032946 23.14747494 87.25900256 23.13038539 85.36767578 23.11328125 C84.46236429 23.10522461 83.5570528 23.09716797 82.62430763 23.08886719 C77.37868843 23.03774177 72.1379164 22.93706113 66.89404297 22.79296875 C65.74173691 22.76948364 64.58943085 22.74599854 63.40220642 22.72180176 C61.40830716 22.68038891 59.41462896 22.62056015 57.4221344 22.53503418 C49.05167195 22.40318876 41.14027161 25.52460878 35.9375 32.3125 Z " fill="#555155" transform="translate(0,0)"/>
<path d="M0 0 C0 0.99 0 1.98 0 3 C0.598125 3.20625 1.19625 3.4125 1.8125 3.625 C5.32802188 5.83475661 6.48655645 9.15713162 7.57592773 13.06713867 C8.20480996 17.41645483 8.12183861 21.72480878 8.09765625 26.11328125 C8.0962413 27.08283249 8.09482635 28.05238373 8.09336853 29.05131531 C8.08778513 32.13840867 8.07523564 35.22542867 8.0625 38.3125 C8.05748286 40.40950416 8.05292032 42.50650946 8.04882812 44.60351562 C8.03867337 49.73572787 8.01909465 54.86778212 8 60 C1.73 60 -4.54 60 -11 60 C-11.06058594 57.23109375 -11.12117188 54.4621875 -11.18359375 51.609375 C-11.24541651 48.92526611 -11.30879038 46.24119801 -11.37231445 43.55712891 C-11.41560433 41.69290808 -11.45728361 39.82864912 -11.49731445 37.96435547 C-11.55516113 35.2834118 -11.61881405 32.602659 -11.68359375 29.921875 C-11.70030624 29.08944275 -11.71701874 28.2570105 -11.73423767 27.39935303 C-11.7641555 26.22859222 -11.7641555 26.22859222 -11.79467773 25.03417969 C-11.81799416 24.00825714 -11.81799416 24.00825714 -11.84178162 22.96160889 C-12.01276376 20.84175352 -12.29458108 19.00986577 -13 17 C-15.40952023 15.75285597 -15.40952023 15.75285597 -18 15 C-18.66 14.67 -19.32 14.34 -20 14 C-24.45038907 13.74809118 -28.11226348 13.66735809 -32 16 C-34.47726769 20.50100484 -34.34420442 25.01645615 -34.4140625 30.01953125 C-34.43342865 30.87810226 -34.4527948 31.73667328 -34.4727478 32.6212616 C-34.53231556 35.35157474 -34.57883734 38.08193057 -34.625 40.8125 C-34.66320079 42.66863773 -34.70225375 44.52475812 -34.7421875 46.38085938 C-34.83959555 50.92048048 -34.91934419 55.4599269 -35 60 C-41.6 60 -48.2 60 -55 60 C-55 39.21 -55 18.42 -55 -3 C-49.06 -3 -43.12 -3 -37 -3 C-37 -0.03 -37 2.94 -37 6 C-36.401875 5.401875 -35.80375 4.80375 -35.1875 4.1875 C-34.1046875 3.1046875 -34.1046875 3.1046875 -33 2 C-32.55527344 1.4946875 -32.11054687 0.989375 -31.65234375 0.46875 C-22.70029499 -7.48862667 -9.6731669 -4.05007362 0 0 Z " fill="#F7FCFD" transform="translate(152,93)"/>
<path d="M0 0 C4.47980562 2.86251986 7.35671762 7.42603606 8.92578125 12.46875 C10.50583686 20.82512658 9.07772517 25.94145176 4.51953125 33.125 C0.33143798 37.56423113 -4.78313887 38.86123737 -10.69628906 39.14379883 C-19.67143362 39.21501326 -19.67143362 39.21501326 -22.92578125 36.85546875 C-24.43574141 34.79819655 -25.56933732 32.7585983 -26.6953125 30.47265625 C-27.84 29.08046875 -27.84 29.08046875 -29.0078125 27.66015625 C-32.82768399 22.70847099 -31.785601 17.01233938 -31.265625 11.1015625 C-30.49757286 6.21443622 -29.5768294 4.47201022 -25.6953125 1.47265625 C-22.8828125 0.59765625 -22.8828125 0.59765625 -20.6953125 0.47265625 C-20.6953125 -0.18734375 -20.6953125 -0.84734375 -20.6953125 -1.52734375 C-13.45022621 -3.52542809 -6.90706502 -3.00166844 0 0 Z " fill="#E93B2F" transform="translate(196.6953125,15.52734375)"/>
<path d="M0 0 C6.27 0 12.54 0 19 0 C20.77916467 1.77916467 20.12764835 4.38313299 20.12939453 6.7890625 C20.13254669 8.0270459 20.13569885 9.2650293 20.13894653 10.54052734 C20.13715675 11.90201859 20.1351058 13.26350951 20.1328125 14.625 C20.13348559 16.01123064 20.13445566 17.39746117 20.13571167 18.78369141 C20.1371884 21.69239422 20.1350349 24.60106637 20.13037109 27.50976562 C20.12467381 31.24596598 20.12795294 34.98209452 20.13394356 38.71829224 C20.13754985 41.58179266 20.13641027 44.44527593 20.13381577 47.30877686 C20.13314668 48.68674732 20.13397426 50.06471932 20.13629532 51.44268799 C20.13882292 53.36543754 20.13429024 55.28819252 20.12939453 57.2109375 C20.12859894 58.30712402 20.12780334 59.40331055 20.12698364 60.53271484 C20 63 20 63 19 64 C12.73 64 6.46 64 0 64 C0 42.88 0 21.76 0 0 Z " fill="#FCFEFE" transform="translate(67,90)"/>
<path d="M0 0 C1.58257851 0.01891296 1.58257851 0.01891296 3.1971283 0.03820801 C5.66737283 0.06885014 8.13753793 0.10631362 10.60760498 0.14892578 C15.51177242 0.2323946 20.41615999 0.2783025 25.32080078 0.32421875 C36.18573926 0.42834532 47.05036901 0.55348621 57.91503906 0.68231201 C63.11847735 0.74369465 68.32193478 0.80340901 73.52539062 0.86328125 C83.66408162 0.98017664 93.80274835 1.09901837 103.94140625 1.21875 C104.27140625 7.81875 104.60140625 14.41875 104.94140625 21.21875 C104.28140625 21.21875 103.62140625 21.21875 102.94140625 21.21875 C102.94140625 15.27875 102.94140625 9.33875 102.94140625 3.21875 C88.58965168 3.32632995 74.2379467 3.43897936 59.88628292 3.55808926 C53.22213736 3.61323847 46.55798954 3.66664562 39.89379883 3.71606445 C33.46174427 3.76382607 27.02974183 3.81617303 20.59774971 3.87169075 C18.14460105 3.89206089 15.69143813 3.91078264 13.23826408 3.92782402 C9.80063606 3.95198643 6.36310557 3.98202464 2.92553711 4.01342773 C1.40638954 4.02206093 1.40638954 4.02206093 -0.14344788 4.03086853 C-9.58344928 3.78183414 -9.58344928 3.78183414 -17.89453125 7.40625 C-19.15136719 8.7984375 -19.15136719 8.7984375 -20.43359375 10.21875 C-21.28695312 11.12625 -22.1403125 12.03375 -23.01953125 12.96875 C-27.31577621 19.8164048 -26.20728383 28.90349092 -26.20385742 36.76538086 C-26.20721603 37.88514313 -26.21057465 39.0049054 -26.21403503 40.15859985 C-26.22348054 43.8336093 -26.22548421 47.50857295 -26.2265625 51.18359375 C-26.22977705 53.74426797 -26.23314127 56.30494201 -26.23664856 58.86561584 C-26.24262197 64.21746318 -26.24453303 69.56929355 -26.24389648 74.92114258 C-26.24329326 81.11009235 -26.25390172 87.29895566 -26.26964015 93.48788351 C-26.28426486 99.45142866 -26.28788548 105.41494717 -26.28728676 111.37851143 C-26.28846999 113.91395994 -26.29291085 116.44940904 -26.30061913 118.98484612 C-26.31035825 122.51593242 -26.30756627 126.04679131 -26.30151367 129.57788086 C-26.30713318 130.63188583 -26.31275269 131.68589081 -26.31854248 132.77183533 C-26.31434799 133.72920593 -26.3101535 134.68657654 -26.30583191 135.67295837 C-26.30637668 136.50747497 -26.30692144 137.34199156 -26.30748272 138.20179653 C-26.24036421 140.44710275 -26.24036421 140.44710275 -24.05859375 142.21875 C-23.2421875 144.2421875 -23.2421875 144.2421875 -22.49609375 146.59375 C-22.24730469 147.36460937 -21.99851562 148.13546875 -21.7421875 148.9296875 C-21.05859375 151.21875 -21.05859375 151.21875 -20.71875 153.3828125 C-20.22796109 155.38874035 -20.22796109 155.38874035 -18.2378912 156.20258141 C-17.15913896 156.70558486 -17.15913896 156.70558486 -16.05859375 157.21875 C-15.48603883 157.56631662 -14.91348391 157.91388325 -14.32357883 158.27198219 C-8.44924198 161.68217745 -3.20056457 161.77579412 3.47875977 161.70458984 C4.60985168 161.70838654 5.7409436 161.71218323 6.90631104 161.71609497 C10.6279311 161.72347648 14.34876236 161.70215156 18.0703125 161.6796875 C20.66527719 161.6773017 23.26024362 161.67639804 25.85520935 161.6769104 C31.28632258 161.67378654 36.71715353 161.65774231 42.14819336 161.63037109 C48.41372908 161.59890949 54.67901928 161.58837576 60.9446283 161.5898422 C66.9909508 161.59106586 73.03717399 161.5806092 79.08347893 161.56425858 C81.64827941 161.55790204 84.21308704 161.55395436 86.77789497 161.55247116 C90.36320293 161.54812707 93.9482052 161.53060208 97.53344727 161.50927734 C98.58974838 161.51018372 99.6460495 161.51109009 100.73435974 161.51202393 C109.21649726 161.43838415 116.73780522 159.9721466 123.94140625 155.21875 C125.80385005 152.81016286 125.80385005 152.81016286 126.94140625 150.21875 C127.47765625 149.55875 128.01390625 148.89875 128.56640625 148.21875 C132.11850706 143.05205791 131.29282969 135.51438758 131.5 129.484375 C131.54225204 128.2707428 131.58450409 127.0571106 131.6280365 125.80670166 C132.15371048 108.76723153 132.05317302 91.72031338 132.0100708 74.67474365 C131.9996362 70.09436522 131.99523116 65.51398077 131.99023438 60.93359375 C131.97967355 52.02863002 131.96272544 43.12369447 131.94140625 34.21875 C127.98140625 34.21875 124.02140625 34.21875 119.94140625 34.21875 C119.94140625 33.55875 119.94140625 32.89875 119.94140625 32.21875 C124.56140625 32.21875 129.18140625 32.21875 133.94140625 32.21875 C134.03418904 46.53586037 134.10521365 60.85289891 134.14865494 75.17024899 C134.16950726 81.81878188 134.19778232 88.46705389 134.24316406 95.11547852 C134.28670485 101.5345569 134.31056111 107.95343736 134.32091522 114.37265205 C134.32829172 116.8186104 134.34269626 119.26455822 134.36432648 121.71043205 C134.39346884 125.14304681 134.39735758 128.5748493 134.39550781 132.00756836 C134.40988892 133.01314285 134.42427002 134.01871735 134.43908691 135.05476379 C134.39363678 142.87693209 132.72884245 149.04268086 127.50390625 154.99609375 C126.65828125 155.70894531 125.81265625 156.42179688 124.94140625 157.15625 C124.09578125 157.88714844 123.25015625 158.61804688 122.37890625 159.37109375 C115.22978421 164.79021992 107.59170635 164.3678189 98.95410156 164.36401367 C97.85738129 164.36737228 96.76066101 164.3707309 95.63070679 164.37419128 C92.01030337 164.38367863 88.38994632 164.38564337 84.76953125 164.38671875 C82.24615459 164.38993315 79.72277812 164.39329736 77.19940186 164.39680481 C71.91027316 164.40279074 66.62116167 164.40468819 61.33203125 164.40405273 C55.23930061 164.40345282 49.14665875 164.41399088 43.05395055 164.4297964 C37.17105972 164.44450785 31.28820369 164.44803914 25.40529633 164.44744301 C22.91274402 164.44861993 20.42019099 164.4530255 17.92765045 164.46077538 C14.43378937 164.47062048 10.94015412 164.46767915 7.44628906 164.46166992 C6.4256839 164.46728943 5.40507874 164.47290894 4.35354614 164.47869873 C-4.72811729 164.43919509 -12.65122144 163.86246223 -20.05859375 158.21875 C-20.71676779 157.92654981 -21.37494183 157.63434961 -22.05306053 157.33329487 C-25.96681995 155.15828204 -27.53994884 151.29132335 -29.05859375 147.21875 C-29.72559506 142.97946032 -29.70293758 138.82656684 -29.64208984 134.54223633 C-29.64442627 133.30210281 -29.6467627 132.0619693 -29.64916992 130.78425598 C-29.65050135 127.40786196 -29.62971559 124.03302413 -29.59849501 120.65687013 C-29.57078647 117.1123181 -29.57094678 113.5677605 -29.56777954 110.02311707 C-29.55860073 104.07588716 -29.53114876 98.12898102 -29.49072266 92.18188477 C-29.43383237 83.80532974 -29.41155122 75.42893704 -29.39543796 67.05221903 C-29.38296748 61.2338765 -29.362308 55.41555829 -29.34005785 49.59724593 C-29.33470468 48.19071588 -29.3295674 46.78418499 -29.32464552 45.37765336 C-29.30809974 40.75406347 -29.28208233 36.13060283 -29.25146484 31.50708008 C-29.2472049 30.34589661 -29.24294495 29.18471313 -29.23855591 27.98834229 C-29.22995544 26.91608902 -29.22135498 25.84383575 -29.2124939 24.73908997 C-29.2069216 23.81239408 -29.2013493 22.88569818 -29.19560814 21.9309206 C-28.79931874 14.08645641 -28.79931874 14.08645641 -25.87109375 10.65625 C-24.94296875 9.851875 -24.01484375 9.0475 -23.05859375 8.21875 C-22.10984375 7.3525 -21.16109375 6.48625 -20.18359375 5.59375 C-13.45314657 0.47861015 -8.21171452 -0.19943531 0 0 Z " fill="#225FA2" transform="translate(60.05859375,22.78125)"/>
<path d="M0 0 C1.58257851 0.01891296 1.58257851 0.01891296 3.1971283 0.03820801 C5.66737283 0.06885014 8.13753793 0.10631362 10.60760498 0.14892578 C15.51177242 0.2323946 20.41615999 0.2783025 25.32080078 0.32421875 C36.18573926 0.42834532 47.05036901 0.55348621 57.91503906 0.68231201 C63.11847735 0.74369465 68.32193478 0.80340901 73.52539062 0.86328125 C83.66408162 0.98017664 93.80274835 1.09901837 103.94140625 1.21875 C104.27140625 7.81875 104.60140625 14.41875 104.94140625 21.21875 C104.28140625 21.21875 103.62140625 21.21875 102.94140625 21.21875 C102.94140625 15.27875 102.94140625 9.33875 102.94140625 3.21875 C88.58965168 3.32632995 74.2379467 3.43897936 59.88628292 3.55808926 C53.22213736 3.61323847 46.55798954 3.66664562 39.89379883 3.71606445 C33.46174427 3.76382607 27.02974183 3.81617303 20.59774971 3.87169075 C18.14460105 3.89206089 15.69143813 3.91078264 13.23826408 3.92782402 C9.80063606 3.95198643 6.36310557 3.98202464 2.92553711 4.01342773 C1.40638954 4.02206093 1.40638954 4.02206093 -0.14344788 4.03086853 C-9.58858031 3.76591998 -9.58858031 3.76591998 -17.859375 7.44140625 C-18.68824219 8.37855469 -19.51710938 9.31570312 -20.37109375 10.28125 C-21.21285156 11.20035156 -22.05460937 12.11945312 -22.921875 13.06640625 C-27.61476167 19.98991546 -27.35235107 27.61334906 -27.33325195 35.69262695 C-27.33836288 36.8172937 -27.34347382 37.94196045 -27.34873962 39.10070801 C-27.36259104 42.80287054 -27.36168201 46.50484595 -27.359375 50.20703125 C-27.36326466 52.79241504 -27.36759989 55.3777982 -27.37236023 57.96318054 C-27.37981311 63.3774144 -27.37967735 68.79157634 -27.37426758 74.20581055 C-27.36823418 80.43948739 -27.38052906 86.67293816 -27.40183765 92.90657645 C-27.42166588 98.93151547 -27.42461687 104.95633723 -27.42110252 110.98131371 C-27.42161414 113.53165403 -27.42682168 116.08199809 -27.43691444 118.6323185 C-27.4493254 122.20728312 -27.44245852 125.78173236 -27.4309082 129.35668945 C-27.43855194 130.39860947 -27.44619568 131.44052948 -27.45407104 132.51402283 C-27.41346155 144.00501781 -27.41346155 144.00501781 -22.45457935 153.90288258 C-21.9939041 154.33711883 -21.53322886 154.77135508 -21.05859375 155.21875 C-21.05859375 155.87875 -21.05859375 156.53875 -21.05859375 157.21875 C-25.21187743 155.83432211 -26.03108925 153.7416946 -28.01179886 149.96683311 C-29.93626054 144.91466797 -29.71800274 139.88731474 -29.64208984 134.54223633 C-29.64442627 133.30210281 -29.6467627 132.0619693 -29.64916992 130.78425598 C-29.65050135 127.40786196 -29.62971559 124.03302413 -29.59849501 120.65687013 C-29.57078647 117.1123181 -29.57094678 113.5677605 -29.56777954 110.02311707 C-29.55860073 104.07588716 -29.53114876 98.12898102 -29.49072266 92.18188477 C-29.43383237 83.80532974 -29.41155122 75.42893704 -29.39543796 67.05221903 C-29.38296748 61.2338765 -29.362308 55.41555829 -29.34005785 49.59724593 C-29.33470468 48.19071588 -29.3295674 46.78418499 -29.32464552 45.37765336 C-29.30809974 40.75406347 -29.28208233 36.13060283 -29.25146484 31.50708008 C-29.2472049 30.34589661 -29.24294495 29.18471313 -29.23855591 27.98834229 C-29.22995544 26.91608902 -29.22135498 25.84383575 -29.2124939 24.73908997 C-29.2069216 23.81239408 -29.2013493 22.88569818 -29.19560814 21.9309206 C-28.79931874 14.08645641 -28.79931874 14.08645641 -25.87109375 10.65625 C-24.94296875 9.851875 -24.01484375 9.0475 -23.05859375 8.21875 C-22.10984375 7.3525 -21.16109375 6.48625 -20.18359375 5.59375 C-13.45314657 0.47861015 -8.21171452 -0.19943531 0 0 Z " fill="#385B84" transform="translate(60.05859375,22.78125)"/>
<path d="M0 0 C1.32 0 2.64 0 4 0 C3.75559583 0.85131988 3.75559583 0.85131988 3.5062542 1.71983814 C2.98628773 4.0617599 2.88501248 6.08678662 2.89993286 8.48258972 C2.90289368 9.37539642 2.90585449 10.26820312 2.90890503 11.18806458 C2.91721344 12.16007309 2.92552185 13.1320816 2.93408203 14.13354492 C2.93875488 15.16330444 2.94342773 16.19306396 2.94824219 17.25402832 C2.95874417 19.49062844 2.97140667 21.72721922 2.98596573 23.96379662 C3.00798174 27.50771114 3.02206604 31.05157221 3.03366089 34.59553528 C3.06725648 44.67224449 3.10877725 54.74886553 3.17138672 64.82543945 C3.20911881 70.98975208 3.23208465 77.15397318 3.24569321 83.31838417 C3.25372962 85.66385763 3.26731314 88.00931907 3.28662491 90.35472679 C3.31322047 93.64309222 3.3210079 96.93102245 3.32470703 100.21948242 C3.3370639 101.18136978 3.34942078 102.14325714 3.3621521 103.1342926 C3.33679447 111.71899336 1.63080419 118.77224883 -4 125.4375 C-4.680625 126.26121094 -5.36125 127.08492188 -6.0625 127.93359375 C-11.13975785 133.34865303 -17.87781588 133.75593903 -24.98395348 134.17667007 C-28.20170162 134.24410048 -31.41320837 134.24771428 -34.6315918 134.22705078 C-36.44816536 134.22748886 -36.44816536 134.22748886 -38.30143738 134.22793579 C-41.58587534 134.22679044 -44.87013744 134.21683824 -48.15454078 134.20278788 C-51.6004812 134.19018946 -55.04642596 134.1891029 -58.49238586 134.18673706 C-65.00150696 134.18054883 -71.51055997 134.16417444 -78.01965123 134.14403808 C-85.43692607 134.1215958 -92.85420436 134.11066482 -100.27150476 134.10064721 C-115.51437578 134.07980549 -130.75717907 134.04468186 -146 134 C-146 133.34 -146 132.68 -146 132 C-145.378619 132.00184359 -144.75723801 132.00368717 -144.11702728 132.00558662 C-128.97603527 132.04981435 -113.83506316 132.08288022 -98.69402313 132.10362434 C-91.37183813 132.11392347 -84.04969633 132.12795765 -76.72753906 132.15087891 C-70.34326857 132.17085463 -63.95902937 132.18372635 -57.57472849 132.18817699 C-54.19636057 132.19077731 -50.81808218 132.19686056 -47.43974304 132.21146011 C-43.66224885 132.22599638 -39.88493958 132.22797701 -36.10742188 132.22705078 C-34.99539398 132.23424133 -33.88336609 132.24143188 -32.73764038 132.24884033 C-24.32183205 132.22653933 -17.36566922 131.77002343 -10.6875 126.125 C-9.86636719 125.44695312 -9.04523438 124.76890625 -8.19921875 124.0703125 C-2.93114822 119.11102763 -0.95006205 114.27381706 -0.7215271 107.02651978 C-0.69808513 105.03030468 -0.68535673 103.03394597 -0.68115234 101.03759766 C-0.67110672 99.94432159 -0.6610611 98.85104553 -0.65071106 97.72463989 C-0.61988973 94.1211193 -0.60284657 90.51767298 -0.5859375 86.9140625 C-0.56722504 84.41156374 -0.54765157 81.90907127 -0.5272522 79.40658569 C-0.48117504 73.49943455 -0.4437638 67.59226903 -0.41057932 61.68503511 C-0.36853991 54.29646707 -0.31299474 46.9080108 -0.2578125 39.51953125 C-0.16105612 26.346415 -0.07627489 13.17324995 0 0 Z " fill="#3A4D6A" transform="translate(194,54)"/>
<path d="M0 0 C8.98737084 -0.78530425 8.98737084 -0.78530425 13.0625 2.375 C15.74781439 6.01316788 16.39279906 8.30707936 16.359375 12.89453125 C15.72418186 16.61593453 13.66020984 18.40312849 11 21 C7.46089463 22.76955269 3.84355096 22.77257306 0 22 C-3.420562 19.72425084 -5.59802952 16.95191073 -6.43359375 12.89453125 C-6.54928069 9.26740558 -6.30366452 5.87958065 -4 3 C-1.875 2.25 -1.875 2.25 0 2 C0 1.34 0 0.68 0 0 Z " fill="#F4FAFC" transform="translate(72,59)"/>
<path d="M0 0 C2 2 2 2 2.22705078 5.80712891 C2.22673346 7.4469742 2.21539681 9.08684017 2.1953125 10.7265625 C2.1924826 11.58937836 2.18965271 12.45219421 2.18673706 13.34115601 C2.17552333 16.1025772 2.15041684 18.8636765 2.125 21.625 C2.11497173 23.49478699 2.10584562 25.36457905 2.09765625 27.234375 C2.07727985 31.82314107 2.03813399 36.41120935 2 41 C8.27 41 14.54 41 21 41 C21 27.47 21 13.94 21 0 C21.66 0 22.32 0 23 0 C24.07372481 4.46647383 24.26761313 8.90538012 24.421875 13.4765625 C24.46371918 14.68715836 24.46371918 14.68715836 24.50640869 15.92221069 C24.5626036 17.6215621 24.61624388 19.32099968 24.66748047 21.02050781 C24.74996025 23.62374527 24.85342345 26.22565422 24.95703125 28.828125 C25.00911488 30.48173033 25.0599396 32.13537589 25.109375 33.7890625 C25.14359558 34.56722321 25.17781616 35.34538391 25.21307373 36.14712524 C25.33771313 41.45211718 25.33771313 41.45211718 23.76464844 44.00415039 C21.53501846 45.2624045 20.20605849 45.29485336 17.65625 45.14453125 C16.82222656 45.09876953 15.98820313 45.05300781 15.12890625 45.00585938 C14.26136719 44.94205078 13.39382812 44.87824219 12.5 44.8125 C11.63246094 44.76802734 10.76492187 44.72355469 9.87109375 44.67773438 C3.40993137 44.27328758 3.40993137 44.27328758 0 42 C-0.36076355 40.16500854 -0.36076355 40.16500854 -0.34057617 37.91748047 C-0.34034958 37.07675995 -0.34012299 36.23603943 -0.33988953 35.36984253 C-0.32440567 34.46146637 -0.30892181 33.55309021 -0.29296875 32.6171875 C-0.28872391 31.68778351 -0.28447906 30.75837952 -0.28010559 29.80081177 C-0.26328012 26.82524944 -0.22562103 23.85035844 -0.1875 20.875 C-0.17245816 18.86068685 -0.15876888 16.84636311 -0.14648438 14.83203125 C-0.11336394 9.88776121 -0.06155529 4.94399451 0 0 Z " fill="#2A6FB4" transform="translate(139,112)"/>
<path d="M0 0 C6.27 0 12.54 0 19 0 C20.77916467 1.77916467 20.12764835 4.38313299 20.12939453 6.7890625 C20.13254669 8.0270459 20.13569885 9.2650293 20.13894653 10.54052734 C20.13715675 11.90201859 20.1351058 13.26350951 20.1328125 14.625 C20.13348559 16.01123064 20.13445566 17.39746117 20.13571167 18.78369141 C20.1371884 21.69239422 20.1350349 24.60106637 20.13037109 27.50976562 C20.12467381 31.24596598 20.12795294 34.98209452 20.13394356 38.71829224 C20.13754985 41.58179266 20.13641027 44.44527593 20.13381577 47.30877686 C20.13314668 48.68674732 20.13397426 50.06471932 20.13629532 51.44268799 C20.13882292 53.36543754 20.13429024 55.28819252 20.12939453 57.2109375 C20.12859894 58.30712402 20.12780334 59.40331055 20.12698364 60.53271484 C20 63 20 63 19 64 C12.73 64 6.46 64 0 64 C0 42.88 0 21.76 0 0 Z M1 2 C1 21.8 1 41.6 1 62 C6.61 62 12.22 62 18 62 C18 42.2 18 22.4 18 2 C12.39 2 6.78 2 1 2 Z " fill="#AAD0EC" transform="translate(67,90)"/>
<path d="M0 0 C4.47980562 2.86251986 7.35671762 7.42603606 8.92578125 12.46875 C10.50583686 20.82512658 9.07772517 25.94145176 4.51953125 33.125 C0.77916095 37.08966059 -3.45294391 38.55664624 -8.80859375 38.87109375 C-10.20833317 38.87893543 -11.60824585 38.87100398 -13.0078125 38.84765625 C-14.07999023 38.86505859 -14.07999023 38.86505859 -15.17382812 38.8828125 C-17.24609375 38.87109375 -17.24609375 38.87109375 -20.6953125 38.47265625 C-21.3553125 37.48265625 -22.0153125 36.49265625 -22.6953125 35.47265625 C-21.7053125 35.80265625 -20.7153125 36.13265625 -19.6953125 36.47265625 C-17.30276674 36.69826301 -14.90603127 36.8811422 -12.5078125 37.03515625 C-11.23550781 37.11894531 -9.96320313 37.20273437 -8.65234375 37.2890625 C-7.67652344 37.34964844 -6.70070312 37.41023438 -5.6953125 37.47265625 C-5.3653125 36.48265625 -5.0353125 35.49265625 -4.6953125 34.47265625 C-2.2203125 33.97765625 -2.2203125 33.97765625 0.3046875 33.47265625 C0.3046875 32.81265625 0.3046875 32.15265625 0.3046875 31.47265625 C1.2946875 31.47265625 2.2846875 31.47265625 3.3046875 31.47265625 C3.4284375 30.68890625 3.5521875 29.90515625 3.6796875 29.09765625 C4.3046875 26.47265625 4.3046875 26.47265625 6.3046875 24.47265625 C6.78963471 17.3196849 6.10386383 11.37303844 1.4296875 5.66015625 C-1.32647512 2.50716394 -3.81052381 0.71575295 -8.02734375 0.171875 C-13.71279978 0.14501458 -17.72366563 0.63171518 -22.6953125 3.47265625 C-23.73647091 4.77410427 -24.74909091 6.10063494 -25.6953125 7.47265625 C-26.6853125 7.47265625 -27.6753125 7.47265625 -28.6953125 7.47265625 C-29.0253125 9.45265625 -29.3553125 11.43265625 -29.6953125 13.47265625 C-30.0253125 13.47265625 -30.3553125 13.47265625 -30.6953125 13.47265625 C-31.19145642 9.30504732 -30.86376368 7.72773946 -28.5078125 4.16015625 C-25.68897639 1.46660174 -24.50437156 0.69031677 -20.6953125 0.47265625 C-20.6953125 -0.18734375 -20.6953125 -0.84734375 -20.6953125 -1.52734375 C-13.45022621 -3.52542809 -6.90706502 -3.00166844 0 0 Z " fill="#BE4543" transform="translate(196.6953125,15.52734375)"/>
<path d="M0 0 C5.94 0 11.88 0 18 0 C18 0.33 18 0.66 18 1 C12.39 1 6.78 1 1 1 C1 21.13 1 41.26 1 62 C6.61 62 12.22 62 18 62 C17.96519531 57.95492187 17.96519531 57.95492187 17.9296875 53.828125 C17.91408572 51.21354645 17.90194397 48.59897311 17.89013672 45.984375 C17.88008509 44.16859614 17.86644172 42.35283344 17.84912109 40.53710938 C17.82483594 37.92574065 17.81350852 35.31458613 17.8046875 32.703125 C17.79436493 31.89256653 17.78404236 31.08200806 17.77340698 30.24688721 C17.77202391 23.28414468 17.77202391 23.28414468 20 20 C20.66 20 21.32 20 22 20 C22 19.34 22 18.68 22 18 C22.99 18.33 23.98 18.66 25 19 C24.34 19 23.68 19 23 19 C20.66000746 23.65124833 20.6570086 27.92958273 20.5859375 33.01953125 C20.56657135 33.87810226 20.5472052 34.73667328 20.5272522 35.6212616 C20.46768444 38.35157474 20.42116266 41.08193057 20.375 43.8125 C20.33679921 45.66863773 20.29774625 47.52475812 20.2578125 49.38085938 C20.16040445 53.92048048 20.08065581 58.4599269 20 63 C13.4 63 6.8 63 0 63 C0 42.21 0 21.42 0 0 Z " fill="#ABD0EE" transform="translate(97,90)"/>
<path d="M0 0 C0.80308594 -0.02900391 1.60617188 -0.05800781 2.43359375 -0.08789062 C6.51867524 -0.13163532 8.56848989 -0.04698935 12.08203125 2.22265625 C12.75621094 2.91230469 13.43039063 3.60195312 14.125 4.3125 C14.723125 4.89 15.32125 5.4675 15.9375 6.0625 C16.5253125 6.68125 16.5253125 6.68125 17.125 7.3125 C17.125 6.6525 17.125 5.9925 17.125 5.3125 C18.445 5.6425 19.765 5.9725 21.125 6.3125 C20.465 6.6425 19.805 6.9725 19.125 7.3125 C19.3415625 7.82296875 19.558125 8.3334375 19.78125 8.859375 C22.65838744 16.37190053 23.79541116 24.73531673 20.875 32.4375 C19.13327269 35.29890915 18.28090375 36.33308159 15.125 37.3125 C17.125 33.3125 17.125 33.3125 18.17578125 31.46875 C20.42719774 26.35442118 19.67132211 20.17301505 17.875 15 C15.65746109 9.95459037 13.44597661 6.5764734 8.1875 4.5 C2.2645715 2.73698784 -3.75751302 3.05721074 -9.875 3.3125 C-9.875 3.9725 -9.875 4.6325 -9.875 5.3125 C-10.761875 5.704375 -11.64875 6.09625 -12.5625 6.5 C-15.99629608 8.37886955 -18.24041769 10.44545455 -20.875 13.3125 C-20.72259391 10.64539346 -20.38135081 8.8619129 -18.54296875 6.8671875 C-14.36875 3.3125 -14.36875 3.3125 -11.875 3.3125 C-11.875 2.6525 -11.875 1.9925 -11.875 1.3125 C-7.87750195 -0.01999935 -4.18698778 0.04992434 0 0 Z " fill="#5F3B3B" transform="translate(185.875,10.6875)"/>
<path d="M0 0 C0.7528125 0.00644531 1.505625 0.01289062 2.28125 0.01953125 C4.45990143 0.18446437 6.40204811 0.59149094 8.5 1.1875 C8.5 1.8475 8.5 2.5075 8.5 3.1875 C9.82 3.5175 11.14 3.8475 12.5 4.1875 C12.55425226 6.58364126 12.59379027 8.97853853 12.625 11.375 C12.65013672 12.38530273 12.65013672 12.38530273 12.67578125 13.41601562 C12.71538674 17.47557807 12.30020002 20.53748815 10.5 24.1875 C9.18 24.1875 7.86 24.1875 6.5 24.1875 C6.5 25.1775 6.5 26.1675 6.5 27.1875 C2.87 27.1875 -0.76 27.1875 -4.5 27.1875 C-5.16 25.5375 -5.82 23.8875 -6.5 22.1875 C-5.84 22.5175 -5.18 22.8475 -4.5 23.1875 C0.13213493 23.74262815 3.48172127 23.8239242 7.5 21.3125 C10.62493233 17.9922594 10.76734707 15.70639561 10.734375 11.15625 C10.41919369 8.508727 9.28116314 7.11709341 7.5 5.1875 C7.5 4.5275 7.5 3.8675 7.5 3.1875 C3.54 2.8575 -0.42 2.5275 -4.5 2.1875 C-4.5 2.8475 -4.5 3.5075 -4.5 4.1875 C-5.139375 4.31125 -5.77875 4.435 -6.4375 4.5625 C-7.4584375 4.871875 -7.4584375 4.871875 -8.5 5.1875 C-8.83 5.8475 -9.16 6.5075 -9.5 7.1875 C-9.25 4.8125 -9.25 4.8125 -8.5 2.1875 C-5.63665503 0.31872397 -3.38067125 -0.06367703 0 0 Z " fill="#2E6EB1" transform="translate(76.5,56.8125)"/>
<path d="M0 0 C0 0.66 0 1.32 0 2 C-0.54527344 1.855625 -1.09054688 1.71125 -1.65234375 1.5625 C-11.08218324 -0.75869126 -20.94010436 -1.14126275 -30 3 C-31.1873279 5.50180952 -31.1873279 5.50180952 -32 8 C-32.99 8.33 -33.98 8.66 -35 9 C-35 6.03 -35 3.06 -35 0 C-40.94 0 -46.88 0 -53 0 C-53 -0.33 -53 -0.66 -53 -1 C-46.73 -1.33 -40.46 -1.66 -34 -2 C-33.67 -1.01 -33.34 -0.02 -33 1 C-29.85472592 0.50855092 -27.43411607 -0.25262675 -24.5 -1.5625 C-16.51594487 -4.63795198 -7.43181707 -4.14799092 0 0 Z " fill="#3674B4" transform="translate(150,90)"/>
<path d="M0 0 C1.74120117 0.02030273 1.74120117 0.02030273 3.51757812 0.04101562 C6.36637052 0.0761859 9.21418844 0.12540713 12.0625 0.1875 C12.0625 0.5175 12.0625 0.8475 12.0625 1.1875 C11.23226318 1.20937378 11.23226318 1.20937378 10.38525391 1.23168945 C-7.35507961 0.89224334 -7.35507961 0.89224334 -22.02685547 9.18408203 C-24.06788594 11.46018953 -25.99816 13.82470778 -27.9375 16.1875 C-28.92122538 17.20351396 -29.91310104 18.21250935 -30.9375 19.1875 C-31.25 16.5 -31.25 16.5 -30.9375 13.1875 C-28.8125 10.625 -28.8125 10.625 -25.9375 8.1875 C-24.98875 7.32125 -24.04 6.455 -23.0625 5.5625 C-15.48980844 -0.19274558 -9.27813781 -0.20571198 0 0 Z " fill="#485A6F" transform="translate(62.9375,22.8125)"/>
<path d="M0 0 C0.66 0 1.32 0 2 0 C1.96519531 0.88042969 1.93039063 1.76085937 1.89453125 2.66796875 C1.86746094 3.82941406 1.84039062 4.99085937 1.8125 6.1875 C1.77769531 7.33605469 1.74289063 8.48460937 1.70703125 9.66796875 C2.03119403 13.35478005 2.88856127 15.012115 5 18 C5.45761719 18.73863281 5.91523438 19.47726563 6.38671875 20.23828125 C6.81597656 20.92277344 7.24523437 21.60726562 7.6875 22.3125 C8.12449219 23.00988281 8.56148437 23.70726563 9.01171875 24.42578125 C9.33785156 24.94527344 9.66398438 25.46476562 10 26 C5.86965823 25.15515737 4.31840494 24.44121827 1.8125 20.96875 C-0.48848954 16.6794893 -0.46262479 12.83429096 -0.25 8.0625 C-0.23195312 7.28326172 -0.21390625 6.50402344 -0.1953125 5.70117188 C-0.14866383 3.80023869 -0.07693829 1.89994831 0 0 Z " fill="#814F75" transform="translate(164,25)"/>
<path d="M0 0 C2.53554006 1.13237712 4.66136988 2.47273135 7 4 C7 4.66 7 5.32 7 6 C6.01 6 5.02 6 4 6 C3.67 5.34 3.34 4.68 3 4 C-0.3 4.33 -3.6 4.66 -7 5 C-7 4.34 -7 3.68 -7 3 C-7.99 2.67 -8.98 2.34 -10 2 C-6.22786948 -0.51475368 -4.47964158 -0.44796416 0 0 Z " fill="#1E68B0" transform="translate(132,106)"/>
<path d="M0 0 C0.66 0 1.32 0 2 0 C0.5039904 3.80802445 -1.66063151 5.69424557 -5 8 C-7.8275494 8.90666779 -10.36919628 9.11879146 -13.328125 9.09765625 C-14.12734375 9.09443359 -14.9265625 9.09121094 -15.75 9.08789062 C-16.575 9.07951172 -17.4 9.07113281 -18.25 9.0625 C-19.09046875 9.05798828 -19.9309375 9.05347656 -20.796875 9.04882812 C-22.86461401 9.03707961 -24.93231624 9.01914522 -27 9 C-27 8.67 -27 8.34 -27 8 C-25.92621094 7.96261719 -24.85242188 7.92523438 -23.74609375 7.88671875 C-22.3098638 7.82100888 -20.87366738 7.75456332 -19.4375 7.6875 C-18.73302734 7.66494141 -18.02855469 7.64238281 -17.30273438 7.61914062 C-10.11020002 7.25454211 -5.01866462 5.39041755 0 0 Z " fill="#6C4558" transform="translate(203,46)"/>
<path d="M0 0 C1.19061829 4.0672216 0.7436425 6.05785174 -1 10 C-3.6164099 14.00684488 -5.99283338 17.32855558 -10 20 C-10 18.68 -10 17.36 -10 16 C-8.53416661 14.90062496 -7.06822959 13.80138756 -5.6015625 12.703125 C-2.36413932 9.26040181 -1.32436305 4.44830178 0 0 Z " fill="#394C68" transform="translate(193,166)"/>
<path d="M0 0 C4.455 0.99 4.455 0.99 9 2 C8.67 4.97 8.34 7.94 8 11 C7.38125 10.195625 6.7625 9.39125 6.125 8.5625 C4.25835959 5.96125481 4.25835959 5.96125481 2 5 C2 4.01 2 3.02 2 2 C1.34 2 0.68 2 0 2 C0 1.34 0 0.68 0 0 Z " fill="#1D68B9" transform="translate(150,91)"/>
<path d="M0 0 C0.99 0.495 0.99 0.495 2 1 C3.87056791 1.2275015 5.74685958 1.40962811 7.625 1.5625 C8.62789062 1.64628906 9.63078125 1.73007813 10.6640625 1.81640625 C11.43492188 1.87699219 12.20578125 1.93757813 13 2 C13 2.99 13 3.98 13 5 C9.37 5 5.74 5 2 5 C1.34 3.35 0.68 1.7 0 0 Z " fill="#1F68B3" transform="translate(70,79)"/>
<path d="M0 0 C0 4.05091709 -1.58978757 5.28156908 -4.19921875 8.21484375 C-6.89892091 10.89112116 -9.83025176 12.90796616 -13 15 C-13.66 14.67 -14.32 14.34 -15 14 C-14.01 13.67 -13.02 13.34 -12 13 C-12 12.34 -12 11.68 -12 11 C-10.28340568 9.64196324 -8.46815118 8.50169742 -6.62890625 7.31640625 C-4.70046284 5.99986714 -4.70046284 5.99986714 -4 3 C-1.9375 1.3125 -1.9375 1.3125 0 0 Z " fill="#1F5EA3" transform="translate(191,170)"/>
<path d="M0 0 C0 0.99 0 1.98 0 3 C-1.32 3.33 -2.64 3.66 -4 4 C-3.67 7.96 -3.34 11.92 -3 16 C-6 13 -6 13 -6.3125 9.0625 C-6.19182388 5.93641373 -5.87275353 3.60104657 -4 1 C-2 0 -2 0 0 0 Z " fill="#D5EDFB" transform="translate(72,61)"/>
<path d="M0 0 C2.81819221 2.81819221 2.4051425 5.54105366 2.4375 9.3125 C2.47746094 10.62863281 2.51742187 11.94476563 2.55859375 13.30078125 C1.88208923 17.78084968 0.44779221 19.18403069 -3 22 C-3 19 -3 19 -1.51171875 16.76953125 C0.42747895 13.21684088 0.30018905 10.7067428 0.1875 6.6875 C0.16042969 5.43324219 0.13335937 4.17898437 0.10546875 2.88671875 C0.07066406 1.93410156 0.03585938 0.98148438 0 0 Z " fill="#733A38" transform="translate(205,26)"/>
<path d="M0 0 C0.99 0.33 1.98 0.66 3 1 C-1.75 4 -1.75 4 -4 4 C-4.33 4.99 -4.66 5.98 -5 7 C-5.99 7.33 -6.98 7.66 -8 8 C-8 6.02 -8 4.04 -8 2 C-7.05125 1.855625 -6.1025 1.71125 -5.125 1.5625 C-2.1065506 1.17064601 -2.1065506 1.17064601 0 0 Z " fill="#2265AA" transform="translate(124,89)"/>
<path d="M0 0 C0.66 0.33 1.32 0.66 2 1 C1.52949219 1.50789063 1.05898438 2.01578125 0.57421875 2.5390625 C-3.01734405 6.50985864 -5.9022425 10.06409999 -8 15 C-8.33 15 -8.66 15 -9 15 C-9.3125 12.3125 -9.3125 12.3125 -9 9 C-6.75 6.375 -6.75 6.375 -4 4 C-3.236875 3.236875 -2.47375 2.47375 -1.6875 1.6875 C-1.130625 1.130625 -0.57375 0.57375 0 0 Z " fill="#565E69" transform="translate(41,27)"/>
<path d="M0 0 C0.99 0.495 0.99 0.495 2 1 C2.33 1.99 2.66 2.98 3 4 C4.59924507 5.1539808 4.59924507 5.1539808 6.5 6.0625 C9.89821183 7.79642366 9.89821183 7.79642366 11 10 C6.60633322 9.49786665 4.12817658 8.12817658 1 5 C0.1875 2.25 0.1875 2.25 0 0 Z " fill="#3B589C" transform="translate(165,44)"/>
<path d="M0 0 C0.99 0.33 1.98 0.66 3 1 C0.71568262 3.35800504 -1.0081024 4.88720897 -4.3359375 5.265625 C-6.56920205 5.251535 -8.77382441 5.17460201 -11 5 C-11 4.67 -11 4.34 -11 4 C-7.7 3.67 -4.4 3.34 -1 3 C-0.67 2.01 -0.34 1.02 0 0 Z " fill="#C7E6F9" transform="translate(83,76)"/>
<path d="M0 0 C0.99 0.33 1.98 0.66 3 1 C0.03 3.475 0.03 3.475 -3 6 C-3 4.68 -3 3.36 -3 2 C-2.01 1.34 -1.02 0.68 0 0 Z " fill="#404856" transform="translate(186,180)"/>
<path d="M0 0 C0 0.99 0 1.98 0 3 C-1 4 -1 4 -4.5625 4.0625 C-5.696875 4.041875 -6.83125 4.02125 -8 4 C-7.67 3.34 -7.34 2.68 -7 2 C-4.6859378 1.26924352 -2.35171131 0.59861742 0 0 Z " fill="#C0433A" transform="translate(199,48)"/>
<path d="M0 0 C2.97 1.65 5.94 3.3 9 5 C6 6 6 6 3.375 4.75 C1 3 1 3 0 0 Z " fill="#4C5E75" transform="translate(39,180)"/>
<path d="M0 0 C1.98 0.66 3.96 1.32 6 2 C5.67 3.32 5.34 4.64 5 6 C3.31237149 4.3545622 1.6459651 2.68711423 0 1 C0 0.67 0 0.34 0 0 Z " fill="#2568AF" transform="translate(83,59)"/>
<path d="M0 0 C2.95929119 2.75520215 5.03681826 5.46627288 7 9 C3.17475764 7.549046 1.80909034 5.61818068 0 2 C0 1.34 0 0.68 0 0 Z " fill="#B4465B" transform="translate(167,42)"/>
<path d="M0 0 C0.66 0 1.32 0 2 0 C2.33 1.32 2.66 2.64 3 4 C2.01 4.66 1.02 5.32 0 6 C-0.66 5.67 -1.32 5.34 -2 5 C-1.34 3.35 -0.68 1.7 0 0 Z " fill="#3377B8" transform="translate(120,109)"/>
<path d="M0 0 C-2.55068845 2.35448165 -3.71017358 2.98327924 -7.25 3.1875 C-8.1575 3.125625 -9.065 3.06375 -10 3 C-7.29536552 -0.8183075 -4.37912428 -0.24787496 0 0 Z " fill="#4D85BA" transform="translate(132,106)"/>
</svg>
