<?xml version="1.0" encoding="UTF-8"?>
<svg version="1.1" xmlns="http://www.w3.org/2000/svg" width="300" height="389">
<path d="M0 0 C99 0 198 0 300 0 C300 128.37 300 256.74 300 389 C201 389 102 389 0 389 C0 260.63 0 132.26 0 0 Z " fill="#FBFBFB" transform="translate(0,0)"/>
<path d="M0 0 C7.38833514 5.14988905 11.98412626 13.49492555 15.97265625 21.375 C15.97265625 22.035 15.97265625 22.695 15.97265625 23.375 C16.63265625 23.375 17.29265625 23.375 17.97265625 23.375 C18.48054688 24.28121094 18.9884375 25.18742187 19.51171875 26.12109375 C24.1558057 34.36505702 24.1558057 34.36505702 29.28515625 42.3125 C33.98539242 49.27960756 35.81166579 54.99865881 34.97265625 63.375 C33.97265625 67 33.97265625 67 32.97265625 69.375 C32.31265625 69.375 31.65265625 69.375 30.97265625 69.375 C30.5859375 70.24898437 30.5859375 70.24898437 30.19140625 71.140625 C28.87431608 73.5552903 27.42177241 75.19240177 25.47265625 77.125 C24.86421875 77.73859375 24.25578125 78.3521875 23.62890625 78.984375 C21.97265625 80.375 21.97265625 80.375 19.97265625 80.375 C19.70453125 80.9525 19.43640625 81.53 19.16015625 82.125 C17.97265625 84.375 17.97265625 84.375 16.41015625 86.4375 C13.28074481 90.65540238 13.41242356 95.34891244 13.97265625 100.375 C17.33855805 111.8109555 25.94078009 121.98529554 32.97265625 131.375 C33.59527344 132.21675781 34.21789062 133.05851563 34.859375 133.92578125 C37.95722674 138.03161079 40.89409228 141.21411293 44.97265625 144.375 C45.99070013 145.52595516 46.98824304 146.69515181 47.97265625 147.875 C56.42163262 157.71686618 66.46218896 165.84765063 76.97265625 173.375 C77.66359375 173.88933594 78.35453125 174.40367187 79.06640625 174.93359375 C84.4285329 178.89639349 89.03259183 182.05287663 95.9453125 181.80078125 C100.9042921 180.75929999 104.24843312 177.4613347 106.97265625 173.375 C107.63265625 173.375 108.29265625 173.375 108.97265625 173.375 C109.22273437 172.80136719 109.4728125 172.22773438 109.73046875 171.63671875 C111.14560201 169.06010819 112.77679109 167.27008704 114.84765625 165.1875 C115.52570313 164.49269531 116.20375 163.79789063 116.90234375 163.08203125 C119.08662082 161.28103299 120.21626899 160.78663439 122.97265625 160.375 C124.16955078 160.13523438 124.16955078 160.13523438 125.390625 159.890625 C135.57532133 158.9138135 142.04900081 164.21690587 149.92578125 169.89990234 C151.79866439 171.2496113 153.68949288 172.56414002 155.59765625 173.86328125 C158.74248706 176.00595324 161.85903355 178.18716112 164.97265625 180.375 C165.87757813 181.00277344 166.7825 181.63054687 167.71484375 182.27734375 C169.37633243 183.43129561 171.03295844 184.59229471 172.68359375 185.76171875 C174.1950645 186.82697032 175.7211251 187.87185048 177.26171875 188.89453125 C181.96331796 192.13436053 184.3977398 194.66592788 185.97265625 200.375 C186.92478783 208.27300949 184.88539211 215.08055717 179.97265625 221.375 C179.31265625 221.375 178.65265625 221.375 177.97265625 221.375 C177.56950195 222.26493652 177.56950195 222.26493652 177.15820312 223.17285156 C175.96974893 225.38040033 174.76523236 226.84042882 173.00390625 228.609375 C172.43285156 229.18300781 171.86179687 229.75664062 171.2734375 230.34765625 C170.67917969 230.93417969 170.08492187 231.52070313 169.47265625 232.125 C168.87839844 232.72699219 168.28414062 233.32898438 167.671875 233.94921875 C167.10082031 234.51769531 166.52976562 235.08617187 165.94140625 235.671875 C165.41998047 236.19104492 164.89855469 236.71021484 164.36132812 237.24511719 C162.97265625 238.375 162.97265625 238.375 160.97265625 238.375 C160.97265625 239.035 160.97265625 239.695 160.97265625 240.375 C159.06640625 241.8125 159.06640625 241.8125 156.47265625 243.375 C155.63734375 243.890625 154.80203125 244.40625 153.94140625 244.9375 C147.2864068 248.15992079 140.81466035 248.76430298 133.53515625 248.75 C132.67059814 248.74838867 131.80604004 248.74677734 130.9152832 248.74511719 C125.00334471 248.6348057 119.41697278 247.96917904 113.66015625 246.625 C112.98605713 246.46821777 112.31195801 246.31143555 111.61743164 246.14990234 C106.83749402 244.89868514 103.18439811 242.85535606 98.97265625 240.375 C97.05455651 239.61570049 95.11748837 238.90153153 93.16015625 238.25 C88.18797716 236.59032091 88.18797716 236.59032091 85.97265625 234.375 C84.27536679 233.62427581 82.5760097 232.87724272 80.859375 232.171875 C78.16548545 231.03408314 75.57436881 229.70758448 72.97265625 228.375 C72.97265625 227.715 72.97265625 227.055 72.97265625 226.375 C71.66361328 225.98634766 71.66361328 225.98634766 70.328125 225.58984375 C66.95382562 224.36818239 64.2896289 222.88600737 61.28515625 220.9375 C59.88716797 220.04224609 59.88716797 220.04224609 58.4609375 219.12890625 C55.97265625 217.375 55.97265625 217.375 54.453125 215.83984375 C52.51713982 213.92429113 50.30985014 212.7675925 47.97265625 211.375 C46.26040627 210.05226661 44.57417576 208.69541818 42.91015625 207.3125 C41.95753906 206.52230469 41.00492187 205.73210937 40.0234375 204.91796875 C38.51330078 203.65919922 38.51330078 203.65919922 36.97265625 202.375 C35.90418037 201.49544399 34.83516523 200.61654269 33.765625 199.73828125 C32.7094643 198.86739497 31.65347052 197.99630623 30.59765625 197.125 C29.64117187 196.33609375 28.6846875 195.5471875 27.69921875 194.734375 C24.99045253 192.39039964 22.47772542 189.93398622 19.97265625 187.375 C19.38742188 186.80136719 18.8021875 186.22773438 18.19921875 185.63671875 C13.88981492 181.4008901 9.89993442 176.96452508 5.97265625 172.375 C5.17085937 171.46234375 4.3690625 170.5496875 3.54296875 169.609375 C-4.26572697 160.6450096 -11.22660377 151.11974135 -18.02734375 141.375 C-18.44516113 140.78187012 -18.86297852 140.18874023 -19.29345703 139.57763672 C-22.02734375 135.61536036 -22.02734375 135.61536036 -22.02734375 133.375 C-22.68734375 133.375 -23.34734375 133.375 -24.02734375 133.375 C-24.47464844 132.529375 -24.92195313 131.68375 -25.3828125 130.8125 C-29.33620635 123.34624611 -29.33620635 123.34624611 -33.71484375 116.125 C-46.91064712 95.58504355 -55.77462074 67.2836646 -52.71875 42.9140625 C-52.27734375 41 -52.27734375 41 -51.02734375 37.375 C-50.77082031 36.58996094 -50.51429687 35.80492187 -50.25 34.99609375 C-47.98707235 28.63464479 -44.78008675 23.21596097 -40.02734375 18.375 C-39.03734375 18.045 -38.04734375 17.715 -37.02734375 17.375 C-36.69071112 16.04249583 -36.35781755 14.70904496 -36.02734375 13.375 C-34.49609375 11.69921875 -34.49609375 11.69921875 -32.52734375 10.0625 C-31.80804688 9.464375 -31.08875 8.86625 -30.34765625 8.25 C-29.58195312 7.63125 -28.81625 7.0125 -28.02734375 6.375 C-27.26164062 5.735625 -26.4959375 5.09625 -25.70703125 4.4375 C-17.67581699 -2.09636923 -9.70798738 -5.38709126 0 0 Z " fill="#020202" transform="translate(97.02734375,42.625)"/>
<path d="M0 0 C3.63 0 7.26 0 11 0 C10.67 0.66 10.34 1.32 10 2 C9.34 2 8.68 2 8 2 C7.34 3.32 6.68 4.64 6 6 C5.34 6 4.68 6 4 6 C4 6.66 4 7.32 4 8 C3.34 8 2.68 8 2 8 C1.67 8.99 1.34 9.98 1 11 C0.67 11 0.34 11 0 11 C0 7.37 0 3.74 0 0 Z " fill="#EFEFEF" transform="translate(0,0)"/>
<path d="M0 0 C1.98 0.495 1.98 0.495 4 1 C4.33 2.32 4.66 3.64 5 5 C3.68 5 2.36 5 1 5 C0.34 4.01 -0.32 3.02 -1 2 C-0.67 1.34 -0.34 0.68 0 0 Z " fill="#1E1E1E" transform="translate(115,224)"/>
<path d="M0 0 C1.32 1.32 2.64 2.64 4 4 C3.67 4.66 3.34 5.32 3 6 C1.68 6 0.36 6 -1 6 C-1.33 4.35 -1.66 2.7 -2 1 C-1.34 0.67 -0.68 0.34 0 0 Z " fill="#272727" transform="translate(122,80)"/>
<path d="M0 0 C0.33 0 0.66 0 1 0 C1.24954005 1.43410368 1.47392642 2.87260072 1.6875 4.3125 C1.87892578 5.51326172 1.87892578 5.51326172 2.07421875 6.73828125 C2 9 2 9 -1 12 C-0.67 8.04 -0.34 4.08 0 0 Z " fill="#CACACA" transform="translate(132,98)"/>
</svg>
