<svg xmlns="http://www.w3.org/2000/svg" width="1200" height="630" viewBox="0 0 1200 630">
  <defs>
    <linearGradient id="bg" x1="0" y1="0" x2="0" y2="1">
      <stop offset="0%" stop-color="#050505"/>
      <stop offset="100%" stop-color="#0a0a0a"/>
    </linearGradient>
    <linearGradient id="line" x1="0" y1="0" x2="1" y2="0">
      <stop offset="0%" stop-color="#C9A96E" stop-opacity="0"/>
      <stop offset="0.3" stop-color="#C9A96E" stop-opacity="0.6"/>
      <stop offset="0.7" stop-color="#C9A96E" stop-opacity="0.6"/>
      <stop offset="1" stop-color="#C9A96E" stop-opacity="0"/>
    </linearGradient>
  </defs>
  <rect width="1200" height="630" fill="url(#bg)"/>
  <!-- Subtle signal texture -->
  <line x1="0" y1="315" x2="1200" y2="315" stroke="rgba(255,255,255,0.03)" stroke-width="0.5"/>
  <line x1="0" y1="310" x2="1200" y2="310" stroke="rgba(255,255,255,0.015)" stroke-width="0.5"/>
  <line x1="0" y1="320" x2="1200" y2="320" stroke="rgba(255,255,255,0.015)" stroke-width="0.5"/>
  <!-- Archive grid dots -->
  <g fill="rgba(255,255,255,0.02)">
    <circle cx="60" cy="60" r="1"/><circle cx="180" cy="60" r="1"/><circle cx="300" cy="60" r="1"/>
    <circle cx="420" cy="60" r="1"/><circle cx="540" cy="60" r="1"/><circle cx="660" cy="60" r="1"/>
    <circle cx="780" cy="60" r="1"/><circle cx="900" cy="60" r="1"/><circle cx="1020" cy="60" r="1"/>
    <circle cx="1140" cy="60" r="1"/><circle cx="60" cy="570" r="1"/><circle cx="180" cy="570" r="1"/>
    <circle cx="300" cy="570" r="1"/><circle cx="420" cy="570" r="1"/><circle cx="540" cy="570" r="1"/>
    <circle cx="660" cy="570" r="1"/><circle cx="780" cy="570" r="1"/><circle cx="900" cy="570" r="1"/>
    <circle cx="1020" cy="570" r="1"/><circle cx="1140" cy="570" r="1"/>
  </g>
  <!-- Gold rule -->
  <rect x="80" y="240" width="4" height="150" fill="#C9A96E" opacity="0.7"/>
  <!-- Top rule line -->
  <line x1="80" y1="230" x2="1120" y2="230" stroke="url(#line)" stroke-width="0.5"/>
  <!-- Bottom rule line -->
  <line x1="80" y1="420" x2="1120" y2="420" stroke="url(#line)" stroke-width="0.5"/>
  <!-- Text hierarchy -->
  <text font-family="'JetBrains Mono', 'Courier New', monospace" font-size="11" fill="#C9A96E" opacity="0.7" letter-spacing="6" x="100" y="280">ABRAHAM OF LONDON</text>
  <text font-family="'Cormorant Garamond', Georgia, serif" font-size="52" fill="#ffffff" opacity="0.92" x="100" y="340" font-style="italic">Intelligence Briefs</text>
  <text font-family="'JetBrains Mono', 'Courier New', monospace" font-size="12" fill="rgba(255,255,255,0.45)" letter-spacing="2" x="100" y="380">Public evidence base for decision, governance, and sovereignty doctrine</text>
  <text font-family="'JetBrains Mono', 'Courier New', monospace" font-size="9" fill="rgba(255,255,255,0.25)" letter-spacing="3" x="100" y="405">Institutional Alpha · Sovereign Intelligence</text>
</svg>
