<?xml version="1.0" encoding="UTF-8"?>
<svg version="1.1" xmlns="http://www.w3.org/2000/svg" width="1536" height="1024">
<path d="M0 0 C506.88 0 1013.76 0 1536 0 C1536 337.92 1536 675.84 1536 1024 C1029.12 1024 522.24 1024 0 1024 C0 686.08 0 348.16 0 0 Z " fill="#10152D" transform="translate(0,0)"/>
<path d="M0 0 C13.2 0 26.4 0 40 0 C42.31 5.28 44.62 10.56 47 16 C48.67482055 19.65536951 48.67482055 19.65536951 50.37109375 23.30078125 C51 25 51 25 51 28 C51.66 28 52.32 28 53 28 C60.2579001 44.43221203 60.2579001 44.43221203 63.17578125 51.984375 C63.97048975 54.03641992 63.97048975 54.03641992 65.10546875 56.015625 C66 58 66 58 66 62 C66.66 62 67.32 62 68 62 C72.68436254 69.88474763 72.68436254 69.88474763 73.9375 74.3125 C75.25588131 78.88805865 77.35220654 82.83007295 79.5625 87.03515625 C81.7288472 91.50324735 83 95.00677531 83 100 C83.66 100 84.32 100 85 100 C85.4021875 101.6396875 85.4021875 101.6396875 85.8125 103.3125 C86.62622301 106.85990263 86.62622301 106.85990263 88.38671875 108.30078125 C90.77173315 110.81284242 91.703334 113.68060928 93 116.875 C94.40770818 120.32828414 95.74027825 123.57554733 97.6875 126.7578125 C99 129 99 129 99 132 C99.99 132.33 100.98 132.66 102 133 C102.6953125 135.03125 102.6953125 135.03125 103.125 137.5 C103.47887416 140.53930366 103.47887416 140.53930366 105 143 C105.04063832 144.66617115 105.042721 146.33388095 105 148 C105.66 148 106.32 148 107 148 C107.67595315 149.41225926 108.34040059 150.83002905 109 152.25 C109.37125 153.03890625 109.7425 153.8278125 110.125 154.640625 C111 157 111 157 111 161 C111.66 161 112.32 161 113 161 C116.64411259 166.66861958 118.73045693 172.63171965 120.8515625 178.98828125 C121.78809635 182.06060343 121.78809635 182.06060343 124 184 C124.67628107 185.47758889 125.2939123 186.98244865 125.875 188.5 C126.39707031 189.84191406 126.39707031 189.84191406 126.9296875 191.2109375 C127.28289062 192.13132812 127.63609375 193.05171875 128 194 C130.12844598 199.49436055 132.35551409 204.81813318 135.05859375 210.0546875 C136.61877456 213.2786296 137.7675582 216.6387951 139 220 C139.37125 220.680625 139.7425 221.36125 140.125 222.0625 C141 224 141 224 141.4375 227.625 C141.623125 228.73875 141.80875 229.8525 142 231 C142.99 231.66 143.98 232.32 145 233 C145.94921875 234.83984375 145.94921875 234.83984375 146.6875 236.9375 C146.93886719 237.62714844 147.19023438 238.31679688 147.44921875 239.02734375 C148 241 148 241 148 244 C148.66 244 149.32 244 150 244 C150.99 246.97 151.98 249.94 153 253 C139.8 253 126.6 253 113 253 C106.94804567 242.40907992 102.11913224 231.44985812 97.56860352 220.15600586 C95.37276742 214.76068288 92.8831027 209.57251288 90.1640625 204.41796875 C89 202 89 202 88.5234375 199.80078125 C88.0923289 197.5963306 88.0923289 197.5963306 85 196 C84.62599214 193.67284 84.29235267 191.33882138 84 189 C83.34 188.34 82.68 187.68 82 187 C81.875 183.375 81.875 183.375 82 180 C81.34 180 80.68 180 80 180 C80 178.35 80 176.7 80 175 C79.34 175 78.68 175 78 175 C77.20168544 173.62884903 76.4116939 172.25285116 75.625 170.875 C75.18414062 170.10929688 74.74328125 169.34359375 74.2890625 168.5546875 C73 166 73 166 72.109375 163.18359375 C70.72541768 159.21202608 68.74394821 155.80615059 66.625 152.1875 C63.76257396 147.20998362 61.09681059 142.28999204 58.8828125 136.984375 C57.92619096 134.83409295 56.80602351 132.8477229 55.625 130.8125 C51.07463688 122.78655279 47.77271007 114.1307287 44.5625 105.5 C42.33662621 99.62141024 39.62860056 94.08574793 36.76953125 88.4921875 C33.04834039 81.14838038 29.53245069 73.73355824 26.78515625 65.96875 C25.46448224 62.65720919 23.76176012 59.53796823 22.0859375 56.39453125 C21 54 21 54 20.4765625 51.26171875 C20.31929687 50.51535156 20.16203125 49.76898438 20 49 C19.34 48.67 18.68 48.34 18 48 C17.82984375 48.56847656 17.6596875 49.13695312 17.484375 49.72265625 C16.27532201 53.57490489 15.06678501 57.11736471 12.9375 60.5625 C10.7514579 64.4409618 9.91192094 67.66837551 9 72 C8.34 72 7.68 72 7 72 C6.7525 73.11375 6.505 74.2275 6.25 75.375 C4.9872348 80.45312003 3.01237568 85.18130354 1 90 C0.69578125 90.81082031 0.3915625 91.62164062 0.078125 92.45703125 C-1.13482397 95.31800872 -2.63215357 97.84731487 -4.25 100.5 C-8.65781421 107.95655237 -12.52037846 115.70705968 -15.4375 123.875 C-17.55366259 129.78780723 -20.41219987 135.4130918 -23.09472656 141.08496094 C-26.64021306 148.58517563 -30.11716214 156.07561666 -33.13671875 163.8046875 C-34.3539156 166.90000257 -35.68986457 169.94301733 -37 173 C-37.30808594 173.85207031 -37.61617188 174.70414063 -37.93359375 175.58203125 C-38.26488281 176.48308594 -38.59617187 177.38414062 -38.9375 178.3125 C-39.23527344 179.15425781 -39.53304687 179.99601563 -39.83984375 180.86328125 C-41.23099441 183.42543415 -42.42680854 183.79564029 -45 185 C-45.20660359 186.58396087 -45.40068224 188.17034576 -45.5390625 189.76171875 C-46.3642602 193.76882281 -48.49886256 197.20745499 -50.3828125 200.80859375 C-52.44069989 204.86969036 -54.13239743 209.03974001 -55.84765625 213.25390625 C-57.11553816 216.2753333 -58.54115557 219.17400643 -60.0390625 222.0859375 C-61.43470414 224.8658741 -62.67375656 227.70830687 -63.91796875 230.55859375 C-64.71264709 232.35164055 -65.53128475 234.13411787 -66.36328125 235.91015625 C-66.82089844 236.88855469 -67.27851563 237.86695313 -67.75 238.875 C-68.17796875 239.77992188 -68.6059375 240.68484375 -69.046875 241.6171875 C-70.18569534 244.03651041 -70.18569534 244.03651041 -70 247 C-71.98 248.65 -73.96 250.3 -76 252 C-63.13 252.33 -50.26 252.66 -37 253 C-37 253.33 -37 253.66 -37 254 C-62.74 254 -88.48 254 -115 254 C-113.875 247.25 -113.875 247.25 -112 244 C-111.34 244 -110.68 244 -110 244 C-109.86722656 243.44828125 -109.73445313 242.8965625 -109.59765625 242.328125 C-108.94339359 239.77949398 -108.19964936 237.26840657 -107.4375 234.75 C-107.16808594 233.85796875 -106.89867187 232.9659375 -106.62109375 232.046875 C-106.31365234 231.03367187 -106.31365234 231.03367187 -106 230 C-105.34 230 -104.68 230 -104 230 C-103.773125 228.72125 -103.54625 227.4425 -103.3125 226.125 C-102.28658235 221.48290453 -100.48548846 217.63592864 -98.28125 213.4453125 C-96.32590442 209.71346391 -94.67915552 205.86205769 -93 202 C-92.42228948 200.6847137 -91.84412412 199.36962714 -91.265625 198.0546875 C-90.6352889 196.61984779 -90.00508154 195.18495152 -89.375 193.75 C-88.92278076 192.72108643 -88.92278076 192.72108643 -88.46142578 191.67138672 C-87.24078789 188.8835941 -86.03783652 186.09561576 -84.91796875 183.265625 C-84.0385054 181.09503459 -83.03391605 179.06776563 -81.9375 177 C-80.41590733 174.01337945 -79.41996883 171.35975066 -79 168 C-78.34 168 -77.68 168 -77 168 C-76.88527344 167.44183594 -76.77054687 166.88367188 -76.65234375 166.30859375 C-75.91078504 163.6842752 -74.81875329 161.48181271 -73.5625 159.0625 C-71.85151054 155.75799199 -70.3512852 152.46682188 -69 149 C-66.99068426 144.27064985 -64.83825612 139.63828735 -62.5 135.0625 C-60.40011762 130.92053018 -58.65082335 126.71920184 -56.9765625 122.390625 C-55.76563375 119.42627143 -54.33962158 116.61204041 -52.83203125 113.7890625 C-51.94607286 111.88404399 -51.4467402 110.0486874 -51 108 C-50.34 108 -49.68 108 -49 108 C-48.867146 107.41968018 -48.73429199 106.83936035 -48.59741211 106.24145508 C-48.02693729 104.10106714 -47.30808017 102.17265424 -46.44140625 100.13671875 C-46.13783203 99.41419922 -45.83425781 98.69167969 -45.52148438 97.94726562 C-44.88697165 96.45209003 -44.25156856 94.95729193 -43.61523438 93.46289062 C-42.171362 90.02262812 -40.93568367 86.76045203 -39.96484375 83.14453125 C-38.99916613 79.99728234 -38.36753934 79.09555049 -36 77 C-34.93120375 75.01009679 -34.93120375 75.01009679 -34.0625 72.8125 C-32.80965865 69.86547546 -31.52045512 66.97624289 -30.0625 64.125 C-27.97313575 60.02030409 -26.10566815 55.82628424 -24.24609375 51.61328125 C-23 49 -23 49 -21.41796875 46.3671875 C-19.80190625 43.66929803 -18.93180274 40.99508022 -18 38 C-17.505 37.01 -17.505 37.01 -17 36 C-16.34 36 -15.68 36 -15 36 C-15 35.01 -15 34.02 -15 33 C-14.34 33 -13.68 33 -13 33 C-12.938125 32.01 -12.87625 31.02 -12.8125 30 C-12.37506099 26.79640257 -11.379106 24.7857935 -9.5625 22.125 C-7.61472657 19.24495895 -6.61294703 16.98429168 -6 13.5625 C-5 9 -5 9 0 0 Z " fill="#0F2971" transform="translate(403,356)"/>
<path d="M0 0 C1.159552 -0.01546875 1.159552 -0.01546875 2.3425293 -0.03125 C3.08929932 -0.01964844 3.83606934 -0.00804687 4.60546875 0.00390625 C5.60356567 0.01852905 5.60356567 0.01852905 6.62182617 0.03344727 C9.80954457 0.62139711 12.06358671 1.71645715 14.8125 3.4375 C16.5793457 6.10131836 16.5793457 6.10131836 17.98828125 9.27734375 C18.50583984 10.42267578 19.02339844 11.56800781 19.55664062 12.74804688 C20.07419922 13.94494141 20.59175781 15.14183594 21.125 16.375 C21.9303418 18.16454102 21.9303418 18.16454102 22.75195312 19.99023438 C26.97433915 29.46264892 26.97433915 29.46264892 27.8125 33.4375 C27.1733667 33.47713867 26.5342334 33.51677734 25.87573242 33.55761719 C4.30272588 34.96586322 -9.59613744 39.38280711 -25.94873047 53.88110352 C-29.98955305 57.4375 -29.98955305 57.4375 -32.1875 57.4375 C-32.5175 58.4275 -32.8475 59.4175 -33.1875 60.4375 C-34.57717542 61.63767423 -35.96959326 62.83733005 -37.421875 63.9609375 C-41.70760981 67.54502546 -45.48580311 71.75655538 -49.390625 75.74609375 C-50.89154758 77.26916803 -52.39393263 78.79078294 -53.89697266 80.31176758 C-54.91957102 81.34943751 -55.93945876 82.38978606 -56.95654297 83.43286133 C-66.00321571 92.7035776 -75.4816166 102.34330093 -89.2265625 102.77807617 C-91.08860923 102.77760754 -92.95070416 102.76103807 -94.8125 102.73046875 C-95.80000244 102.72622391 -96.78750488 102.72197906 -97.80493164 102.71760559 C-100.93274177 102.70092646 -104.0598874 102.66329435 -107.1875 102.625 C-109.31900106 102.60993925 -111.4505123 102.59625329 -113.58203125 102.58398438 C-118.78407764 102.5510584 -123.98574133 102.50096767 -129.1875 102.4375 C-125.97774061 98.48463227 -123.43688673 95.62805255 -119 93 C-103.40203202 83.44467645 -90.18928264 71.67067749 -78.2578125 57.796875 C-60.43580347 37.48650999 -41.86564717 17.85511673 -18.1875 4.4375 C-17.46820313 3.98246094 -16.74890625 3.52742188 -16.0078125 3.05859375 C-10.85615645 0.18208541 -5.77703711 0.06478704 0 0 Z " fill="#D33249" transform="translate(455.1875,506.5625)"/>
<path d="M0 0 C2.16834102 -0.00215446 4.3361458 -0.02021733 6.50439453 -0.03930664 C32.324206 -0.14524568 32.324206 -0.14524568 40.65673828 7.95483398 C45.16298568 13.6033627 45.45931886 18.78545395 45.34033203 25.85327148 C44.38303073 32.18333357 41.46992739 35.92749045 36.83642578 40.18530273 C37.30693359 40.54881836 37.77744141 40.91233398 38.26220703 41.28686523 C38.88482422 41.78959961 39.50744141 42.29233398 40.14892578 42.81030273 C40.76380859 43.29756836 41.37869141 43.78483398 42.01220703 44.28686523 C46.41673331 48.87059066 47.24980713 53.35531741 47.21142578 59.56030273 C47.04121128 67.10894566 46.41810911 72.21636691 41.33642578 78.06030273 C27.90306345 89.47866072 -2.32100563 84.18530273 -15.16357422 84.18530273 C-15.16357422 56.79530273 -15.16357422 29.40530273 -15.16357422 1.18530273 C-10.78688508 -1.00304183 -4.86492131 -0.00054019 0 0 Z " fill="#F8F9FA" transform="translate(741.16357421875,413.814697265625)"/>
<path d="M0 0 C5.17369157 -0.10006396 10.34680047 -0.17202268 15.52124023 -0.21972656 C17.27557202 -0.23964572 19.02983916 -0.26679134 20.78393555 -0.30175781 C33.47292741 -0.54807567 46.52285727 -0.78680226 56.6328125 8.14453125 C60.65022423 13.59673288 61.5568027 18.84322316 61.5 25.4375 C61.49572998 26.18668701 61.49145996 26.93587402 61.48706055 27.70776367 C61.25611948 35.18682692 58.89869119 39.10130881 53.6875 44.3125 C50.24276606 46.47547248 46.85160563 47.69437097 43 49 C43.78375 49.969375 44.5675 50.93875 45.375 51.9375 C50.11220484 58.231215 53.92219421 65.14251569 57.82910156 71.96923828 C58.60436228 73.31382099 59.39267011 74.65097191 60.19433594 75.97998047 C63 80.67952946 63 80.67952946 63 84 C58.2656721 85.19758886 53.58584957 86.00991303 49 84 C42.502837 77.78158082 38.65046451 68.42443959 34.78125 60.43359375 C34.42458252 59.74531494 34.06791504 59.05703613 33.70043945 58.34790039 C32.6875 56.375 32.6875 56.375 31.90698242 54.45874023 C30.94708711 52.32881515 30.94708711 52.32881515 28 50 C23.05 49.67 18.1 49.34 13 49 C13 60.55 13 72.1 13 84 C8.38 84 3.76 84 -1 84 C-1.21110954 55.99280107 -0.57515426 27.99993335 0 0 Z " fill="#F7F9FA" transform="translate(813,414)"/>
<path d="M0 0 C5.08126199 4.02401427 8.60831014 9.20680386 9.83984375 15.64453125 C10.11877115 20.01580453 10.11732877 24.39032447 10.15234375 28.76953125 C10.18134766 29.95546875 10.21035156 31.14140625 10.24023438 32.36328125 C10.30292458 41.1013315 9.27152135 48.24174795 3.796875 55.265625 C3.08917969 55.86503906 2.38148437 56.46445312 1.65234375 57.08203125 C0.95753906 57.69949219 0.26273438 58.31695313 -0.453125 58.953125 C-7.0909856 63.10059057 -13.87815955 64.18030369 -21.59765625 64.08203125 C-22.84325317 64.07175903 -22.84325317 64.07175903 -24.11401367 64.0612793 C-33.31827425 63.82046229 -40.65705272 61.45010471 -47.16015625 54.64453125 C-52.6441282 46.32916074 -53.38367448 39.83125435 -53.47265625 30.01953125 C-53.50166016 28.97667969 -53.53066406 27.93382812 -53.56054688 26.859375 C-53.63764145 17.35895126 -51.46594231 9.18189668 -44.859375 2.109375 C-41.92070308 -0.42396286 -38.75112599 -1.94599542 -35.16015625 -3.35546875 C-34.12890625 -3.76796875 -33.09765625 -4.18046875 -32.03515625 -4.60546875 C-21.0046492 -6.7404056 -9.70074414 -6.08708538 0 0 Z " fill="#F6F8F9" transform="translate(1168.16015625,542.35546875)"/>
<path d="M0 0 C6.27 0 12.54 0 19 0 C20.74367613 4.26346923 22.4858443 8.5275015 24.22460938 12.79296875 C24.81331814 14.23600758 25.40280416 15.67872963 25.99316406 17.12109375 C29.20298892 24.96489783 32.36111682 32.82554041 35.3671875 40.75 C35.61840363 41.40540771 35.86961975 42.06081543 36.12844849 42.73608398 C37.4030031 46.13194581 38.4130122 49.41826369 39 53 C39.66 53 40.32 53 41 53 C41.10940918 52.3080957 41.21881836 51.61619141 41.33154297 50.90332031 C42.10050779 47.56346288 43.31250883 44.68351139 44.6953125 41.546875 C44.9638504 40.93323593 45.23238831 40.31959686 45.50906372 39.68736267 C46.37675039 37.70632655 47.25089835 35.72821274 48.125 33.75 C49.31245981 31.04408835 50.49633914 28.33661805 51.6796875 25.62890625 C51.96948486 24.9668367 52.25928223 24.30476715 52.55786133 23.62263489 C55.16328683 17.65736891 57.66091176 11.65229846 60.08251953 5.61035156 C61.90280026 1.09719974 61.90280026 1.09719974 63 0 C64.34267413 -0.08631874 65.68974322 -0.10706473 67.03515625 -0.09765625 C67.84404297 -0.09443359 68.65292969 -0.09121094 69.48632812 -0.08789062 C70.33646484 -0.07951172 71.18660156 -0.07113281 72.0625 -0.0625 C72.91650391 -0.05798828 73.77050781 -0.05347656 74.65039062 -0.04882812 C76.76695663 -0.03700373 78.88348685 -0.01906769 81 0 C81.15365972 10.78723754 81.30184149 21.57453492 81.4429636 32.3619442 C81.50866059 37.37056991 81.57626875 42.37915485 81.64819336 47.38769531 C81.71749075 52.21812453 81.78183492 57.04859631 81.84269524 61.87913895 C81.86683424 63.72520991 81.89278031 65.57125813 81.92053413 67.41727829 C81.95900105 69.99608552 81.99113352 72.57489768 82.02172852 75.15380859 C82.03467453 75.92272934 82.04762054 76.69165009 82.06095886 77.48387146 C82.11405216 82.77189568 82.11405216 82.77189568 81 85 C79.18757948 85.02687279 77.37504767 85.04633715 75.5625 85.0625 C74.55316406 85.07410156 73.54382812 85.08570313 72.50390625 85.09765625 C70 85 70 85 69 84 C68.85113763 81.08356363 68.76439847 78.18818123 68.71875 75.26953125 C68.70065781 74.37472046 68.68256561 73.47990967 68.66392517 72.5579834 C68.62534892 70.63802928 68.5888388 68.71803278 68.5541687 66.79800415 C68.4646668 61.86511318 68.3598029 56.93256256 68.25390625 52 C68.23344742 51.03757889 68.21298859 50.07515778 68.19190979 49.08357239 C67.97075165 39.045519 67.53350459 29.02600624 67 19 C66.60731934 19.98693848 66.21463867 20.97387695 65.81005859 21.99072266 C64.32460078 25.72274264 62.83670465 29.45378676 61.34814453 33.18457031 C60.70947892 34.78620137 60.07143727 36.38808141 59.43408203 37.99023438 C47.82059703 67.17940297 47.82059703 67.17940297 46 69 C43.81360547 69.07258946 41.62499611 69.08373783 39.4375 69.0625 C37.64119141 69.04896484 37.64119141 69.04896484 35.80859375 69.03515625 C34.41833984 69.01775391 34.41833984 69.01775391 33 69 C21.38665588 42.15432376 21.38665588 42.15432376 16.25 29.4375 C15.91548828 28.61862305 15.58097656 27.79974609 15.23632812 26.95605469 C13 21.36042507 13 21.36042507 13 18 C12.34 18 11.68 18 11 18 C11.00523682 19.21768066 11.01047363 20.43536133 11.01586914 21.68994141 C11.1759426 62.46181718 11.1759426 62.46181718 10.5625 75.6875 C10.52326416 76.55648926 10.48402832 77.42547852 10.44360352 78.32080078 C10.13933744 83.86066256 10.13933744 83.86066256 9 85 C7.14712498 85.07226502 5.29166122 85.0838122 3.4375 85.0625 C1.91962891 85.04896484 1.91962891 85.04896484 0.37109375 85.03515625 C-0.41136719 85.02355469 -1.19382812 85.01195312 -2 85 C-2.2429951 56.58452701 -1.86287028 28.35887346 0 0 Z " fill="#F7F8F9" transform="translate(1176,414)"/>
<path d="M0 0 C5.55947944 4.4823303 8.5055767 9.55005481 9.875 16.57421875 C11.05905658 29.92994515 12.10237506 44.46960341 3.37109375 55.46875 C-3.14745945 61.92447378 -12.15122248 63.98099629 -21.0625 64.19921875 C-29.63901868 64.14144052 -36.6107647 61.50510356 -43.08984375 55.86328125 C-51.94386173 46.2948804 -51.67365228 33.91437586 -51.25683594 21.68261719 C-50.66987523 12.2955938 -46.30794686 5.75716561 -39.8125 -0.73828125 C-27.96418491 -8.17792096 -11.61743135 -7.7947839 0 0 Z " fill="#F6F8F9" transform="translate(683.125,542.42578125)"/>
<path d="M0 0 C7.56561159 -0.35408479 13.82313707 1.28849225 19.89453125 5.92578125 C26.47164932 12.02788524 29.75667466 18.41656701 30.125 27.4453125 C30.1263143 29.69539689 30.10639571 31.94558311 30.06640625 34.1953125 C30.07349609 35.319375 30.08058594 36.4434375 30.08789062 37.6015625 C30.02024791 46.50958806 28.98690788 54.87677665 22.58984375 61.5546875 C14.27408718 68.5120934 6.06233282 70.1618681 -4.4453125 69.57421875 C-13.00354242 68.74820054 -17.82228426 66.33581468 -24.328125 60.71875 C-30.68309744 52.86920469 -30.99576255 45.0233694 -30.87109375 35.1953125 C-30.8865625 33.97585938 -30.90203125 32.75640625 -30.91796875 31.5 C-30.87282957 21.05028043 -28.52265078 13.55865799 -21.35546875 5.85546875 C-15.4219098 0.89136924 -7.40864 0.61026689 0 0 Z " fill="#F7F9F9" transform="translate(902.37109375,536.8046875)"/>
<path d="M0 0 C41.75711634 0 41.75711634 0 49.59765625 7.453125 C55.84774532 14.34737367 55.24329367 21.71341498 55.29516602 30.56982422 C55.3066323 31.92930555 55.32699887 33.28874378 55.35668945 34.64794922 C55.55521952 43.75371395 55.51911719 52.58611153 49.41552734 59.89819336 C37.60830916 71.69605559 13.41689226 68 0 68 C0 45.56 0 23.12 0 0 Z " fill="#F7F9F9" transform="translate(1038,538)"/>
<path d="M0 0 C1.24394531 -0.06058594 2.48789062 -0.12117188 3.76953125 -0.18359375 C7.1875 0.4375 7.1875 0.4375 9.24829102 3.07080078 C11.12755542 6.33342902 12.42433438 9.36633446 13.6328125 12.92578125 C13.84419357 13.53760254 14.05557465 14.14942383 14.27336121 14.77978516 C14.72533322 16.08872233 15.17381243 17.39887001 15.61904907 18.71011353 C16.80516275 22.19923893 18.01992601 25.6782721 19.23828125 29.15625 C19.48396347 29.85800858 19.72964569 30.55976715 19.98277283 31.28279114 C22.29959831 37.84923337 24.86395594 44.3054383 27.5 50.75 C30.46349618 58.02403608 33.30941115 65.30336795 35.8125 72.75 C36.06040283 73.47936768 36.30830566 74.20873535 36.5637207 74.96020508 C37.66569293 78.33187481 38.1875 80.84574572 38.1875 84.4375 C33.8975 84.4375 29.6075 84.4375 25.1875 84.4375 C22.8775 78.1675 20.5675 71.8975 18.1875 65.4375 C6.6375 65.4375 -4.9125 65.4375 -16.8125 65.4375 C-18.74535685 71.31520544 -18.74535685 71.31520544 -20.67163086 77.19506836 C-20.91276611 77.92346924 -21.15390137 78.65187012 -21.40234375 79.40234375 C-21.64847412 80.1512085 -21.89460449 80.90007324 -22.14819336 81.67163086 C-22.8125 83.4375 -22.8125 83.4375 -23.8125 84.4375 C-25.83214199 84.50994053 -27.85417124 84.52127188 -29.875 84.5 C-30.97972656 84.49097656 -32.08445312 84.48195313 -33.22265625 84.47265625 C-34.07730469 84.46105469 -34.93195312 84.44945312 -35.8125 84.4375 C-35.18044152 79.80388502 -33.95204879 75.56986208 -32.37109375 71.1875 C-32.12780334 70.50088791 -31.88451294 69.81427582 -31.6338501 69.1068573 C-30.84404866 66.88199109 -30.04711147 64.65975648 -29.25 62.4375 C-28.70054271 60.89377305 -28.15147302 59.3499081 -27.6027832 57.8059082 C-24.30412034 48.53816669 -20.95081224 39.29087964 -17.55615234 30.05786133 C-14.87238817 22.71405502 -12.39385434 15.30685503 -9.98120117 7.86987305 C-9.71025635 7.04011963 -9.43931152 6.21036621 -9.16015625 5.35546875 C-8.80449585 4.25368286 -8.80449585 4.25368286 -8.44165039 3.12963867 C-6.98050024 -0.80021453 -3.79671817 0.12903368 0 0 Z " fill="#F7F9FA" transform="translate(931.8125,413.5625)"/>
<path d="M0 0 C1.39456452 0.00667256 2.78911118 0.01863093 4.18359375 0.03515625 C5.2499707 0.04192383 5.2499707 0.04192383 6.33789062 0.04882812 C8.09899388 0.06064761 9.86005411 0.07858362 11.62109375 0.09765625 C15.19152103 8.35800258 18.34139536 16.72630866 21.29919434 25.22198486 C24.51194776 34.44521526 27.74624921 43.65156467 31.37109375 52.72265625 C33.98419834 59.2778023 36.32127165 65.90491869 38.55859375 72.59765625 C38.86571289 73.51369629 39.17283203 74.42973633 39.48925781 75.37353516 C41.62109375 81.83912062 41.62109375 81.83912062 41.62109375 84.09765625 C37.33109375 84.09765625 33.04109375 84.09765625 28.62109375 84.09765625 C21.62109375 68.64938039 21.62109375 68.64938039 21.62109375 63.09765625 C4.29609375 63.59265625 4.29609375 63.59265625 -13.37890625 64.09765625 C-15.35890625 69.04765625 -15.35890625 69.04765625 -17.37890625 74.09765625 C-18.71223958 77.43098958 -20.04557292 80.76432292 -21.37890625 84.09765625 C-25.33890625 84.09765625 -29.29890625 84.09765625 -33.37890625 84.09765625 C-31.84412132 76.07688752 -29.2145908 68.5760798 -26.44140625 60.91015625 C-25.95327961 59.54911051 -25.46549274 58.18794287 -24.97802734 56.82666016 C-23.45449625 52.58019867 -21.91845596 48.33833284 -20.37890625 44.09765625 C-20.1282843 43.40698059 -19.87766235 42.71630493 -19.6194458 42.00469971 C-15.34963004 30.24424669 -11.06344354 18.48956429 -6.62109375 6.79296875 C-6.21487793 5.72320801 -5.80866211 4.65344727 -5.39013672 3.55126953 C-3.97385369 0.11485126 -3.97385369 0.11485126 0 0 Z " fill="#F7F9FA" transform="translate(664.37890625,414.90234375)"/>
<path d="M0 0 C1.93166016 0.01740234 1.93166016 0.01740234 3.90234375 0.03515625 C5.19269531 0.04417969 6.48304687 0.05320312 7.8125 0.0625 C8.81152344 0.07410156 9.81054688 0.08570313 10.83984375 0.09765625 C14.5477284 6.92473296 17.11108681 14.07608734 19.69891357 21.3767395 C24.38677595 34.58729182 29.37062816 47.64471893 34.63671875 60.63671875 C36.64048709 65.58038555 38.58250348 70.54403306 40.46484375 75.53515625 C40.83681885 76.51174194 40.83681885 76.51174194 41.21630859 77.50805664 C42.83984375 81.85283772 42.83984375 81.85283772 42.83984375 84.09765625 C38.21984375 84.09765625 33.59984375 84.09765625 28.83984375 84.09765625 C21.83984375 68.8907597 21.83984375 68.8907597 21.83984375 64.09765625 C4.51484375 64.59265625 4.51484375 64.59265625 -13.16015625 65.09765625 C-15.05108121 70.60010919 -15.05108121 70.60010919 -16.92919922 76.10693359 C-17.16783691 76.79223145 -17.40647461 77.4775293 -17.65234375 78.18359375 C-18.01368408 79.23619385 -18.01368408 79.23619385 -18.38232422 80.31005859 C-19.16015625 82.09765625 -19.16015625 82.09765625 -21.16015625 84.09765625 C-23.98046875 84.29296875 -23.98046875 84.29296875 -27.28515625 84.22265625 C-28.38085938 84.20460938 -29.4765625 84.1865625 -30.60546875 84.16796875 C-31.44851563 84.14476562 -32.2915625 84.1215625 -33.16015625 84.09765625 C-31.10489208 76.9592969 -28.75192911 69.97104687 -26.2109375 62.9921875 C-25.83462692 61.95108322 -25.45831635 60.90997894 -25.07060242 59.83732605 C-23.87384036 56.52733857 -22.67352291 53.21865655 -21.47265625 49.91015625 C-19.90441855 45.58399444 -18.33816593 41.25711977 -16.7734375 36.9296875 C-16.39003204 35.87065216 -16.00662659 34.81161682 -15.61160278 33.7204895 C-12.53277525 25.19159837 -9.54541841 16.63252644 -6.61872864 8.05024719 C-6.30908676 7.14896591 -5.99944489 6.24768463 -5.68041992 5.3190918 C-5.40977219 4.5250444 -5.13912445 3.73099701 -4.86027527 2.91288757 C-3.67986038 -0.14762932 -3.52628278 0.10897042 0 0 Z " fill="#F7F9F9" transform="translate(1112.16015625,413.90234375)"/>
<path d="M0 0 C4.29 0 8.58 0 13 0 C13.33 10.89 13.66 21.78 14 33 C26.54 33.33 39.08 33.66 52 34 C52 22.78 52 11.56 52 0 C55.96 0 59.92 0 64 0 C67.25595377 3.25595377 67.34833443 4.06630955 67.3843689 8.4390564 C67.37515411 9.17475861 67.36593933 9.91046082 67.35644531 10.66845703 C67.35848969 11.44757446 67.36053406 12.22669189 67.36264038 13.02941895 C67.36564968 15.6057885 67.34716981 18.18151898 67.328125 20.7578125 C67.32506802 22.54474733 67.32319143 24.33168454 67.32244873 26.11862183 C67.31784502 29.86286542 67.30341452 33.606894 67.28125 37.35107422 C67.2529267 42.16114433 67.24203456 46.97104529 67.2375679 51.78119087 C67.23342065 55.4699372 67.22360967 59.15864901 67.21169281 62.84737778 C67.20597875 64.62167966 67.20122383 66.39598488 67.19742584 68.1702919 C67.19058587 70.64369864 67.17696547 73.1169686 67.16113281 75.59033203 C67.16001495 76.3300827 67.15889709 77.06983337 67.15774536 77.83200073 C67.11468903 82.88531097 67.11468903 82.88531097 66 84 C63.83519203 84.0989294 61.66706215 84.129711 59.5 84.125 C58.3140625 84.12757813 57.128125 84.13015625 55.90625 84.1328125 C53 84 53 84 52 83 C51.37359323 70.71137313 52.3906327 58.26351694 53 46 C39.8 46 26.6 46 13 46 C13 58.54 13 71.08 13 84 C8.71 84 4.42 84 0 84 C0 56.28 0 28.56 0 0 Z " fill="#F7F8F8" transform="translate(992,414)"/>
<path d="M0 0 C12 0 12 0 15.375 2.90234375 C16.29103984 4.21978867 17.16462539 5.56748563 18 6.9375 C18.48364014 7.65317139 18.96728027 8.36884277 19.46557617 9.10620117 C20.48548647 10.61790384 21.48943498 12.14048505 22.47802734 13.67285156 C23.98768676 15.98117264 25.56253712 18.22402415 27.17578125 20.4609375 C32.72759898 28.15940133 37.89308152 35.97484239 43 44 C43.33 29.48 43.66 14.96 44 0 C46.97 0 49.94 0 53 0 C55 2 55 2 55.24050903 4.7081604 C55.2338472 6.43357559 55.2338472 6.43357559 55.22705078 8.19384766 C55.22689972 9.49504547 55.22674866 10.79624329 55.22659302 12.13687134 C55.21637893 13.56260327 55.20594692 14.98833365 55.1953125 16.4140625 C55.19158295 17.86851813 55.1887357 19.32297627 55.18673706 20.7774353 C55.179096 24.60798056 55.15944357 28.43837446 55.1373291 32.26885986 C55.11688078 36.17661491 55.10773752 40.08439439 55.09765625 43.9921875 C55.07619802 51.66152738 55.04205651 59.33074249 55 67 C50.545 67.495 50.545 67.495 46 68 C45.24976563 66.93523437 44.49953125 65.87046875 43.7265625 64.7734375 C34.74936353 52.03913093 25.76598116 39.31561076 16.48999023 26.79638672 C13.10653148 22.21306296 13.10653148 22.21306296 12 20 C11.67 35.84 11.34 51.68 11 68 C7.37 68 3.74 68 0 68 C0 45.56 0 23.12 0 0 Z " fill="#F7F8F9" transform="translate(956,538)"/>
<path d="M0 0 C12 0 12 0 15.19140625 2.71875 C16.02357873 3.95196341 16.81257305 5.21511249 17.5625 6.5 C18.00319824 7.17345459 18.44389648 7.84690918 18.89794922 8.54077148 C19.82549188 9.96065051 20.73678815 11.39126279 21.63232422 12.83154297 C23.4112798 15.65208625 25.32427431 18.36651524 27.24194336 21.09375 C32.73463508 28.91247304 37.82872301 36.95579136 43 45 C43.33 30.15 43.66 15.3 44 0 C47.63 0 51.26 0 55 0 C55 22.11 55 44.22 55 67 C50.545 67.495 50.545 67.495 46 68 C41.32129503 61.59618594 36.68003415 55.16752766 32.08032227 48.70678711 C29.59505658 45.22022929 27.09398788 41.74580867 24.578125 38.28125 C23.99506592 37.4776001 23.41200684 36.6739502 22.8112793 35.84594727 C21.6686286 34.27227016 20.52432986 32.69978801 19.37817383 31.12866211 C18.85247803 30.40428955 18.32678223 29.67991699 17.78515625 28.93359375 C17.31988525 28.29478271 16.85461426 27.65597168 16.37524414 26.99780273 C14.81537215 24.73179306 13.41537778 22.35896296 12 20 C11.67 35.51 11.34 51.02 11 67 C7.37 67 3.74 67 0 67 C0 44.89 0 22.78 0 0 Z " fill="#F8FAFA" transform="translate(1202,538)"/>
<path d="M0 0 C6.09560209 3.76111618 8.88968271 7.5164491 10.5625 14.375 C11.602647 23.90968085 12.064246 33.84649165 6.8125 42.1875 C0.26247223 48.16796014 -6.17128399 48.15398408 -14.6953125 48.2109375 C-20.00044668 47.5831838 -23.14651496 45.77012072 -26.8125 41.9375 C-31.12376236 35.94963562 -31.40128912 31.11968655 -31.375 23.9375 C-31.39111328 23.06480469 -31.40722656 22.19210937 -31.42382812 21.29296875 C-31.42969907 13.48461437 -29.66156324 7.57153647 -24.0625 1.8125 C-17.05821485 -2.37792493 -7.70683876 -2.97069776 0 0 Z " fill="#12152B" transform="translate(1157.0625,548.1875)"/>
<path d="M0 0 C3.37831326 2.32657422 4.60739314 4.6435417 5.6171875 8.53125 C6.2300787 12.44635674 6.25454501 16.28134671 6.2578125 20.23828125 C6.27005859 21.00720703 6.28230469 21.77613281 6.29492188 22.56835938 C6.31116285 28.98354326 5.95841505 35.06565306 1.8203125 40.23828125 C-5.12578937 45.76358955 -11.19790123 46.40565751 -19.9296875 45.42578125 C-25.63338288 43.59033603 -29.2707133 39.58744948 -32.0078125 34.37109375 C-34.67138455 25.86120679 -34.58060826 13.52397786 -30.8046875 5.42578125 C-28.1398764 1.1454756 -24.9456379 -1.67254286 -20.03515625 -3.140625 C-12.55940796 -4.68015758 -6.66291185 -3.7074196 0 0 Z " fill="#12162C" transform="translate(675.9296875,550.57421875)"/>
<path d="M0 0 C4.32951502 3.09251073 7.56751154 6.91689325 9.625 11.875 C10.04315055 15.44767828 9.94932461 19.03031804 9.9375 22.625 C9.95361328 23.58921875 9.96972656 24.5534375 9.98632812 25.546875 C9.99050677 31.69783883 9.2628618 36.29563764 6.625 41.875 C2.15593781 46.34406219 -2.01582294 47.97409708 -8.25 48.125 C-14.02586046 47.97910159 -18.53759738 47.37832942 -23.125 43.625 C-28.17152546 37.45702444 -28.92829495 32.35345143 -28.875 24.625 C-28.87000488 23.68857666 -28.86500977 22.75215332 -28.85986328 21.78735352 C-28.68743493 14.97048781 -27.96212353 9.22664412 -23.375 3.875 C-16.95937361 -2.02737628 -8.04418897 -2.68139632 0 0 Z " fill="#12152B" transform="translate(911.375,548.125)"/>
<path d="M0 0 C22.75 0 22.75 0 29 5 C34.18362713 10.65399329 33.56467704 16.5653342 33.4375 23.9375 C33.44458984 25.09185547 33.45167969 26.24621094 33.45898438 27.43554688 C33.41254441 33.66207463 33.20338531 38.58295455 30 44 C20.46183774 50.08818868 11.94121912 48 0 48 C0 32.16 0 16.32 0 0 Z " fill="#15182D" transform="translate(1049,547)"/>
<path d="M0 0 C14.52 0 29.04 0 44 0 C44 2.97 44 5.94 44 9 C32.78 9 21.56 9 10 9 C10.33 14.94 10.66 20.88 11 27 C24.86 27.495 24.86 27.495 39 28 C39 30.97 39 33.94 39 37 C29.76 37 20.52 37 11 37 C11 46.9 11 56.8 11 67 C7.37 67 3.74 67 0 67 C0 44.89 0 22.78 0 0 Z " fill="#F9FBFB" transform="translate(718,538)"/>
<path d="M0 0 C3.63 0 7.26 0 11 0 C11.33 18.81 11.66 37.62 12 57 C21.57 57.33 31.14 57.66 41 58 C41 61.3 41 64.6 41 68 C35.32169922 68.02464705 29.64342931 68.04283462 23.96508789 68.05493164 C22.03181415 68.05997256 20.09854424 68.06680519 18.1652832 68.07543945 C15.39273128 68.08751565 12.62022959 68.09323057 9.84765625 68.09765625 C8.54297142 68.10539818 8.54297142 68.10539818 7.21192932 68.11329651 C5.14094186 68.11349185 3.07005676 68.06208168 1 68 C0 67 0 67 -0.12025452 64.33616638 C-0.11803391 63.14813919 -0.11581329 61.960112 -0.11352539 60.73608398 C-0.11367142 60.08244873 -0.11381744 59.42881348 -0.1139679 58.75537109 C-0.11326883 56.58557872 -0.10547678 54.41587121 -0.09765625 52.24609375 C-0.09579205 50.74536689 -0.09436816 49.24463943 -0.09336853 47.74391174 C-0.08954352 43.78681774 -0.0797134 39.82976022 -0.06866455 35.87268066 C-0.05845006 31.83765151 -0.05387083 27.80261647 -0.04882812 23.76757812 C-0.03809111 15.84503531 -0.0210149 7.92252219 0 0 Z " fill="#FAFCFD" transform="translate(813,538)"/>
<path d="M0 0 C4.56237931 -0.08719631 9.12454386 -0.14045922 13.6875 -0.1875 C14.98107422 -0.21263672 16.27464844 -0.23777344 17.60742188 -0.26367188 C18.85458984 -0.27333984 20.10175781 -0.28300781 21.38671875 -0.29296875 C22.53358154 -0.3086792 23.68044434 -0.32438965 24.86206055 -0.34057617 C28.37992719 0.04123539 30.19245628 0.88109323 33 3 C35.28219901 6.42329851 35.29741163 7.84137668 35.3125 11.875 C35.32925781 12.90367187 35.34601562 13.93234375 35.36328125 14.9921875 C34.9385268 18.50897167 34.22009078 20.24241355 32 23 C26.40782381 27.2262184 19.80015317 26.33441364 13.125 26.1875 C11.9596875 26.17396484 10.794375 26.16042969 9.59375 26.14648438 C6.72868882 26.11125821 3.86458623 26.06199715 1 26 C0.07446257 22.86149936 -0.11664647 20.06319222 -0.09765625 16.796875 C-0.09443359 15.8171875 -0.09121094 14.8375 -0.08789062 13.828125 C-0.07951172 12.81234375 -0.07113281 11.7965625 -0.0625 10.75 C-0.05798828 9.71875 -0.05347656 8.6875 -0.04882812 7.625 C-0.03706088 5.08327427 -0.02062011 2.54166681 0 0 Z " fill="#101227" transform="translate(740,460)"/>
<path d="M0 0 C6.001875 -0.0928125 6.001875 -0.0928125 12.125 -0.1875 C13.37555176 -0.21481201 14.62610352 -0.24212402 15.91455078 -0.27026367 C23.14345873 -0.32441934 27.93695835 0.09817107 33.375 5.25 C35.49506557 8.83780327 35.49732365 10.87931837 35 15 C33.62653125 19.50192534 32.1693727 22.64350762 28.10888672 25.20825195 C23.234705 27.03818612 17.74864088 26.39322113 12.625 26.25 C8.45875 26.1675 4.2925 26.085 0 26 C0 17.42 0 8.84 0 0 Z " fill="#121329" transform="translate(826,426)"/>
<path d="M0 0 C3.89601908 -0.05398641 7.79128862 -0.09366918 11.6875 -0.125 C12.79029297 -0.14175781 13.89308594 -0.15851563 15.02929688 -0.17578125 C16.09599609 -0.18222656 17.16269531 -0.18867188 18.26171875 -0.1953125 C19.73064575 -0.21102295 19.73064575 -0.21102295 21.22924805 -0.22705078 C25.46030042 0.11966511 28.18080842 1.28859679 31.375 4.0625 C33.39578182 7.71545176 33.2766165 9.866107 32.6171875 13.91015625 C31.75428429 16.83201204 30.4695856 18.25676311 28 20 C24.82212459 21.0592918 22.57411057 21.11458939 19.23828125 21.09765625 C18.12001953 21.09443359 17.00175781 21.09121094 15.84960938 21.08789062 C14.68236328 21.07951172 13.51511719 21.07113281 12.3125 21.0625 C11.13365234 21.05798828 9.95480469 21.05347656 8.74023438 21.04882812 C5.82680133 21.03703285 2.91339433 21.01909727 0 21 C0 14.07 0 7.14 0 0 Z " fill="#14172B" transform="translate(740,427)"/>
<path d="M0 0 C0.66 0 1.32 0 2 0 C3.39045293 3.85841113 4.77786927 7.71789973 6.16259766 11.57836914 C6.63313778 12.88888306 7.10447679 14.19911045 7.57666016 15.5090332 C8.25898755 17.40238353 8.93811299 19.2968868 9.6171875 21.19140625 C10.02565918 22.32779541 10.43413086 23.46418457 10.85498047 24.63500977 C12.01806429 28.05308744 13.00810762 31.52837668 14 35 C5.42 35 -3.16 35 -12 35 C-11.19556303 30.17337817 -10.22558682 26.56301865 -8.49609375 22.0703125 C-8.13198143 21.11751907 -8.13198143 21.11751907 -7.76051331 20.14547729 C-6.99143407 18.13658597 -6.21461315 16.13079531 -5.4375 14.125 C-4.91159295 12.75540652 -4.38619716 11.38561661 -3.86132812 10.015625 C-2.58012222 6.67479163 -1.29196034 3.33669147 0 0 Z " fill="#121426" transform="translate(932,432)"/>
<path d="M0 0 C2.39492033 2.39492033 2.97081818 4.29871511 4.09375 7.48828125 C4.67962891 9.13666992 4.67962891 9.13666992 5.27734375 10.81835938 C5.68082031 11.97142578 6.08429687 13.12449219 6.5 14.3125 C7.30138406 16.57967438 8.10344311 18.84661031 8.90625 21.11328125 C9.26009766 22.12173096 9.61394531 23.13018066 9.97851562 24.16918945 C10.64792687 26.02430976 11.36423033 27.8633171 12.13085938 29.68041992 C13 32 13 32 13 35 C4.42 35 -4.16 35 -13 35 C-12.15089399 30.75446993 -11.05924354 27.22479523 -9.53125 23.203125 C-9.29088013 22.56888611 -9.05051025 21.93464722 -8.80285645 21.28118896 C-8.29705152 19.9492743 -7.78932741 18.61808703 -7.27978516 17.28759766 C-6.4978585 15.2444042 -5.72311643 13.19858998 -4.94921875 11.15234375 C-1.13871443 1.13871443 -1.13871443 1.13871443 0 0 Z " fill="#131427" transform="translate(668,432)"/>
<path d="M0 0 C3.11212844 1.55606422 3.24411611 4.03305501 4.34765625 7.265625 C4.56441513 7.89603699 4.78117401 8.52644897 5.00450134 9.17596436 C5.46262304 10.51309292 5.91716116 11.85145376 6.3684082 13.19091797 C7.05589019 15.23039144 7.7544547 17.26578978 8.45507812 19.30078125 C10.23645624 24.51848121 11.91592403 29.57962014 13 35 C4.42 35 -4.16 35 -13 35 C-11.47074277 30.81883684 -9.94102899 26.63784652 -8.41015625 22.45727539 C-7.8900317 21.03647495 -7.37017147 19.61557772 -6.85058594 18.19458008 C-6.10161512 16.14638881 -5.35167917 14.0985531 -4.6015625 12.05078125 C-4.15119629 10.82012939 -3.70083008 9.58947754 -3.23681641 8.3215332 C-2.19720759 5.52961099 -1.12214164 2.7595524 0 0 Z " fill="#131427" transform="translate(1116,432)"/>
<path d="M0 0 C1.159552 -0.01546875 1.159552 -0.01546875 2.3425293 -0.03125 C7.22338902 0.04457736 10.53284185 0.86424462 14.8125 3.4375 C14.4825 4.0975 14.1525 4.7575 13.8125 5.4375 C13.049375 4.9425 12.28625 4.4475 11.5 3.9375 C4.05850891 0.91045278 -4.65993209 1.86364087 -12.1875 4.4375 C-14.88656047 5.67813442 -17.50908452 6.99973512 -20.12109375 8.4140625 C-22.1875 9.4375 -22.1875 9.4375 -24.1875 9.4375 C-24.1875 10.0975 -24.1875 10.7575 -24.1875 11.4375 C-24.80238281 11.74042969 -25.41726563 12.04335938 -26.05078125 12.35546875 C-30.76970194 14.80148027 -33.88587023 16.45063549 -36.1875 21.4375 C-38.63767182 25.27255155 -38.63767182 25.27255155 -41.0625 26 C-42.114375 26.2165625 -42.114375 26.2165625 -43.1875 26.4375 C-46.94695209 28.44212478 -49.72980619 30.76107645 -52.6875 33.8125 C-53.46480469 34.60785156 -54.24210937 35.40320313 -55.04296875 36.22265625 C-55.75066406 36.95355469 -56.45835937 37.68445313 -57.1875 38.4375 C-62.1875 43.4375 -62.1875 43.4375 -64.4375 45.5625 C-66.41193723 47.41727175 -66.41193723 47.41727175 -67.1875 50.4375 C-68.859375 52.12109375 -68.859375 52.12109375 -70.9375 53.875 C-71.65421875 54.4834375 -72.3709375 55.091875 -73.109375 55.71875 C-75.44764318 57.65265601 -77.79626067 59.56934428 -80.1875 61.4375 C-78.84108945 58.46463528 -77.32906158 56.29254325 -75.08984375 53.92578125 C-74.46190918 53.25885254 -73.83397461 52.59192383 -73.18701172 51.90478516 C-72.50654785 51.19370605 -71.82608398 50.48262695 -71.125 49.75 C-70.41617676 49.00540527 -69.70735352 48.26081055 -68.97705078 47.49365234 C-66.72153166 45.13410094 -64.45596356 42.78460492 -62.1875 40.4375 C-61.4641748 39.68549316 -60.74084961 38.93348633 -59.99560547 38.15869141 C-47.21504519 24.92075208 -34.24412667 13.53625511 -18.1875 4.4375 C-17.46820313 3.98246094 -16.74890625 3.52742188 -16.0078125 3.05859375 C-10.85615645 0.18208541 -5.77703711 0.06478704 0 0 Z " fill="#B45169" transform="translate(455.1875,506.5625)"/>
<path d="M0 0 C4.62 0 9.24 0 14 0 C14 0.66 14 1.32 14 2 C10.04 2 6.08 2 2 2 C2.00523682 3.44318604 2.01047363 4.88637207 2.01586914 6.37329102 C2.19334801 59.93994553 2.19334801 59.93994553 1 86 C0.67 86 0.34 86 0 86 C0 57.62 0 29.24 0 0 Z " fill="#01020E" transform="translate(990,412)"/>
<path d="M0 0 C2.40012869 2.96824774 3.97256266 5.8855446 5.48046875 9.38671875 C5.92197266 10.40701172 6.36347656 11.42730469 6.81835938 12.47851562 C7.27017578 13.53748047 7.72199219 14.59644531 8.1875 15.6875 C8.65091797 16.75806641 9.11433594 17.82863281 9.59179688 18.93164062 C13 26.84730532 13 26.84730532 13 28 C12.3608667 28.03963867 11.7217334 28.07927734 11.06323242 28.12011719 C-5.96589041 29.23174688 -17.6748214 31.37408634 -32 41 C-32.99 41.495 -32.99 41.495 -34 42 C-32.56188795 38.45470774 -30.8685536 36.89221403 -27.6875 34.8125 C-26.92824219 34.30332031 -26.16898437 33.79414062 -25.38671875 33.26953125 C-22.89718203 31.94530959 -20.77671284 31.40790649 -18 31 C-17.67 30.01 -17.34 29.02 -17 28 C-14.37276604 26.68638302 -12.27389439 26.78746091 -9.3359375 26.68359375 C-8.21445312 26.64169922 -7.09296875 26.59980469 -5.9375 26.55664062 C-4.761875 26.51732422 -3.58625 26.47800781 -2.375 26.4375 C-0.59996094 26.37272461 -0.59996094 26.37272461 1.2109375 26.30664062 C4.14050328 26.20032574 7.07015588 26.09829358 10 26 C9.7424292 25.50008545 9.4848584 25.0001709 9.21948242 24.48510742 C7.02203523 20.16521298 5.04560678 15.84482025 3.3125 11.3125 C2.89613281 10.23613281 2.47976563 9.15976562 2.05078125 8.05078125 C1.12375702 5.3593094 0.47302357 2.80175497 0 0 Z " fill="#B4485F" transform="translate(470,512)"/>
<path d="M0 0 C0.99 0.33 1.98 0.66 3 1 C0.69 2.98 -1.62 4.96 -4 7 C15.305 7.495 15.305 7.495 35 8 C35 8.33 35 8.66 35 9 C9.26 9 -16.48 9 -43 9 C-43 8.67 -43 8.34 -43 8 C-32.44 8 -21.88 8 -11 8 C-11 7.01 -11 6.02 -11 5 C-9.9275 4.731875 -8.855 4.46375 -7.75 4.1875 C-4.07759146 3.25184124 -4.07759146 3.25184124 -1.75 1.3125 C-1.1725 0.879375 -0.595 0.44625 0 0 Z " fill="#442C52" transform="translate(331,601)"/>
<path d="M0 0 C3 3 3 3 3.32952881 4.92160034 C3.30811829 5.64598297 3.28670776 6.3703656 3.26464844 7.11669922 C3.23911896 8.35345901 3.23911896 8.35345901 3.21307373 9.61520386 C3.17885315 10.50273346 3.14463257 11.39026306 3.109375 12.3046875 C3.07327118 13.67888351 3.07327118 13.67888351 3.03643799 15.08084106 C2.98277086 17.01943703 2.92176705 18.95784166 2.85400391 20.89599609 C2.75065641 23.85619819 2.66819164 26.81638471 2.58984375 29.77734375 C2.53507624 31.66149425 2.47912544 33.54561081 2.421875 35.4296875 C2.39575134 36.31316864 2.36962769 37.19664978 2.3427124 38.10690308 C2.31308411 38.93771393 2.28345581 39.76852478 2.25292969 40.62451172 C2.22833679 41.35048553 2.2037439 42.07645935 2.17840576 42.82443237 C1.98030107 45.24021846 1.47536496 47.62317522 1 50 C-2.96 50 -6.92 50 -11 50 C-11 49.67 -11 49.34 -11 49 C-7.37 49 -3.74 49 0 49 C0 32.83 0 16.66 0 0 Z " fill="#060816" transform="translate(967,557)"/>
<path d="M0 0 C0.33 0 0.66 0 1 0 C1 15.18 1 30.36 1 46 C-4.20754717 39.49056604 -4.20754717 39.49056604 -6 36 C-5.67 35.34 -5.34 34.68 -5 34 C-3.68 34 -2.36 34 -1 34 C-1.08306396 33.34733154 -1.16612793 32.69466309 -1.25170898 32.0222168 C-2.0547516 24.79866642 -1.80767567 18.02820724 -1.0625 10.8125 C-0.96259766 9.76513672 -0.86269531 8.71777344 -0.75976562 7.63867188 C-0.51550915 5.09142575 -0.26215018 2.54545579 0 0 Z " fill="#090B13" transform="translate(999,538)"/>
<path d="M0 0 C0.66 0 1.32 0 2 0 C1.35957615 4.3433874 -0.23611732 8.01718711 -2.125 11.9375 C-2.58434937 12.90635132 -2.58434937 12.90635132 -3.05297852 13.89477539 C-6.2704039 20.64506002 -9.61897502 27.33044009 -13 34 C-13.66 34 -14.32 34 -15 34 C-15.66 37.3 -16.32 40.6 -17 44 C-18.485 44.495 -18.485 44.495 -20 45 C-20.73323796 47.01508358 -20.73323796 47.01508358 -21 49 C-21.33 49 -21.66 49 -22 49 C-22.1875 46.6875 -22.1875 46.6875 -22 44 C-21.00560211 42.9944291 -20.00486609 41.99511011 -19 41 C-17.93120375 39.01009679 -17.93120375 39.01009679 -17.0625 36.8125 C-15.80965865 33.86547546 -14.52045512 30.97624289 -13.0625 28.125 C-10.97313575 24.02030409 -9.10566815 19.82628424 -7.24609375 15.61328125 C-6 13 -6 13 -4.41796875 10.3671875 C-2.80190625 7.66929803 -1.93180274 4.99508022 -1 2 C-0.67 1.34 -0.34 0.68 0 0 Z " fill="#132358" transform="translate(386,392)"/>
<path d="M0 0 C1.24546405 2.49092811 0.7767578 3.41080733 0 6 C-0.66 6 -1.32 6 -2 6 C-2.2475 7.11375 -2.495 8.2275 -2.75 9.375 C-4.0127652 14.45312003 -5.98762432 19.18130354 -8 24 C-8.2990625 24.80050781 -8.598125 25.60101563 -8.90625 26.42578125 C-10.65198341 30.53448952 -13.04492002 34.24410443 -15.34375 38.0625 C-16.81311833 40.66854949 -17.96952016 43.19709483 -19 46 C-19.6875 44.375 -19.6875 44.375 -20 42 C-19.07137808 39.96587579 -18.06246527 37.96752828 -17 36 C-16.649375 34.906875 -16.29875 33.81375 -15.9375 32.6875 C-15 30 -15 30 -13 29 C-12.28583662 27.27675557 -11.65167151 25.51988068 -11.0625 23.75 C-9.74577099 19.80514385 -8.14484482 16.55186302 -6 13 C-5.45208324 11.49576556 -4.94897496 9.97417027 -4.5 8.4375 C-3.45522272 5.12074672 -2.3835396 2.61054337 0 0 Z " fill="#16255D" transform="translate(412,422)"/>
<path d="M0 0 C1.65 0 3.3 0 5 0 C5.1063689 12.04750524 5.14724086 23.99494383 4 36 C1.83624868 32.48879492 1.75473227 29.67059101 1.76953125 25.58984375 C1.77146484 24.35298828 1.77339844 23.11613281 1.77539062 21.84179688 C1.78763672 20.55337891 1.79988281 19.26496094 1.8125 17.9375 C1.81314453 16.64521484 1.81378906 15.35292969 1.81445312 14.02148438 C1.85952381 4.42142857 1.85952381 4.42142857 3 1 C2.01 0.67 1.02 0.34 0 0 Z " fill="#232433" transform="translate(1040,460)"/>
<path d="M0 0 C0.77279297 0.00410889 1.54558594 0.00821777 2.34179688 0.01245117 C3.60443359 0.01535156 3.60443359 0.01535156 4.89257812 0.01831055 C5.77300781 0.03055664 6.6534375 0.04280273 7.56054688 0.05541992 C8.88119141 0.05638672 8.88119141 0.05638672 10.22851562 0.05737305 C16.77974573 0.10251935 16.77974573 0.10251935 19.06054688 1.24291992 C18.73054688 1.90291992 18.40054687 2.56291992 18.06054688 3.24291992 C11.79054688 2.91291992 5.52054688 2.58291992 -0.93945312 2.24291992 C-0.93945312 9.83291992 -0.93945312 17.42291992 -0.93945312 25.24291992 C-1.59945313 25.24291992 -2.25945312 25.24291992 -2.93945312 25.24291992 C-3.16464419 21.45205535 -3.36674562 17.66030935 -3.56445312 13.86791992 C-3.62890625 12.78768555 -3.69335938 11.70745117 -3.75976562 10.59448242 C-3.81132813 9.56323242 -3.86289063 8.53198242 -3.91601562 7.46948242 C-3.96838379 6.51638184 -4.02075195 5.56328125 -4.07470703 4.58129883 C-3.89916951 1.54646424 -3.09034472 0.38707112 0 0 Z " fill="#1E212D" transform="translate(1176.939453125,411.757080078125)"/>
<path d="M0 0 C2.25 -0.3125 2.25 -0.3125 5 0 C7.125 2.1875 7.125 2.1875 9 5 C9.515625 5.7425 10.03125 6.485 10.5625 7.25 C12.1929882 10.36919481 13.24270299 13.49179784 14.3046875 16.83984375 C15.08918277 19.27706782 16.01002468 21.63928963 17 24 C17.66 24 18.32 24 19 24 C19 25.65 19 27.3 19 29 C19.66 29 20.32 29 21 29 C21 30.98 21 32.96 21 35 C18.03 34.67 15.06 34.34 12 34 C12 33.67 12 33.34 12 33 C14.97 32.505 14.97 32.505 18 32 C16.39858697 28.29047159 14.79338057 24.58259632 13.1875 20.875 C12.73568359 19.82828125 12.28386719 18.7815625 11.81835938 17.703125 C10.55813691 14.79633449 9.28541724 11.89572897 8 9 C7.55491089 7.99380615 7.55491089 7.99380615 7.10083008 6.96728516 C5.75691944 4.08530975 5.24190132 3.12376346 2.3125 1.625 C1.1678125 1.315625 1.1678125 1.315625 0 1 C0 0.67 0 0.34 0 0 Z " fill="#361A3A" transform="translate(464,507)"/>
<path d="M0 0 C6.6 0.33 13.2 0.66 20 1 C20 1.66 20 2.32 20 3 C18.69546875 3.01417969 17.3909375 3.02835937 16.046875 3.04296875 C5.64637646 3.28278124 -2.72662105 3.89210224 -12 9 C-12.33 8.34 -12.66 7.68 -13 7 C-11.73775586 4.47551173 -10.49988984 4.17182336 -8 3 C-7.67 2.67 -7.34 2.34 -7 2 C-4.66702567 1.95907063 -2.33294775 1.95758277 0 2 C0 1.34 0 0.68 0 0 Z " fill="#220A25" transform="translate(446,504)"/>
<path d="M0 0 C0.33 0.99 0.66 1.98 1 3 C-1.61514317 5.12038635 -4.19637616 7.13091744 -7 9 C-8.01866229 10.65532623 -9.01810813 12.32260138 -10 14 C-11.5625 15.8125 -11.5625 15.8125 -13 17 C-13.66 17 -14.32 17 -15 17 C-15 17.66 -15 18.32 -15 19 C-15.556875 19.226875 -16.11375 19.45375 -16.6875 19.6875 C-19.22215457 20.98466965 -19.22215457 20.98466965 -21.5625 23.625 C-24 26 -24 26 -27 26 C-23.47942591 22.45474011 -19.95560514 18.9127519 -16.42871094 15.3737793 C-15.22891468 14.16894871 -14.03001674 12.96322288 -12.83203125 11.7565918 C-11.11172077 10.02417648 -9.38822456 8.2949873 -7.6640625 6.56640625 C-7.12754059 6.02472305 -6.59101868 5.48303986 -6.03823853 4.92494202 C-2.22774341 1.11387171 -2.22774341 1.11387171 0 0 Z " fill="#250B19" transform="translate(415,573)"/>
<path d="M0 0 C0.66 0.33 1.32 0.66 2 1 C-0.79955345 3.88784601 -3.61689771 6.75772108 -6.4375 9.625 C-7.22060547 10.43324219 -8.00371094 11.24148438 -8.81054688 12.07421875 C-18.73230111 22.11846378 -18.73230111 22.11846378 -25 25 C-25.99 24.67 -26.98 24.34 -28 24 C-22.25 20 -22.25 20 -20 20 C-20 19.34 -20 18.68 -20 18 C-19.34 18 -18.68 18 -18 18 C-17.67 17.01 -17.34 16.02 -17 15 C-16.34 15 -15.68 15 -15 15 C-15 13.68 -15 12.36 -15 11 C-13.66582031 10.64808594 -13.66582031 10.64808594 -12.3046875 10.2890625 C-8.61354542 8.84925531 -6.82476614 7.23838833 -4.125 4.375 C-3.34382813 3.55773437 -2.56265625 2.74046875 -1.7578125 1.8984375 C-1.17773438 1.27195312 -0.59765625 0.64546875 0 0 Z " fill="#B84D62" transform="translate(404,581)"/>
<path d="M0 0 C0.66 0 1.32 0 2 0 C3.49821059 3.37097383 4 5.20442119 4 9 C3.34 9 2.68 9 2 9 C2 16.92 2 24.84 2 33 C1.67 33 1.34 33 1 33 C0.06912091 29.06711636 -0.11608885 25.42345837 -0.09765625 21.38671875 C-0.09443359 20.13955078 -0.09121094 18.89238281 -0.08789062 17.60742188 C-0.07532227 15.66706055 -0.07532227 15.66706055 -0.0625 13.6875 C-0.05798828 12.37458984 -0.05347656 11.06167969 -0.04882812 9.70898438 C-0.03705949 6.4726099 -0.0206176 3.23632822 0 0 Z " fill="#1F1F28" transform="translate(1187,432)"/>
<path d="M0 0 C3.40048255 5.10072383 2.11020139 10.99402433 2 17 C8.93 17 15.86 17 23 17 C21 19 21 19 18.75341797 19.22705078 C17.84221191 19.21657715 16.93100586 19.20610352 15.9921875 19.1953125 C15.00605469 19.18886719 14.01992188 19.18242187 13.00390625 19.17578125 C11.45509766 19.15064453 11.45509766 19.15064453 9.875 19.125 C8.83472656 19.11597656 7.79445313 19.10695313 6.72265625 19.09765625 C4.14820908 19.07403747 1.57421788 19.04110149 -1 19 C-1.02683987 16.02077407 -1.04676037 13.04178705 -1.0625 10.0625 C-1.07087891 9.21236328 -1.07925781 8.36222656 -1.08789062 7.48632812 C-1.09111328 6.67744141 -1.09433594 5.86855469 -1.09765625 5.03515625 C-1.10289307 4.2862915 -1.10812988 3.53742676 -1.11352539 2.76586914 C-1 1 -1 1 0 0 Z " fill="#02030F" transform="translate(741,429)"/>
<path d="M0 0 C0.33 0 0.66 0 1 0 C1 9.57 1 19.14 1 29 C0.67 29 0.34 29 0 29 C-0.12117188 28.28972656 -0.24234375 27.57945312 -0.3671875 26.84765625 C-0.53476563 25.92855469 -0.70234375 25.00945312 -0.875 24.0625 C-1.03742188 23.14597656 -1.19984375 22.22945313 -1.3671875 21.28515625 C-1.57601563 20.53105469 -1.78484375 19.77695312 -2 19 C-2.66 18.67 -3.32 18.34 -4 18 C-4 17.34 -4 16.68 -4 16 C-3.34 16 -2.68 16 -2 16 C-2.03480469 14.77023437 -2.03480469 14.77023437 -2.0703125 13.515625 C-2.08835937 12.43796875 -2.10640625 11.3603125 -2.125 10.25 C-2.14820313 9.18265625 -2.17140625 8.1153125 -2.1953125 7.015625 C-2.00487687 4.07529894 -1.52670104 2.47638122 0 0 Z " fill="#0D0D18" transform="translate(1243,432)"/>
<path d="M0 0 C0.66 0.33 1.32 0.66 2 1 C2.484375 2.77734375 2.484375 2.77734375 2.75 4.9375 C2.84796875 5.64777344 2.9459375 6.35804688 3.046875 7.08984375 C3 9 3 9 1 11 C0.34 10.67 -0.32 10.34 -1 10 C-1.33 11.98 -1.66 13.96 -2 16 C-2.99 16 -3.98 16 -5 16 C-3.90301833 10.30860098 -2.45946923 5.25432063 0 0 Z " fill="#161627" transform="translate(1116,432)"/>
<path d="M0 0 C-0.33 0.99 -0.66 1.98 -1 3 C-3.4375 4.125 -3.4375 4.125 -6 5 C-6.66 5.33 -7.32 5.66 -8 6 C-10.8466823 6.01664836 -13.66432749 5.97255417 -16.5078125 5.87890625 C-17.34843231 5.85529526 -18.18905212 5.83168427 -19.05514526 5.80735779 C-21.7452662 5.73066362 -24.4351034 5.64666417 -27.125 5.5625 C-28.94660061 5.50928506 -30.76821514 5.45654463 -32.58984375 5.40429688 C-37.06007618 5.27504071 -41.5300676 5.13923154 -46 5 C-46 4.67 -46 4.34 -46 4 C-45.02240723 3.98541748 -44.04481445 3.97083496 -43.03759766 3.95581055 C-39.3656999 3.89727073 -35.69438024 3.82004866 -32.02294922 3.73754883 C-30.44231642 3.70455863 -28.86157313 3.67644852 -27.28076172 3.65356445 C-15.32322498 3.49799354 -15.32322498 3.49799354 -3.76318359 0.63208008 C-2 0 -2 0 0 0 Z " fill="#250217" transform="translate(378,606)"/>
<path d="M0 0 C1 3 1 3 0.1796875 4.76953125 C-0.25085938 5.44371094 -0.68140625 6.11789062 -1.125 6.8125 C-4.20348069 12.00046885 -6.01732921 17.45674312 -7.88671875 23.15625 C-9 26 -9 26 -11 27 C-10.25 20.375 -10.25 20.375 -8 17 C-7.3734716 15.02119189 -7.3734716 15.02119189 -6.9375 12.9375 C-6.44398841 10.74728742 -6.00743074 9.01486148 -5 7 C-4.34 7 -3.68 7 -3 7 C-2.87625 6.21625 -2.7525 5.4325 -2.625 4.625 C-2 2 -2 2 0 0 Z " fill="#172863" transform="translate(371,513)"/>
<path d="M0 0 C0.76425293 -0.00580078 1.52850586 -0.01160156 2.31591797 -0.01757812 C7.14536138 0.08793735 10.45249663 0.96842406 14.6875 3.5 C14.3575 4.16 14.0275 4.82 13.6875 5.5 C12.924375 5.005 12.16125 4.51 11.375 4 C2.93339415 0.56612644 -6.92536151 2.27487758 -15.1875 5.6875 C-17.3125 6.5 -17.3125 6.5 -20.3125 5.5 C-13.65522832 1.39419367 -7.70472627 0.00628572 0 0 Z " fill="#B1526B" transform="translate(455.3125,506.5)"/>
<path d="M0 0 C0.66 0.99 1.32 1.98 2 3 C-2.27293882 8.23435005 -6.81580806 12.67106815 -12 17 C-12 13.40239524 -11.10487704 12.7784377 -9 10 C-8.29485154 7.85266073 -8.29485154 7.85266073 -8 6 C-6.35 5.67 -4.7 5.34 -3 5 C-3 4.01 -3 3.02 -3 2 C-2.01 1.34 -1.02 0.68 0 0 Z " fill="#CA435D" transform="translate(419,564)"/>
<path d="M0 0 C0.66 0.33 1.32 0.66 2 1 C1.67 1.66 1.34 2.32 1 3 C12.88 3.33 24.76 3.66 37 4 C37 4.33 37 4.66 37 5 C23.8 5 10.6 5 -3 5 C-1 1 -1 1 0 0 Z " fill="#C8374E" transform="translate(331,603)"/>
<path d="M0 0 C0.33 0 0.66 0 1 0 C1.25 5.625 1.25 5.625 -1 9 C-1.66 9 -2.32 9 -3 9 C-3 11.31 -3 13.62 -3 16 C-4.98 16.99 -4.98 16.99 -7 18 C-6.44380331 13.3110507 -5.11817327 9.80075733 -2.9375 5.625 C-2.38964844 4.56539063 -1.84179688 3.50578125 -1.27734375 2.4140625 C-0.85582031 1.61742187 -0.43429687 0.82078125 0 0 Z " fill="#10285E" transform="translate(351,468)"/>
<path d="M0 0 C0.66 0 1.32 0 2 0 C1.34315916 4.65187282 -0.43889651 8.49083971 -2.4375 12.6875 C-2.75009766 13.36361328 -3.06269531 14.03972656 -3.38476562 14.73632812 C-4.70112706 17.53324829 -5.79763057 19.79763057 -8 22 C-7.42115475 17.25346898 -5.98719177 13.30270218 -4 9 C-3.26938756 7.35480796 -2.54024644 5.70896181 -1.8125 4.0625 C-1.20879754 2.70812632 -0.60479685 1.35388533 0 0 Z " fill="#172863" transform="translate(386,392)"/>
<path d="M0 0 C0.33 0.66 0.66 1.32 1 2 C2.32 1.67 3.64 1.34 5 1 C5 1.66 5 2.32 5 3 C2.59078898 4.66837122 0.20151477 6.19386588 -2.3125 7.6875 C-3.00279297 8.11611328 -3.69308594 8.54472656 -4.40429688 8.98632812 C-5.07138672 9.38658203 -5.73847656 9.78683594 -6.42578125 10.19921875 C-7.34484253 10.75355591 -7.34484253 10.75355591 -8.2824707 11.3190918 C-10 12 -10 12 -13 11 C-12.67 10.34 -12.34 9.68 -12 9 C-10.68 9 -9.36 9 -8 9 C-8 8.34 -8 7.68 -8 7 C-5.69 6.34 -3.38 5.68 -1 5 C-0.67 3.35 -0.34 1.7 0 0 Z " fill="#230C21" transform="translate(345,589)"/>
<path d="M0 0 C0.66 0.99 1.32 1.98 2 3 C1.52949219 3.78503906 1.05898438 4.57007813 0.57421875 5.37890625 C-3.47676987 12.10033701 -3.47676987 12.10033701 -6.8125 19.1875 C-8 22 -8 22 -10 23 C-9.34 20.03 -8.68 17.06 -8 14 C-7.34 14 -6.68 14 -6 14 C-5.88785156 13.44828125 -5.77570313 12.8965625 -5.66015625 12.328125 C-4.88639227 9.59934789 -3.73182306 7.27227057 -2.4375 4.75 C-1.98246094 3.85796875 -1.52742188 2.9659375 -1.05859375 2.046875 C-0.70925781 1.37140625 -0.35992187 0.6959375 0 0 Z " fill="#102557" transform="translate(332,510)"/>
<path d="M0 0 C2.52230627 1.26115314 2.88890155 2.37533425 4.125 4.875 C4.47820312 5.57367188 4.83140625 6.27234375 5.1953125 6.9921875 C6 9 6 9 6 12 C6.99 12.33 7.98 12.66 9 13 C9.33 15.64 9.66 18.28 10 21 C9.34 20.67 8.68 20.34 8 20 C7.375 16.9375 7.375 16.9375 7 14 C6.01 14.33 5.02 14.66 4 15 C3.54427083 13.01432292 3.08854167 11.02864583 2.6328125 9.04296875 C2.01992277 6.72257026 2.01992277 6.72257026 0 4 C0 2.68 0 1.36 0 0 Z " fill="#142054" transform="translate(496,476)"/>
<path d="M0 0 C0.66 0 1.32 0 2 0 C5.70837084 9.10891089 5.70837084 9.10891089 7.125 13.4375 C7.94385164 16.19318502 7.94385164 16.19318502 10 19 C9.625 21.1875 9.625 21.1875 9 23 C9 22.01 9 21.02 9 20 C8.36191406 19.76925781 7.72382812 19.53851562 7.06640625 19.30078125 C5 18 5 18 4.27734375 15.79296875 C4.16519531 14.93316406 4.05304687 14.07335937 3.9375 13.1875 C3.28773072 9.12497855 2.30342141 6.45513212 0 3 C0 2.01 0 1.02 0 0 Z " fill="#0C193E" transform="translate(539,569)"/>
<path d="M0 0 C0.99 0.495 0.99 0.495 2 1 C2 1.66 2 2.32 2 3 C3.32 2.34 4.64 1.68 6 1 C7.15837626 5.05431692 6.83691257 7.21812119 5 11 C4.34 11 3.68 11 3 11 C0 4.5 0 4.5 0 0 Z " fill="#131420" transform="translate(1212,456)"/>
<path d="M0 0 C1.4216868 4.26506039 -0.34613318 7.20037743 -1.9375 11.1875 C-2.22818359 11.93708984 -2.51886719 12.68667969 -2.81835938 13.45898438 C-3.53725036 15.30924477 -4.26754653 17.15506648 -5 19 C-5.66 19 -6.32 19 -7 19 C-6 15 -5 11 -4 7 C-3.835 6.2471875 -3.67 5.494375 -3.5 4.71875 C-2.85724991 2.50929657 -1.71242434 1.48906464 0 0 Z " fill="#0E101E" transform="translate(1100,435)"/>
<path d="M0 0 C2.54184599 3.09764322 4.05849147 6.16919843 5.5625 9.875 C5.97628906 10.88304687 6.39007813 11.89109375 6.81640625 12.9296875 C7.97205061 15.92749763 9.01017748 18.94386594 10 22 C9.34 22.33 8.68 22.66 8 23 C6.33333333 18 4.66666667 13 3 8 C2.34 8 1.68 8 1 8 C0.67 5.36 0.34 2.72 0 0 Z " fill="#0C1842" transform="translate(495,564)"/>
<path d="M0 0 C4.62 0 9.24 0 14 0 C14 0.66 14 1.32 14 2 C10.04 2 6.08 2 2 2 C2 5.3 2 8.6 2 12 C1.67 12 1.34 12 1 12 C0.67 8.04 0.34 4.08 0 0 Z " fill="#060616" transform="translate(990,412)"/>
<path d="M0 0 C0.81703122 2.34180923 1.16013611 3.56294344 0.29296875 5.9296875 C-0.07183594 6.57164062 -0.43664062 7.21359375 -0.8125 7.875 C-2.59891391 11.17584784 -3.91762401 14.39208003 -5 18 C-5.66 18 -6.32 18 -7 18 C-6.37834312 14.42387072 -5.42491332 11.23733326 -4.0625 7.875 C-3.72347656 7.02679687 -3.38445312 6.17859375 -3.03515625 5.3046875 C-2 3 -2 3 0 0 Z " fill="#0A193F" transform="translate(355,550)"/>
<path d="M0 0 C3.99620381 3.42531755 5.82863356 7.32882514 8 12 C8.38929688 12.66 8.77859375 13.32 9.1796875 14 C10.17638413 16.4300413 9.86774561 17.57031228 9 20 C7.86988348 17.7941576 6.74584212 15.58554973 5.625 13.375 C5.30789063 12.75753906 4.99078125 12.14007813 4.6640625 11.50390625 C2.76407197 7.74350833 1.23211496 4.04482184 0 0 Z " fill="#17255D" transform="translate(436,435)"/>
<path d="M0 0 C0.33 0.66 0.66 1.32 1 2 C1.66 2 2.32 2 3 2 C3 3.65 3 5.3 3 7 C3.66 7 4.32 7 5 7 C5 8.98 5 10.96 5 13 C2.03 12.67 -0.94 12.34 -4 12 C-4 11.67 -4 11.34 -4 11 C-2.02 10.67 -0.04 10.34 2 10 C1.505 8.9171875 1.505 8.9171875 1 7.8125 C-0.00603529 4.98302573 -0.16977402 2.97104534 0 0 Z " fill="#301D43" transform="translate(480,529)"/>
<path d="M0 0 C2 2 2 2 2.1953125 4.1640625 C2.17210937 4.97617187 2.14890625 5.78828125 2.125 6.625 C2.10695313 7.44226563 2.08890625 8.25953125 2.0703125 9.1015625 C2.03550781 10.04128906 2.03550781 10.04128906 2 11 C1.01 10.67 0.02 10.34 -1 10 C-1.33 10.66 -1.66 11.32 -2 12 C-3.6442351 7.06729471 -2.18615592 4.45975807 0 0 Z " fill="#1B1B2B" transform="translate(1240,438)"/>
<path d="M0 0 C0.66 0 1.32 0 2 0 C1.125 3.875 1.125 3.875 0 5 C-1.78167253 5.31338865 -3.57686803 5.55178073 -5.375 5.75 C-6.84066406 5.92789062 -6.84066406 5.92789062 -8.3359375 6.109375 C-11 6 -11 6 -14 3 C-9.38 3 -4.76 3 0 3 C0 2.01 0 1.02 0 0 Z " fill="#060818" transform="translate(706,496)"/>
<path d="M0 0 C0.33 0.66 0.66 1.32 1 2 C-0.40708566 5.77691413 -2.06106043 9.16998028 -4.125 12.625 C-5.77530424 15.59554763 -6.59653956 17.6714514 -7 21 C-7.66 21 -8.32 21 -9 21 C-7.89869052 16.0017493 -6.7731293 12.34055021 -4 8 C-3.30420546 5.80869466 -3.30420546 5.80869466 -3 4 C-2.34 4 -1.68 4 -1 4 C-0.67 2.68 -0.34 1.36 0 0 Z " fill="#131E50" transform="translate(397,368)"/>
<path d="M0 0 C6.32258065 -0.36476427 6.32258065 -0.36476427 9.4375 1.3125 C11 3 11 3 11 6 C7.27566618 4.7874262 3.62197194 3.49140021 0 2 C0 1.34 0 0.68 0 0 Z " fill="#0E1020" transform="translate(664,548)"/>
<path d="M0 0 C0.99 0.495 0.99 0.495 2 1 C2 2.32 2 3.64 2 5 C2.66 5 3.32 5 4 5 C8.06153846 11.4 8.06153846 11.4 7.75 14.4375 C7.5025 14.953125 7.255 15.46875 7 16 C6.566875 14.865625 6.13375 13.73125 5.6875 12.5625 C5.130625 11.386875 4.57375 10.21125 4 9 C3.01 8.67 2.02 8.34 1 8 C0.67 5.36 0.34 2.72 0 0 Z " fill="#182559" transform="translate(512,512)"/>
<path d="M0 0 C0.33 0 0.66 0 1 0 C1.49331963 7.27646454 1.49331963 7.27646454 -0.875 10.75 C-1.926875 11.86375 -1.926875 11.86375 -3 13 C-3.70885894 14.31138904 -4.39456452 15.63777017 -5 17 C-6 15 -6 15 -5.0625 11.875 C-4.711875 10.92625 -4.36125 9.9775 -4 9 C-3.34 9 -2.68 9 -2 9 C-1.34 6.03 -0.68 3.06 0 0 Z " fill="#16285E" transform="translate(301,577)"/>
<path d="M0 0 C3.04640463 2.86720436 5.78043089 5.83935407 8.375 9.125 C8.89835937 9.78757812 9.42171875 10.45015625 9.9609375 11.1328125 C10.30382813 11.74898437 10.64671875 12.36515625 11 13 C10.67 13.99 10.34 14.98 10 16 C8.99421411 14.71283353 7.99553202 13.42011342 7 12.125 C6.443125 11.40570312 5.88625 10.68640625 5.3125 9.9453125 C4 8 4 8 4 6 C3.34 6 2.68 6 2 6 C0 3 0 3 0 0 Z " fill="#0E0F1A" transform="translate(1216,562)"/>
<path d="M0 0 C0.66 0 1.32 0 2 0 C0.25192871 5.46737191 -1.65794081 10.75824848 -4 16 C-4.33 16 -4.66 16 -5 16 C-5.33188114 11.243037 -4.62235719 8.93353579 -2 5 C-1.30177383 3.34630643 -0.62501395 1.68272986 0 0 Z " fill="#172862" transform="translate(381,488)"/>
<path d="M0 0 C0.66 0.99 1.32 1.98 2 3 C1.360625 3.9075 0.72125 4.815 0.0625 5.75 C-1.67179099 8.48282216 -2.37267627 9.9679353 -3 13 C-3.99 14.485 -3.99 14.485 -5 16 C-5.66 16 -6.32 16 -7 16 C-5.26017005 10.18738629 -3.1889511 5.16830006 0 0 Z " fill="#0C153B" transform="translate(398,456)"/>
<path d="M0 0 C0.66 1.32 1.32 2.64 2 4 C2.66 4.33 3.32 4.66 4 5 C4 6.32 4 7.64 4 9 C3.21625 8.814375 2.4325 8.62875 1.625 8.4375 C-0.97089775 7.74037734 -0.97089775 7.74037734 -3 9 C-2.01 6.03 -1.02 3.06 0 0 Z " fill="#122A63" transform="translate(306,567)"/>
<path d="M0 0 C1 3 1 3 0.22265625 4.82421875 C-0.8515625 6.54947917 -1.92578125 8.27473958 -3 10 C-3.66 9.67 -4.32 9.34 -5 9 C-4.75 5.625 -4.75 5.625 -4 2 C-1.9375 0.5625 -1.9375 0.5625 0 0 Z " fill="#141822" transform="translate(637,546)"/>
<path d="M0 0 C0 3.9478088 -1.33724565 5.18508826 -4 8 C-4.99 8 -5.98 8 -7 8 C-6.25 3.25 -6.25 3.25 -4 1 C-1.875 0.375 -1.875 0.375 0 0 Z " fill="#C23F5A" transform="translate(420,524)"/>
<path d="M0 0 C0.33 1.32 0.66 2.64 1 4 C-1.14666339 7.15685792 -4.56722172 8.53924328 -8 10 C-8.66 9.67 -9.32 9.34 -10 9 C-6.7 6.03 -3.4 3.06 0 0 Z " fill="#2C1021" transform="translate(428,560)"/>
<path d="M0 0 C0.66 0.33 1.32 0.66 2 1 C0.85821872 2.66944521 -0.28852905 4.3354948 -1.4375 6 C-2.07558594 6.928125 -2.71367188 7.85625 -3.37109375 8.8125 C-3.90863281 9.534375 -4.44617187 10.25625 -5 11 C-5.33 11 -5.66 11 -6 11 C-5.63076923 4.6 -5.63076923 4.6 -2.4375 1.5625 C-1.633125 1.046875 -0.82875 0.53125 0 0 Z " fill="#0F121D" transform="translate(1135,549)"/>
<path d="M0 0 C1.32 0.33 2.64 0.66 4 1 C2.37982158 2.33918806 0.75370657 3.6711969 -0.875 5 C-2.23238281 6.11375 -2.23238281 6.11375 -3.6171875 7.25 C-6 9 -6 9 -8 9 C-7.67 7.35 -7.34 5.7 -7 4 C-6.030625 3.71125 -5.06125 3.4225 -4.0625 3.125 C-0.89335797 2.35785318 -0.89335797 2.35785318 0 0 Z " fill="#270A23" transform="translate(420,519)"/>
<path d="M0 0 C0.33 0.99 0.66 1.98 1 3 C-1.96283313 5.38672669 -4.94270509 7.7353371 -8 10 C-8.66 9.67 -9.32 9.34 -10 9 C-8.71142987 7.68445979 -7.41904109 6.37265903 -6.125 5.0625 C-5.04605469 3.96615234 -5.04605469 3.96615234 -3.9453125 2.84765625 C-2 1 -2 1 0 0 Z " fill="#30101F" transform="translate(415,573)"/>
<path d="M0 0 C1.95803507 -0.05389087 3.91648909 -0.09274217 5.875 -0.125 C7.51082031 -0.15980469 7.51082031 -0.15980469 9.1796875 -0.1953125 C12 0 12 0 14 2 C12.02 2.99 12.02 2.99 10 4 C10 3.34 10 2.68 10 2 C6.7 2 3.4 2 0 2 C0 1.34 0 0.68 0 0 Z " fill="#0D0E1C" transform="translate(898,548)"/>
<path d="M0 0 C-0.33 0.99 -0.66 1.98 -1 3 C-3.4375 4.125 -3.4375 4.125 -6 5 C-6.99 5.495 -6.99 5.495 -8 6 C-10.00800456 5.71887936 -12.01014051 5.38932033 -14 5 C-11.67684302 2.67684302 -10.12738825 2.27503325 -7 1.375 C-6.113125 1.11460937 -5.22625 0.85421875 -4.3125 0.5859375 C-2 0 -2 0 0 0 Z " fill="#230B22" transform="translate(378,606)"/>
<path d="M0 0 C1.86551426 3.58752742 3.42535928 7.27812193 5 11 C0.79236776 9.4972742 -0.8027758 6.76667005 -3 3 C-3 2.34 -3 1.68 -3 1 C-2.01 0.67 -1.02 0.34 0 0 Z " fill="#0D0F18" transform="translate(1231,556)"/>
<path d="M0 0 C0.33 0.66 0.66 1.32 1 2 C0.360625 2.598125 -0.27875 3.19625 -0.9375 3.8125 C-3.20310389 5.90810337 -3.20310389 5.90810337 -4 9 C-4.99 9.66 -5.98 10.32 -7 11 C-7.99 10.67 -8.98 10.34 -10 10 C-9.0479279 8.99403703 -8.08812654 7.99538437 -7.125 7 C-6.32449219 6.1646875 -6.32449219 6.1646875 -5.5078125 5.3125 C-4 4 -4 4 -2 4 C-1.34 2.68 -0.68 1.36 0 0 Z " fill="#C7364A" transform="translate(399,543)"/>
<path d="M0 0 C0.33 0.66 0.66 1.32 1 2 C-1.3125 4.5 -1.3125 4.5 -4 7 C-4.99 7 -5.98 7 -7 7 C-7.33 7.99 -7.66 8.98 -8 10 C-9.32 9.67 -10.64 9.34 -12 9 C-8.04 6.03 -4.08 3.06 0 0 Z " fill="#280B1E" transform="translate(441,550)"/>
<path d="M0 0 C1 2 1 2 1 5 C-2.63 4.01 -6.26 3.02 -10 2 C-6.00889681 0.0044484 -4.30013434 -0.19546065 0 0 Z " fill="#252735" transform="translate(864,414)"/>
<path d="M0 0 C3.69638666 2.62637999 5.8818514 4.52740559 7 9 C6.625 11.3125 6.625 11.3125 6 13 C5.566875 11.88625 5.13375 10.7725 4.6875 9.625 C3.30088881 5.82487666 3.30088881 5.82487666 0 4 C0 2.68 0 1.36 0 0 Z " fill="#142258" transform="translate(488,548)"/>
<path d="M0 0 C3.71134205 3.1994328 5.42930118 6.3705719 7 11 C6.6875 13.4375 6.6875 13.4375 6 15 C2.93518276 10.26346427 1.2628938 5.47253979 0 0 Z " fill="#16275B" transform="translate(473,512)"/>
<path d="M0 0 C0.99 0.33 1.98 0.66 3 1 C3.25 7.625 3.25 7.625 1 11 C0.83197949 9.54182203 0.66562857 8.0834516 0.5 6.625 C0.4071875 5.81289063 0.314375 5.00078125 0.21875 4.1640625 C0 2 0 2 0 0 Z " fill="#1B1D26" transform="translate(858,433)"/>
<path d="M0 0 C2.91226879 1.4561344 3.31842064 3.49960664 4.625 6.4375 C5.07101562 7.42621094 5.51703125 8.41492188 5.9765625 9.43359375 C7 12 7 12 7 14 C6.34 14 5.68 14 5 14 C4.16235732 12.04350603 3.33000941 10.08474444 2.5 8.125 C2.0359375 7.03445313 1.571875 5.94390625 1.09375 4.8203125 C0 2 0 2 0 0 Z " fill="#122555" transform="translate(477,434)"/>
<path d="M0 0 C0.99 0.33 1.98 0.66 3 1 C1.8803014 2.00593243 0.7540588 3.0045849 -0.375 4 C-1.00148438 4.556875 -1.62796875 5.11375 -2.2734375 5.6875 C-4 7 -4 7 -6 7 C-6.33 7.66 -6.66 8.32 -7 9 C-7 6 -7 6 -5.57421875 4.359375 C-4.95160156 3.82828125 -4.32898438 3.2971875 -3.6875 2.75 C-3.07261719 2.20859375 -2.45773437 1.6671875 -1.82421875 1.109375 C-1.22222656 0.74328125 -0.62023437 0.3771875 0 0 Z " fill="#412449" transform="translate(331,601)"/>
<path d="M0 0 C1 2 1 2 0.29296875 4.34765625 C-0.07183594 5.24355469 -0.43664062 6.13945313 -0.8125 7.0625 C-1.16957031 7.96097656 -1.52664063 8.85945312 -1.89453125 9.78515625 C-3 12 -3 12 -5 13 C-4.54996653 7.37458159 -3.31558515 4.38512875 0 0 Z " fill="#132352" transform="translate(365,527)"/>
<path d="M0 0 C4.4114727 3.23507998 4.84694558 6.84557192 5.703125 11.953125 C5.80109375 12.62859375 5.8990625 13.3040625 6 14 C5.34 13.67 4.68 13.34 4 13 C3.59270772 10.67843403 3.25561323 8.3431213 3 6 C2.34 6 1.68 6 1 6 C0.67 4.02 0.34 2.04 0 0 Z " fill="#0F1F4C" transform="translate(485,450)"/>
<path d="M0 0 C2.23960447 2.87949147 4.29864224 5.76742026 6 9 C5.67 9.66 5.34 10.32 5 11 C4.34 10.67 3.68 10.34 3 10 C3 9.34 3 8.68 3 8 C2.34 8 1.68 8 1 8 C-0.35439668 5.29120665 -0.06501451 2.99066732 0 0 Z " fill="#192256" transform="translate(470,418)"/>
<path d="M0 0 C5.94 0 11.88 0 18 0 C17.67 0.99 17.34 1.98 17 3 C16.01 2.67 15.02 2.34 14 2 C11.60745424 1.77439324 9.21071877 1.59151405 6.8125 1.4375 C5.54019531 1.35371094 4.26789062 1.26992188 2.95703125 1.18359375 C1.98121094 1.12300781 1.00539063 1.06242187 0 1 C0 0.67 0 0.34 0 0 Z " fill="#060814" transform="translate(661,413)"/>
<path d="M0 0 C0.99 0.33 1.98 0.66 3 1 C2.67 2.32 2.34 3.64 2 5 C1.34 4.67 0.68 4.34 0 4 C0 5.65 0 7.3 0 9 C-0.99 8.67 -1.98 8.34 -3 8 C-1.125 2.25 -1.125 2.25 0 0 Z " fill="#0E1A42" transform="translate(421,404)"/>
<path d="M0 0 C0.88336837 2.4667645 1.1312406 3.63859372 0.22265625 6.140625 C-0.16019531 6.83671875 -0.54304688 7.5328125 -0.9375 8.25 C-1.31777344 8.95640625 -1.69804687 9.6628125 -2.08984375 10.390625 C-2.39019531 10.92171875 -2.69054687 11.4528125 -3 12 C-4.46538911 7.57452487 -3.0196077 5.11689261 -1 1 C-0.67 0.67 -0.34 0.34 0 0 Z " fill="#172962" transform="translate(347,564)"/>
<path d="M0 0 C0.99 0.495 0.99 0.495 2 1 C2.625 3.5625 2.625 3.5625 3 6 C3.99 6 4.98 6 6 6 C5.67 7.32 5.34 8.64 5 10 C4.01 9.67 3.02 9.34 2 9 C1.26953125 6.93359375 1.26953125 6.93359375 0.8125 4.4375 C0.65394531 3.61121094 0.49539063 2.78492188 0.33203125 1.93359375 C0.16767578 0.97646484 0.16767578 0.97646484 0 0 Z " fill="#0A0D1A" transform="translate(1146,471)"/>
<path d="M0 0 C0.99 0 1.98 0 3 0 C1.66511872 3.59391114 0.03977277 6.75490696 -2 10 C-3.39195915 5.82412255 -1.82323219 3.86525224 0 0 Z " fill="#0A0C1B" transform="translate(1227,471)"/>
<path d="M0 0 C2.1385485 2.1385485 2.42655063 3.13275314 3 6 C2.01 6.33 1.02 6.66 0 7 C-0.66 6.67 -1.32 6.34 -2 6 C-1.34 4.02 -0.68 2.04 0 0 Z M-1 7 C-0.67 7.99 -0.34 8.98 0 10 C-0.99 10.495 -0.99 10.495 -2 11 C-1.67 9.68 -1.34 8.36 -1 7 Z " fill="#1E1E2A" transform="translate(668,432)"/>
<path d="M0 0 C0.99 0 1.98 0 3 0 C3 0.66 3 1.32 3 2 C3.66 2.33 4.32 2.66 5 3 C3.56445975 3.50559908 2.1264798 4.0042749 0.6875 4.5 C-0.51326172 4.91765625 -0.51326172 4.91765625 -1.73828125 5.34375 C-4 6 -4 6 -7 6 C-6.67 5.34 -6.34 4.68 -6 4 C-2.9375 3.375 -2.9375 3.375 0 3 C0 2.01 0 1.02 0 0 Z " fill="#0B0F1A" transform="translate(887,536)"/>
<path d="M0 0 C1.485 0.99 1.485 0.99 3 2 C3.29296875 4.1640625 3.29296875 4.1640625 3.1875 6.625 C3.16042969 7.44226563 3.13335938 8.25953125 3.10546875 9.1015625 C3.07066406 9.72804688 3.03585937 10.35453125 3 11 C2.34 11 1.68 11 1 11 C0.67 7.37 0.34 3.74 0 0 Z " fill="#10121C" transform="translate(772,464)"/>
<path d="M0 0 C2 2 2 2 2.125 5.125 C2.08375 6.07375 2.0425 7.0225 2 8 C1.01 8 0.02 8 -1 8 C-1.04241723 5.66705225 -1.04092937 3.33297433 -1 1 C-0.67 0.67 -0.34 0.34 0 0 Z " fill="#191B25" transform="translate(771,432)"/>
<path d="M0 0 C3.05936637 3.75467691 5 7.08113061 5 12 C4.34 12 3.68 12 3 12 C2.49166409 10.75336669 1.99368855 9.50250613 1.5 8.25 C1.2215625 7.55390625 0.943125 6.8578125 0.65625 6.140625 C0 4 0 4 0 0 Z " fill="#122358" transform="translate(455,384)"/>
<path d="M0 0 C0.99 0 1.98 0 3 0 C1.54744301 3.82946843 -0.42895561 5.12050295 -4 7 C-3.67 5.02 -3.34 3.04 -3 1 C-2.34 1.33 -1.68 1.66 -1 2 C-0.67 1.34 -0.34 0.68 0 0 Z " fill="#250C1E" transform="translate(355,583)"/>
<path d="M0 0 C1.32 0.33 2.64 0.66 4 1 C4.66 3.31 5.32 5.62 6 8 C2.24623848 6.74874616 1.75926711 5.4347596 0 2 C0 1.34 0 0.68 0 0 Z " fill="#0F101F" transform="translate(1236,568)"/>
<path d="M0 0 C0.88336837 2.4667645 1.1312406 3.63859372 0.22265625 6.140625 C-0.16019531 6.83671875 -0.54304688 7.5328125 -0.9375 8.25 C-1.31777344 8.95640625 -1.69804687 9.6628125 -2.08984375 10.390625 C-2.39019531 10.92171875 -2.69054687 11.4528125 -3 12 C-3.33 12 -3.66 12 -4 12 C-3.67 9.69 -3.34 7.38 -3 5 C-2.34 5 -1.68 5 -1 5 C-0.67 3.35 -0.34 1.7 0 0 Z " fill="#162860" transform="translate(387,476)"/>
<path d="M0 0 C0.33 0 0.66 0 1 0 C1.25 5.625 1.25 5.625 -1 9 C-1.66 9 -2.32 9 -3 9 C-2.5020163 5.26512223 -2.12508244 3.18762365 0 0 Z " fill="#192665" transform="translate(351,468)"/>
<path d="M0 0 C2.52259061 1.97420135 2.9929808 2.96745642 3.6875 6.1875 C3.790625 7.115625 3.89375 8.04375 4 9 C3.34 9 2.68 9 2 9 C2 8.34 2 7.68 2 7 C1.34 6.67 0.68 6.34 0 6 C0 4.02 0 2.04 0 0 Z " fill="#0E111B" transform="translate(1200,464)"/>
<path d="M0 0 C1.9375 0.75 1.9375 0.75 4 2 C4.75 4.125 4.75 4.125 5 6 C3.68 6.33 2.36 6.66 1 7 C0.34 5.02 -0.32 3.04 -1 1 C-0.67 0.67 -0.34 0.34 0 0 Z " fill="#1B1C30" transform="translate(1143,463)"/>
<path d="M0 0 C0.66 0 1.32 0 2 0 C1.21681311 3.91593446 -0.39179858 7.36406635 -2 11 C-2.95465783 8.83032311 -3.14401212 7.43671207 -2.3984375 5.17578125 C-1.64129615 3.4315257 -0.82390802 1.71372869 0 0 Z " fill="#0B173B" transform="translate(357,450)"/>
<path d="M0 0 C0.33 0 0.66 0 1 0 C0.53199289 4.05606165 0.12046792 7.46588679 -2 11 C-2.66 11 -3.32 11 -4 11 C-3.52269162 9.5410574 -3.04308958 8.08286504 -2.5625 6.625 C-2.29566406 5.81289063 -2.02882813 5.00078125 -1.75390625 4.1640625 C-1 2 -1 2 0 0 Z " fill="#12245C" transform="translate(363,441)"/>
<path d="M0 0 C0.66 0.33 1.32 0.66 2 1 C1.67 1.66 1.34 2.32 1 3 C3.97 3.495 3.97 3.495 7 4 C7 4.33 7 4.66 7 5 C3.7 5 0.4 5 -3 5 C-1 1 -1 1 0 0 Z " fill="#C4405A" transform="translate(331,603)"/>
<path d="M0 0 C0.33 0 0.66 0 1 0 C1.33 2.31 1.66 4.62 2 7 C0.02 7.99 0.02 7.99 -2 9 C-2 5.20442119 -1.49821059 3.37097383 0 0 Z " fill="#181C28" transform="translate(930,588)"/>
<path d="M0 0 C0.99 0.33 1.98 0.66 3 1 C2.875 2.875 2.875 2.875 2 5 C-1.0625 6.25 -1.0625 6.25 -4 7 C-4 6.34 -4 5.68 -4 5 C-2.68 4.34 -1.36 3.68 0 3 C0 2.01 0 1.02 0 0 Z " fill="#0F111F" transform="translate(913,588)"/>
<path d="M0 0 C3.31038651 1.65519326 3.78867011 4.65442221 5 8 C4.67 8.99 4.34 9.98 4 11 C1.9656541 9.58480285 1.09589607 8.45017877 0.578125 6.01953125 C0.33726048 4.01823046 0.16467259 2.0090056 0 0 Z " fill="#0D1B3F" transform="translate(490,553)"/>
<path d="M0 0 C2.64 0.99 5.28 1.98 8 3 C7.01 3.33 6.02 3.66 5 4 C5 4.66 5 5.32 5 6 C4.01 5.67 3.02 5.34 2 5 C0.8125 2.4375 0.8125 2.4375 0 0 Z " fill="#0E1120" transform="translate(1126,601)"/>
<path d="M0 0 C0.66 0.33 1.32 0.66 2 1 C1.38125 1.2475 0.7625 1.495 0.125 1.75 C-2.35068687 3.20628639 -2.95125002 4.37812506 -4 7 C-4.66 6.67 -5.32 6.34 -6 6 C-5 3 -5 3 -2.5625 1.25 C-1.716875 0.8375 -0.87125 0.425 0 0 Z " fill="#0E101D" transform="translate(923,599)"/>
<path d="M0 0 C0.93423645 3.01031744 1.04449911 3.86650268 0 7 C-0.99 7 -1.98 7 -3 7 C-3 6.34 -3 5.68 -3 5 C-3.66 4.67 -4.32 4.34 -5 4 C-3.35 2.68 -1.7 1.36 0 0 Z " fill="#212334" transform="translate(1171,597)"/>
<path d="M0 0 C2.91227269 3.28804981 4.49701212 5.59885603 5 10 C4.67 9.01 4.34 8.02 4 7 C1.99983534 5.79117904 1.99983534 5.79117904 0 5 C0 3.35 0 1.7 0 0 Z " fill="#122351" transform="translate(544,582)"/>
<path d="M0 0 C0 4.31618166 -2.13270348 5.92789659 -5 9 C-5.66 9 -6.32 9 -7 9 C-5.44499019 5.18315774 -2.96404505 2.80804268 0 0 Z " fill="#25081F" transform="translate(376,563)"/>
<path d="M0 0 C1 3 1 3 1 7 C-0.65 7.66 -2.3 8.32 -4 9 C-2.68 6.03 -1.36 3.06 0 0 Z " fill="#101119" transform="translate(1107,458)"/>
<path d="M0 0 C0.66 0 1.32 0 2 0 C1.3125 2.4375 1.3125 2.4375 0 5 C-2.625 5.8125 -2.625 5.8125 -5 6 C-3.38405168 3.95880212 -1.7143618 1.95927063 0 0 Z " fill="#0A0C19" transform="translate(784,447)"/>
<path d="M0 0 C0.66 0.99 1.32 1.98 2 3 C0.63016497 6.16115776 0.0109362 6.9927092 -3 9 C-2.44271087 5.65626525 -1.64826111 2.96687001 0 0 Z " fill="#0D0D1A" transform="translate(1237,447)"/>
<path d="M0 0 C0.33 0 0.66 0 1 0 C2.67357513 5.37305699 2.67357513 5.37305699 3 8 C1.625 10 1.625 10 0 11 C-0.99 10.67 -1.98 10.34 -3 10 C-2.505 9.649375 -2.01 9.29875 -1.5 8.9375 C0.73063966 6.05625711 0.19980621 3.52990974 0 0 Z " fill="#0C0E1C" transform="translate(769,435)"/>
<path d="M0 0 C0.66 0 1.32 0 2 0 C2.33 1.32 2.66 2.64 3 4 C2.01 4.33 1.02 4.66 0 5 C0 5.66 0 6.32 0 7 C-0.66 7 -1.32 7 -2 7 C-1.34 4.69 -0.68 2.38 0 0 Z " fill="#1F2022" transform="translate(932,432)"/>
<path d="M0 0 C6.75 0.875 6.75 0.875 9 2 C8.67 3.32 8.34 4.64 8 6 C6 5 6 5 5.125 3 C4.1765144 0.79994195 4.1765144 0.79994195 1.875 0.25 C0.946875 0.12625 0.946875 0.12625 0 0 Z " fill="#1E1F2F" transform="translate(846,426)"/>
<path d="M0 0 C0.33 0 0.66 0 1 0 C1.125 5.75 1.125 5.75 0 8 C-0.99 8 -1.98 8 -3 8 C-1.125 2.25 -1.125 2.25 0 0 Z " fill="#11245B" transform="translate(291,600)"/>
<path d="M0 0 C2.27795022 2.27795022 3.05219877 3.93787293 4 7 C3.625 9.3125 3.625 9.3125 3 11 C0.43383368 7.15075052 0.44902324 4.5650696 0 0 Z " fill="#19275A" transform="translate(528,545)"/>
<path d="M0 0 C0.66 0.33 1.32 0.66 2 1 C0.68 3.64 -0.64 6.28 -2 9 C-2.33 9 -2.66 9 -3 9 C-3.26218749 5.85375007 -3.24754367 4.38162983 -1.5 1.6875 C-1.005 1.130625 -0.51 0.57375 0 0 Z " fill="#091839" transform="translate(333,504)"/>
<path d="M0 0 C3 1 3 1 4.6875 4.0625 C5.120625 5.031875 5.55375 6.00125 6 7 C4.125 6.875 4.125 6.875 2 6 C0.75 2.9375 0.75 2.9375 0 0 Z " fill="#0C0D1A" transform="translate(851,483)"/>
<path d="M0 0 C0.33 0 0.66 0 1 0 C1 3.96 1 7.92 1 12 C0.67 12 0.34 12 0 12 C-0.12375 11.195625 -0.2475 10.39125 -0.375 9.5625 C-0.684375 8.2940625 -0.684375 8.2940625 -1 7 C-1.66 6.67 -2.32 6.34 -3 6 C-3 5.34 -3 4.68 -3 4 C-2.34 4 -1.68 4 -1 4 C-0.67 2.68 -0.34 1.36 0 0 Z " fill="#0F0E21" transform="translate(1242,444)"/>
<path d="M0 0 C1.32 0.33 2.64 0.66 4 1 C3.67 2.65 3.34 4.3 3 6 C2.01 5.67 1.02 5.34 0 5 C0 3.35 0 1.7 0 0 Z " fill="#0B0C1B" transform="translate(1224,437)"/>
<path d="M0 0 C0.66 0.99 1.32 1.98 2 3 C2.66 3.33 3.32 3.66 4 4 C2.68 5.32 1.36 6.64 0 8 C-1.125 2.25 -1.125 2.25 0 0 Z " fill="#191C29" transform="translate(1128,556)"/>
<path d="M0 0 C1.98 0 3.96 0 6 0 C6 0.66 6 1.32 6 2 C4.02 2.66 2.04 3.32 0 4 C-0.33 3.34 -0.66 2.68 -1 2 C-0.67 1.34 -0.34 0.68 0 0 Z " fill="#271022" transform="translate(434,509)"/>
<path d="M0 0 C1.2065625 0.0309375 1.2065625 0.0309375 2.4375 0.0625 C2.4375 1.0525 2.4375 2.0425 2.4375 3.0625 C1.1175 3.3925 -0.2025 3.7225 -1.5625 4.0625 C-2.2225 3.0725 -2.8825 2.0825 -3.5625 1.0625 C-2.5625 0.0625 -2.5625 0.0625 0 0 Z " fill="#1C0C31" transform="translate(441.5625,505.9375)"/>
<path d="M0 0 C0.66 0.99 1.32 1.98 2 3 C0.68 5.31 -0.64 7.62 -2 10 C-2.6875 8.375 -2.6875 8.375 -3 6 C-1.5625 2.75 -1.5625 2.75 0 0 Z " fill="#132159" transform="translate(339,494)"/>
<path d="M0 0 C1.32 0 2.64 0 4 0 C3.34 2.64 2.68 5.28 2 8 C1.67 8 1.34 8 1 8 C0.67 5.36 0.34 2.72 0 0 Z " fill="#1A1E2A" transform="translate(900,473)"/>
<path d="M0 0 C0.33 0.99 0.66 1.98 1 3 C-0.4375 5.6875 -0.4375 5.6875 -2 8 C-2.66 6.68 -3.32 5.36 -4 4 C-3.01 3.67 -2.02 3.34 -1 3 C-0.67 2.01 -0.34 1.02 0 0 Z " fill="#0B0D1D" transform="translate(1224,445)"/>
<path d="M0 0 C0.66 0.33 1.32 0.66 2 1 C0.125 6.75 0.125 6.75 -1 9 C-1.66 9 -2.32 9 -3 9 C-2.01 6.03 -1.02 3.06 0 0 Z " fill="#2B2C37" transform="translate(1116,432)"/>
</svg>
