<?xml version="1.0" encoding="UTF-8"?>
<svg version="1.1" xmlns="http://www.w3.org/2000/svg" width="287" height="231">
<path d="M0 0 C94.71 0 189.42 0 287 0 C287 76.23 287 152.46 287 231 C192.29 231 97.58 231 0 231 C0 154.77 0 78.54 0 0 Z " fill="#010101" transform="translate(0,0)"/>
<path d="M0 0 C0.92876953 0.20496094 1.85753906 0.40992188 2.81445312 0.62109375 C8.1478704 1.85620091 12.97799716 3.45532893 17.90771484 5.84350586 C20.07147973 6.80983483 22.21391871 7.4474629 24.5 8.0625 C30.28583922 9.94720419 35.07522833 13.45665378 38.1015625 18.80859375 C39.71270163 22.79126944 39.9375 25.29131656 39.9375 29.75 C43.8975 29.75 47.8575 29.75 51.9375 29.75 C52.03515625 35.90234375 52.03515625 35.90234375 51.9375 37.75 C50.9375 38.75 50.9375 38.75 48.21484375 38.84765625 C46.56162109 38.83025391 46.56162109 38.83025391 44.875 38.8125 C43.77027344 38.80347656 42.66554688 38.79445312 41.52734375 38.78515625 C40.67269531 38.77355469 39.81804687 38.76195312 38.9375 38.75 C38.82921875 39.48476562 38.7209375 40.21953125 38.609375 40.9765625 C37.11196517 47.15773099 32.92926451 51.46205612 27.6875 54.8515625 C23.5178932 57.1132019 19.44275124 59.24824959 14.9375 60.75 C14.9375 61.41 14.9375 62.07 14.9375 62.75 C13.7309375 63.07613281 12.524375 63.40226562 11.28125 63.73828125 C9.66661276 64.17949026 8.05203245 64.62090766 6.4375 65.0625 C5.64601562 65.27583984 4.85453125 65.48917969 4.0390625 65.70898438 C0.14572836 66.77805563 -3.64514847 67.92798208 -7.41015625 69.390625 C-13.3622858 71.60596306 -17.82831081 71.46687609 -23.625 69.1875 C-28.26751477 66.93463321 -31.8921462 63.8167336 -35.0625 59.75 C-35.5575 58.265 -35.5575 58.265 -36.0625 56.75 C-33.56888429 57.95381448 -31.38106917 59.20428722 -29.0625 60.75 C-23.83332481 61.36710763 -17.85302586 61.99825741 -12.94921875 59.8046875 C-11.17387353 58.4221458 -11.17387353 58.4221458 -9.0625 55.75 C-8.39992187 55.01265625 -7.73734375 54.2753125 -7.0546875 53.515625 C-1.28743406 45.50932022 0.05451509 33.34556336 -1.0625 23.75 C-2.48421413 16.53914774 -5.14421792 9.48462566 -11.0625 4.75 C-17.13199167 1.35822524 -24.49833676 2.40350498 -31.0625 3.75 C-23.04928688 -5.49601513 -10.58962415 -2.52379893 0 0 Z " fill="#F3F1F3" transform="translate(179.0625,60.25)"/>
<path d="M0 0 C-3 1 -3 1 -6.6875 0.875 C-11.26611984 0.85819773 -15.07292663 1.55774983 -19 4 C-24.89807902 9.91112786 -27.24526661 16.26700137 -27.2734375 24.53515625 C-27.26183594 25.69337891 -27.26183594 25.69337891 -27.25 26.875 C-27.25773437 27.63941406 -27.26546875 28.40382812 -27.2734375 29.19140625 C-27.23712376 39.88580279 -23.96756203 49.91416269 -16.375 57.6875 C-10.57166818 59.94435126 -4.35956943 60.19177387 1.5546875 58.09375 C3.97113063 56.93061789 3.97113063 56.93061789 7 55 C5.4378342 61.63920465 -0.53817803 64.39446393 -5.875 67.875 C-11.12634188 69.76548308 -16.22988517 70.19477796 -21.4453125 67.9453125 C-23.09014988 67.05149412 -24.72805564 66.14482088 -26.359375 65.2265625 C-29.32758073 63.84783972 -31.88615534 63.41502783 -35.125 63 C-40.54727201 62.27142598 -44.91118128 60.75209247 -49 57 C-49 56.34 -49 55.68 -49 55 C-49.7425 55.05027344 -50.485 55.10054687 -51.25 55.15234375 C-55.92075021 54.8935948 -58.76391842 52.20998415 -62 49 C-64.70276147 45.17975062 -67 41.75096166 -67 37 C-71.29 37 -75.58 37 -80 37 C-80 34.03 -80 31.06 -80 28 C-76.04 28 -72.08 28 -68 28 C-68.0825 27.01 -68.165 26.02 -68.25 25 C-68.24058943 20.36059 -66.56759309 16.80598204 -64 13 C-59.8 9 -59.8 9 -57 9 C-57 8.34 -57 7.68 -57 7 C-56.27554688 6.81824219 -55.55109375 6.63648437 -54.8046875 6.44921875 C-48.78242208 4.92644193 -48.78242208 4.92644193 -43.125 2.4375 C-38.84484362 0.46862807 -34.57936866 0.090927 -29.92578125 -0.47265625 C-26.82087484 -0.83174628 -26.82087484 -0.83174628 -24 -3 C-15.39777814 -5.6067339 -7.73808329 -4.18678903 0 0 Z " fill="#F3F1F3" transform="translate(131,62)"/>
<path d="M0 0 C0.99 0.33 1.98 0.66 3 1 C2.4740625 1.8971875 2.4740625 1.8971875 1.9375 2.8125 C0.66695302 5.10813214 0.66695302 5.10813214 2 8 C1.0390625 9.90234375 1.0390625 9.90234375 -0.375 11.9375 C-4.17220945 17.44239302 -4.18218154 22.24020945 -4.1875 28.75 C-4.19974609 29.5234375 -4.21199219 30.296875 -4.22460938 31.09375 C-4.25165412 41.83953034 -1.00957204 51.87115244 6.625 59.6875 C12.42833182 61.94435126 18.64043057 62.19177387 24.5546875 60.09375 C26.97113063 58.93061789 26.97113063 58.93061789 30 57 C28.4378342 63.63920465 22.46182197 66.39446393 17.125 69.875 C11.82813111 71.7818728 6.75552732 72.15526767 1.484375 69.9453125 C-0.17397973 69.06398561 -1.82259448 68.16408595 -3.4609375 67.24609375 C-7.4603378 65.28331114 -11.61840211 64.62461076 -16 64 C-17.125 60.6875 -17.125 60.6875 -18 57 C-17.34 56.01 -16.68 55.02 -16 54 C-15.34 54.66 -14.68 55.32 -14 56 C-14.47690204 54.37433394 -14.95659666 52.74948689 -15.4375 51.125 C-15.70433594 50.22007813 -15.97117187 49.31515625 -16.24609375 48.3828125 C-16.92613826 46.01724619 -16.92613826 46.01724619 -18 44 C-18.26919004 40.48543854 -18.23168315 36.96120435 -18.25 33.4375 C-18.270625 32.47263672 -18.29125 31.50777344 -18.3125 30.51367188 C-18.36111112 21.51453921 -16.55357412 14.16590209 -11 7 C-10.34 6.67 -9.68 6.34 -9 6 C-8.67 5.01 -8.34 4.02 -8 3 C-5.68970915 2.25740651 -3.354248 1.588562 -1 1 C-0.67 0.67 -0.34 0.34 0 0 Z " fill="#F5F3F6" transform="translate(108,60)"/>
<path d="M0 0 C1.65 0.33 3.3 0.66 5 1 C5.33 2.32 5.66 3.64 6 5 C18.21 5 30.42 5 43 5 C43.66 3.35 44.32 1.7 45 0 C47.4375 0.375 47.4375 0.375 50 1 C51.46961466 3.93922933 51.20919862 6.60408972 51.25 9.875 C51.27578125 11.10992187 51.3015625 12.34484375 51.328125 13.6171875 C50.98550073 17.14948054 50.40930359 18.4765715 48 21 C46.0625 20.6875 46.0625 20.6875 44 20 C43.505 18.515 43.505 18.515 43 17 C24.685 16.505 24.685 16.505 6 16 C5.01 18.475 5.01 18.475 4 21 C2.68 21 1.36 21 0 21 C-2.042739 17.61975332 -2.26976872 14.98164934 -2.25 11.0625 C-2.25515625 10.04285156 -2.2603125 9.02320312 -2.265625 7.97265625 C-1.99523535 4.94667796 -1.27241136 2.74174353 0 0 Z " fill="#F6F5F6" transform="translate(116,83)"/>
<path d="M0 0 C6.99678838 0.93938363 11.86313942 3.10544416 17 8 C18.875 10.5625 18.875 10.5625 20 13 C20.391875 13.825 20.78375 14.65 21.1875 15.5 C22 18 22 18 22 23 C25.96 23 29.92 23 34 23 C34.09765625 29.15234375 34.09765625 29.15234375 34 31 C33 32 33 32 30.27734375 32.09765625 C29.17519531 32.08605469 28.07304687 32.07445312 26.9375 32.0625 C25.83277344 32.05347656 24.72804687 32.04445312 23.58984375 32.03515625 C22.73519531 32.02355469 21.88054687 32.01195312 21 32 C20.90847656 32.72574219 20.81695312 33.45148438 20.72265625 34.19921875 C19.87962297 37.46654231 18.56837543 39.2167063 16.4375 41.8125 C15.79683594 42.60269531 15.15617188 43.39289063 14.49609375 44.20703125 C14.00238281 44.79871094 13.50867188 45.39039063 13 46 C12.34 45.67 11.68 45.34 11 45 C11 44.34 11 43.68 11 43 C11.99 42.505 11.99 42.505 13 42 C12.67 40.68 12.34 39.36 12 38 C10.515 38.495 10.515 38.495 9 39 C9.165 37.9275 9.33 36.855 9.5 35.75 C10.70677159 25.5194588 10.4433602 16.49601059 6 7 C5.02357526 5.97696787 4.0290509 4.9700795 3 4 C3 3.34 3 2.68 3 2 C2.01 1.67 1.02 1.34 0 1 C0 0.67 0 0.34 0 0 Z " fill="#E6E5E7" transform="translate(197,67)"/>
<path d="M0 0 C0 0.66 0 1.32 0 2 C-1 3 -2 4 -3 5 C-7.98439497 12.17752876 -8.363455 19.34424142 -8.375 27.8125 C-8.39949219 28.74642578 -8.42398438 29.68035156 -8.44921875 30.64257812 C-8.47483512 36.79477534 -7.42567835 41.35529798 -4.76416016 46.9128418 C-4 49 -4 49 -5 52 C-6.30756569 50.34577736 -7.59531621 48.67588482 -8.875 47 C-9.95394531 45.6078125 -9.95394531 45.6078125 -11.0546875 44.1875 C-14.92694196 37.84260113 -15.36253604 31.30387833 -15.375 24 C-15.39949219 23.24460937 -15.42398438 22.48921875 -15.44921875 21.7109375 C-15.48350222 15.059944 -13.4648698 10.17600583 -9.40234375 4.94140625 C-4.1529745 0 -4.1529745 0 0 0 Z " fill="#2C2A2C" transform="translate(99,65)"/>
<path d="M0 0 C1.31823302 0.59155331 2.62947051 1.19871463 3.9375 1.8125 C5.03384766 2.31716797 5.03384766 2.31716797 6.15234375 2.83203125 C8 4 8 4 9 7 C9.66 7 10.32 7 11 7 C16.35443318 17.37421429 16.37482809 27.29833211 13 38.375 C12.35321929 40.25695222 11.69397741 42.13493571 11 44 C10.34 44 9.68 44 9 44 C8.731875 44.598125 8.46375 45.19625 8.1875 45.8125 C7.01506533 47.97224808 5.80630718 49.35790256 4 51 C4.53076496 48.80479737 5.10722685 46.64109563 5.75390625 44.4765625 C9.15894711 32.46844738 10.03155031 18.41086261 3.9453125 7.02734375 C3.01651888 5.64771235 2.0140354 4.31824602 1 3 C0.67 2.01 0.34 1.02 0 0 Z " fill="#1C191C" transform="translate(183,65)"/>
<path d="M0 0 C5.94 0 11.88 0 18 0 C18 1.32 18 2.64 18 4 C14.37 4 10.74 4 7 4 C7 4.66 7 5.32 7 6 C9.64 6 12.28 6 15 6 C15 7.32 15 8.64 15 10 C11.7 10 8.4 10 5 10 C5 10.66 5 11.32 5 12 C7.64 12 10.28 12 13 12 C13 13.32 13 14.64 13 16 C10.35409986 16.02684679 7.70846904 16.04676357 5.0625 16.0625 C4.30775391 16.07087891 3.55300781 16.07925781 2.77539062 16.08789062 C0.85005687 16.09652441 -1.07535581 16.05224333 -3 16 C-3.33 15.67 -3.66 15.34 -4 15 C-3.53545674 9.30934502 -2.09263101 5.58034937 0 0 Z " fill="#F7F6F6" transform="translate(59,164)"/>
<path d="M0 0 C2.97 0 5.94 0 9 0 C7.77472971 4.05281712 6.30119506 7.44360764 4 11 C6.31 11.33 8.62 11.66 11 12 C10.67 13.32 10.34 14.64 10 16 C5.38 16 0.76 16 -4 16 C-5.06233499 11.75066006 -5.10348168 11.49304352 -3.125 8 C-1.54621306 5.17364016 -0.81270762 3.25083048 0 0 Z " fill="#F1F0F1" transform="translate(156,164)"/>
<path d="M0 0 C4.29 0 8.58 0 13 0 C12.38727783 6.494855 12.38727783 6.494855 10.5625 8.875 C7.39999159 11.15200606 5.22897405 11.10731365 1.375 11.0625 C0.37210937 11.05347656 -0.63078125 11.04445312 -1.6640625 11.03515625 C-2.43492188 11.02355469 -3.20578125 11.01195312 -4 11 C-3.27758802 6.88295306 -1.97646289 3.69512628 0 0 Z " fill="#F3F0F1" transform="translate(93,169)"/>
<path d="M0 0 C1.75763672 0.08701172 1.75763672 0.08701172 3.55078125 0.17578125 C4.73027344 0.22089844 5.90976563 0.26601562 7.125 0.3125 C8.48044922 0.39951172 8.48044922 0.39951172 9.86328125 0.48828125 C9.14488033 4.28739243 8.1377272 7.83486952 6.86328125 11.48828125 C4.88328125 11.48828125 2.90328125 11.48828125 0.86328125 11.48828125 C0.86328125 10.16828125 0.86328125 8.84828125 0.86328125 7.48828125 C0.20328125 7.48828125 -0.45671875 7.48828125 -1.13671875 7.48828125 C-1.13671875 8.80828125 -1.13671875 10.12828125 -1.13671875 11.48828125 C-3.11671875 11.48828125 -5.09671875 11.48828125 -7.13671875 11.48828125 C-5.90780771 0.91964628 -5.90780771 0.91964628 0 0 Z " fill="#F4F3F4" transform="translate(128.13671875,168.51171875)"/>
<path d="M0 0 C-3 1 -3 1 -6.6875 0.875 C-11.3421883 0.78912014 -14.71604697 2.25737504 -19 4 C-19.99 4 -20.98 4 -22 4 C-22.33 2.68 -22.66 1.36 -23 0 C-23.99 0.495 -23.99 0.495 -25 1 C-26.99960012 1.039992 -29.00047242 1.04346799 -31 1 C-31.33 1.99 -31.66 2.98 -32 4 C-34.64 4 -37.28 4 -40 4 C-40 3.01 -40 2.02 -40 1 C-39.09636719 0.87882812 -38.19273438 0.75765625 -37.26171875 0.6328125 C-36.08222656 0.46523438 -34.90273437 0.29765625 -33.6875 0.125 C-32.51574219 -0.03742187 -31.34398438 -0.19984375 -30.13671875 -0.3671875 C-26.85469105 -0.82300621 -26.85469105 -0.82300621 -24 -3 C-15.39777814 -5.6067339 -7.73808329 -4.18678903 0 0 Z " fill="#EBEAEB" transform="translate(131,62)"/>
<path d="M0 0 C3.96 0 7.92 0 12 0 C12 1.32 12 2.64 12 4 C11.01 4.495 11.01 4.495 10 5 C10 5.99 10 6.98 10 8 C9.01 8.495 9.01 8.495 8 9 C8 9.99 8 10.98 8 12 C4.37 12 0.74 12 -3 12 C-2.4721307 7.51311093 -1.70509 4.26272499 0 0 Z " fill="#CCCACB" transform="translate(202,168)"/>
<path d="M0 0 C1.98 0 3.96 0 6 0 C6 1.65 6 3.3 6 5 C6.66 5 7.32 5 8 5 C8.33 3.35 8.66 1.7 9 0 C10.65 0 12.3 0 14 0 C13.39301257 4.12751449 11.96189209 7.3321148 10 11 C7.625 11.125 7.625 11.125 5 11 C4.34 10.34 3.68 9.68 3 9 C2.67 9.66 2.34 10.32 2 11 C0.35 11 -1.3 11 -3 11 C-2.44894091 7.0507432 -1.61064629 3.65079826 0 0 Z " fill="#ECECEC" transform="translate(77,169)"/>
<path d="M0 0 C0.66 0.33 1.32 0.66 2 1 C1.65066406 1.60328125 1.30132812 2.2065625 0.94140625 2.828125 C0.48636719 3.62734375 0.03132813 4.4265625 -0.4375 5.25 C-0.88996094 6.03890625 -1.34242187 6.8278125 -1.80859375 7.640625 C-3.77622655 11.53718307 -4.12289942 14.8612998 -4.09765625 19.203125 C-4.09443359 20.1828125 -4.09121094 21.1625 -4.08789062 22.171875 C-4.07951172 23.18765625 -4.07113281 24.2034375 -4.0625 25.25 C-4.05798828 26.28125 -4.05347656 27.3125 -4.04882812 28.375 C-4.03706088 30.91672573 -4.02062011 33.45833319 -4 36 C-9.70467557 28.7105839 -9.83010199 20.97739934 -9 12 C-7.44859078 6.53233076 -4.75833702 3.17222468 0 0 Z " fill="#121012" transform="translate(79,70)"/>
<path d="M0 0 C1.65 0 3.3 0 5 0 C4.125 5.75 4.125 5.75 3 8 C3.66 8 4.32 8 5 8 C6.07525194 5.34771188 7.09456151 2.71631546 8 0 C9.65 0 11.3 0 13 0 C12.125 6.75 12.125 6.75 11 9 C8.0096192 10.89214361 5.75312922 11.22803321 2.25 11.125 C1.45078125 11.10695312 0.6515625 11.08890625 -0.171875 11.0703125 C-0.77515625 11.04710937 -1.3784375 11.02390625 -2 11 C-3.14947895 7.44706507 -3.0868937 6.20023331 -1.5625 2.6875 C-1.046875 1.800625 -0.53125 0.91375 0 0 Z " fill="#ECEBEB" transform="translate(109,169)"/>
<path d="M0 0 C1.98 0 3.96 0 6 0 C5.01 2.97 4.02 5.94 3 9 C3.66 9 4.32 9 5 9 C5.28875 8.071875 5.5775 7.14375 5.875 6.1875 C7 3 7 3 9 0 C11.625 -0.1875 11.625 -0.1875 14 0 C13.49697411 4.40147657 11.97554199 6.75395419 9 10 C5.78548731 11.60725635 2.56387464 11.05748185 -1 11 C-2.1875 9.4375 -2.1875 9.4375 -3 7 C-1.625 3.25 -1.625 3.25 0 0 Z " fill="#EBEAEA" transform="translate(171,169)"/>
<path d="M0 0 C3.96 0 7.92 0 12 0 C11 5 11 5 9 8 C9 8.99 9 9.98 9 11 C5.04 11 1.08 11 -3 11 C-2.42732628 6.89583836 -1.5731146 3.9327865 0 0 Z " fill="#E5E3E4" transform="translate(140,169)"/>
<path d="M0 0 C0.99 0.33 1.98 0.66 3 1 C3.33608711 9.05364285 3.0517291 15.49783264 0 23 C-0.66 23 -1.32 23 -2 23 C-2.268125 23.598125 -2.53625 24.19625 -2.8125 24.8125 C-3.98493467 26.97224808 -5.19369282 28.35790256 -7 30 C-6.45839137 27.7919033 -5.88844616 25.59743616 -5.28125 23.40625 C-3.36092935 16.26265718 -2.37963308 9.38320889 -2 2 C-1.34 2 -0.68 2 0 2 C0 1.34 0 0.68 0 0 Z " fill="#060307" transform="translate(194,86)"/>
<path d="M0 0 C1.65 0 3.3 0 5 0 C5 0.66 5 1.32 5 2 C5.66 2 6.32 2 7 2 C7 1.34 7 0.68 7 0 C8.98 0 10.96 0 13 0 C12.34 1.32 11.68 2.64 11 4 C10.34 4 9.68 4 9 4 C9 6.31 9 8.62 9 11 C7.68 11 6.36 11 5 11 C5 10.01 5 9.02 5 8 C4.62875 8.495 4.2575 8.99 3.875 9.5 C1.25305607 11.59755514 -0.73842472 11.21743835 -4 11 C-3.34 9.68 -2.68 8.36 -2 7 C-1.34 7 -0.68 7 0 7 C0 4.69 0 2.38 0 0 Z " fill="#E9E8E8" transform="translate(187,169)"/>
<path d="M0 0 C3.29885597 0.2443597 4.22885893 1.22885893 6.625 3.625 C12.04054172 10.72352545 11.84878682 19.40356605 11 28 C9.97130125 31.07267845 8.76011233 33.24982449 7 36 C6 34 6 34 6.4375 31.625 C8.04224656 21.28329994 7.5493036 10.5145159 1.36328125 1.65625 C0.91339844 1.1096875 0.46351563 0.563125 0 0 Z " fill="#100F11" transform="translate(200,70)"/>
<path d="M0 0 C2.2922454 0.30822621 4.58378455 0.62170874 6.875 0.9375 C8.15117187 1.11152344 9.42734375 1.28554687 10.7421875 1.46484375 C14 2 14 2 16 3 C14.80100302 6.0831351 13.52299523 9.06279492 12 12 C11.34 12 10.68 12 10 12 C10.99 9.03 11.98 6.06 13 3 C11.02 3 9.04 3 7 3 C6.87625 3.5775 6.7525 4.155 6.625 4.75 C6 7 6 7 4 11 C0.7 10.67 -2.6 10.34 -6 10 C-4.73046875 7.98177083 -3.4609375 5.96354167 -2.19140625 3.9453125 C-0.97538499 2.0222453 -0.97538499 2.0222453 0 0 Z " fill="#191718" transform="translate(164,166)"/>
<path d="M0 0 C5.94 0 11.88 0 18 0 C18 1.32 18 2.64 18 4 C14.37 4 10.74 4 7 4 C7 4.66 7 5.32 7 6 C6.34 6 5.68 6 5 6 C5 6.66 5 7.32 5 8 C3.8553125 8.2165625 3.8553125 8.2165625 2.6875 8.4375 C-0.08172908 8.9632594 -0.08172908 8.9632594 -3 10 C-2.01 6.7 -1.02 3.4 0 0 Z " fill="#EBEBEB" transform="translate(59,164)"/>
<path d="M0 0 C-0.59223134 1.62938774 -1.19923628 3.25341128 -1.8125 4.875 C-2.14894531 5.77992187 -2.48539063 6.68484375 -2.83203125 7.6171875 C-4 10 -4 10 -7 12 C-6 9 -5 6 -4 3 C-6.96404505 5.80804268 -9.44499019 8.18315774 -11 12 C-11.99 12 -12.98 12 -14 12 C-14.33 12.66 -14.66 13.32 -15 14 C-16.32 14 -17.64 14 -19 14 C-17.63044968 10.00547824 -15.9073801 7.07840246 -13 4 C-10.75 3.1875 -10.75 3.1875 -9 3 C-9 2.34 -9 1.68 -9 1 C-5.8035914 -0.06546953 -3.34252724 -0.07427838 0 0 Z " fill="#E2E1E1" transform="translate(83,68)"/>
<path d="M0 0 C0.33 0 0.66 0 1 0 C1.02578125 1.03898437 1.0515625 2.07796875 1.078125 3.1484375 C1.3571767 10.74758063 1.79719852 17.14887014 5.2578125 24.08203125 C6 26 6 26 5 29 C-4.07690078 17.51666506 -4.07690078 17.51666506 -5 10 C-4.51018083 7.04457422 -4.17802923 6.17802923 -2 4 C-2 5.32 -2 6.64 -2 8 C-1.34 8 -0.68 8 0 8 C0 5.36 0 2.72 0 0 Z " fill="#070507" transform="translate(89,88)"/>
<path d="M0 0 C-0.33 5.28 -0.66 10.56 -1 16 C-3.475 15.01 -3.475 15.01 -6 14 C-6.02708567 12.39592672 -6.04643483 10.7917215 -6.0625 9.1875 C-6.07410156 8.29417969 -6.08570312 7.40085937 -6.09765625 6.48046875 C-6 4 -6 4 -5 1 C-3.28960011 0.41205004 -1.81522119 0 0 0 Z " fill="#020003" transform="translate(90,80)"/>
<path d="M0 0 C1.32 0 2.64 0 4 0 C3.40377804 6.31995277 3.40377804 6.31995277 1.8125 9 C-0.94725752 10.52262484 -3.03695788 9.72429919 -6 9 C-5.67 6.69 -5.34 4.38 -5 2 C-3.35 1.67 -1.7 1.34 0 1 C0 0.67 0 0.34 0 0 Z " fill="#EBE9EA" transform="translate(102,169)"/>
<path d="M0 0 C5.61 0 11.22 0 17 0 C17 0.33 17 0.66 17 1 C15.02 1 13.04 1 11 1 C10.87625 1.70125 10.7525 2.4025 10.625 3.125 C9.96161655 6.17656387 9.02788045 9.05340938 8 12 C7.34 10.68 6.68 9.36 6 8 C3.36 8 0.72 8 -2 8 C-2 7.34 -2 6.68 -2 6 C1.3 6 4.6 6 8 6 C8 4.68 8 3.36 8 2 C5.36 2 2.72 2 0 2 C0 1.34 0 0.68 0 0 Z " fill="#292828" transform="translate(66,168)"/>
<path d="M0 0 C1.65 0 3.3 0 5 0 C4.39301257 4.12751449 2.96189209 7.3321148 1 11 C-0.65 11 -2.3 11 -4 11 C-4 8.69 -4 6.38 -4 4 C-3.01 4.33 -2.02 4.66 -1 5 C-0.67 3.35 -0.34 1.7 0 0 Z " fill="#F2F1F1" transform="translate(86,169)"/>
<path d="M0 0 C1.65 0 3.3 0 5 0 C4.51421457 3.12290635 4.0013988 5.99580359 3 9 C2.34 9 1.68 9 1 9 C0.731875 9.598125 0.46375 10.19625 0.1875 10.8125 C-0.98493467 12.97224808 -2.19369282 14.35790256 -4 16 C-2.66666667 10.66666667 -1.33333333 5.33333333 0 0 Z " fill="#232023" transform="translate(191,100)"/>
<path d="M0 0 C1.98 0 3.96 0 6 0 C5.34 1.32 4.68 2.64 4 4 C3.34 4 2.68 4 2 4 C2 6.31 2 8.62 2 11 C0.68 11 -0.64 11 -2 11 C-2 10.01 -2 9.02 -2 8 C-1.34 8 -0.68 8 0 8 C0 7.34 0 6.68 0 6 C-0.99 6 -1.98 6 -3 6 C-2 4 -1 2 0 0 Z " fill="#EFEEEF" transform="translate(194,169)"/>
<path d="M0 0 C2.49361571 1.20381448 4.68143083 2.45428722 7 4 C9.73872955 4.45772063 9.73872955 4.45772063 12.6875 4.625 C13.68136719 4.69976562 14.67523438 4.77453125 15.69921875 4.8515625 C16.45847656 4.90054688 17.21773437 4.94953125 18 5 C18 5.33 18 5.66 18 6 C16.576875 6.2165625 16.576875 6.2165625 15.125 6.4375 C12.1065506 6.82935399 12.1065506 6.82935399 10 8 C10.33 8.99 10.66 9.98 11 11 C7.584241 9.55661511 5.63973737 7.75105832 3.25 4.9375 C2.63640625 4.22464844 2.0228125 3.51179688 1.390625 2.77734375 C0 1 0 1 0 0 Z " fill="#C8C6C7" transform="translate(143,117)"/>
<path d="M0 0 C5.60461531 0.42089996 10.72086547 0.91613111 16 3 C15.34 4.65 14.68 6.3 14 8 C13.071875 7.505 12.14375 7.01 11.1875 6.5 C8.13472484 4.78710148 8.13472484 4.78710148 5 5 C5 4.34 5 3.68 5 3 C2.525 2.01 2.525 2.01 0 1 C0 0.67 0 0.34 0 0 Z " fill="#C8C6C7" transform="translate(176,61)"/>
<path d="M0 0 C0.66 0.99 1.32 1.98 2 3 C5.06556598 3.73343428 5.06556598 3.73343428 8 4 C8 4.99 8 5.98 8 7 C4.37 7 0.74 7 -3 7 C-3 5.35 -3 3.7 -3 2 C-2.01 1.34 -1.02 0.68 0 0 Z " fill="#F3F2F3" transform="translate(202,173)"/>
<path d="M0 0 C0.99 0 1.98 0 3 0 C3 1.32 3 2.64 3 4 C1.35 4.33 -0.3 4.66 -2 5 C-2 6.32 -2 7.64 -2 9 C-3.98 9 -5.96 9 -8 9 C-7.67 7.02 -7.34 5.04 -7 3 C-4.03 3.495 -4.03 3.495 -1 4 C-0.67 2.68 -0.34 1.36 0 0 Z " fill="#E1E1E1" transform="translate(129,171)"/>
<path d="M0 0 C0 3 0 3 -2.25 5.5625 C-4.51797524 7.57275078 -6.23189141 8.87225206 -9 10 C-9 9.01 -9 8.02 -9 7 C-11.64 6.67 -14.28 6.34 -17 6 C-17 5.67 -17 5.34 -17 5 C-16.10796875 4.89042969 -15.2159375 4.78085938 -14.296875 4.66796875 C-13.12640625 4.50941406 -11.9559375 4.35085937 -10.75 4.1875 C-9.58984375 4.03667969 -8.4296875 3.88585937 -7.234375 3.73046875 C-4.01605334 3.00362557 -2.41668345 2.18338975 0 0 Z " fill="#C8C7C7" transform="translate(137,117)"/>
<path d="M0 0 C1.65 0 3.3 0 5 0 C4.67 2.31 4.34 4.62 4 7 C2.02 7.33 0.04 7.66 -2 8 C-1.47731534 5.23723823 -0.89130413 2.6739124 0 0 Z " fill="#EAE8E9" transform="translate(117,169)"/>
<path d="M0 0 C0.66 0.33 1.32 0.66 2 1 C0.875 2.5 0.875 2.5 -1 4 C-4.1875 4.1875 -4.1875 4.1875 -7 4 C-7.33 4.99 -7.66 5.98 -8 7 C-10.64 7 -13.28 7 -16 7 C-16 6.01 -16 5.02 -16 4 C-15.09636719 3.87882812 -14.19273438 3.75765625 -13.26171875 3.6328125 C-12.08222656 3.46523438 -10.90273437 3.29765625 -9.6875 3.125 C-8.51574219 2.96257813 -7.34398438 2.80015625 -6.13671875 2.6328125 C-2.85469105 2.17699379 -2.85469105 2.17699379 0 0 Z " fill="#D3D2D3" transform="translate(107,59)"/>
<path d="M0 0 C3.3 0.66 6.6 1.32 10 2 C10 2.99 10 3.98 10 5 C6.04 5 2.08 5 -2 5 C-2 4.01 -2 3.02 -2 2 C-1.34 2 -0.68 2 0 2 C0 1.34 0 0.68 0 0 Z " fill="#E8E8E8" transform="translate(139,175)"/>
<path d="M0 0 C0.66 0 1.32 0 2 0 C2 0.66 2 1.32 2 2 C2.99 2.33 3.98 2.66 5 3 C4.07213211 4.00894372 3.13231567 5.00690907 2.1875 6 C1.40439453 6.8353125 1.40439453 6.8353125 0.60546875 7.6875 C-1 9 -1 9 -4 9 C-4 8.34 -4 7.68 -4 7 C-4.66 6.67 -5.32 6.34 -6 6 C-5.01 6 -4.02 6 -3 6 C-3 5.34 -3 4.68 -3 4 C-2.34 4 -1.68 4 -1 4 C-0.67 2.68 -0.34 1.36 0 0 Z " fill="#F9F7F8" transform="translate(89,64)"/>
<path d="M0 0 C2.31 0 4.62 0 7 0 C7 1.32 7 2.64 7 4 C3.7 4 0.4 4 -3 4 C-3.33 4.66 -3.66 5.32 -4 6 C-4.66 5.67 -5.32 5.34 -6 5 C-6 4.34 -6 3.68 -6 3 C-5.195625 2.87625 -4.39125 2.7525 -3.5625 2.625 C-2.716875 2.41875 -1.87125 2.2125 -1 2 C-0.67 1.34 -0.34 0.68 0 0 Z " fill="#E7E4E5" transform="translate(67,170)"/>
<path d="M0 0 C1.65 0 3.3 0 5 0 C3.68 0.33 2.36 0.66 1 1 C1.144375 2.051875 1.28875 3.10375 1.4375 4.1875 C1 8 1 8 -0.48828125 9.578125 C-5.23760776 13 -5.23760776 13 -8 13 C-8 12.34 -8 11.68 -8 11 C-7.236875 10.2575 -6.47375 9.515 -5.6875 8.75 C-2.97366049 5.97304795 -1.55797703 3.52594801 0 0 Z " fill="#353334" transform="translate(186,168)"/>
<path d="M0 0 C0.33 0 0.66 0 1 0 C1.33 5.94 1.66 11.88 2 18 C-1.33059637 13.55920483 -2.0532383 11.33629324 -3 6 C-2.34 5.34 -1.68 4.68 -1 4 C-0.3574765 1.93125966 -0.3574765 1.93125966 0 0 Z " fill="#353336" transform="translate(73,88)"/>
<path d="M0 0 C0.33 0 0.66 0 1 0 C1.06058594 0.86882812 1.12117188 1.73765625 1.18359375 2.6328125 C1.26738281 3.78523438 1.35117188 4.93765625 1.4375 6.125 C1.51871094 7.26195313 1.59992188 8.39890625 1.68359375 9.5703125 C1.97730965 12.7540478 2.43124313 15.85510907 3 19 C0.5 17.9375 0.5 17.9375 -2 16 C-2.3125 12.3125 -2.3125 12.3125 -2 9 C-1.34 9 -0.68 9 0 9 C0 6.03 0 3.06 0 0 Z " fill="#CCC9CD" transform="translate(83,85)"/>
<path d="M0 0 C1.2065625 0.0309375 1.2065625 0.0309375 2.4375 0.0625 C2.4375 2.3725 2.4375 4.6825 2.4375 7.0625 C0.4575 7.0625 -1.5225 7.0625 -3.5625 7.0625 C-3.60504356 5.06295254 -3.60330783 3.06208364 -3.5625 1.0625 C-2.5625 0.0625 -2.5625 0.0625 0 0 Z " fill="#F9F9F9" transform="translate(227.5625,90.9375)"/>
<path d="M0 0 C-0.59223134 1.62938774 -1.19923628 3.25341128 -1.8125 4.875 C-2.14894531 5.77992187 -2.48539062 6.68484375 -2.83203125 7.6171875 C-4 10 -4 10 -7 12 C-6 9 -5 6 -4 3 C-4.99 3.33 -5.98 3.66 -7 4 C-7 3.34 -7 2.68 -7 2 C-7.66 1.67 -8.32 1.34 -9 1 C-5.8035914 -0.06546953 -3.34252724 -0.07427838 0 0 Z " fill="#D5D3D4" transform="translate(83,68)"/>
<path d="M0 0 C0.33 0 0.66 0 1 0 C1 3.96 1 7.92 1 12 C-0.65 12.33 -2.3 12.66 -4 13 C-4.33 10.69 -4.66 8.38 -5 6 C-4.01 5.34 -3.02 4.68 -2 4 C-2 5.32 -2 6.64 -2 8 C-1.34 8 -0.68 8 0 8 C0 5.36 0 2.72 0 0 Z " fill="#323032" transform="translate(89,88)"/>
<path d="M0 0 C1 3 1 3 0 6 C-0.66 6 -1.32 6 -2 6 C-2.33 7.98 -2.66 9.96 -3 12 C-3.66 12 -4.32 12 -5 12 C-5 12.66 -5 13.32 -5 14 C-5.66 14 -6.32 14 -7 14 C-6.69723124 7.94462479 -3.72245962 4.48516542 0 0 Z " fill="#29272A" transform="translate(111,66)"/>
<path d="M0 0 C7.75 -0.125 7.75 -0.125 10 1 C8.80100302 4.0831351 7.52299523 7.06279492 6 10 C5.34 10 4.68 10 4 10 C4.99 7.03 5.98 4.06 7 1 C5.02 1 3.04 1 1 1 C0.67 1.99 0.34 2.98 0 4 C0 2.68 0 1.36 0 0 Z " fill="#3E3C3D" transform="translate(170,168)"/>
<path d="M0 0 C0.33 0.99 0.66 1.98 1 3 C2.32 3 3.64 3 5 3 C4.67 4.65 4.34 6.3 4 8 C1.03 7.505 1.03 7.505 -2 7 C-2.33 7.99 -2.66 8.98 -3 10 C-2.39009109 6.44219804 -1.4216319 3.3171411 0 0 Z " fill="#343235" transform="translate(87,74)"/>
<path d="M0 0 C1.64846769 0.44876616 3.29373455 0.90930488 4.9375 1.375 C5.85402344 1.63023438 6.77054688 1.88546875 7.71484375 2.1484375 C10 3 10 3 11 5 C6.38 5 1.76 5 -3 5 C-2.01 3.35 -1.02 1.7 0 0 Z " fill="#E8E6E6" transform="translate(120,58)"/>
<path d="M0 0 C2.64 0 5.28 0 8 0 C8.6875 1.6875 8.6875 1.6875 9 4 C7.6875 6.75 7.6875 6.75 6 9 C5.34 9 4.68 9 4 9 C4.66 6.36 5.32 3.72 6 1 C4.35 1 2.7 1 1 1 C0.67 1.99 0.34 2.98 0 4 C0 2.68 0 1.36 0 0 Z " fill="#474546" transform="translate(108,168)"/>
<path d="M0 0 C1.60080151 4.00200378 0.29279692 7.04556236 -1 11 C-1.99 11 -2.98 11 -4 11 C-4.49230769 4.6 -4.49230769 4.6 -2 1.5625 C-1.34 1.046875 -0.68 0.53125 0 0 Z " fill="#454344" transform="translate(200,169)"/>
<path d="M0 0 C0 2.64 0 5.28 0 8 C-0.66 6.68 -1.32 5.36 -2 4 C-3.32 4.99 -4.64 5.98 -6 7 C-5.67 5.02 -5.34 3.04 -5 1 C-1.125 0 -1.125 0 0 0 Z " fill="#0D0A0F" transform="translate(90,80)"/>
<path d="M0 0 C0.66 0 1.32 0 2 0 C3.80411967 2.75924185 4.0127245 3.88972103 3.625 7.25 C3.41875 8.1575 3.2125 9.065 3 10 C0.50939295 7.50939295 -0.08717042 5.37044767 -1 2 C-0.67 1.34 -0.34 0.68 0 0 Z " fill="#292529" transform="translate(192,72)"/>
<path d="M0 0 C0.66 0 1.32 0 2 0 C1.67 2.97 1.34 5.94 1 9 C0.01 9 -0.98 9 -2 9 C-2.25 3.375 -2.25 3.375 0 0 Z " fill="#E4E4E4" transform="translate(81,169)"/>
<path d="M0 0 C0.66 0 1.32 0 2 0 C1.32829194 3.8063457 0.27253436 7.35206816 -1 11 C-1.66 11 -2.32 11 -3 11 C-3.39253254 6.55129785 -2.15305957 3.85756507 0 0 Z " fill="#393738" transform="translate(138,169)"/>
<path d="M0 0 C0.66666667 1.33333333 1.33333333 2.66666667 2 4 C2.391875 4.680625 2.78375 5.36125 3.1875 6.0625 C4 8 4 8 3 11 C0.9375 8.875 0.9375 8.875 -1 6 C-0.75 2.6875 -0.75 2.6875 0 0 Z " fill="#494749" transform="translate(91,106)"/>
<path d="M0 0 C0.66 0.33 1.32 0.66 2 1 C0.68 3.31 -0.64 5.62 -2 8 C-3.32 7.34 -4.64 6.68 -6 6 C-4 4 -2 2 0 0 Z " fill="#2E2A2B" transform="translate(79,70)"/>
<path d="M0 0 C0.66 0 1.32 0 2 0 C1.67 1.98 1.34 3.96 1 6 C-0.65 6.33 -2.3 6.66 -4 7 C-3.67 5.68 -3.34 4.36 -3 3 C-2.34 3 -1.68 3 -1 3 C-0.67 2.01 -0.34 1.02 0 0 Z " fill="#0B090C" transform="translate(91,71)"/>
<path d="M0 0 C1.32 0.33 2.64 0.66 4 1 C3.01 2.98 2.02 4.96 1 7 C0.01 7 -0.98 7 -2 7 C-1.34 4.69 -0.68 2.38 0 0 Z " fill="#F3F2F3" transform="translate(77,169)"/>
<path d="M0 0 C2.67611698 0.36911958 3.8431469 0.84855563 5.8125 2.75 C7.31690887 5.6004589 6.92250763 6.98088413 6 10 C3.75421292 7.75421292 3.14349581 5.930208 2 3 C1.34 2.01 0.68 1.02 0 0 Z " fill="#3E3D3F" transform="translate(200,70)"/>
<path d="M0 0 C-0.57344937 2.86724686 -0.8614515 3.8614515 -3 6 C-3 5.34 -3 4.68 -3 4 C-3.66 4 -4.32 4 -5 4 C-4.67 3.01 -4.34 2.02 -4 1 C-2 0 -2 0 0 0 Z M-6 4 C-5.34 4.66 -4.68 5.32 -4 6 C-4.99 6 -5.98 6 -7 6 C-6.67 5.34 -6.34 4.68 -6 4 Z " fill="#F1EFF0" transform="translate(76,70)"/>
<path d="M0 0 C1.98 0 3.96 0 6 0 C5.67 1.32 5.34 2.64 5 4 C3.35 4.33 1.7 4.66 0 5 C0 3.33333333 0 1.66666667 0 0 Z " fill="#FAF9FA" transform="translate(114,58)"/>
<path d="M0 0 C1.65 0 3.3 0 5 0 C5 1.65 5 3.3 5 5 C3.35 4.67 1.7 4.34 0 4 C0 2.68 0 1.36 0 0 Z " fill="#383838" transform="translate(100,190)"/>
<path d="M0 0 C0.99 0 1.98 0 3 0 C3 1.32 3 2.64 3 4 C1.35 4.33 -0.3 4.66 -2 5 C-2.33 6.32 -2.66 7.64 -3 9 C-3 7.35 -3 5.7 -3 4 C-2.34 4 -1.68 4 -1 4 C-0.67 2.68 -0.34 1.36 0 0 Z " fill="#9B999A" transform="translate(129,171)"/>
<path d="M0 0 C0.99 0 1.98 0 3 0 C2.67 2.31 2.34 4.62 2 7 C1.01 7 0.02 7 -1 7 C-0.67 4.69 -0.34 2.38 0 0 Z " fill="#474546" transform="translate(97,171)"/>
<path d="M0 0 C3.3 0 6.6 0 10 0 C8.68 0.33 7.36 0.66 6 1 C6 1.66 6 2.32 6 3 C4.02 3 2.04 3 0 3 C0 2.01 0 1.02 0 0 Z " fill="#101012" transform="translate(218,99)"/>
<path d="M0 0 C-0.39803561 2.88575819 -0.79009069 3.82189513 -3.0625 5.75 C-3.701875 6.1625 -4.34125 6.575 -5 7 C-5 6.01 -5 5.02 -5 4 C-5.66 3.34 -6.32 2.68 -7 2 C-4 0 -4 0 0 0 Z " fill="#FBF9FA" transform="translate(71,80)"/>
<path d="M0 0 C1.31602523 0.61754259 2.62773556 1.24428742 3.9375 1.875 C4.66839844 2.22304687 5.39929688 2.57109375 6.15234375 2.9296875 C8 4 8 4 9 6 C7.68 5.67 6.36 5.34 5 5 C4.67 5.66 4.34 6.32 4 7 C0 2.25 0 2.25 0 0 Z " fill="#221F22" transform="translate(183,65)"/>
<path d="M0 0 C0.53625 0.2475 1.0725 0.495 1.625 0.75 C-3.55078125 3.97265625 -3.55078125 3.97265625 -5.375 4.75 C-6.365 4.42 -7.355 4.09 -8.375 3.75 C-2.95961538 -0.31153846 -2.95961538 -0.31153846 0 0 Z " fill="#B7B7B7" transform="translate(156.375,59.25)"/>
<path d="M0 0 C0.99 0.33 1.98 0.66 3 1 C2.649375 1.61875 2.29875 2.2375 1.9375 2.875 C1.4734375 3.926875 1.4734375 3.926875 1 5 C1.33 5.66 1.66 6.32 2 7 C0.35 7 -1.3 7 -3 7 C-1.125 1.125 -1.125 1.125 0 0 Z " fill="#FDFCFD" transform="translate(108,60)"/>
<path d="M0 0 C1.65 0 3.3 0 5 0 C4.67 1.32 4.34 2.64 4 4 C2.68 3.67 1.36 3.34 0 3 C0 2.01 0 1.02 0 0 Z M-1 3 C-0.34 3.99 0.32 4.98 1 6 C0.01 5.67 -0.98 5.34 -2 5 C-1.67 4.34 -1.34 3.68 -1 3 Z " fill="#F8F7F7" transform="translate(109,169)"/>
<path d="M0 0 C0.66 0 1.32 0 2 0 C0.68775452 3.93673644 -0.91910327 6.22719294 -4 9 C-3.35494404 5.51669784 -2.01782732 2.90567134 0 0 Z " fill="#1D1B1D" transform="translate(191,107)"/>
<path d="M0 0 C1.65 0.33 3.3 0.66 5 1 C4.67 1.66 4.34 2.32 4 3 C3.34 3 2.68 3 2 3 C1.67 3.66 1.34 4.32 1 5 C0.34 5 -0.32 5 -1 5 C-0.67 3.35 -0.34 1.7 0 0 Z " fill="#DCDCDE" transform="translate(116,83)"/>
<path d="M0 0 C2 3 2 3 2 5 C3.65 5 5.3 5 7 5 C7 5.33 7 5.66 7 6 C2.545 6.495 2.545 6.495 -2 7 C-1.34 6.67 -0.68 6.34 0 6 C-0.33 5.01 -0.66 4.02 -1 3 C-0.67 2.01 -0.34 1.02 0 0 Z " fill="#1B1B1B" transform="translate(80,175)"/>
<path d="M0 0 C0.33 0.66 0.66 1.32 1 2 C2.32 2 3.64 2 5 2 C5.33 1.34 5.66 0.68 6 0 C6 0.99 6 1.98 6 3 C4.02 3.66 2.04 4.32 0 5 C0 4.34 0 3.68 0 3 C-0.99 3 -1.98 3 -3 3 C-2.67 2.34 -2.34 1.68 -2 1 C-1.34 1.33 -0.68 1.66 0 2 C0 1.34 0 0.68 0 0 Z " fill="#C6C5C5" transform="translate(114,175)"/>
<path d="M0 0 C0.33 0 0.66 0 1 0 C1 1.65 1 3.3 1 5 C-0.98 5 -2.96 5 -5 5 C-5 3.68 -5 2.36 -5 1 C-1.125 2.875 -1.125 2.875 0 4 C0 2.68 0 1.36 0 0 Z " fill="#ECECEC" transform="translate(134,175)"/>
<path d="M0 0 C0.99 0.33 1.98 0.66 3 1 C3 2.65 3 4.3 3 6 C2.01 6.33 1.02 6.66 0 7 C0 4.69 0 2.38 0 0 Z " fill="#83713C" transform="translate(0,121)"/>
<path d="M0 0 C0.99 0 1.98 0 3 0 C3 1.98 3 3.96 3 6 C2.01 6 1.02 6 0 6 C0 4.02 0 2.04 0 0 Z " fill="#2E2E2E" transform="translate(85,190)"/>
<path d="M0 0 C0.33 0.66 0.66 1.32 1 2 C3.02463255 2.65213292 3.02463255 2.65213292 5 3 C4.195625 3.12375 3.39125 3.2475 2.5625 3.375 C1.2940625 3.684375 1.2940625 3.684375 0 4 C-0.33 4.66 -0.66 5.32 -1 6 C-1.66 6 -2.32 6 -3 6 C-3 4.68 -3 3.36 -3 2 C-2.01 2 -1.02 2 0 2 C0 1.34 0 0.68 0 0 Z " fill="#0A0A0A" transform="translate(72,178)"/>
<path d="M0 0 C1.65 0 3.3 0 5 0 C4.67 1.98 4.34 3.96 4 6 C2.62437146 4.71034824 1.29233607 3.37310707 0 2 C0 1.34 0 0.68 0 0 Z " fill="#1F1D20" transform="translate(86,104)"/>
<path d="M0 0 C0.66 0 1.32 0 2 0 C2 0.66 2 1.32 2 2 C2.99 2.33 3.98 2.66 5 3 C3.35 4.32 1.7 5.64 0 7 C0 4.66666667 0 2.33333333 0 0 Z " fill="#EAE7E9" transform="translate(89,64)"/>
<path d="M0 0 C0.99 0 1.98 0 3 0 C3 1.98 3 3.96 3 6 C2.01 6.33 1.02 6.66 0 7 C0 4.69 0 2.38 0 0 Z " fill="#2E2E2E" transform="translate(196,189)"/>
<path d="M0 0 C0.33 0 0.66 0 1 0 C1 2.31 1 4.62 1 7 C-0.32 7 -1.64 7 -3 7 C-3 6.01 -3 5.02 -3 4 C-2.34 3.67 -1.68 3.34 -1 3 C-0.67 2.01 -0.34 1.02 0 0 Z " fill="#F6F5F5" transform="translate(195,173)"/>
<path d="M0 0 C1.5 1.375 1.5 1.375 3 3 C3 3.66 3 4.32 3 5 C1.35 5 -0.3 5 -2 5 C-2 4.01 -2 3.02 -2 2 C-1.34 2 -0.68 2 0 2 C0 1.34 0 0.68 0 0 Z " fill="#F7F7F7" transform="translate(139,175)"/>
<path d="M0 0 C1.65 0 3.3 0 5 0 C4.67 0.99 4.34 1.98 4 3 C3.34 3 2.68 3 2 3 C1.67 3.66 1.34 4.32 1 5 C0.34 5 -0.32 5 -1 5 C-0.67 3.35 -0.34 1.7 0 0 Z " fill="#F4F2F3" transform="translate(117,169)"/>
</svg>
