<svg viewBox="0 0 24 24" aria-hidden="true" fill="currentColor" xmlns="http://www.w3.org/2000/svg">
  <path d="M12 2.2c3.2 0 3.58.01 4.85.07 1.17.05 1.81.24 2.23.4.56.22.96.48 1.38.9s.68.82.9 1.38c.16.42.35 1.06.4 2.23.06 1.27.07 1.66.07 4.85s-.01 3.58-.07 4.85c-.05 1.17-.24 1.81-.4 2.23-.22.56-.48.96-.9 1.38s-.82.68-1.38.9c-.42.16-1.06.35-2.23.4-1.27.06-1.66.07-4.85.07s-3.58-.01-4.85-.07c-1.17-.05-1.81-.24-2.23-.4a3.86 3.86 0 0 1-1.38-.9 3.86 3.86 0 0 1-.9-1.38c-.16-.42-.35-1.06-.4-2.23C2.21 15.58 2.2 15.2 2.2 12s.01-3.58.07-4.85c.05-1.17.24-1.81.4-2.23.22-.56.48-.96.9-1.38s.82-.68 1.38-.9c.42-.16 1.06-.35 2.23-.4C8.42 2.21 8.8 2.2 12 2.2Zm0 1.8c-3.15 0-3.52.01-4.76.07-.99.05-1.53.21-1.89.35-.48.18-.82.4-1.18.76-.36.36-.58.7-.76 1.18-.14.36-.3.9-.35 1.89-.06 1.24-.07 1.6-.07 4.76s.01 3.52.07 4.76c.05.99.21 1.53.35 1.89.18.48.4.82.76 1.18.36.36.7.58 1.18.76.36.14.9.3 1.89.35 1.24.06 1.6.07 4.76.07s3.52-.01 4.76-.07c.99-.05 1.53-.21 1.89-.35.48-.18.82-.4 1.18-.76.36-.36.58-.7.76-1.18.14-.36.3-.9.35-1.89.06-1.24.07-1.6.07-4.76s-.01-3.52-.07-4.76c-.05-.99-.21-1.53-.35-1.89a2.21 2.21 0 0 0-.76-1.18 2.21 2.21 0 0 0-1.18-.76c-.36-.14-.9-.3-1.89-.35-1.24-.06-1.6-.07-4.76-.07Zm0 3.5a6.5 6.5 0 1 1 0 13 6.5 6.5 0 0 1 0-13Zm0 2a4.5 4.5 0 1 0 0 9 4.5 4.5 0 0 0 0-9Zm5.2-2.1a1.3 1.3 0 1 1 0 2.6 1.3 1.3 0 0 1 0-2.6Z"></path>
</svg>
