<svg viewBox="0 0 24 24" fill="currentColor" aria-hidden="true" xmlns="http://www.w3.org/2000/svg">
  <path d="M20.5 3.5C18.2 1.2 15.2 0 12 0 5.4 0 0 5.4 0 12c0 2.1.5 4.1 1.6 5.9L0 24l6.3-1.6c1.7.9 3.6 1.4 5.7 1.4 6.6 0 12-5.4 12-12 0-3.2-1.2-6.2-3.5-8.5Zm-8.5 18c-1.8 0-3.5-.5-5-1.4l-.4-.2-3.8 1 1-3.7-.2-.4c-1-1.6-1.5-3.4-1.5-5.3C2.1 6.5 6.5 2.1 12 2.1c2.6 0 5.1 1 7 2.9 1.9 1.9 2.9 4.4 2.9 7s-1 5.1-2.9 7c-1.9 1.9-4.4 2.9-7 2.9Zm4-6.6c-.2-.1-1.2-.6-1.3-.7-.2-.1-.3-.1-.4.1-.1.2-.5.7-.6.8-.1.1-.2.1-.4 0-.2-.1-.9-.3-1.7-1-.6-.5-1-1.2-1.1-1.3-.1-.2 0-.3.1-.4.1-.1.2-.2.3-.3.1-.1.1-.2.2-.3.1-.1.1-.2.2-.3.1-.1.1-.2 0-.4-.1-.2-.8-1.9-1.1-2.6-.3-.7-.6-.6-.8-.6h-.4c-.1 0-.4.1-.6.3-.2.2-.8.8-.8 1.9s.8 2.2.9 2.3c.1.2 1.6 2.5 3.8 3.5 2.2 1 .2.1 1.9.2.8 0 1.6-.4 1.8-.9.2-.4.2-.8.2-.9-.1-.1-.2-.2-.4-.3Z"></path>
</svg>
