<?xml version="1.0" encoding="UTF-8"?>
<svg version="1.1" xmlns="http://www.w3.org/2000/svg" width="317" height="343">
<path d="M0 0 C104.61 0 209.22 0 317 0 C317 113.19 317 226.38 317 343 C212.39 343 107.78 343 0 343 C0 229.81 0 116.62 0 0 Z " fill="#FCFCFC" transform="translate(0,0)"/>
<path d="M0 0 C28.86945882 -0.86847957 60.34029075 8.09594588 82.390625 27.19921875 C83.04417969 27.75996094 83.69773438 28.32070312 84.37109375 28.8984375 C89.76012787 33.55949703 94.75534394 38.45217149 99.578125 43.69921875 C100.25230469 44.43140625 100.92648438 45.16359375 101.62109375 45.91796875 C103.44496868 48.2692777 104.42868962 50.39727366 105.390625 53.19921875 C106.050625 53.19921875 106.710625 53.19921875 107.390625 53.19921875 C109.6633833 56.35506686 111.47420008 59.81809764 113.390625 63.19921875 C113.89078125 64.04097656 114.3909375 64.88273437 114.90625 65.75 C130.07950543 92.06361928 135.08498324 125.96806303 128.3671875 155.5703125 C127.88378906 157.36662109 127.88378906 157.36662109 127.390625 159.19921875 C127.21370117 159.86453613 127.03677734 160.52985352 126.85449219 161.21533203 C124.61429225 169.46228568 121.76432221 176.98518175 117.75 184.55859375 C115.96851119 188.01918696 114.66251997 191.52485551 113.390625 195.19921875 C112.730625 195.19921875 112.070625 195.19921875 111.390625 195.19921875 C111.15214844 195.89789063 110.91367188 196.5965625 110.66796875 197.31640625 C109.17671429 200.68198971 107.20305088 203.44174525 104.953125 206.32421875 C104.51210449 206.89043945 104.07108398 207.45666016 103.61669922 208.04003906 C92.97615782 221.43535254 79.93063834 231.33279671 65.390625 240.19921875 C64.57207031 240.7096875 63.75351563 241.22015625 62.91015625 241.74609375 C36.02901512 257.24963561 1.86958941 260.18569292 -27.90820312 252.61474609 C-32.22138417 251.34995634 -36.40997179 249.80148481 -40.609375 248.19921875 C-42.25215933 247.64837415 -43.89760795 247.10533865 -45.546875 246.57421875 C-49.60991356 245.22244737 -53.60922977 243.72654693 -57.609375 242.19921875 C-57.609375 241.53921875 -57.609375 240.87921875 -57.609375 240.19921875 C-59.19244147 240.03003607 -60.77584219 239.86397939 -62.359375 239.69921875 C-63.24109375 239.60640625 -64.1228125 239.51359375 -65.03125 239.41796875 C-67.84242335 239.14285562 -67.84242335 239.14285562 -71.609375 239.19921875 C-71.609375 239.85921875 -71.609375 240.51921875 -71.609375 241.19921875 C-72.36476562 241.39515625 -73.12015625 241.59109375 -73.8984375 241.79296875 C-82.72206045 244.19001854 -91.23745891 247.16100316 -99.79150391 250.38085938 C-112.70312876 255.19921875 -112.70312876 255.19921875 -119.609375 255.19921875 C-119.79587007 251.09632722 -119.43962245 248.80049729 -117.609375 245.19921875 C-117.17839973 243.62962371 -116.79873964 242.04537435 -116.4609375 240.453125 C-116.16280151 239.08244873 -116.16280151 239.08244873 -115.85864258 237.68408203 C-115.65263428 236.71970215 -115.44662598 235.75532227 -115.234375 234.76171875 C-113.39978007 226.41100779 -111.2512356 218.3317666 -108.609375 210.19921875 C-106.37613248 203.18406146 -104.77309621 195.5239719 -107.7421875 188.53125 C-108.78270816 186.60002186 -109.83154447 184.67326093 -110.88671875 182.75 C-114.51013472 175.28132626 -116.48388376 167.19721811 -118.609375 159.19921875 C-118.95355469 157.97203125 -119.29773438 156.74484375 -119.65234375 155.48046875 C-123.99254797 137.0600715 -123.73986365 113.37364347 -118.609375 95.19921875 C-118.37879395 94.3690625 -118.14821289 93.53890625 -117.91064453 92.68359375 C-113.35718432 76.43160063 -113.35718432 76.43160063 -110.609375 71.19921875 C-109.949375 71.19921875 -109.289375 71.19921875 -108.609375 71.19921875 C-108.279375 69.21921875 -107.949375 67.23921875 -107.609375 65.19921875 C-106.949375 65.19921875 -106.289375 65.19921875 -105.609375 65.19921875 C-105.361875 64.14734375 -105.114375 63.09546875 -104.859375 62.01171875 C-103.98853473 58.31064762 -102.02748672 56.09498217 -99.609375 53.19921875 C-98.4581639 51.66427061 -97.30703595 50.12925826 -96.15820312 48.5925293 C-91.4673803 42.35755133 -86.63199865 36.22239839 -80.609375 31.19921875 C-79.949375 31.19921875 -79.289375 31.19921875 -78.609375 31.19921875 C-78.609375 30.53921875 -78.609375 29.87921875 -78.609375 29.19921875 C-76.5546875 27.68359375 -76.5546875 27.68359375 -73.734375 25.94921875 C-72.71988281 25.32402344 -71.70539063 24.69882813 -70.66015625 24.0546875 C-69.65339844 23.44238281 -68.64664063 22.83007812 -67.609375 22.19921875 C-66.81917969 21.70035156 -66.02898437 21.20148437 -65.21484375 20.6875 C-44.45252798 7.7773718 -24.40445303 1.34699903 0 0 Z " fill="#09CB42" transform="translate(139.609375,40.80078125)"/>
<path d="M0 0 C6.42165486 5.04558596 8.36337434 15.69913461 10.875 23.1875 C11.23851562 24.23292969 11.60203125 25.27835938 11.9765625 26.35546875 C15.47778298 36.7669928 15.47778298 36.7669928 14.625 42.0625 C12.859375 44.234375 12.859375 44.234375 10.625 46.0625 C9.3422283 47.44956208 8.0916437 48.86708569 6.875 50.3125 C6.26140625 51.01890625 5.6478125 51.7253125 5.015625 52.453125 C3.09694278 56.05334894 2.87841113 59.12755845 3.625 63.0625 C4.90029073 66.20510375 6.59706154 68.97078672 8.4375 71.8125 C8.93306396 72.5967334 9.42862793 73.3809668 9.93920898 74.18896484 C19.46779241 88.874034 33.59808231 103.47311669 50.625 109.0625 C53.52151829 109.30221089 53.52151829 109.30221089 56.4375 109.1875 C57.90123047 109.16042969 57.90123047 109.16042969 59.39453125 109.1328125 C60.13058594 109.10960937 60.86664063 109.08640625 61.625 109.0625 C61.8725 108.52882813 62.12 107.99515625 62.375 107.4453125 C63.93636881 104.4689532 65.75761358 101.73171424 67.625 98.9375 C68.32625 97.88304687 69.0275 96.82859375 69.75 95.7421875 C71.625 93.0625 71.625 93.0625 73.625 91.0625 C77.79242056 90.56240953 80.65815556 90.8836445 84.29296875 92.86328125 C89.42287273 95.53263462 94.76585053 97.49036837 100.17773438 99.50585938 C108.46036688 102.64609409 108.46036688 102.64609409 111.625 105.0625 C113.33145633 108.90792464 112.9854929 112.83995886 111.81640625 116.8046875 C110.5629074 119.97287142 109.14782413 123.01685174 107.625 126.0625 C106.965 126.0625 106.305 126.0625 105.625 126.0625 C105.439375 126.743125 105.25375 127.42375 105.0625 128.125 C101.6413345 135.11607734 95.69406894 139.20413734 88.625 142.0625 C73.76242918 147.01669027 55.23849551 141.21475278 41.625 135.0625 C41.625 134.4025 41.625 133.7425 41.625 133.0625 C41.09132813 132.91554687 40.55765625 132.76859375 40.0078125 132.6171875 C23.2993061 127.58729111 10.89223513 114.86186848 -1.375 103.0625 C-2.21828857 102.28567871 -2.21828857 102.28567871 -3.07861328 101.49316406 C-4.375 100.0625 -4.375 100.0625 -4.375 98.0625 C-5.035 98.0625 -5.695 98.0625 -6.375 98.0625 C-7.30960051 96.74713632 -8.23053706 95.4204297 -9.08984375 94.0546875 C-11.25890859 90.69230736 -13.64421851 87.4791298 -15.984375 84.234375 C-17.375 82.0625 -17.375 82.0625 -17.375 80.0625 C-18.035 80.0625 -18.695 80.0625 -19.375 80.0625 C-20.54907021 77.79522667 -21.71439739 75.52415376 -22.875 73.25 C-23.20886719 72.60740234 -23.54273437 71.96480469 -23.88671875 71.30273438 C-25.37739084 68.36702301 -26.375 66.40123483 -26.375 63.0625 C-27.035 63.0625 -27.695 63.0625 -28.375 63.0625 C-29.36652726 60.73377542 -30.34316007 58.4004503 -31.3125 56.0625 C-31.59029297 55.41410156 -31.86808594 54.76570313 -32.15429688 54.09765625 C-34.10133702 49.35907662 -34.93646417 45.1719524 -35.375 40.0625 C-35.47683594 38.95648438 -35.57867187 37.85046875 -35.68359375 36.7109375 C-36.09309234 26.31215506 -33.38782025 16.93425078 -27 8.5625 C-18.75990902 0.71479431 -11.50298813 -3.19527448 0 0 Z " fill="#FBFDFB" transform="translate(108.375,95.9375)"/>
<path d="M0 0 C28.86945882 -0.86847957 60.34029075 8.09594588 82.390625 27.19921875 C83.04417969 27.75996094 83.69773438 28.32070312 84.37109375 28.8984375 C89.76012787 33.55949703 94.75534394 38.45217149 99.578125 43.69921875 C100.25230469 44.43140625 100.92648438 45.16359375 101.62109375 45.91796875 C103.44496868 48.2692777 104.42868962 50.39727366 105.390625 53.19921875 C106.050625 53.19921875 106.710625 53.19921875 107.390625 53.19921875 C109.66327912 56.35492221 111.4756615 59.8174747 113.390625 63.19921875 C113.92558594 64.11058594 114.46054688 65.02195312 115.01171875 65.9609375 C118.3949142 71.87520186 120.75455836 77.58319487 122.390625 84.19921875 C116.65660965 78.76699369 116.65660965 78.76699369 115.390625 75.19921875 C115.390625 73.87921875 115.390625 72.55921875 115.390625 71.19921875 C114.070625 71.19921875 112.750625 71.19921875 111.390625 71.19921875 C110.90864037 69.95030261 110.43016823 68.70003067 109.953125 67.44921875 C109.68628906 66.753125 109.41945312 66.05703125 109.14453125 65.33984375 C108.390625 63.19921875 108.390625 63.19921875 107.98046875 60.99609375 C107.78582031 60.403125 107.59117187 59.81015625 107.390625 59.19921875 C106.400625 58.86921875 105.410625 58.53921875 104.390625 58.19921875 C102.71641997 55.8166962 101.52688017 53.8804946 100.953125 51.01171875 C100.7675 50.41359375 100.581875 49.81546875 100.390625 49.19921875 C99.47216797 48.76609375 99.47216797 48.76609375 98.53515625 48.32421875 C96.0221884 47.00594054 95.09527517 45.7204957 93.515625 43.38671875 C91.55156094 40.62600625 89.67543759 38.42572162 87.015625 36.32421875 C86.149375 35.62296875 85.283125 34.92171875 84.390625 34.19921875 C84.390625 33.53921875 84.390625 32.87921875 84.390625 32.19921875 C83.80796875 32.09480469 83.2253125 31.99039063 82.625 31.8828125 C80.05417077 31.09628258 78.6566192 30.02355984 76.640625 28.26171875 C75.72023437 27.47474609 75.72023437 27.47474609 74.78125 26.671875 C73.390625 25.19921875 73.390625 25.19921875 73.390625 23.19921875 C72.730625 23.19921875 72.070625 23.19921875 71.390625 23.19921875 C71.390625 22.53921875 71.390625 21.87921875 71.390625 21.19921875 C70.75125 21.07546875 70.111875 20.95171875 69.453125 20.82421875 C68.7725 20.61796875 68.091875 20.41171875 67.390625 20.19921875 C67.060625 19.53921875 66.730625 18.87921875 66.390625 18.19921875 C64.41796796 17.47414987 62.41012188 16.84372653 60.390625 16.26171875 C55.01442661 14.67908923 49.69788674 12.99829053 44.390625 11.19921875 C44.390625 10.53921875 44.390625 9.87921875 44.390625 9.19921875 C43.58625 9.24046875 42.781875 9.28171875 41.953125 9.32421875 C38.54408948 9.20460347 35.5161352 8.60270794 32.203125 7.83984375 C16.28287632 4.21356488 0.70433215 3.51257766 -15.609375 3.19921875 C-15.939375 4.18921875 -16.269375 5.17921875 -16.609375 6.19921875 C-17.32222656 6.23660156 -18.03507812 6.27398437 -18.76953125 6.3125 C-24.77649786 6.72482207 -29.18691886 7.65398424 -34.609375 10.19921875 C-35.929375 10.19921875 -37.249375 10.19921875 -38.609375 10.19921875 C-38.609375 10.85921875 -38.609375 11.51921875 -38.609375 12.19921875 C-43.609375 13.86588542 -48.609375 15.53255208 -53.609375 17.19921875 C-53.609375 17.85921875 -53.609375 18.51921875 -53.609375 19.19921875 C-56.08691094 20.96888728 -58.01684047 22.10601107 -61.04296875 22.58203125 C-64.06424349 23.30860874 -65.27090339 24.36713111 -67.484375 26.51171875 C-72.280299 30.91024038 -76.94815133 34.3917977 -83.609375 35.19921875 C-82.234375 33.19921875 -82.234375 33.19921875 -80.609375 31.19921875 C-79.949375 31.19921875 -79.289375 31.19921875 -78.609375 31.19921875 C-78.609375 30.53921875 -78.609375 29.87921875 -78.609375 29.19921875 C-76.5546875 27.68359375 -76.5546875 27.68359375 -73.734375 25.94921875 C-72.71988281 25.32402344 -71.70539063 24.69882813 -70.66015625 24.0546875 C-69.65339844 23.44238281 -68.64664063 22.83007812 -67.609375 22.19921875 C-66.81917969 21.70035156 -66.02898437 21.20148437 -65.21484375 20.6875 C-44.45252798 7.7773718 -24.40445303 1.34699903 0 0 Z " fill="#31BD59" transform="translate(139.609375,40.80078125)"/>
<path d="M0 0 C0.99 0.33 1.98 0.66 3 1 C-4.46745667 10.43257685 -13.83578057 16.74154719 -24 23 C-25.01513672 23.67869141 -25.01513672 23.67869141 -26.05078125 24.37109375 C-52.74828513 42.11415534 -87.42679026 44.15758837 -118 38 C-123.13590593 36.69420574 -128.05087466 34.88831964 -133 33 C-134.64278433 32.4491554 -136.28823295 31.9061199 -137.9375 31.375 C-142.00053856 30.02322862 -145.99985477 28.52732818 -150 27 C-150 26.34 -150 25.68 -150 25 C-151.58306647 24.83081732 -153.16646719 24.66476064 -154.75 24.5 C-156.07257813 24.36078125 -156.07257813 24.36078125 -157.421875 24.21875 C-160.23304835 23.94363687 -160.23304835 23.94363687 -164 24 C-164 24.66 -164 25.32 -164 26 C-166.20709983 26.65003625 -168.41573892 27.29484745 -170.625 27.9375 C-171.85476562 28.29714844 -173.08453125 28.65679687 -174.3515625 29.02734375 C-177.56810836 29.88485972 -180.70921999 30.51903985 -184 31 C-184 30.34 -184 29.68 -184 29 C-183.360625 28.87625 -182.72125 28.7525 -182.0625 28.625 C-181.381875 28.41875 -180.70125 28.2125 -180 28 C-179.67 27.34 -179.34 26.68 -179 26 C-176.32683361 25.2223516 -173.71697114 24.58093133 -171 24 C-170.195625 23.81179688 -169.39125 23.62359375 -168.5625 23.4296875 C-160.62699246 21.66899677 -153.8436569 20.8737117 -146.2578125 24.14453125 C-142.43882271 25.59151873 -138.43126253 26.31733153 -134.44140625 27.15625 C-133.63574219 27.4346875 -132.83007812 27.713125 -132 28 C-131.505 29.485 -131.505 29.485 -131 31 C-129.46472656 31.185625 -129.46472656 31.185625 -127.8984375 31.375 C-124.27877892 31.95530599 -121.09856447 32.85616279 -117.625 34 C-109.42479047 36.41028523 -101.50859202 36.80662291 -93 37 C-92.04609375 37.03996094 -91.0921875 37.07992187 -90.109375 37.12109375 C-75.56041371 37.50043783 -56.4079131 36.27194207 -44 28 C-41.73828125 27.8046875 -41.73828125 27.8046875 -39.3125 27.875 C-38.10013672 27.90207031 -38.10013672 27.90207031 -36.86328125 27.9296875 C-36.24839844 27.95289063 -35.63351563 27.97609375 -35 28 C-35 27.34 -35 26.68 -35 26 C-34.01 26 -33.02 26 -32 26 C-32 25.34 -32 24.68 -32 24 C-31.34 24 -30.68 24 -30 24 C-29.77054688 23.39285156 -29.54109375 22.78570312 -29.3046875 22.16015625 C-27.62911281 19.3859263 -26.05768562 18.75590318 -23.125 17.4375 C-20.46428301 16.22627809 -18.18219203 15.14114877 -15.8671875 13.34765625 C-14 12 -14 12 -11 12 C-10.34 10.68 -9.68 9.36 -9 8 C-8.34 8 -7.68 8 -7 8 C-7 7.34 -7 6.68 -7 6 C-5.01310269 4.64721885 -3.01254782 3.31431695 -1 2 C-0.67 1.34 -0.34 0.68 0 0 Z " fill="#2CBC55" transform="translate(232,256)"/>
<path d="M0 0 C1.1653125 -0.00257812 2.330625 -0.00515625 3.53125 -0.0078125 C6.5 0.125 6.5 0.125 8.5 1.125 C8.5 1.785 8.5 2.445 8.5 3.125 C10.15 3.125 11.8 3.125 13.5 3.125 C13.5 4.115 13.5 5.105 13.5 6.125 C14.16 6.125 14.82 6.125 15.5 6.125 C19.08284171 11.49926256 19.86092435 17.71146073 20.9375 23.98828125 C21.35961603 26.32047823 21.35961603 26.32047823 23.5 28.125 C25.56588127 33.8393413 27.45152488 40.05902886 26.5 46.125 C24.1875 49.125 24.1875 49.125 22.796875 50.578125 C21.36893743 52.28132765 20.70919016 53.80001091 19.9375 55.875 C18.5 59.125 18.5 59.125 16.3125 60.5625 C15.714375 60.748125 15.11625 60.93375 14.5 61.125 C14.91020486 66.45766322 15.65975821 68.51750014 19.5 72.125 C20.17863055 74.1209722 20.84641919 76.12068551 21.5 78.125 C22.49 78.785 23.48 79.445 24.5 80.125 C25.49562061 81.89142366 26.48944013 83.65916079 27.44921875 85.4453125 C28.77711763 87.56797613 30.44683092 88.73177812 32.5 90.125 C32.5 90.785 32.5 91.445 32.5 92.125 C33.16 92.125 33.82 92.125 34.5 92.125 C34.5 92.785 34.5 93.445 34.5 94.125 C35.82 94.455 37.14 94.785 38.5 95.125 C38.83 97.105 39.16 99.085 39.5 101.125 C30.33486011 95.9957375 24.06765869 87.85233685 18.5 79.125 C17.84386719 78.12855469 17.18773437 77.13210937 16.51171875 76.10546875 C11.0618497 67.42281165 11.0618497 67.42281165 10.5625 63 C11.97555461 57.15937428 15.58765049 53.54799753 19.5 49.125 C20.16 48.135 20.82 47.145 21.5 46.125 C22.16 46.125 22.82 46.125 23.5 46.125 C21.62955084 34.5114649 17.93244995 23.00464988 13.5 12.125 C13.04625 11.01125 12.5925 9.8975 12.125 8.75 C10.71067155 6.05914321 10.71067155 6.05914321 8.4375 4.75 C2.62704577 3.51373314 -3.07485714 2.93871059 -8.375 6 C-9.40625 6.70125 -10.4375 7.4025 -11.5 8.125 C-12.82646156 8.8052367 -14.15608877 9.47992261 -15.5 10.125 C-15.5 8.805 -15.5 7.485 -15.5 6.125 C-14.51 6.125 -13.52 6.125 -12.5 6.125 C-12.17 5.135 -11.84 4.145 -11.5 3.125 C-10.51 3.125 -9.52 3.125 -8.5 3.125 C-8.5 2.465 -8.5 1.805 -8.5 1.125 C-5.64804778 -0.30097611 -3.17538825 -0.0070252 0 0 Z " fill="#29BC53" transform="translate(99.5,91.875)"/>
<path d="M0 0 C2.0625 0.4375 2.0625 0.4375 4 1 C2.04532248 2.33898399 0.0866421 3.67129047 -1.875 5 C-2.96554688 5.7425 -4.05609375 6.485 -5.1796875 7.25 C-8 9 -8 9 -10 9 C-10 9.66 -10 10.32 -10 11 C-11.46875 12.41015625 -11.46875 12.41015625 -13.5 14.0625 C-23.5266461 22.62140073 -31.46445813 33.04322956 -37 45 C-37.66 45 -38.32 45 -39 45 C-39.33 46.98 -39.66 48.96 -40 51 C-40.66 51 -41.32 51 -42 51 C-42.67404851 53.23038817 -43.34351124 55.46199492 -44.0078125 57.6953125 C-44.73951451 60.13239874 -45.48542046 62.56293075 -46.2421875 64.9921875 C-46.68252785 66.43221947 -47.12263126 67.87232391 -47.5625 69.3125 C-47.87707153 70.30527954 -47.87707153 70.30527954 -48.19799805 71.31811523 C-52.24367067 84.69774397 -52.25555337 97.98000074 -52.125 111.8125 C-52.1149448 113.68033371 -52.10582347 115.5481727 -52.09765625 117.41601562 C-52.0758562 121.94414309 -52.04146802 126.4720117 -52 131 C-52.33 131 -52.66 131 -53 131 C-54.77526191 125.65305922 -55.29550936 121.00486988 -55.265625 115.390625 C-55.26753845 114.58316833 -55.2694519 113.77571167 -55.27142334 112.94378662 C-55.27277767 111.24279466 -55.26913408 109.54179211 -55.26074219 107.84082031 C-55.25008807 105.27124094 -55.26063403 102.7023696 -55.2734375 100.1328125 C-55.29038558 79.58077116 -55.29038558 79.58077116 -52 73 C-51.34 73 -50.68 73 -50 73 C-49.896875 71.9275 -49.79375 70.855 -49.6875 69.75 C-48.55693473 60.89390542 -46.35310621 52.80556975 -42 45 C-41.34 45 -40.68 45 -40 45 C-39.855625 44.38125 -39.71125 43.7625 -39.5625 43.125 C-39 41 -39 41 -38 39 C-37.34 39 -36.68 39 -36 39 C-35.896875 38.4225 -35.79375 37.845 -35.6875 37.25 C-34.89262347 34.6485859 -33.62820987 33.17094649 -32 31 C-31.18745433 29.51120665 -30.39590837 28.01077344 -29.625 26.5 C-27.59220781 22.77219076 -25.67643216 20.28534972 -22 18 C-21.34 18 -20.68 18 -20 18 C-20 17.01 -20 16.02 -20 15 C-19.01 15 -18.02 15 -17 15 C-16.67 13.68 -16.34 12.36 -16 11 C-15.34 11 -14.68 11 -14 11 C-14 10.34 -14 9.68 -14 9 C-13.34 9 -12.68 9 -12 9 C-11.76410156 8.38511719 -11.52820312 7.77023438 -11.28515625 7.13671875 C-9.66743696 4.44707603 -8.32595649 3.94840986 -5.4375 2.8125 C-2.48478699 1.77003247 -2.48478699 1.77003247 0 0 Z " fill="#C8F9D7" transform="translate(71,61)"/>
<path d="M0 0 C3.92474515 0.559048 7.31929798 1.42740683 11 2.875 C31.88308091 9.99187086 59.10989554 11.18848259 79.984375 3.48828125 C82.33543608 2.91874126 83.73130316 3.23865804 86 4 C84.41800369 4.64910154 82.83434276 5.29414694 81.25 5.9375 C80.36828125 6.29714844 79.4865625 6.65679687 78.578125 7.02734375 C74.84228102 8.4367758 71.74532584 9.12908876 67.75 9.0625 C65.89375 9.0315625 65.89375 9.0315625 64 9 C64 9.66 64 10.32 64 11 C25.92907039 11.82555811 25.92907039 11.82555811 11 7 C11 6.34 11 5.68 11 5 C9.948125 5.061875 9.948125 5.061875 8.875 5.125 C5.61628372 4.98331668 3.0440053 4.13265314 0 3 C0 2.01 0 1.02 0 0 Z " fill="#D1FCDF" transform="translate(96,288)"/>
<path d="M0 0 C2.56616774 3.84925162 3.4082071 7.62001367 4.5625 12.0625 C4.78357422 12.87138672 5.00464844 13.68027344 5.23242188 14.51367188 C11.57386927 38.6341621 8.87534311 64.65380521 1 88 C0.67 88 0.34 88 0 88 C-0.05451714 85.95863605 -0.09302485 83.91684144 -0.125 81.875 C-0.14820313 80.73804688 -0.17140625 79.60109375 -0.1953125 78.4296875 C0.00327891 74.94242233 0.7475199 72.2446138 2 69 C2.66 69 3.32 69 4 69 C3.979375 67.906875 3.95875 66.81375 3.9375 65.6875 C4 62 4 62 5 59 C5.27851562 54.23526751 5.31383018 49.47108832 5.35009766 44.69897461 C5.36645795 43.13111319 5.39347488 41.56331985 5.43212891 39.99584961 C5.68353535 29.72207079 4.70667265 21.29501884 1.08056641 11.63745117 C-0.15894074 7.46496653 -0.18899477 4.32273373 0 0 Z " fill="#37B359" transform="translate(262,125)"/>
<path d="M0 0 C0.99 0.33 1.98 0.66 3 1 C3.33 2.65 3.66 4.3 4 6 C4.99 6.33 5.98 6.66 7 7 C9.09068542 9.97520618 10.1355032 12.52308221 11 16 C11.63226196 17.71340255 12.27938802 19.42135917 12.9375 21.125 C17.95343466 34.86429929 18.17648321 49.12060745 18.13037109 63.62109375 C18.12498584 65.63028435 18.13036985 67.63925337 18.13671875 69.6484375 C18.11567215 90.94759797 18.11567215 90.94759797 14 99 C12.57110141 95.14859784 13.48677565 92.3544843 14.4375 88.4375 C16.08348156 80.7399802 16.30871756 73.167549 16.3125 65.3125 C16.31757568 64.19738037 16.32265137 63.08226074 16.32788086 61.93334961 C16.23712746 50.81483163 14.56645591 40.10200576 11.6875 29.375 C11.4716626 28.56450195 11.2558252 27.75400391 11.03344727 26.91894531 C8.86412776 19.05879597 5.76653247 11.98963008 1.6875 4.9375 C0 2 0 2 0 0 Z " fill="#B7F7CA" transform="translate(253,105)"/>
<path d="M0 0 C0.66 0 1.32 0 2 0 C1.2571856 4.08547922 0.1594004 8.01456112 -1 12 C-1.34135927 13.33130115 -1.67925956 14.66358148 -2 16 C-2.66 16 -3.32 16 -4 16 C-4.03738281 16.89460938 -4.07476563 17.78921875 -4.11328125 18.7109375 C-4.17902344 19.92007813 -4.24476562 21.12921875 -4.3125 22.375 C-4.37050781 23.55835938 -4.42851562 24.74171875 -4.48828125 25.9609375 C-4.75936098 29.04060306 -5.51067716 31.66994483 -6.51367188 34.58984375 C-8.17422603 40.01711159 -8.38888577 44.95927129 -8.29296875 50.6015625 C-8.28872391 51.564039 -8.28447906 52.5265155 -8.28010559 53.51815796 C-8.26348275 56.55407204 -8.22586256 59.58929088 -8.1875 62.625 C-8.17243193 64.69920908 -8.15874727 66.77342869 -8.14648438 68.84765625 C-8.11363319 73.8987002 -8.06196676 78.94923275 -8 84 C-15.79532334 69.45400578 -12.32275735 39.31308875 -8 24 C-7.76941895 23.16984375 -7.53883789 22.3396875 -7.30126953 21.484375 C-2.74780932 5.23238188 -2.74780932 5.23238188 0 0 Z " fill="#35B85A" transform="translate(29,112)"/>
<path d="M0 0 C1.299375 0.00451172 2.59875 0.00902344 3.9375 0.01367188 C7.12504825 0.0253908 10.31249955 0.04179781 13.5 0.0625 C13.5 0.7225 13.5 1.3825 13.5 2.0625 C16.14 2.3925 18.78 2.7225 21.5 3.0625 C18.21023103 4.29616336 15.55365471 3.81158255 12.1484375 3.32421875 C-8.01946124 1.33122581 -28.19620594 4.00536785 -46.71655273 12.21948242 C-51.19678576 14.16357141 -51.19678576 14.16357141 -54.5 13.0625 C-53.18 12.7325 -51.86 12.4025 -50.5 12.0625 C-50.5 11.4025 -50.5 10.7425 -50.5 10.0625 C-46.62315913 8.86962589 -43.58378077 8.0625 -39.5 8.0625 C-39.5 7.0725 -39.5 6.0825 -39.5 5.0625 C-36.83454836 4.4112817 -34.16780944 3.76642839 -31.5 3.125 C-30.75621094 2.94259766 -30.01242188 2.76019531 -29.24609375 2.57226562 C-19.3972101 0.2170978 -10.10781752 -0.06676912 0 0 Z " fill="#D2FCDF" transform="translate(142.5,38.9375)"/>
<path d="M0 0 C0.66 0.33 1.32 0.66 2 1 C1.566875 1.84820312 1.13375 2.69640625 0.6875 3.5703125 C-4.87790027 15.29372511 -5.75689515 26.38756627 -2 39 C-1.00316237 41.65950192 0.05191985 44.271336 1.1953125 46.87109375 C2 49 2 49 2 52 C2.66 52 3.32 52 4 52 C4.72750788 53.40691607 5.43140353 54.82606022 6.125 56.25 C6.51945312 57.03890625 6.91390625 57.8278125 7.3203125 58.640625 C8 61 8 61 7.1171875 63.296875 C6.56417969 64.13992187 6.56417969 64.13992187 6 65 C5.62875 64.030625 5.2575 63.06125 4.875 62.0625 C3.61115562 59.03765919 2.05727523 56.71568277 0.0625 54.125 C-6.13234222 44.99494575 -7.33166832 33.22670231 -7.4375 22.4375 C-7.44765137 21.71248291 -7.45780273 20.98746582 -7.46826172 20.24047852 C-7.33981532 12.38806168 -4.55264226 6.27950656 0 0 Z " fill="#2DB451" transform="translate(78,107)"/>
<path d="M0 0 C0.33 0 0.66 0 1 0 C0.72369941 10.63757264 -0.5890184 19.84638035 -4 30 C-1.70650932 29.55088303 0.58476218 29.09042056 2.875 28.625 C4.15117188 28.36976563 5.42734375 28.11453125 6.7421875 27.8515625 C10.05924456 27.27762104 10.05924456 27.27762104 12 25 C14.68839385 24.73008094 17.29141936 24.91262643 20 25 C12.21133347 30.19244435 1.41037793 34 -8 34 C-8.18674347 29.89164359 -7.82353593 27.60714952 -6 24 C-5.53386914 22.30155158 -5.11947709 20.58840506 -4.74609375 18.8671875 C-4.42415039 17.41119141 -4.42415039 17.41119141 -4.09570312 15.92578125 C-3.87849609 14.91902344 -3.66128906 13.91226562 -3.4375 12.875 C-3.00099104 10.87189475 -2.56229703 8.86926402 -2.12109375 6.8671875 C-1.9295874 5.98144043 -1.73808105 5.09569336 -1.54077148 4.18310547 C-1 2 -1 2 0 0 Z " fill="#31BD5A" transform="translate(28,262)"/>
<path d="M0 0 C0 0.33 0 0.66 0 1 C-0.90621094 1.21011719 -1.81242187 1.42023438 -2.74609375 1.63671875 C-6.80523384 3.33736688 -7.81943671 5.07713177 -10.0625 8.8125 C-16.29353911 19.07014108 -16.29353911 19.07014108 -21.03515625 20.69921875 C-31.38791631 20.63937621 -40.27472985 14.40742995 -48 8 C-47.34 7.67 -46.68 7.34 -46 7 C-42.22989233 8.46615298 -38.58838037 10.13404221 -35 12 C-35 12.66 -35 13.32 -35 14 C-33.865625 14.144375 -32.73125 14.28875 -31.5625 14.4375 C-28 15 -28 15 -27 16 C-22.91128537 16.79479081 -22.91128537 16.79479081 -19 16 C-15.38182707 12.2462348 -12.9874515 7.73722857 -10.42578125 3.23046875 C-7.74914811 -0.95681213 -4.64089874 -0.08594257 0 0 Z " fill="#33BA59" transform="translate(187,186)"/>
<path d="M0 0 C3.46800675 6.67044541 7.24624338 14.3667593 6 22 C4.71360766 23.37867701 3.37289267 24.70743616 2 26 C-3.43925766 31.6830578 -3.43925766 31.6830578 -5.8125 38.9375 C-5.42123386 43.56748264 -2.77638806 47.14615264 -0.21484375 50.8984375 C0.18605469 51.59195313 0.58695313 52.28546875 1 53 C0.67 53.66 0.34 54.32 0 55 C-3.16115776 53.63016497 -3.9927092 53.0109362 -6 50 C-6.51815483 48.02453469 -7.03164027 46.04704806 -7.48046875 44.0546875 C-8.00634657 41.76962509 -8.00634657 41.76962509 -9.3125 38.8125 C-10 36 -10 36 -8.875 33.1875 C-6.88023865 30.86027843 -5.99256529 30.30957572 -3 30 C-2.01 26.535 -2.01 26.535 -1 23 C-0.01 23 0.98 23 2 23 C2 18.05 2 13.1 2 8 C1.34 8 0.68 8 0 8 C0 5.36 0 2.72 0 0 Z " fill="#D2FCE0" transform="translate(117,116)"/>
<path d="M0 0 C0.66 0.33 1.32 0.66 2 1 C-1.82180842 5.4008703 -4.47371099 6.80805531 -10 8 C-10 8.66 -10 9.32 -10 10 C-12.47753594 11.76966853 -14.40746547 12.90679232 -17.43359375 13.3828125 C-20.45486849 14.10938999 -21.66152839 15.16791236 -23.875 17.3125 C-28.670924 21.71102163 -33.33877633 25.19257895 -40 26 C-38.625 24 -38.625 24 -37 22 C-36.34 22 -35.68 22 -35 22 C-35 21.34 -35 20.68 -35 20 C-32.9453125 18.484375 -32.9453125 18.484375 -30.125 16.75 C-29.11308594 16.12609375 -28.10117188 15.5021875 -27.05859375 14.859375 C-26.04925781 14.24578125 -25.03992188 13.6321875 -24 13 C-23.18660156 12.48953125 -22.37320313 11.9790625 -21.53515625 11.453125 C-16.64107496 8.42384341 -11.62101941 5.6841689 -6.5 3.0625 C-5.88793701 2.74345703 -5.27587402 2.42441406 -4.64526367 2.09570312 C-3.1271322 1.33354699 -1.56578638 0.65872464 0 0 Z " fill="#3ABE60" transform="translate(96,50)"/>
<path d="M0 0 C7.75 -0.125 7.75 -0.125 10 1 C10 1.66 10 2.32 10 3 C10.66 3 11.32 3 12 3 C12 3.66 12 4.32 12 5 C13.10794922 4.91105469 13.10794922 4.91105469 14.23828125 4.8203125 C17.50778877 5.03303859 18.66976093 5.83938118 21.1875 7.875 C21.86167969 8.40867187 22.53585938 8.94234375 23.23046875 9.4921875 C25 11 25 11 27 13 C29.06874034 13.6425235 29.06874034 13.6425235 31 14 C31 14.99 31 15.98 31 17 C31.99 17 32.98 17 34 17 C34 18.32 34 19.64 34 21 C35.32 21.33 36.64 21.66 38 22 C38 22.66 38 23.32 38 24 C38.66 24 39.32 24 40 24 C40 24.99 40 25.98 40 27 C36.04322598 25.32598022 33.15535787 22.86850715 30 20 C30 19.34 30 18.68 30 18 C28.9790625 17.690625 28.9790625 17.690625 27.9375 17.375 C25 16 25 16 22.1875 13.375 C17.86856378 9.46096405 12.72964429 7.19448121 7.51049805 4.71630859 C2.17429774 2.17429774 2.17429774 2.17429774 0 0 Z " fill="#D8FBE1" transform="translate(194,51)"/>
<path d="M0 0 C3.56191972 3.05307405 5.71405001 6.52633122 6.26000977 11.24926758 C6.43735875 19.37123677 4.55646807 26.44486566 2.25 34.1875 C1.87918785 35.47111662 1.51005725 36.75522014 1.14257812 38.03979492 C0.42340223 40.55194297 -0.29914443 43.06312899 -1.02539062 45.57324219 C-2.27450889 49.96518207 -3.41660205 54.37714396 -4.5 58.8125 C-4.7990625 60.03582031 -5.098125 61.25914062 -5.40625 62.51953125 C-5.70015625 63.74736328 -5.70015625 63.74736328 -6 65 C-8.4890012 57.5329964 -4.86103139 48.00566876 -3 40.5 C-2.83411377 39.83009033 -2.66822754 39.16018066 -2.49731445 38.4699707 C-1.56883694 34.85041257 -0.43240679 31.44672884 1 28 C2.86544133 23.29073903 3.2512879 19.13765814 3.125 14.125 C3.11146484 13.09246094 3.11146484 13.09246094 3.09765625 12.0390625 C3.07432513 10.35922162 3.03846326 8.67956254 3 7 C2.01 6.67 1.02 6.34 0 6 C0 4.02 0 2.04 0 0 Z " fill="#C3F9D3" transform="translate(28,223)"/>
<path d="M0 0 C3.82174457 3.0027993 4.97691783 6.59138713 6.625 11.0625 C7.058125 11.990625 7.49125 12.91875 7.9375 13.875 C8.72139781 16.36922032 8.52271234 17.63867669 7.625 20.0625 C5.625 19.0625 5.625 19.0625 4.7734375 16.8828125 C4.51820312 15.99335937 4.26296875 15.10390625 4 14.1875 C3.60941406 12.86105469 3.60941406 12.86105469 3.2109375 11.5078125 C2.625 9.0625 2.625 9.0625 2.625 6.0625 C1.965 6.0625 1.305 6.0625 0.625 6.0625 C0.625 5.0725 0.625 4.0825 0.625 3.0625 C-0.365 3.0625 -1.355 3.0625 -2.375 3.0625 C-2.375 2.4025 -2.375 1.7425 -2.375 1.0625 C-11.21244805 1.26832631 -11.21244805 1.26832631 -18.375 6.0625 C-19.035 6.0625 -19.695 6.0625 -20.375 6.0625 C-20.375 6.7225 -20.375 7.3825 -20.375 8.0625 C-21.014375 8.165625 -21.65375 8.26875 -22.3125 8.375 C-23.3334375 8.7153125 -23.3334375 8.7153125 -24.375 9.0625 C-24.705 10.0525 -25.035 11.0425 -25.375 12.0625 C-26.035 12.0625 -26.695 12.0625 -27.375 12.0625 C-27.705 13.3825 -28.035 14.7025 -28.375 16.0625 C-29.035 16.0625 -29.695 16.0625 -30.375 16.0625 C-27.82253531 8.61781133 -22.82711177 4.24908587 -16.375 0.0625 C-10.96392736 -1.74119088 -5.46668623 -1.51852395 0 0 Z " fill="#CDFBDB" transform="translate(108.375,95.9375)"/>
<path d="M0 0 C3.3 0 6.6 0 10 0 C10 0.66 10 1.32 10 2 C10.99 2.33 11.98 2.66 13 3 C15.86172663 7.45157476 16.53274326 10.76135792 16 16 C15.28742895 19.13944346 14.54673278 22.16624704 13 25 C11.68404548 25.70034701 10.35134489 26.37064381 9 27 C8.18828772 29.55519921 8.18828772 29.55519921 8 32 C6.68 32 5.36 32 4 32 C4.66 30.35 5.32 28.7 6 27 C6.66 27 7.32 27 8 27 C8.28875 26.13375 8.5775 25.2675 8.875 24.375 C9.56900333 22.29299 10.30993442 20.22516395 11.125 18.1875 C12.25660909 14.06520973 12.16981984 10.24549608 12 6 C11.319375 5.731875 10.63875 5.46375 9.9375 5.1875 C6.60289191 3.83946694 3.30256763 2.42463702 0 1 C0 0.67 0 0.34 0 0 Z " fill="#1FBC4D" transform="translate(208,195)"/>
<path d="M0 0 C1.70884005 1.62339805 3.37446717 3.29319053 5 5 C5 5.66 5 6.32 5 7 C5.66 7 6.32 7 7 7 C8.234375 8.29296875 8.234375 8.29296875 9.75 10.1875 C14.81671541 16.17738814 20.68825951 21.32753271 26.48535156 26.59301758 C28.02853046 28.02650242 29.51979591 29.5018054 31 31 C28.625 30.6875 28.625 30.6875 26 30 C25.34 29.01 24.68 28.02 24 27 C22.26596973 26.3129314 20.53185327 25.62607743 18.796875 24.94140625 C15.77463602 23.35801583 14.07018378 20.65408177 12 18 C10.97996098 17.12011902 9.93777128 16.26526043 8.875 15.4375 C6.10489569 13.0889333 4.57634334 11.24026131 3 8 C3 7.34 3 6.68 3 6 C2.01 5.67 1.02 5.34 0 5 C0 3.35 0 1.7 0 0 Z " fill="#30BA56" transform="translate(97,187)"/>
<path d="M0 0 C1 3 1 3 0.0625 5.5 C-2.42225721 8.51182692 -4.39552057 9.15702683 -8.0625 10.2265625 C-10.08436903 10.86310836 -10.08436903 10.86310836 -11.33056641 12.5234375 C-13.52101829 14.4608246 -14.75354377 14.38653835 -17.6484375 14.3984375 C-18.56608887 14.40423828 -19.48374023 14.41003906 -20.42919922 14.41601562 C-21.88737061 14.39571289 -21.88737061 14.39571289 -23.375 14.375 C-24.36129395 14.36919922 -25.34758789 14.36339844 -26.36376953 14.35742188 C-33.92225355 14.22366532 -40.76622776 13.29296931 -48 11 C-48 10.34 -48 9.68 -48 9 C-46.90558594 9.2165625 -46.90558594 9.2165625 -45.7890625 9.4375 C-34.76311036 11.39766927 -20.16783732 13.98624443 -9.90234375 8.35546875 C-6.35793917 5.82998951 -3.12174195 3.02817475 0 0 Z " fill="#32BB58" transform="translate(211,227)"/>
<path d="M0 0 C0 0.66 0 1.32 0 2 C-4.29 1.67 -8.58 1.34 -13 1 C-13 1.66 -13 2.32 -13 3 C-13.94101563 3.19335938 -14.88203125 3.38671875 -15.8515625 3.5859375 C-17.71941406 3.97652344 -17.71941406 3.97652344 -19.625 4.375 C-20.85476562 4.63023437 -22.08453125 4.88546875 -23.3515625 5.1484375 C-29.42332594 6.32604676 -29.42332594 6.32604676 -34.5 9.5 C-38.44807517 13.44807517 -45.07391179 13.54025067 -50.375 14.125 C-51.11105469 14.21136719 -51.84710938 14.29773438 -52.60546875 14.38671875 C-54.40299182 14.59681885 -56.20141342 14.79920767 -58 15 C-54.99118331 12.99412221 -52.76156473 12.23668351 -49.3125 11.25 C-44.06743195 9.69633842 -39.02034741 7.87598677 -33.9375 5.875 C-27.38517949 3.32095957 -21.0172721 1.77083671 -14 1 C-14 0.34 -14 -0.32 -14 -1 C-9.2685331 -2.70332808 -4.64120974 -1.54706991 0 0 Z " fill="#C0F6CF" transform="translate(82,281)"/>
<path d="M0 0 C0.66 0.33 1.32 0.66 2 1 C-3.0940919 7.70459519 -3.0940919 7.70459519 -6.875 8.9375 C-7.57625 8.958125 -8.2775 8.97875 -9 9 C-9 9.66 -9 10.32 -9 11 C-14.09496143 15.25827217 -18.80828726 17.23418024 -25.1875 18.875 C-25.98091797 19.09929687 -26.77433594 19.32359375 -27.59179688 19.5546875 C-31.50854399 20.60704609 -34.04883829 21.24831722 -38 20 C-37.20335937 19.74605469 -36.40671875 19.49210937 -35.5859375 19.23046875 C-25.02860954 15.80126368 -16.35418967 10.96163824 -7.1875 4.8125 C-6.14819336 4.11737305 -6.14819336 4.11737305 -5.08789062 3.40820312 C-3.39122125 2.27318982 -1.69551293 1.13674011 0 0 Z " fill="#D0F8DC" transform="translate(220,270)"/>
<path d="M0 0 C1.1653125 -0.00257812 2.330625 -0.00515625 3.53125 -0.0078125 C6.5 0.125 6.5 0.125 8.5 1.125 C8.5 1.785 8.5 2.445 8.5 3.125 C10.15 3.125 11.8 3.125 13.5 3.125 C13.83 6.095 14.16 9.065 14.5 12.125 C13.16666667 10.125 11.83333333 8.125 10.5 6.125 C5.93059352 3.4119149 0.64681472 3.44948057 -4.5 4.125 C-7.15272608 5.19010971 -9.10504781 6.49643251 -11.5 8.125 C-12.82646156 8.8052367 -14.15608877 9.47992261 -15.5 10.125 C-15.5 8.805 -15.5 7.485 -15.5 6.125 C-14.51 6.125 -13.52 6.125 -12.5 6.125 C-12.17 5.135 -11.84 4.145 -11.5 3.125 C-10.51 3.125 -9.52 3.125 -8.5 3.125 C-8.5 2.465 -8.5 1.805 -8.5 1.125 C-5.64804778 -0.30097611 -3.17538825 -0.0070252 0 0 Z " fill="#22BC50" transform="translate(99.5,91.875)"/>
<path d="M0 0 C2.79133871 0.78208351 5.44481903 1.61706907 8 3 C9 5.6875 9 5.6875 9 8 C9.99 8 10.98 8 12 8 C14.93952555 10.58958203 16.75122171 12.25366514 18 16 C18.639375 16.103125 19.27875 16.20625 19.9375 16.3125 C20.618125 16.539375 21.29875 16.76625 22 17 C23.25 20.0625 23.25 20.0625 24 23 C24.66 23 25.32 23 26 23 C25.67 23.66 25.34 24.32 25 25 C6.40821256 8.84903382 6.40821256 8.84903382 2 4 C2 3.34 2 2.68 2 2 C1.34 2 0.68 2 0 2 C0 1.34 0 0.68 0 0 Z " fill="#C0F5CD" transform="translate(102,192)"/>
<path d="M0 0 C1.670625 0.061875 1.670625 0.061875 3.375 0.125 C3.87 1.115 3.87 1.115 4.375 2.125 C1.735 2.455 -0.905 2.785 -3.625 3.125 C-3.893125 4.011875 -4.16125 4.89875 -4.4375 5.8125 C-7.13458904 13.3359589 -7.13458904 13.3359589 -10.75 15.25 C-11.36875 15.53875 -11.9875 15.8275 -12.625 16.125 C-12.955 17.115 -13.285 18.105 -13.625 19.125 C-17.28469749 21.90637009 -21.24666836 21.47248664 -25.625 21.125 C-26.615 20.135 -27.605 19.145 -28.625 18.125 C-24.335 18.125 -20.045 18.125 -15.625 18.125 C-14.965 16.805 -14.305 15.485 -13.625 14.125 C-12.31548727 12.06797376 -10.97992307 10.02740327 -9.625 8 C-8.92375 6.94554687 -8.2225 5.89109375 -7.5 4.8046875 C-4.24043216 0.1462218 -4.24043216 0.1462218 0 0 Z " fill="#C4F7D3" transform="translate(185.625,186.875)"/>
<path d="M0 0 C0.495 0.99 0.495 0.99 1 2 C3.02463255 2.65213292 3.02463255 2.65213292 5 3 C5 3.66 5 4.32 5 5 C2.36 4.34 -0.28 3.68 -3 3 C-3 2.34 -3 1.68 -3 1 C-4.58306647 0.83081732 -6.16646719 0.66476064 -7.75 0.5 C-8.63171875 0.4071875 -9.5134375 0.314375 -10.421875 0.21875 C-13.23304835 -0.05636313 -13.23304835 -0.05636313 -17 0 C-17 0.66 -17 1.32 -17 2 C-19.20709983 2.65003625 -21.41573892 3.29484745 -23.625 3.9375 C-24.85476562 4.29714844 -26.08453125 4.65679687 -27.3515625 5.02734375 C-30.56810836 5.88485972 -33.70921999 6.51903985 -37 7 C-37 6.34 -37 5.68 -37 5 C-36.360625 4.87625 -35.72125 4.7525 -35.0625 4.625 C-34.381875 4.41875 -33.70125 4.2125 -33 4 C-32.67 3.34 -32.34 2.68 -32 2 C-29.32683361 1.2223516 -26.71697114 0.58093133 -24 0 C-22.7934375 -0.28230469 -22.7934375 -0.28230469 -21.5625 -0.5703125 C-14.4765038 -2.14251791 -6.64607187 -3.73841543 0 0 Z " fill="#43BE66" transform="translate(85,280)"/>
<path d="M0 0 C0.76183594 0.45890625 1.52367187 0.9178125 2.30859375 1.390625 C8.39841426 5.00954456 14.43422856 8.33058282 21 11 C21 11.66 21 12.32 21 13 C21.69867188 13.19335938 22.39734375 13.38671875 23.1171875 13.5859375 C24.02726562 13.84632813 24.93734375 14.10671875 25.875 14.375 C26.77992188 14.63023437 27.68484375 14.88546875 28.6171875 15.1484375 C31 16 31 16 33 18 C18.375 15.75 18.375 15.75 14 12 C12.35202764 11.28837557 10.68834592 10.60968047 9 10 C9 9.01 9 8.02 9 7 C8.443125 6.896875 7.88625 6.79375 7.3125 6.6875 C4.49885978 5.85101237 2.37853021 4.71782737 0 3 C0 2.01 0 1.02 0 0 Z " fill="#32BB58" transform="translate(129,218)"/>
<path d="M0 0 C0.99 0.33 1.98 0.66 3 1 C3.33 2.65 3.66 4.3 4 6 C4.99 6.33 5.98 6.66 7 7 C9.0907858 9.97534903 10.1340384 12.52351184 11 16 C11.6335305 17.69215722 12.28057576 19.37928656 12.9375 21.0625 C14.99978191 26.62691156 16.13868953 32.14082218 17 38 C16.34 38 15.68 38 15 38 C14.90203125 37.45472656 14.8040625 36.90945312 14.703125 36.34765625 C13.53313466 30.44727392 11.57412405 25.4136217 9 20 C8.1659297 18.12532771 7.33262016 16.2503168 6.5 14.375 C5.03031984 11.13078343 3.49349335 8.00705054 1.6875 4.9375 C0 2 0 2 0 0 Z " fill="#CEFADE" transform="translate(253,105)"/>
<path d="M0 0 C2.0625 0.4375 2.0625 0.4375 4 1 C2.04532248 2.33898399 0.0866421 3.67129047 -1.875 5 C-2.96554688 5.7425 -4.05609375 6.485 -5.1796875 7.25 C-8 9 -8 9 -10 9 C-10 9.66 -10 10.32 -10 11 C-11.57421875 12.515625 -11.57421875 12.515625 -13.6875 14.25 C-17.23964603 17.25954469 -20.13970369 20.33524535 -23 24 C-23.33 22.68 -23.66 21.36 -24 20 C-22.68 19.34 -21.36 18.68 -20 18 C-20 17.01 -20 16.02 -20 15 C-19.01 15 -18.02 15 -17 15 C-16.67 13.68 -16.34 12.36 -16 11 C-15.34 11 -14.68 11 -14 11 C-14 10.34 -14 9.68 -14 9 C-13.34 9 -12.68 9 -12 9 C-11.76410156 8.38511719 -11.52820312 7.77023438 -11.28515625 7.13671875 C-9.66743696 4.44707603 -8.32595649 3.94840986 -5.4375 2.8125 C-2.48478699 1.77003247 -2.48478699 1.77003247 0 0 Z " fill="#DCFDE5" transform="translate(71,61)"/>
<path d="M0 0 C1.98 0 3.96 0 6 0 C6 0.66 6 1.32 6 2 C6.66 2 7.32 2 8 2 C8 2.66 8 3.32 8 4 C8.86625 4.185625 8.86625 4.185625 9.75 4.375 C12.02335767 5.00648824 13.9253529 5.88858191 16 7 C16 7.66 16 8.32 16 9 C16.845625 8.938125 17.69125 8.87625 18.5625 8.8125 C22.82337919 9.04491159 25.23484105 10.00668056 29 12 C29.33 12.99 29.66 13.98 30 15 C26.37673261 16.2077558 25.35853631 15.54311128 22 14 C22 13.34 22 12.68 22 12 C21.46632812 11.85304687 20.93265625 11.70609375 20.3828125 11.5546875 C12.85073049 9.28724413 5.41027832 5.8640436 0 0 Z " fill="#C6F7D4" transform="translate(128,217)"/>
<path d="M0 0 C0.33 0 0.66 0 1 0 C-0.71428571 15.42857143 -0.71428571 15.42857143 -3 20 C-3.66 20 -4.32 20 -5 20 C-5 20.66 -5 21.32 -5 22 C-5.66 22 -6.32 22 -7 22 C-7.18175781 22.67546875 -7.36351562 23.3509375 -7.55078125 24.046875 C-7.80214844 24.93890625 -8.05351562 25.8309375 -8.3125 26.75 C-8.55613281 27.63171875 -8.79976563 28.5134375 -9.05078125 29.421875 C-10.03192105 32.08669915 -11.093824 33.90271638 -13 36 C-13.66 36 -14.32 36 -15 36 C-14.67 34.68 -14.34 33.36 -14 32 C-13.34 32 -12.68 32 -12 32 C-11.84144531 31.39414063 -11.68289062 30.78828125 -11.51953125 30.1640625 C-10.23860409 25.56404784 -8.78851623 21.357179 -6.5625 17.125 C-3.67802751 11.63576145 -1.81892815 5.91405688 0 0 Z " fill="#CAF8D7" transform="translate(265,204)"/>
<path d="M0 0 C0.99 0.33 1.98 0.66 3 1 C3.33 2.98 3.66 4.96 4 7 C4.99 7.33 5.98 7.66 7 8 C7.33 10.31 7.66 12.62 8 15 C8.66 15 9.32 15 10 15 C10 16.32 10 17.64 10 19 C10.99 19.33 11.98 19.66 13 20 C13 21.98 13 23.96 13 26 C13.66 26 14.32 26 15 26 C15 26.66 15 27.32 15 28 C15.66 28 16.32 28 17 28 C16.67 29.32 16.34 30.64 16 32 C15.34 30.35 14.68 28.7 14 27 C13.34 27 12.68 27 12 27 C10.82592979 24.73272667 9.66060261 22.46165376 8.5 20.1875 C8.16613281 19.54490234 7.83226563 18.90230469 7.48828125 18.24023438 C5.99760916 15.30452301 5 13.33873483 5 10 C4.34 10 3.68 10 3 10 C0 3.375 0 3.375 0 0 Z " fill="#D3FCE0" transform="translate(77,149)"/>
<path d="M0 0 C2.60535808 2.27451896 2.96986767 2.728809 3.375 6.375 C3.17256076 12.38069759 1.48368606 18.20655919 0 24 C-0.99 24 -1.98 24 -3 24 C-3.33 25.98 -3.66 27.96 -4 30 C-5.59335206 25.97628181 -4.33100839 22.9589142 -3.125 18.9375 C-1.30579567 12.629741 -0.27369686 6.58240951 0 0 Z " fill="#37BC5C" transform="translate(34,232)"/>
<path d="M0 0 C1.93816735 0.1141866 3.87555099 0.24173423 5.8125 0.375 C6.89144531 0.44460937 7.97039062 0.51421875 9.08203125 0.5859375 C12 1 12 1 15 3 C17.71075544 3.36798693 17.71075544 3.36798693 20.76171875 3.4140625 C21.87998047 3.45273438 22.99824219 3.49140625 24.15039062 3.53125 C25.31763672 3.5621875 26.48488281 3.593125 27.6875 3.625 C28.86634766 3.66367188 30.04519531 3.70234375 31.25976562 3.7421875 C34.17301977 3.83654391 37.08626607 3.92213161 40 4 C36.23225466 6.51183023 33.18453212 6.383231 28.8125 6.375 C28.019646 6.37483887 27.22679199 6.37467773 26.40991211 6.37451172 C17.62294504 6.20860456 7.43567022 4.95711348 0 0 Z " fill="#C5FCD5" transform="translate(157,233)"/>
<path d="M0 0 C5.703807 0.50436785 9.89313412 2.09965244 14.9375 4.75 C15.63681641 5.10835937 16.33613281 5.46671875 17.05664062 5.8359375 C21.86433272 8.3271554 26.49212157 10.99474771 31 14 C27.58238295 14 25.17045938 13.24061454 22 12 C21.67 11.34 21.34 10.68 21 10 C19.00315933 9.30213204 16.97557274 8.69126131 14.9375 8.125 C9.5708416 6.55282915 4.89314632 4.68643327 0 2 C0 1.34 0 0.68 0 0 Z " fill="#2CB854" transform="translate(185,49)"/>
<path d="M0 0 C9.04477612 2.30553117 9.04477612 2.30553117 12 5 C14.07704315 11.28241447 12.65116129 16.16744517 10 22 C9.67 22 9.34 22 9 22 C8.87364621 15.42960289 8.87364621 15.42960289 9.625 12.875 C10.2329818 9.835091 9.6929536 8.60454401 8 6 C5.10680238 4.36861667 2.11336937 3.14669366 -1 2 C-0.67 1.34 -0.34 0.68 0 0 Z " fill="#BDF8CF" transform="translate(208,196)"/>
<path d="M0 0 C2.375 0.3125 2.375 0.3125 5 1 C7 4 7 4 7 7 C8.32 7 9.64 7 11 7 C11.33 8.65 11.66 10.3 12 12 C12.66 12 13.32 12 14 12 C14.66 14.31 15.32 16.62 16 19 C16.66 19 17.32 19 18 19 C18.33 20.98 18.66 22.96 19 25 C16.25722422 21.80009492 14.3697164 18.99500618 13 15 C12.34 15 11.68 15 11 15 C9.62101957 13.30189246 8.32040522 11.53964541 7.0625 9.75 C6.02802734 8.28820312 6.02802734 8.28820312 4.97265625 6.796875 C4.32167969 5.87390625 3.67070312 4.9509375 3 4 C2.00567822 2.66242683 1.00807145 1.3272414 0 0 Z " fill="#D1FBDE" transform="translate(234,79)"/>
<path d="M0 0 C2.14493618 3.21740427 2.6199177 5.36735514 3.375 9.125 C4.63258395 14.8412907 6.41701637 19.77277621 9 25 C12.14354451 31.56936648 12.14354451 31.56936648 11 35 C6.83458438 27.73267912 3.98213042 20.43192436 1.5625 12.4375 C1.29163574 11.55674805 1.02077148 10.67599609 0.74169922 9.76855469 C0.49822754 8.93614258 0.25475586 8.10373047 0.00390625 7.24609375 C-0.21450928 6.50029053 -0.4329248 5.7544873 -0.65795898 4.98608398 C-1 3 -1 3 0 0 Z " fill="#39B65C" transform="translate(22,197)"/>
<path d="M0 0 C0.33 0 0.66 0 1 0 C1 11.55 1 23.1 1 35 C1.66 35 2.32 35 3 35 C3.66 39.95 4.32 44.9 5 50 C-0.25870279 44.74129721 0.0114255 40.58542228 -0.11352539 33.60351562 C-0.11336982 32.03775149 -0.10788672 30.47198072 -0.09765625 28.90625 C-0.0962413 28.07411987 -0.09482635 27.24198975 -0.09336853 26.38464355 C-0.08782167 23.7563907 -0.07527945 21.12822662 -0.0625 18.5 C-0.05747812 16.70573041 -0.05291642 14.91145946 -0.04882812 13.1171875 C-0.03786972 8.74475805 -0.02064248 4.37239402 0 0 Z " fill="#17C047" transform="translate(20,152)"/>
<path d="M0 0 C0.66 0.33 1.32 0.66 2 1 C1.411072 4.68407183 0.37665702 7.52681608 -1.375 10.8125 C-3.60747897 15.12862601 -5.38802519 19.4185979 -7 24 C-7.66 24 -8.32 24 -9 24 C-9.66 25.32 -10.32 26.64 -11 28 C-11 26.02 -11 24.04 -11 22 C-10.34 22 -9.68 22 -9 22 C-8.9071875 20.7315625 -8.9071875 20.7315625 -8.8125 19.4375 C-8.05073717 16.21465726 -7.55569281 15.16899106 -5.625 12.6875 C-2.61932955 8.80190864 -1.30821201 4.69041867 0 0 Z " fill="#39B65D" transform="translate(260,212)"/>
<path d="M0 0 C1.41124769 3.92125252 0.78471881 7.656975 0.25 11.6875 C0.15928223 12.39777344 0.06856445 13.10804688 -0.02490234 13.83984375 C-0.76036987 19.16924808 -2.02758938 23.97931841 -4 29 C-4.33 29 -4.66 29 -5 29 C-5.05451714 26.95863605 -5.09302485 24.91684144 -5.125 22.875 C-5.14820313 21.73804688 -5.17140625 20.60109375 -5.1953125 19.4296875 C-4.99672109 15.94242233 -4.2524801 13.2446138 -3 10 C-2.34 10 -1.68 10 -1 10 C-1.020625 8.906875 -1.04125 7.81375 -1.0625 6.6875 C-1 3 -1 3 0 0 Z " fill="#29B951" transform="translate(267,184)"/>
<path d="M0 0 C0.33 0 0.66 0 1 0 C0.85677897 1.54191154 0.71028211 3.08351892 0.5625 4.625 C0.48128906 5.48351562 0.40007813 6.34203125 0.31640625 7.2265625 C-0.01879197 10.16471971 -0.51383671 13.08302024 -1 16 C4.28 15.34 9.56 14.68 15 14 C10.47601431 17.39298926 8.25930956 18.13323779 2.8125 18.0625 C1.91144531 18.05347656 1.01039062 18.04445313 0.08203125 18.03515625 C-0.60503906 18.02355469 -1.29210937 18.01195312 -2 18 C-3.8464303 14.30713939 -3.39620952 10.45123256 -2.328125 6.5390625 C-1.59324078 4.3413427 -0.82491242 2.16539511 0 0 Z " fill="#E1FEEB" transform="translate(21,280)"/>
<path d="M0 0 C0.98802155 3.09534023 0.93523727 4.89693415 0.0625 8 C-1.84491888 16.47457245 -1.16338433 25.36576652 -1 34 C-5.01111598 29.98888402 -4.14161375 22.53443357 -4.3125 17.125 C-4.29159474 10.65830591 -2.9519097 5.71932505 0 0 Z " fill="#B6F6C9" transform="translate(77,112)"/>
<path d="M0 0 C1.39879249 2.64528517 2.43111232 5.1620498 3.21875 8.046875 C3.42886719 8.81 3.63898437 9.573125 3.85546875 10.359375 C4.06816406 11.14828125 4.28085937 11.9371875 4.5 12.75 C4.71269531 13.5234375 4.92539062 14.296875 5.14453125 15.09375 C6.49896225 20.04614802 7.77084801 25.01510583 9 30 C8.34 30 7.68 30 7 30 C6.566875 28.80375 6.13375 27.6075 5.6875 26.375 C4.70478094 23.73423361 3.66020578 21.33348057 2.375 18.8125 C0.16174682 14.28539122 -0.12269198 10.18343441 -0.0625 5.1875 C-0.05347656 4.21167969 -0.04445313 3.23585937 -0.03515625 2.23046875 C-0.02355469 1.49441406 -0.01195313 0.75835937 0 0 Z " fill="#BDF6CD" transform="translate(19,192)"/>
<path d="M0 0 C0.99386719 0.00902344 1.98773438 0.01804688 3.01171875 0.02734375 C4.15060547 0.04474609 4.15060547 0.04474609 5.3125 0.0625 C4.9825 0.7225 4.6525 1.3825 4.3125 2.0625 C2.0546875 2.37109375 2.0546875 2.37109375 -0.8125 2.5 C-5.81781368 2.85056672 -9.18775184 3.95037331 -13.6875 6.0625 C-15.0075 6.0625 -16.3275 6.0625 -17.6875 6.0625 C-17.6875 6.7225 -17.6875 7.3825 -17.6875 8.0625 C-19.3375 8.3925 -20.9875 8.7225 -22.6875 9.0625 C-22.05859375 6.671875 -22.05859375 6.671875 -20.6875 4.0625 C-17.97265625 2.953125 -17.97265625 2.953125 -14.75 2.3125 C-13.68910156 2.09078125 -12.62820312 1.8690625 -11.53515625 1.640625 C-10.59542969 1.44984375 -9.65570313 1.2590625 -8.6875 1.0625 C-5.53819107 0.01273036 -3.29935544 -0.03881595 0 0 Z " fill="#23BD50" transform="translate(118.6875,44.9375)"/>
<path d="M0 0 C0.33 0 0.66 0 1 0 C1.0809723 2.43816585 1.14046972 4.87364384 1.1875 7.3125 C1.22520508 8.34793945 1.22520508 8.34793945 1.26367188 9.40429688 C1.33777767 14.5175964 1.33777767 14.5175964 -0.38671875 16.98046875 C-2 18 -2 18 -4 18 C-4.33 19.65 -4.66 21.3 -5 23 C-6.32 23 -7.64 23 -9 23 C-8.34 21.35 -7.68 19.7 -7 18 C-6.34 18 -5.68 18 -5 18 C-2.8766809 12.12003942 -1.47258853 6.06706475 0 0 Z " fill="#30BA56" transform="translate(221,204)"/>
<path d="M0 0 C20.00149541 0.625721 20.00149541 0.625721 27 4 C28.21875 6.10546875 28.21875 6.10546875 29 8 C26.45757096 7.37798054 23.91608125 6.75248241 21.375 6.125 C20.66214844 5.95097656 19.94929688 5.77695312 19.21484375 5.59765625 C15.06873244 4.57063785 11.05429117 3.35143039 7 2 C4.67305036 1.62468554 2.34023315 1.28082798 0 1 C0 0.67 0 0.34 0 0 Z " fill="#CEFBDB" transform="translate(165,43)"/>
<path d="M0 0 C0.609375 1.8125 0.609375 1.8125 1 4 C-0.75 7 -0.75 7 -3 10 C-3.474375 10.78375 -3.94875 11.5675 -4.4375 12.375 C-6 14 -6 14 -8.6875 14.25 C-9.450625 14.1675 -10.21375 14.085 -11 14 C-9.42219077 10.28954753 -7.09296752 7.70093616 -4.375 4.75 C-3.55773438 3.85796875 -2.74046875 2.9659375 -1.8984375 2.046875 C-1.27195312 1.37140625 -0.64546875 0.6959375 0 0 Z " fill="#2EC05B" transform="translate(55,76)"/>
<path d="M0 0 C6.76215448 0.40939975 12.67162748 1.56953809 19 4 C19 4.99 19 5.98 19 7 C19.66 7.33 20.32 7.66 21 8 C20.01 8 19.02 8 18 8 C18 7.34 18 6.68 18 6 C17.195625 6.04125 16.39125 6.0825 15.5625 6.125 C9.91071033 5.92669159 4.74429847 5.16286565 0 2 C0 1.34 0 0.68 0 0 Z " fill="#20BE4E" transform="translate(166,44)"/>
<path d="M0 0 C4.06333791 0.5796232 7.65860998 1.50776916 11.5 2.9375 C18.22217481 5.25985939 24.95355502 6.20779613 32 7 C32 7.33 32 7.66 32 8 C25.74452996 8.40600406 19.88121405 7.78237977 13.75 6.625 C13.07710937 6.49891357 12.40421875 6.37282715 11.7109375 6.24291992 C7.68762108 5.44630725 3.86102169 4.37893632 0 3 C0 2.01 0 1.02 0 0 Z " fill="#BDF7CE" transform="translate(96,288)"/>
<path d="M0 0 C-7.42857143 4.28571429 -7.42857143 4.28571429 -11 6 C-11 6.66 -11 7.32 -11 8 C-11.639375 8.103125 -12.27875 8.20625 -12.9375 8.3125 C-13.9584375 8.6528125 -13.9584375 8.6528125 -15 9 C-15.33 9.99 -15.66 10.98 -16 12 C-16.66 12 -17.32 12 -18 12 C-18.33 13.32 -18.66 14.64 -19 16 C-19.66 16 -20.32 16 -21 16 C-18.44753531 8.55531133 -13.45211177 4.18658587 -7 0 C-3.86650268 -1.04449911 -3.01031744 -0.93423645 0 0 Z " fill="#BBF4CB" transform="translate(99,96)"/>
<path d="M0 0 C0.99 0.33 1.98 0.66 3 1 C-2.57255197 6.32115865 -7.00220928 6.53771481 -14.56835938 6.43945312 C-15.84517578 6.39755859 -17.12199219 6.35566406 -18.4375 6.3125 C-19.74138672 6.28994141 -21.04527344 6.26738281 -22.38867188 6.24414062 C-25.59363676 6.18544163 -28.79621631 6.10336838 -32 6 C-32.33 5.34 -32.66 4.68 -33 4 C-32.01773438 4.02356567 -32.01773438 4.02356567 -31.015625 4.04760742 C-28.01050669 4.11047934 -25.00552737 4.14915488 -22 4.1875 C-20.97003906 4.21263672 -19.94007813 4.23777344 -18.87890625 4.26367188 C-11.59189318 4.33329302 -6.53726721 3.26863361 0 0 Z " fill="#EAFEEF" transform="translate(204,231)"/>
<path d="M0 0 C3 3.75 3 3.75 3 6 C3.66 6 4.32 6 5 6 C6.5078125 8.1875 6.5078125 8.1875 8.125 11 C8.66382812 11.928125 9.20265625 12.85625 9.7578125 13.8125 C10.37269531 14.8953125 10.37269531 14.8953125 11 16 C10.34 16.66 9.68 17.32 9 18 C4.23163911 13.62900252 0.24048155 9.30662131 -0.25 2.5625 C-0.1675 1.716875 -0.085 0.87125 0 0 Z " fill="#2DBD58" transform="translate(86,170)"/>
<path d="M0 0 C0 0.33 0 0.66 0 1 C-0.6705542 1.0501123 -1.3411084 1.10022461 -2.03198242 1.15185547 C-5.08451542 1.38465565 -8.13594677 1.62970418 -11.1875 1.875 C-12.24259766 1.95363281 -13.29769531 2.03226563 -14.38476562 2.11328125 C-15.40634766 2.19707031 -16.42792969 2.28085937 -17.48046875 2.3671875 C-18.41785889 2.44050293 -19.35524902 2.51381836 -20.32104492 2.58935547 C-23.12334446 3.0189069 -25.38560472 3.93470123 -28 5 C-30.3125 4.625 -30.3125 4.625 -32 4 C-21.78935688 -0.15989164 -10.94332247 -2.82408322 0 0 Z " fill="#43BE66" transform="translate(136,43)"/>
<path d="M0 0 C0.66 1.32 1.32 2.64 2 4 C1.34 4 0.68 4 0 4 C-0.6496875 5.3303125 -0.6496875 5.3303125 -1.3125 6.6875 C-3.3223531 10.63276721 -5.54523623 14.31785435 -8 18 C-8.66 18 -9.32 18 -10 18 C-10 18.99 -10 19.98 -10 21 C-10.66 20.67 -11.32 20.34 -12 20 C-11.67 18.68 -11.34 17.36 -11 16 C-10.34 16 -9.68 16 -9 16 C-8.7525 14.948125 -8.505 13.89625 -8.25 12.8125 C-7.21129496 9.15861559 -5.54218374 6.85032723 -3 4 C-1.99426222 2.67098936 -0.99204592 1.33926199 0 0 Z " fill="#40BD64" transform="translate(43,90)"/>
<path d="M0 0 C0 3.28176588 -0.47835901 5.10888212 -2 8 C-4.125 8.8125 -4.125 8.8125 -6 9 C-6.33 10.32 -6.66 11.64 -7 13 C-9.31 13.33 -11.62 13.66 -14 14 C-11.03750349 9.92656729 -7.61640648 6.79433834 -3.8046875 3.55078125 C-1.92288746 1.97318991 -1.92288746 1.97318991 0 0 Z " fill="#C1F5CF" transform="translate(236,256)"/>
<path d="M0 0 C2.83374881 3.20336822 3.5205537 5.78087253 4 10 C4.66 10 5.32 10 6 10 C6.72750788 11.40691607 7.43140353 12.82606022 8.125 14.25 C8.51945312 15.03890625 8.91390625 15.8278125 9.3203125 16.640625 C10 19 10 19 9.1171875 21.296875 C8.56417969 22.13992187 8.56417969 22.13992187 8 23 C7.566875 21.948125 7.13375 20.89625 6.6875 19.8125 C5.72429235 17.54532728 4.75036585 15.60058536 3.4375 13.5 C0.92030167 9.12226377 0 5.02083412 0 0 Z " fill="#4CC16D" transform="translate(76,149)"/>
<path d="M0 0 C1 2 1 2 0.0625 5.1875 C-2.06197264 9.95754234 -5.96677767 12.84814692 -10 16 C-10.66 15.67 -11.32 15.34 -12 15 C-11.30132812 14.16855469 -10.60265625 13.33710938 -9.8828125 12.48046875 C-8.96346318 11.38287824 -8.04419668 10.28521835 -7.125 9.1875 C-6.66480469 8.64029297 -6.20460937 8.09308594 -5.73046875 7.52929688 C-3.68242038 5.08054339 -1.77281117 2.65921675 0 0 Z " fill="#C0F4CE" transform="translate(249,240)"/>
<path d="M0 0 C2.97 0 5.94 0 9 0 C5.53690127 2.30873249 1.94011133 3.63573343 -1.9375 5.0625 C-2.65357422 5.33126953 -3.36964844 5.60003906 -4.10742188 5.87695312 C-7.38574354 7.09530992 -10.59205082 8.19554848 -14 9 C-14.33 8.34 -14.66 7.68 -15 7 C-13.68 7 -12.36 7 -11 7 C-11 6.34 -11 5.68 -11 5 C-7.12315913 3.80712589 -4.08378077 3 0 3 C0 2.01 0 1.02 0 0 Z " fill="#C5F9D4" transform="translate(103,44)"/>
<path d="M0 0 C7.66283829 0.24326471 11.96857627 2.33741003 18 7 C16 8 16 8 12.55859375 6.85546875 C11.18163052 6.307616 9.80803576 5.75123941 8.4375 5.1875 C7.73947266 4.91357422 7.04144531 4.63964844 6.32226562 4.35742188 C1.12833872 2.25667743 1.12833872 2.25667743 0 0 Z " fill="#3ABC5F" transform="translate(189,187)"/>
<path d="M0 0 C0.66 0 1.32 0 2 0 C3.59460752 3.18921503 3.52211204 6.5375728 3 10 C1.0625 12.375 1.0625 12.375 -1 14 C-1.33 14.66 -1.66 15.32 -2 16 C-3.32 15.67 -4.64 15.34 -6 15 C-5.21654285 13.82780457 -4.42297164 12.66236332 -3.625 11.5 C-3.18414062 10.8503125 -2.74328125 10.200625 -2.2890625 9.53125 C-1.65097656 8.77328125 -1.65097656 8.77328125 -1 8 C-0.34 8 0.32 8 1 8 C0.67 5.36 0.34 2.72 0 0 Z " fill="#32BA59" transform="translate(122,130)"/>
<path d="M0 0 C0.33 0 0.66 0 1 0 C1.08636719 0.6290625 1.17273438 1.258125 1.26171875 1.90625 C2.20305359 7.64062004 3.64748742 11.69570102 7.07421875 16.40625 C7.37972656 16.9321875 7.68523437 17.458125 8 18 C7.67 18.66 7.34 19.32 7 20 C3.83884224 18.63016497 3.0072908 18.0109362 1 15 C-0.18747825 10.01259135 -0.101839 5.09195022 0 0 Z " fill="#B9F2CA" transform="translate(110,151)"/>
<path d="M0 0 C0.33 0 0.66 0 1 0 C0.9278125 1.04800781 0.855625 2.09601563 0.78125 3.17578125 C0.6874471 4.5546839 0.59370001 5.93359035 0.5 7.3125 C0.42845703 8.34793945 0.42845703 8.34793945 0.35546875 9.40429688 C0.16120511 12.27662359 0 15.12013788 0 18 C-0.31421071 20.00309329 -0.6451046 22.00371336 -1 24 C-3 22 -3 22 -3.046875 18.515625 C-2.95896148 17.0930244 -2.85951138 15.67110117 -2.75 14.25 C-2.71003906 13.54617188 -2.67007812 12.84234375 -2.62890625 12.1171875 C-2.33141951 7.7915695 -1.56684188 4.08406327 0 0 Z " fill="#15C447" transform="translate(31,256)"/>
<path d="M0 0 C0.66 0.33 1.32 0.66 2 1 C0.73452987 2.62918007 -0.53757728 4.25320642 -1.8125 5.875 C-2.52019531 6.77992188 -3.22789062 7.68484375 -3.95703125 8.6171875 C-6 11 -6 11 -9 13 C-9.3125 10.8125 -9.3125 10.8125 -9 8 C-6.3183199 4.87137322 -3.36399398 2.36725503 0 0 Z " fill="#2DBA54" transform="translate(244,244)"/>
<path d="M0 0 C4.08394843 3.50052723 5.86888535 7.42662418 6.3125 12.75 C6 16 6 16 4 18 C3.67 14.37 3.34 10.74 3 7 C2.01 6.67 1.02 6.34 0 6 C0 4.02 0 2.04 0 0 Z " fill="#C3F7D2" transform="translate(28,223)"/>
<path d="M0 0 C2 1.375 2 1.375 4 3 C4 3.66 4 4.32 4 5 C4.61875 5.04125 5.2375 5.0825 5.875 5.125 C6.57625 5.41375 7.2775 5.7025 8 6 C9.25 9.0625 9.25 9.0625 10 12 C10.66 12 11.32 12 12 12 C11.67 12.66 11.34 13.32 11 14 C9.72486237 12.92173635 8.45507431 11.83714481 7.1875 10.75 C6.47980469 10.14671875 5.77210937 9.5434375 5.04296875 8.921875 C3.0542608 7.05104458 1.46154264 5.30527231 0 3 C0 2.01 0 1.02 0 0 Z " fill="#E8FDED" transform="translate(116,203)"/>
<path d="M0 0 C-6.16626248 3.37399268 -12.17792193 5.34464282 -19 7 C-18.67 6.01 -18.34 5.02 -18 4 C-15.52526748 2.92505652 -13.18550699 2.05432283 -10.625 1.25 C-9.93921875 1.01667969 -9.2534375 0.78335937 -8.546875 0.54296875 C-3.39381927 -1.13127309 -3.39381927 -1.13127309 0 0 Z " fill="#E7FEEE" transform="translate(195,289)"/>
<path d="M0 0 C0.66 0.33 1.32 0.66 2 1 C-2.94530633 5.09753953 -8.09652862 8.43327331 -14 11 C-14.99 10.67 -15.98 10.34 -17 10 C-16.67 9.34 -16.34 8.68 -16 8 C-14.35 8 -12.7 8 -11 8 C-11 7.34 -11 6.68 -11 6 C-10.01 6 -9.02 6 -8 6 C-8 5.34 -8 4.68 -8 4 C-7.236875 3.71125 -6.47375 3.4225 -5.6875 3.125 C-2.84970692 2.03730987 -2.84970692 2.03730987 0 0 Z " fill="#3FBA62" transform="translate(208,276)"/>
<path d="M0 0 C0.33 0 0.66 0 1 0 C0.50130596 5.36891879 -0.02227532 10.69235173 -1 16 C0.32 16.66 1.64 17.32 3 18 C0.69 18.33 -1.62 18.66 -4 19 C-4.18652752 14.8963946 -3.82809812 12.60242866 -2 9 C-1.57848115 7.42841122 -1.2031166 5.84370918 -0.875 4.25 C-0.70742188 3.45078125 -0.53984375 2.6515625 -0.3671875 1.828125 C-0.24601562 1.22484375 -0.12484375 0.6215625 0 0 Z " fill="#52B86F" transform="translate(24,277)"/>
<path d="M0 0 C4.69159716 3.38772897 9.0299782 6.78185183 13 11 C10.3125 11.4375 10.3125 11.4375 7 11 C5.4465331 9.3559142 4.33645459 7.66500663 3.17578125 5.7265625 C1.95143323 3.69642739 1.95143323 3.69642739 -1 2 C-0.67 1.34 -0.34 0.68 0 0 Z " fill="#D8FBE0" transform="translate(131,187)"/>
<path d="M0 0 C8.4342927 -0.45636453 15.85956596 0.82576642 24 3 C24 3.33 24 3.66 24 4 C7.1070615 3.22095672 7.1070615 3.22095672 0 1 C0 0.67 0 0.34 0 0 Z " fill="#E6FEEC" transform="translate(156,40)"/>
<path d="M0 0 C0.33 0.99 0.66 1.98 1 3 C-0.109375 5.19921875 -0.109375 5.19921875 -1.75 7.6875 C-4.49650327 12.03719471 -6.3763415 16.12902451 -8 21 C-9.92106808 17.15786383 -7.14935866 12.45637369 -5.875 8.5625 C-5.58625 7.716875 -5.2975 6.87125 -5 6 C-4.34 6 -3.68 6 -3 6 C-3 5.01 -3 4.02 -3 3 C-1.5 1.3125 -1.5 1.3125 0 0 Z " fill="#1BC24B" transform="translate(36,105)"/>
<path d="M0 0 C1.89575251 -0.02721176 3.79161979 -0.04649136 5.6875 -0.0625 C6.74324219 -0.07410156 7.79898438 -0.08570312 8.88671875 -0.09765625 C11.72410262 -0.00865425 14.2438919 0.35060162 17 1 C17.33 3.97 17.66 6.94 18 10 C16.66666667 8 15.33333333 6 14 4 C9.62243244 1.61223588 4.8824951 1.40421528 0 1 C0 0.67 0 0.34 0 0 Z " fill="#44C169" transform="translate(96,94)"/>
<path d="M0 0 C1.4835001 0.42257276 2.96176424 0.86356322 4.4375 1.3125 C5.67306641 1.67794922 5.67306641 1.67794922 6.93359375 2.05078125 C7.61550781 2.36402344 8.29742187 2.67726562 9 3 C9.33 3.99 9.66 4.98 10 6 C6.37673261 7.2077558 5.35853631 6.54311128 2 5 C2 4.34 2 3.68 2 3 C1.34 3 0.68 3 0 3 C0 2.01 0 1.02 0 0 Z " fill="#D1F7DC" transform="translate(148,226)"/>
<path d="M0 0 C-3.82180842 4.4008703 -6.47371099 5.80805531 -12 7 C-10.38256073 3.479691 -8.92879075 1.68880731 -5.4375 0.125 C-2 -1 -2 -1 0 0 Z " fill="#35BD5D" transform="translate(98,51)"/>
<path d="M0 0 C0.99 0.495 0.99 0.495 2 1 C2.8013619 3.85741085 3.49708506 6.66711443 4.125 9.5625 C4.30675781 10.36880859 4.48851562 11.17511719 4.67578125 12.00585938 C5.12467118 14.00223825 5.56329743 16.0009198 6 18 C5.34 18.33 4.68 18.66 4 19 C3.87882812 18.38511719 3.75765625 17.77023438 3.6328125 17.13671875 C3.46523438 16.32847656 3.29765625 15.52023438 3.125 14.6875 C2.96257812 13.88699219 2.80015625 13.08648437 2.6328125 12.26171875 C2.05521001 9.74698882 2.05521001 9.74698882 0 7 C-0.07905064 4.66800612 -0.08798769 2.33167378 0 0 Z " fill="#E1FEED" transform="translate(264,124)"/>
<path d="M0 0 C0.66 0 1.32 0 2 0 C0.99082794 5.55044635 -0.22439323 11.04355934 -3 16 C-3.66 15.67 -4.32 15.34 -5 15 C-4.54705135 13.24859857 -4.08741252 11.49892656 -3.625 9.75 C-3.36976562 8.77546875 -3.11453125 7.8009375 -2.8515625 6.796875 C-2.10401491 4.34162697 -1.22876183 2.24382595 0 0 Z " fill="#40BA62" transform="translate(29,112)"/>
<path d="M0 0 C7.75 -0.125 7.75 -0.125 10 1 C10 1.66 10 2.32 10 3 C10.66 3 11.32 3 12 3 C12 3.99 12 4.98 12 6 C7.76570244 4.68938409 3.92592596 3.05643741 0 1 C0 0.67 0 0.34 0 0 Z " fill="#C4F6D1" transform="translate(194,51)"/>
<path d="M0 0 C2.96064259 0.25419659 5.91730345 0.52750193 8.875 0.8125 C10.13763672 0.91788086 10.13763672 0.91788086 11.42578125 1.02539062 C12.23144531 1.10595703 13.03710938 1.18652344 13.8671875 1.26953125 C14.61081543 1.33760986 15.35444336 1.40568848 16.12060547 1.47583008 C18 2 18 2 20 5 C12.96871122 4.56615452 6.670985 3.25678003 0 1 C0 0.67 0 0.34 0 0 Z " fill="#42BB65" transform="translate(104,290)"/>
<path d="M0 0 C4.95 0.99 4.95 0.99 10 2 C10 2.66 10 3.32 10 4 C12.31 4.33 14.62 4.66 17 5 C17 5.33 17 5.66 17 6 C4.99777855 5.78943471 4.99777855 5.78943471 1.75 2.4375 C1.1725 1.633125 0.595 0.82875 0 0 Z " fill="#19C349" transform="translate(153,234)"/>
<path d="M0 0 C1.70884005 1.62339805 3.37446717 3.29319053 5 5 C5 5.66 5 6.32 5 7 C5.66 7 6.32 7 7 7 C7.33 7.99 7.66 8.98 8 10 C6.68 10 5.36 10 4 10 C3.896875 9.360625 3.79375 8.72125 3.6875 8.0625 C3.460625 7.381875 3.23375 6.70125 3 6 C2.01 5.67 1.02 5.34 0 5 C0 3.35 0 1.7 0 0 Z " fill="#37BE60" transform="translate(97,187)"/>
<path d="M0 0 C3.6320271 6.985926 6.70826287 14.03204267 6 22 C5.67 22 5.34 22 5 22 C3.79534844 17.34201396 2.71452588 12.76350585 2 8 C1.34 8 0.68 8 0 8 C0 5.36 0 2.72 0 0 Z " fill="#AAF1BE" transform="translate(117,116)"/>
<path d="M0 0 C10.97592998 0.35010941 10.97592998 0.35010941 15.25 3.0625 C15.8275 3.701875 16.405 4.34125 17 5 C10.95198929 4.45018084 5.69398894 3.09570426 0 1 C0 0.67 0 0.34 0 0 Z " fill="#B6F3C9" transform="translate(157,233)"/>
<path d="M0 0 C4.49797113 1.68673918 8.72886302 3.81673892 13 6 C13 6.33 13 6.66 13 7 C10.36 7 7.72 7 5 7 C5 6.01 5 5.02 5 4 C3.35 3.67 1.7 3.34 0 3 C0 2.01 0 1.02 0 0 Z " fill="#CCF8D7" transform="translate(144,198)"/>
<path d="M0 0 C4.23345479 1.51194814 5.85664857 4.15674915 8 8 C8.75 11.375 8.75 11.375 9 14 C6.33942369 11.58710497 4.63367391 8.95975383 2.8125 5.875 C2.01779297 4.54082031 2.01779297 4.54082031 1.20703125 3.1796875 C0 1 0 1 0 0 Z " fill="#34B559" transform="translate(114,163)"/>
<path d="M0 0 C-0.33 0.66 -0.66 1.32 -1 2 C-7.6 2 -14.2 2 -21 2 C-21 1.67 -21 1.34 -21 1 C-20.02417969 0.93941406 -19.04835937 0.87882813 -18.04296875 0.81640625 C-16.77066406 0.73261719 -15.49835938 0.64882812 -14.1875 0.5625 C-12.92292969 0.48128906 -11.65835938 0.40007812 -10.35546875 0.31640625 C-1.63125 -0.50625 -1.63125 -0.50625 0 0 Z " fill="#46BD66" transform="translate(201,238)"/>
<path d="M0 0 C0.8852947 2.47544187 1.09093521 3.71011262 0.29296875 6.25390625 C-0.25423828 7.39666016 -0.25423828 7.39666016 -0.8125 8.5625 C-1.34810547 9.70912109 -1.34810547 9.70912109 -1.89453125 10.87890625 C-3 13 -3 13 -5 16 C-5.66 16 -6.32 16 -7 16 C-6.67 14.68 -6.34 13.36 -6 12 C-5.34 12 -4.68 12 -4 12 C-3.79503906 11.30132812 -3.59007812 10.60265625 -3.37890625 9.8828125 C-3.10949219 8.97273437 -2.84007812 8.06265625 -2.5625 7.125 C-2.29566406 6.22007812 -2.02882812 5.31515625 -1.75390625 4.3828125 C-1 2 -1 2 0 0 Z " fill="#C0F5D0" transform="translate(257,224)"/>
<path d="M0 0 C1.99093137 1.64857544 2.91353305 2.53969062 3.3984375 5.12109375 C3.33462033 11.42835693 3.33462033 11.42835693 1.5 14.5625 C1.005 15.036875 0.51 15.51125 0 16 C-0.12549801 9.47410359 -0.12549801 9.47410359 0.5625 6.875 C1.14535945 4.37703091 0.61480045 2.45920181 0 0 Z " fill="#D0FBDE" transform="translate(217,202)"/>
<path d="M0 0 C2.50719458 2.32649587 4.32183601 4.82681521 6.1875 7.6875 C6.71730469 8.49574219 7.24710937 9.30398437 7.79296875 10.13671875 C8.39044922 11.05904297 8.39044922 11.05904297 9 12 C5.13172818 10.55887913 3.05128593 9.69231467 1 6 C0.3125 2.75 0.3125 2.75 0 0 Z " fill="#C0F6D0" transform="translate(118,171)"/>
<path d="M0 0 C1.67542976 0.28604898 3.34385343 0.61781233 5 1 C2.48115349 3.51884651 0.56355758 3.8257588 -2.875 4.6875 C-3.92429688 4.95949219 -4.97359375 5.23148437 -6.0546875 5.51171875 C-8.85166838 5.97540921 -10.372192 5.94575698 -13 5 C-12.14535156 4.72285156 -11.29070312 4.44570313 -10.41015625 4.16015625 C-9.30542969 3.79792969 -8.20070312 3.43570312 -7.0625 3.0625 C-5.96035156 2.70285156 -4.85820312 2.34320313 -3.72265625 1.97265625 C-1.11876525 1.26143332 -1.11876525 1.26143332 0 0 Z " fill="#BAF2CB" transform="translate(195,285)"/>
<path d="M0 0 C1.32 0.33 2.64 0.66 4 1 C-2.93 4.465 -2.93 4.465 -10 8 C-10 7.01 -10 6.02 -10 5 C-8.68 5 -7.36 5 -6 5 C-6 4.34 -6 3.68 -6 3 C-4.02 2.67 -2.04 2.34 0 2 C0 1.34 0 0.68 0 0 Z " fill="#CCFBD9" transform="translate(85,53)"/>
<path d="M0 0 C0.99 0.33 1.98 0.66 3 1 C2.07038578 2.15224028 1.1309875 3.29659176 0.1875 4.4375 C-0.59560547 5.39462891 -0.59560547 5.39462891 -1.39453125 6.37109375 C-3 8 -3 8 -6 9 C-4.68775452 5.06326356 -3.08089673 2.77280706 0 0 Z " fill="#2EB857" transform="translate(232,256)"/>
<path d="M0 0 C3.80666984 1.44390925 5.26602582 3.34952803 7 7 C6.67 7.66 6.34 8.32 6 9 C3.69 7.02 1.38 5.04 -1 3 C-0.67 2.01 -0.34 1.02 0 0 Z " fill="#26BA52" transform="translate(104,197)"/>
<path d="M0 0 C1.134375 0.020625 2.26875 0.04125 3.4375 0.0625 C3.7675 0.7225 4.0975 1.3825 4.4375 2.0625 C1.7975 2.3925 -0.8425 2.7225 -3.5625 3.0625 C-3.5625 3.7225 -3.5625 4.3825 -3.5625 5.0625 C-4.5525 5.0625 -5.5425 5.0625 -6.5625 5.0625 C-4.14811644 0.07277397 -4.14811644 0.07277397 0 0 Z " fill="#AFF3C5" transform="translate(185.5625,186.9375)"/>
<path d="M0 0 C2.29240007 0.05985379 4.58406206 0.14859027 6.875 0.25 C8.78925781 0.31960937 8.78925781 0.31960937 10.7421875 0.390625 C11.81726563 0.59171875 12.89234375 0.7928125 14 1 C14.66 2.32 15.32 3.64 16 5 C10.72 3.68 5.44 2.36 0 1 C0 0.67 0 0.34 0 0 Z " fill="#B7F5CA" transform="translate(178,46)"/>
<path d="M0 0 C5.94 3.465 5.94 3.465 12 7 C11.01 7.66 10.02 8.32 9 9 C9 8.34 9 7.68 9 7 C8.443125 6.896875 7.88625 6.79375 7.3125 6.6875 C4.49885978 5.85101237 2.37853021 4.71782737 0 3 C0 2.01 0 1.02 0 0 Z " fill="#37B65B" transform="translate(129,218)"/>
<path d="M0 0 C2.00293347 3.00440021 2.49271626 4.70993945 3.125 8.1875 C3.29257812 9.08855469 3.46015625 9.98960937 3.6328125 10.91796875 C3.75398438 11.60503906 3.87515625 12.29210937 4 13 C3.34 13 2.68 13 2 13 C1.47212358 11.02270019 0.95287097 9.04309608 0.4375 7.0625 C0.00244141 5.40927734 0.00244141 5.40927734 -0.44140625 3.72265625 C-0.62574219 2.82417969 -0.81007813 1.92570313 -1 1 C-0.67 0.67 -0.34 0.34 0 0 Z " fill="#31B454" transform="translate(22,197)"/>
<path d="M0 0 C0.66 0.33 1.32 0.66 2 1 C1.01 2.485 1.01 2.485 0 4 C-0.66 4 -1.32 4 -2 4 C-2.103125 4.70125 -2.20625 5.4025 -2.3125 6.125 C-3.09359003 9.39137647 -4.42058743 12.0471852 -6 15 C-6.98120464 11.94736336 -6.98120464 10.05263664 -6 7 C-5.34 7 -4.68 7 -4 7 C-3.896875 6.401875 -3.79375 5.80375 -3.6875 5.1875 C-2.91123545 2.71756736 -1.92911079 1.67748765 0 0 Z " fill="#EBFDF0" transform="translate(84,105)"/>
<path d="M0 0 C1.32 0 2.64 0 4 0 C2.76210371 3.71368887 1.14775123 4.77354181 -2 7 C-2.66 7 -3.32 7 -4 7 C-4 5.68 -4 4.36 -4 3 C-3.01 3 -2.02 3 -1 3 C-0.67 2.01 -0.34 1.02 0 0 Z " fill="#2CBB57" transform="translate(88,95)"/>
<path d="M0 0 C4.30840713 1.07710178 7.63576723 2.03947516 11 5 C3.57142857 5.28571429 3.57142857 5.28571429 0 3 C0 2.01 0 1.02 0 0 Z " fill="#D7FCE2" transform="translate(83,283)"/>
<path d="M0 0 C2.97 0 5.94 0 9 0 C9 0.66 9 1.32 9 2 C10.32 2.33 11.64 2.66 13 3 C10.18515955 4.40742022 8.43063887 3.66652164 5.375 3.0625 C4.37210938 2.86785156 3.36921875 2.67320312 2.3359375 2.47265625 C1.56507813 2.31667969 0.79421875 2.16070312 0 2 C0 1.34 0 0.68 0 0 Z " fill="#1AC04A" transform="translate(181,184)"/>
<path d="M0 0 C0.33 0.66 0.66 1.32 1 2 C0.67 2.66 0.34 3.32 0 4 C-0.66 4 -1.32 4 -2 4 C-2.268125 4.969375 -2.53625 5.93875 -2.8125 6.9375 C-3.204375 7.948125 -3.59625 8.95875 -4 10 C-4.99 10.33 -5.98 10.66 -7 11 C-5.72278474 6.00724943 -3.82669043 3.42388092 0 0 Z " fill="#CAF7D9" transform="translate(31,108)"/>
<path d="M0 0 C4.20626034 1.50223584 5.73900021 4.28550034 8 8 C6.35 8 4.7 8 3 8 C0 2.25 0 2.25 0 0 Z " fill="#3FBF63" transform="translate(230,76)"/>
<path d="M0 0 C1.62580966 0.11398665 3.25067157 0.24155659 4.875 0.375 C5.77992188 0.44460937 6.68484375 0.51421875 7.6171875 0.5859375 C10 1 10 1 12 3 C10.37509046 3.02698189 8.75005367 3.04638757 7.125 3.0625 C5.76761719 3.07990234 5.76761719 3.07990234 4.3828125 3.09765625 C2 3 2 3 0 2 C0 1.34 0 0.68 0 0 Z " fill="#3EBC61" transform="translate(166,44)"/>
<path d="M0 0 C2.79133871 0.78208351 5.44481903 1.61706907 8 3 C9 5.6875 9 5.6875 9 8 C8.67 7.34 8.34 6.68 8 6 C6.02111039 5.27306096 4.02045442 4.60183749 2 4 C2 3.34 2 2.68 2 2 C1.34 2 0.68 2 0 2 C0 1.34 0 0.68 0 0 Z " fill="#D0F8DB" transform="translate(102,192)"/>
<path d="M0 0 C3.4375 0.8125 3.4375 0.8125 7 2 C7.33 2.99 7.66 3.98 8 5 C8.66 5 9.32 5 10 5 C10 5.99 10 6.98 10 8 C6.05205855 6.32971708 3.18203882 3.8204435 0 1 C0 0.67 0 0.34 0 0 Z " fill="#C4F7D4" transform="translate(224,70)"/>
<path d="M0 0 C2.95749791 3.46741134 5.07848152 6.86873527 7 11 C6.01 11.495 6.01 11.495 5 12 C2.37613513 8.93882432 2 8.26826873 2 4 C1.34 4 0.68 4 0 4 C0 2.68 0 1.36 0 0 Z " fill="#52C171" transform="translate(90,176)"/>
<path d="M0 0 C0.33 0.66 0.66 1.32 1 2 C1.66 2 2.32 2 3 2 C4.42258812 5.82320557 5.24042276 8.91281305 5 13 C2.03472242 10.5546615 1.44417786 8.55397653 0.8125 4.8125 C0.65394531 3.91144531 0.49539062 3.01039063 0.33203125 2.08203125 C0.22246094 1.39496094 0.11289063 0.70789063 0 0 Z " fill="#1FBB49" transform="translate(73,146)"/>
<path d="M0 0 C2 1 2 1 2.62109375 2.765625 C3.02399618 5.14150323 3.09791478 7.34179517 3.0625 9.75 C3.05347656 10.54921875 3.04445313 11.3484375 3.03515625 12.171875 C3.01775391 13.07679688 3.01775391 13.07679688 3 14 C1.20724134 10.88089144 0.65709282 8.32317572 0.375 4.75 C0.30023438 3.85796875 0.22546875 2.9659375 0.1484375 2.046875 C0.09945313 1.37140625 0.05046875 0.6959375 0 0 Z " fill="#1FBF4B" transform="translate(265,144)"/>
<path d="M0 0 C0.99 0.495 0.99 0.495 2 1 C2.484375 2.92578125 2.484375 2.92578125 2.75 5.3125 C2.84796875 6.09238281 2.9459375 6.87226563 3.046875 7.67578125 C3 10 3 10 1 14 C0.67 9.38 0.34 4.76 0 0 Z " fill="#DEFCE9" transform="translate(75,135)"/>
<path d="M0 0 C0.66 0.33 1.32 0.66 2 1 C-0.475 6.94 -0.475 6.94 -3 13 C-3.33 13 -3.66 13 -4 13 C-4.45732667 7.28341664 -3.52273754 4.51350747 0 0 Z " fill="#3EBA62" transform="translate(78,107)"/>
<path d="M0 0 C-0.33 1.32 -0.66 2.64 -1 4 C-1.7425 4.12375 -2.485 4.2475 -3.25 4.375 C-5.80141485 4.95486701 -7.7267573 5.73708739 -10 7 C-8.89184175 3.78634109 -8.01470446 3.0085776 -5 1.25 C-2 0 -2 0 0 0 Z " fill="#1CC14D" transform="translate(212,273)"/>
<path d="M0 0 C0.66 0 1.32 0 2 0 C1.34 1.65 0.68 3.3 0 5 C0.66 5 1.32 5 2 5 C2 5.66 2 6.32 2 7 C0.35 7.33 -1.3 7.66 -3 8 C-2.45276317 4.62537285 -1.9451 2.91765 0 0 Z " fill="#ECFCEE" transform="translate(237,256)"/>
<path d="M0 0 C0.66 0 1.32 0 2 0 C1.34 1.98 0.68 3.96 0 6 C-0.66 6 -1.32 6 -2 6 C-2.66 7.32 -3.32 8.64 -4 10 C-4 8.02 -4 6.04 -4 4 C-3.01 4 -2.02 4 -1 4 C-0.67 2.68 -0.34 1.36 0 0 Z " fill="#4DC16E" transform="translate(253,230)"/>
<path d="M0 0 C6.75 1.875 6.75 1.875 9 3 C8.67 3.99 8.34 4.98 8 6 C2.25 3.375 2.25 3.375 0 0 Z " fill="#3BBB5F" transform="translate(139,193)"/>
<path d="M0 0 C1.13732426 3.40401948 0.83989957 5.77456664 0.0625 9.25 C-0.13214844 10.14203125 -0.32679687 11.0340625 -0.52734375 11.953125 C-0.68332031 12.62859375 -0.83929688 13.3040625 -1 14 C-2.62433191 11.49923002 -3.07333427 10.41017471 -2.5390625 7.421875 C-2.23742187 6.54015625 -1.93578125 5.6584375 -1.625 4.75 C-1.32851562 3.85796875 -1.03203125 2.9659375 -0.7265625 2.046875 C-0.48679687 1.37140625 -0.24703125 0.6959375 0 0 Z " fill="#CAFBDC" transform="translate(77,112)"/>
<path d="M0 0 C0.8125 1.625 0.8125 1.625 1 4 C-0.46818136 6.24609835 -2.15852858 8.02378677 -4 10 C-4.33 9.34 -4.66 8.68 -5 8 C-4.0625 5.875 -4.0625 5.875 -3 4 C-2.34 4 -1.68 4 -1 4 C-0.67 2.68 -0.34 1.36 0 0 Z " fill="#E5FEEB" transform="translate(32,102)"/>
<path d="M0 0 C0.66 0.33 1.32 0.66 2 1 C0.3125 3.5 0.3125 3.5 -2 6 C-4.75 6.3125 -4.75 6.3125 -7 6 C-4.74259377 3.66475218 -2.7194239 1.81294927 0 0 Z " fill="#B8F2CB" transform="translate(220,270)"/>
<path d="M0 0 C1.0326802 2.78823655 1.04509293 3.8677274 0.0625 6.75 C-0.288125 7.4925 -0.63875 8.235 -1 9 C-2.32 9 -3.64 9 -5 9 C-4.34 7.35 -3.68 5.7 -3 4 C-2.34 4 -1.68 4 -1 4 C-0.67 2.68 -0.34 1.36 0 0 Z " fill="#4CC46D" transform="translate(217,218)"/>
<path d="M0 0 C0.33 0.66 0.66 1.32 1 2 C-0.32 3.65 -1.64 5.3 -3 7 C-4.32 6.67 -5.64 6.34 -7 6 C-5.625 4.5 -5.625 4.5 -4 3 C-3.34 3 -2.68 3 -2 3 C-2 2.34 -2 1.68 -2 1 C-1.34 0.67 -0.68 0.34 0 0 Z " fill="#4CC070" transform="translate(63,69)"/>
<path d="M0 0 C2.31 0.66 4.62 1.32 7 2 C7 2.66 7 3.32 7 4 C8.32 4.33 9.64 4.66 11 5 C10.67 5.66 10.34 6.32 10 7 C8.51719804 6.21516341 7.0388502 5.42190666 5.5625 4.625 C4.73878906 4.18414062 3.91507813 3.74328125 3.06640625 3.2890625 C1 2 1 2 0 0 Z " fill="#1AC24A" transform="translate(200,57)"/>
<path d="M0 0 C2.31 0.66 4.62 1.32 7 2 C7.33 3.32 7.66 4.64 8 6 C5 5 5 5 4 4 C3.01 4.33 2.02 4.66 1 5 C0.67 3.35 0.34 1.7 0 0 Z " fill="#15C245" transform="translate(122,216)"/>
<path d="M0 0 C1.98 0 3.96 0 6 0 C6 0.66 6 1.32 6 2 C6.66 2 7.32 2 8 2 C8 2.99 8 3.98 8 5 C4.62496331 3.8141763 2.35277269 2.72426311 0 0 Z " fill="#BDF4CD" transform="translate(128,217)"/>
<path d="M0 0 C1.31611677 0.95336021 2.62778961 1.91285774 3.9375 2.875 C4.66839844 3.40867188 5.39929688 3.94234375 6.15234375 4.4921875 C8 6 8 6 9 8 C5.625 7.375 5.625 7.375 2 6 C0.5625 2.875 0.5625 2.875 0 0 Z " fill="#3BBE60" transform="translate(110,202)"/>
<path d="M0 0 C1.98 0.495 1.98 0.495 4 1 C4 1.66 4 2.32 4 3 C5.32 3.33 6.64 3.66 8 4 C5.1875 4.625 5.1875 4.625 2 5 C1.01 4.34 0.02 3.68 -1 3 C-0.67 2.01 -0.34 1.02 0 0 Z " fill="#30BE59" transform="translate(148,197)"/>
<path d="M0 0 C1.37432457 3.81756824 0.67975039 7.07255329 0 11 C-2 10 -2 10 -2.8125 7.75 C-3.04981941 4.2693153 -1.99176373 2.78846922 0 0 Z " fill="#E3FDE9" transform="translate(110,147)"/>
<path d="M0 0 C0.92039062 0.28810547 0.92039062 0.28810547 1.859375 0.58203125 C0.40488099 1.58760735 -1.05434943 2.5863356 -2.515625 3.58203125 C-3.73378906 4.41734375 -3.73378906 4.41734375 -4.9765625 5.26953125 C-7.140625 6.58203125 -7.140625 6.58203125 -9.140625 6.58203125 C-9.140625 5.92203125 -9.140625 5.26203125 -9.140625 4.58203125 C-8.150625 4.58203125 -7.160625 4.58203125 -6.140625 4.58203125 C-6.140625 3.92203125 -6.140625 3.26203125 -6.140625 2.58203125 C-2.87983363 -0.56230328 -2.87983363 -0.56230328 0 0 Z " fill="#C9FBD6" transform="translate(73.140625,61.41796875)"/>
<path d="M0 0 C4.10958767 1.45044271 7.43258745 3.51110752 11 6 C7.52710626 6 5.19201574 5.35830457 2 4 C0.625 1.875 0.625 1.875 0 0 Z " fill="#5DCB7C" transform="translate(205,57)"/>
<path d="M0 0 C6.75 0.75 6.75 0.75 9 3 C6.08517222 3.80967438 4.53886783 4.21845993 1.6875 3.0625 C1.130625 2.711875 0.57375 2.36125 0 2 C0 1.34 0 0.68 0 0 Z " fill="#37B85D" transform="translate(185,49)"/>
<path d="M0 0 C-1.65 0.33 -3.3 0.66 -5 1 C-5 1.66 -5 2.32 -5 3 C-6.65 3.33 -8.3 3.66 -10 4 C-9.25 2.0625 -9.25 2.0625 -8 0 C-5.05360248 -1.27677226 -3.00864103 -0.96706319 0 0 Z " fill="#1ABF49" transform="translate(106,50)"/>
<path d="M0 0 C2.9375 0.75 2.9375 0.75 6 2 C6.875 4.125 6.875 4.125 7 6 C7.66 6 8.32 6 9 6 C8.67 6.66 8.34 7.32 8 8 C6.66372225 6.85760183 5.33104612 5.71098945 4 4.5625 C3.2575 3.92441406 2.515 3.28632813 1.75 2.62890625 C1.1725 2.09136719 0.595 1.55382812 0 1 C0 0.67 0 0.34 0 0 Z " fill="#BCF6CE" transform="translate(119,209)"/>
<path d="M0 0 C1.41687119 4.25061356 0.19320039 6.71851625 -1 11 C-1.66 11 -2.32 11 -3 11 C-2.44894091 7.0507432 -1.61064629 3.65079826 0 0 Z " fill="#E6FEF0" transform="translate(269,197)"/>
<path d="M0 0 C2.64 0.33 5.28 0.66 8 1 C8.33 1.99 8.66 2.98 9 4 C9.66 4 10.32 4 11 4 C10.67 4.66 10.34 5.32 10 6 C6.7 4.35 3.4 2.7 0 1 C0 0.67 0 0.34 0 0 Z " fill="#3FBC62" transform="translate(208,195)"/>
<path d="M0 0 C3.875 2.875 3.875 2.875 5 4 C5.04092937 6.33297433 5.04241723 8.66705225 5 11 C0 3.5 0 3.5 0 0 Z " fill="#BDF5CD" transform="translate(259,117)"/>
<path d="M0 0 C1.65 0 3.3 0 5 0 C4.01 0.33 3.02 0.66 2 1 C1.67 1.99 1.34 2.98 1 4 C-0.98 4.33 -2.96 4.66 -5 5 C-5 4.34 -5 3.68 -5 3 C-4.360625 2.87625 -3.72125 2.7525 -3.0625 2.625 C-2.0415625 2.315625 -2.0415625 2.315625 -1 2 C-0.67 1.34 -0.34 0.68 0 0 Z " fill="#2AB752" transform="translate(53,282)"/>
<path d="M0 0 C0.66 0 1.32 0 2 0 C1.50769231 5.53846154 1.50769231 5.53846154 -1.0625 7.875 C-2.0215625 8.431875 -2.0215625 8.431875 -3 9 C-2.01 6.03 -1.02 3.06 0 0 Z " fill="#EFFEF6" transform="translate(250,240)"/>
<path d="M0 0 C0.99 0 1.98 0 3 0 C3.125 3.375 3.125 3.375 3 7 C2.34 7.66 1.68 8.32 1 9 C0.67 6.03 0.34 3.06 0 0 Z " fill="#DAFEE5" transform="translate(31,232)"/>
<path d="M0 0 C0.99 0.33 1.98 0.66 3 1 C0.69 2.65 -1.62 4.3 -4 6 C-4.66 5.67 -5.32 5.34 -6 5 C-2.25 1.125 -2.25 1.125 0 0 Z " fill="#C0F8D1" transform="translate(204,231)"/>
<path d="M0 0 C-0.33 1.32 -0.66 2.64 -1 4 C-1.66 4 -2.32 4 -3 4 C-3.33 4.99 -3.66 5.98 -4 7 C-4.33 7 -4.66 7 -5 7 C-5.1875 4.625 -5.1875 4.625 -5 2 C-2 0 -2 0 0 0 Z " fill="#D2FDE1" transform="translate(217,218)"/>
<path d="M0 0 C-0.8345262 2.50357861 -1.79371992 4.66785852 -3 7 C-5 3.25 -5 3.25 -5 1 C-3 0 -3 0 0 0 Z " fill="#13C348" transform="translate(262,210)"/>
<path d="M0 0 C2.64 1.98 5.28 3.96 8 6 C6.68 6.33 5.36 6.66 4 7 C3.34 6.01 2.68 5.02 2 4 C1.01 3.34 0.02 2.68 -1 2 C-0.67 1.34 -0.34 0.68 0 0 Z " fill="#BFF6D0" transform="translate(131,187)"/>
<path d="M0 0 C0.6875 1.8125 0.6875 1.8125 1 4 C-0.3125 5.75 -0.3125 5.75 -2 7 C-2.66 7 -3.32 7 -4 7 C-2.92598892 4.08482708 -2.22189824 2.22189824 0 0 Z " fill="#42BC67" transform="translate(115,146)"/>
<path d="M0 0 C1.98 0.495 1.98 0.495 4 1 C1.25 5.875 1.25 5.875 -1 7 C-0.67 4.69 -0.34 2.38 0 0 Z " fill="#16C24B" transform="translate(116,146)"/>
<path d="M0 0 C1.9453125 -0.29296875 1.9453125 -0.29296875 4.125 -0.1875 C5.40375 -0.125625 6.6825 -0.06375 8 0 C4.55549263 2.29633824 2.06187717 2.54016485 -2 3 C-1.34 2.01 -0.68 1.02 0 0 Z " fill="#2CB653" transform="translate(40,287)"/>
<path d="M0 0 C2.31 0.33 4.62 0.66 7 1 C7 1.99 7 2.98 7 4 C7.66 4.33 8.32 4.66 9 5 C8.01 5 7.02 5 6 5 C6 4.34 6 3.68 6 3 C5.195625 2.87625 4.39125 2.7525 3.5625 2.625 C2.716875 2.41875 1.87125 2.2125 1 2 C0.67 1.34 0.34 0.68 0 0 Z " fill="#EDFDF4" transform="translate(76,282)"/>
<path d="M0 0 C0.66 0.33 1.32 0.66 2 1 C0.35 2.98 -1.3 4.96 -3 7 C-3.99 6.67 -4.98 6.34 -6 6 C-2.25 1.125 -2.25 1.125 0 0 Z " fill="#ECFDEF" transform="translate(224,269)"/>
<path d="M0 0 C0.6875 1.8125 0.6875 1.8125 1 4 C-0.3125 5.5625 -0.3125 5.5625 -2 7 C-2.66 7.99 -3.32 8.98 -4 10 C-3.5205537 5.78087253 -2.83374881 3.20336822 0 0 Z " fill="#25BC4E" transform="translate(255,224)"/>
<path d="M0 0 C0.5625 1.9375 0.5625 1.9375 1 4 C0 5 0 5 -2.28515625 5.09765625 C-3.65994141 5.08025391 -3.65994141 5.08025391 -5.0625 5.0625 C-5.98160156 5.05347656 -6.90070313 5.04445312 -7.84765625 5.03515625 C-8.55792969 5.02355469 -9.26820313 5.01195312 -10 5 C-10 4.67 -10 4.34 -10 4 C-6.97265625 3.75585938 -6.97265625 3.75585938 -3.9453125 3.51171875 C-1.60480784 3.12606964 -1.60480784 3.12606964 0 0 Z " fill="#22C04C" transform="translate(170,199)"/>
<path d="M0 0 C3.24732932 1.62366466 3.70155136 4.75387839 5 8 C3.68 7.67 2.36 7.34 1 7 C0.67 4.69 0.34 2.38 0 0 Z " fill="#24BC52" transform="translate(122,171)"/>
<path d="M0 0 C2 1 2 1 2.8515625 3.28515625 C3.10679687 4.20167969 3.36203125 5.11820312 3.625 6.0625 C3.88539063 6.98160156 4.14578125 7.90070313 4.4140625 8.84765625 C4.60742188 9.55792969 4.80078125 10.26820312 5 11 C1.87729874 8.48169253 1.05476902 7.2738451 0.25 3.25 C0.1675 2.1775 0.085 1.105 0 0 Z " fill="#47BC67" transform="translate(257,114)"/>
<path d="M0 0 C1.64826111 2.96687001 2.44271087 5.65626525 3 9 C2.01 8.67 1.02 8.34 0 8 C-0.79953138 4.71303767 -1.09658936 3.28976808 0 0 Z " fill="#C4F6D2" transform="translate(114,107)"/>
<path d="M0 0 C0.33 0.99 0.66 1.98 1 3 C-0.8125 5.6875 -0.8125 5.6875 -3 8 C-3.66 8 -4.32 8 -5 8 C-3.62845496 5.04590299 -2.01136276 2.55991624 0 0 Z " fill="#4CC06E" transform="translate(49,82)"/>
<path d="M0 0 C-1.32 0.33 -2.64 0.66 -4 1 C-4 1.66 -4 2.32 -4 3 C-5.65 3 -7.3 3 -9 3 C-9 2.34 -9 1.68 -9 1 C-6.04335481 -0.4783226 -3.25770263 -0.06032783 0 0 Z " fill="#1BC148" transform="translate(52,284)"/>
<path d="M0 0 C1.98 0 3.96 0 6 0 C6 0.66 6 1.32 6 2 C6.99 2.33 7.98 2.66 9 3 C9 3.66 9 4.32 9 5 C7.0625 4.625 7.0625 4.625 5 4 C4.67 3.34 4.34 2.68 4 2 C1.98330173 0.86649466 1.98330173 0.86649466 0 0 Z " fill="#16C347" transform="translate(212,195)"/>
<path d="M0 0 C0.99 0.495 0.99 0.495 2 1 C2.75 3.9375 2.75 3.9375 3 7 C2.34 7.66 1.68 8.32 1 9 C-0.4783226 6.04335481 -0.06032783 3.25770263 0 0 Z " fill="#D5FEDF" transform="translate(264,124)"/>
<path d="M0 0 C1.9375 0.5625 1.9375 0.5625 4 2 C4.75 5.625 4.75 5.625 5 9 C3 6 3 6 3 4 C2.01 3.67 1.02 3.34 0 3 C0 2.01 0 1.02 0 0 Z " fill="#E9FDF2" transform="translate(253,102)"/>
</svg>
