<?xml version="1.0" encoding="UTF-8"?>
<svg version="1.1" xmlns="http://www.w3.org/2000/svg" width="341" height="340">
<path d="M0 0 C112.53 0 225.06 0 341 0 C341 112.2 341 224.4 341 340 C228.47 340 115.94 340 0 340 C0 227.8 0 115.6 0 0 Z " fill="#FDFDFD" transform="translate(0,0)"/>
<path d="M0 0 C1.07765625 0.51304688 2.1553125 1.02609375 3.265625 1.5546875 C18.61852553 8.89296815 42.04125445 20.77494718 49.24609375 36.765625 C49.49488281 37.50296875 49.74367188 38.2403125 50 39 C50.66 39 51.32 39 52 39 C53.5078125 41.1171875 53.5078125 41.1171875 55.125 43.875 C55.66382813 44.77992187 56.20265625 45.68484375 56.7578125 46.6171875 C58 49 58 49 58 51 C58.66 51 59.32 51 60 51 C68.42057875 67.30112039 68.42057875 67.30112039 70.29296875 73.69140625 C71.21641339 76.70663158 72.37647204 79.61613906 73.5 82.5625 C83.5037362 111.09279296 82.02821528 145.86577237 68.91015625 173.27734375 C65.20875406 180.66768549 61.11353195 187.8338923 57 195 C56.34 195 55.68 195 55 195 C54.75636719 195.72574219 54.51273438 196.45148438 54.26171875 197.19921875 C52.84485241 200.34439883 51.16884189 202.30204281 48.8125 204.8125 C45.29676613 208.59389221 41.90268117 212.43331256 38.60546875 216.40625 C36.86691232 218.13211623 35.23575619 219.0300407 33 220 C33 220.66 33 221.32 33 222 C31.6015625 223.20166016 31.6015625 223.20166016 29.625 224.5390625 C28.89466553 225.03341797 28.16433105 225.52777344 27.41186523 226.03710938 C26.61594971 226.56111328 25.82003418 227.08511719 25 227.625 C24.18926025 228.16189453 23.37852051 228.69878906 22.54321289 229.25195312 C14.98386442 234.16740604 7.17234278 238.21684806 -1 242 C-2.25683594 242.61101562 -2.25683594 242.61101562 -3.5390625 243.234375 C-12.98868138 247.70146756 -21.48170033 250 -32 250 C-32 220.63 -32 191.26 -32 161 C-22.1 161 -12.2 161 -2 161 C-1.67 156.38 -1.34 151.76 -1 147 C-0.42231198 143.43634014 0.18749213 139.95891244 0.9375 136.4375 C1.10701172 135.58865234 1.27652344 134.73980469 1.45117188 133.86523438 C2.32788773 129.60832888 3.36144512 126.0963872 5 122 C-7.21 122 -19.42 122 -32 122 C-32.061875 117.400625 -32.12375 112.80125 -32.1875 108.0625 C-32.22846802 105.91439819 -32.22846802 105.91439819 -32.27026367 103.72290039 C-32.32325271 95.55404189 -31.92133152 88.55727718 -27.4375 81.5625 C-20.53178597 77.13576024 -11.28172191 77.73776718 -3.375 77.875 C-2.37082031 77.88402344 -1.36664063 77.89304687 -0.33203125 77.90234375 C2.11224126 77.92562254 4.55598408 77.95831513 7 78 C6.83628906 77.13246094 6.67257813 76.26492187 6.50390625 75.37109375 C5.6379255 69.30922852 5.89586197 63.17047816 5.9375 57.0625 C5.94201172 55.80630859 5.94652344 54.55011719 5.95117188 53.25585938 C5.96290319 50.17052337 5.979319 47.08528684 6 44 C-26.24797404 39.48550787 -26.24797404 39.48550787 -56 50 C-56.80244141 50.81984375 -56.80244141 50.81984375 -57.62109375 51.65625 C-59 53 -59 53 -61 53 C-61.41958984 53.87978516 -61.41958984 53.87978516 -61.84765625 54.77734375 C-62.91845581 56.84271646 -64.11419666 58.65381014 -65.4375 60.5625 C-70.57287567 68.78925533 -71.44921712 77.85497543 -71.51171875 87.35546875 C-71.53864555 88.89694328 -71.53864555 88.89694328 -71.56611633 90.46955872 C-71.61971988 93.70883237 -71.65395343 96.94796303 -71.6875 100.1875 C-71.72071724 102.4017124 -71.75521088 104.61590605 -71.79101562 106.83007812 C-71.87778819 112.22006697 -71.9382841 117.60943498 -72 123 C-83.88 123 -95.76 123 -108 123 C-108 135.87 -108 148.74 -108 162 C-96.12 162 -84.24 162 -72 162 C-72 191.37 -72 220.74 -72 251 C-87.24835618 248.65409905 -87.24835618 248.65409905 -93.8125 246.375 C-94.56748779 246.11702637 -95.32247559 245.85905273 -96.1003418 245.59326172 C-104.0995475 242.76057527 -111.57979441 239.09431418 -119 235 C-120.13179687 234.38382813 -121.26359375 233.76765625 -122.4296875 233.1328125 C-133.45231731 226.76241973 -144.59438719 217.50250544 -152 207 C-152 206.34 -152 205.68 -152 205 C-152.66 205 -153.32 205 -154 205 C-155.1574707 203.67407227 -155.1574707 203.67407227 -156.42578125 201.81640625 C-156.89040771 201.1402124 -157.35503418 200.46401855 -157.83374023 199.76733398 C-158.32173096 199.03973877 -158.80972168 198.31214355 -159.3125 197.5625 C-159.81015869 196.829104 -160.30781738 196.09570801 -160.82055664 195.34008789 C-163.71920487 191.02906985 -166.49544703 186.69900224 -168.90234375 182.08984375 C-169.86548487 180.25610532 -170.91285652 178.4671241 -171.97265625 176.6875 C-186.79507242 150.75772259 -186.61317168 112.88107511 -179.11328125 84.99609375 C-178.74384265 83.66360249 -178.37278394 82.33155922 -178 81 C-177.66355469 79.77410156 -177.32710937 78.54820313 -176.98046875 77.28515625 C-172.18415288 61.40477474 -163.54127891 47.68496757 -153 35 C-152.33991943 34.1637207 -152.33991943 34.1637207 -151.66650391 33.31054688 C-150.48891315 31.83694263 -149.24865721 30.4138899 -148 29 C-147.34 29 -146.68 29 -146 29 C-146 28.34 -146 27.68 -146 27 C-144.26608049 25.39365985 -142.461909 23.8624713 -140.625 22.375 C-139.62726563 21.55773437 -138.62953125 20.74046875 -137.6015625 19.8984375 C-135 18 -135 18 -133 18 C-133 17.34 -133 16.68 -133 16 C-132.10539062 15.49210937 -131.21078125 14.98421875 -130.2890625 14.4609375 C-129.06769184 13.76565397 -127.84633897 13.07033919 -126.625 12.375 C-125.65880737 11.82694702 -125.65880737 11.82694702 -124.6730957 11.26782227 C-121.11657222 9.24192078 -117.63641514 7.14313204 -114.1875 4.9375 C-107.1631073 0.74110955 -99.69760071 -2.2782852 -92 -5 C-91.26539551 -5.26264648 -90.53079102 -5.52529297 -89.77392578 -5.79589844 C-62.91432898 -14.89945644 -25.0213602 -13.59856533 0 0 Z " fill="#0577F8" transform="translate(223,49)"/>
<path d="M0 0 C0.33 0.99 0.66 1.98 1 3 C0.3042688 4.37019287 0.3042688 4.37019287 -0.40551758 5.76806641 C-2.17767386 9.36013575 -2.42045979 11.73204671 -2.51171875 15.7109375 C-2.56489258 17.57685547 -2.56489258 17.57685547 -2.61914062 19.48046875 C-2.64169922 20.76566406 -2.66425781 22.05085938 -2.6875 23.375 C-2.72166016 24.68339844 -2.75582031 25.99179688 -2.79101562 27.33984375 C-2.87327754 30.55981025 -2.94250263 33.77951179 -3 37 C-1.99098633 37.01981934 -0.98197266 37.03963867 0.05761719 37.06005859 C3.80754196 37.13623336 7.55708471 37.22493216 11.30664062 37.31738281 C12.92830859 37.35562358 14.55005996 37.39048503 16.171875 37.421875 C18.50551117 37.46763257 20.83857562 37.52560816 23.171875 37.5859375 C24.25647003 37.60326431 24.25647003 37.60326431 25.36297607 37.62094116 C29.04723208 37.72853178 31.86291492 37.97721889 35 40 C34.67 40.7115625 34.34 41.423125 34 42.15625 C32.93006267 45.19888427 32.85612526 47.29878702 33 50.5 C33.18292265 54.5700289 32.72038887 57.29041149 31 61 C30.34 61 29.68 61 29 61 C28.814375 62.6396875 28.814375 62.6396875 28.625 64.3125 C26.75128074 79.24871926 26.75128074 79.24871926 25 81 C22.92737924 81.08767112 20.85179706 81.10695873 18.77734375 81.09765625 C16.88725586 81.09282227 16.88725586 81.09282227 14.95898438 81.08789062 C13.61848891 81.07953403 12.27799412 81.07106907 10.9375 81.0625 C9.59310058 81.0574866 8.2486994 81.05292342 6.90429688 81.04882812 C3.60282059 81.03699488 0.30143197 81.02050971 -3 81 C-2.9156413 91.10098269 -2.8207753 101.2018067 -2.71247292 111.30256271 C-2.66251502 115.99269398 -2.61618489 120.68280277 -2.578125 125.37304688 C-2.54126585 129.89891243 -2.49490411 134.42458979 -2.44193649 138.95029449 C-2.42339591 140.6774287 -2.40828669 142.40460324 -2.39665604 144.13179779 C-2.37978782 146.54997554 -2.35075166 148.96772258 -2.31884766 151.38574219 C-2.31668747 152.10071869 -2.31452728 152.81569519 -2.31230164 153.55233765 C-2.25091469 157.19152881 -1.9920351 159.90218848 0 163 C1.90000114 162.76249986 3.79989999 162.52414689 5.69921875 162.28125 C7.19986744 162.09780907 8.70258376 161.93036338 10.20703125 161.78125 C13.85556852 161.40218119 15.89243385 161.07171077 19 159 C21.26171875 158.5859375 21.26171875 158.5859375 23.6875 158.375 C24.89986328 158.26285156 24.89986328 158.26285156 26.13671875 158.1484375 C26.75160156 158.09945312 27.36648437 158.05046875 28 158 C23.48816691 161.70201689 18.45465608 163.1298322 13 165 C12.20722656 165.30421875 11.41445312 165.6084375 10.59765625 165.921875 C9.49744141 166.33179688 9.49744141 166.33179688 8.375 166.75 C7.74335938 166.99234375 7.11171875 167.2346875 6.4609375 167.484375 C2.71803536 168.26860212 -1.17582315 168 -5 168 C-5 138.63 -5 109.26 -5 79 C4.9 79 14.8 79 25 79 C25.33 74.38 25.66 69.76 26 65 C26.57768802 61.43634014 27.18749213 57.95891244 27.9375 54.4375 C28.19176758 53.16422852 28.19176758 53.16422852 28.45117188 51.86523438 C29.32788773 47.60832888 30.36144512 44.0963872 32 40 C19.79 40 7.58 40 -5 40 C-5.061875 35.400625 -5.12375 30.80125 -5.1875 26.0625 C-5.21481201 24.63043213 -5.24212402 23.19836426 -5.27026367 21.72290039 C-5.31540502 14.76385229 -5.25789408 8.30210946 -2 2 C-1.34 1.34 -0.68 0.68 0 0 Z " fill="#1F69B6" transform="translate(196,131)"/>
<path d="M0 0 C0.99 0.495 0.99 0.495 2 1 C1.4375 2.8125 1.4375 2.8125 0 5 C-2.30252483 6.06902939 -4.6372026 7.07175817 -7 8 C-7.66 8.66 -8.32 9.32 -9 10 C-9.76957031 10.30035156 -10.53914063 10.60070312 -11.33203125 10.91015625 C-14.2042729 12.08344383 -16.25747416 13.51905855 -18.6875 15.4375 C-19.83798828 16.33275391 -19.83798828 16.33275391 -21.01171875 17.24609375 C-23.20553436 19.02985589 -23.20553436 19.02985589 -25 22 C-25.99 22 -26.98 22 -28 22 C-28 22.66 -28 23.32 -28 24 C-28.66 24 -29.32 24 -30 24 C-30 24.99 -30 25.98 -30 27 C-30.66 27 -31.32 27 -32 27 C-32.0825 27.61875 -32.165 28.2375 -32.25 28.875 C-33 31 -33 31 -35 32.0625 C-35.66 32.371875 -36.32 32.68125 -37 33 C-37.33 33.99 -37.66 34.98 -38 36 C-39.33333333 37.33333333 -40.66666667 38.66666667 -42 40 C-42.33 40.99 -42.66 41.98 -43 43 C-44.4375 44.6875 -44.4375 44.6875 -46 46 C-46.66 46 -47.32 46 -48 46 C-48.33 47.98 -48.66 49.96 -49 52 C-50.485 52.495 -50.485 52.495 -52 53 C-52.0825 53.639375 -52.165 54.27875 -52.25 54.9375 C-52.91682705 57.66037711 -53.76271355 59.78823767 -54.9375 62.3125 C-56.56292909 65.84985468 -57.66229201 69.20608525 -58.5078125 72.99609375 C-59.02054071 75.08363003 -59.70492216 77.04224668 -60.4375 79.0625 C-64.13631248 89.85852626 -66.14649562 101.86651964 -66.09765625 113.24609375 C-66.0962413 113.90207047 -66.09482635 114.55804718 -66.09336853 115.23390198 C-66.08783031 117.30181702 -66.07529002 119.36961842 -66.0625 121.4375 C-66.05747699 122.85090988 -66.0529155 124.26432148 -66.04882812 125.67773438 C-66.03788126 129.11852568 -66.02066038 132.55925172 -66 136 C-66.33 136 -66.66 136 -67 136 C-69.80814756 115.06425705 -68.70335927 96.37201674 -63 76 C-62.66355469 74.77410156 -62.32710937 73.54820313 -61.98046875 72.28515625 C-57.18415288 56.40477474 -48.54127891 42.68496757 -38 30 C-37.55994629 29.44248047 -37.11989258 28.88496094 -36.66650391 28.31054688 C-35.48891315 26.83694263 -34.24865721 25.4138899 -33 24 C-32.34 24 -31.68 24 -31 24 C-31 23.34 -31 22.68 -31 22 C-29.26608049 20.39365985 -27.461909 18.8624713 -25.625 17.375 C-24.62726563 16.55773437 -23.62953125 15.74046875 -22.6015625 14.8984375 C-20 13 -20 13 -18 13 C-18 12.34 -18 11.68 -18 11 C-17.03578125 10.45730469 -16.0715625 9.91460937 -15.078125 9.35546875 C-13.80200123 8.6329575 -12.52596412 7.91029317 -11.25 7.1875 C-10.61578125 6.83107422 -9.9815625 6.47464844 -9.328125 6.10742188 C-6.05195463 4.24751265 -2.95014899 2.36160916 0 0 Z " fill="#337ECA" transform="translate(108,54)"/>
<path d="M0 0 C0.66 0 1.32 0 2 0 C1.79141357 0.65637451 1.58282715 1.31274902 1.36791992 1.98901367 C-1.83708732 13.61107751 -1.56253931 25.34054689 -1.6875 37.3125 C-1.72073127 39.51759769 -1.75522613 41.72267672 -1.79101562 43.92773438 C-1.87758823 49.28516926 -1.93821783 54.64199498 -2 60 C-13.88 60 -25.76 60 -38 60 C-38 72.87 -38 85.74 -38 99 C-38.66 98.67 -39.32 98.34 -40 98 C-40.02464705 92.32169922 -40.04283462 86.64342931 -40.05493164 80.96508789 C-40.05997256 79.03181415 -40.06680519 77.09854424 -40.07543945 75.1652832 C-40.08751565 72.39273128 -40.09323057 69.62022959 -40.09765625 66.84765625 C-40.10281754 65.97786636 -40.10797882 65.10807648 -40.11329651 64.21192932 C-40.11349185 62.14094186 -40.06208168 60.07005676 -40 58 C-39 57 -39 57 -35.67358398 56.88647461 C-34.19774444 56.88663371 -32.72189931 56.89232686 -31.24609375 56.90234375 C-30.47064713 56.9037587 -29.6952005 56.90517365 -28.89625549 56.90663147 C-26.40996506 56.91224655 -23.9237634 56.92480154 -21.4375 56.9375 C-19.75586067 56.94251306 -18.07421994 56.9470763 -16.39257812 56.95117188 C-12.26168434 56.96222087 -8.13085724 56.97949555 -4 57 C-4.01571045 55.03377686 -4.01571045 55.03377686 -4.03173828 53.02783203 C-4.06816356 48.12633028 -4.09098193 43.22484031 -4.10986328 38.32324219 C-4.11986979 36.20896385 -4.13347918 34.09469917 -4.15087891 31.98046875 C-4.17536388 28.92704886 -4.18653691 25.87381326 -4.1953125 22.8203125 C-4.20563507 21.88760529 -4.21595764 20.95489807 -4.22659302 19.993927 C-4.22761871 13.88180154 -3.8348717 7.86978238 -2 2 C-1.34 1.34 -0.68 0.68 0 0 Z " fill="#3C86CF" transform="translate(153,112)"/>
<path d="M0 0 C0.33 0.99 0.66 1.98 1 3 C0.3042688 4.37019287 0.3042688 4.37019287 -0.40551758 5.76806641 C-2.17767386 9.36013575 -2.42045979 11.73204671 -2.51171875 15.7109375 C-2.56489258 17.57685547 -2.56489258 17.57685547 -2.61914062 19.48046875 C-2.64169922 20.76566406 -2.66425781 22.05085938 -2.6875 23.375 C-2.72166016 24.68339844 -2.75582031 25.99179688 -2.79101562 27.33984375 C-2.87327754 30.55981025 -2.94250263 33.77951179 -3 37 C-1.99098633 37.01981934 -0.98197266 37.03963867 0.05761719 37.06005859 C3.80754196 37.13623336 7.55708471 37.22493216 11.30664062 37.31738281 C12.92830859 37.35562358 14.55005996 37.39048503 16.171875 37.421875 C18.50551117 37.46763257 20.83857562 37.52560816 23.171875 37.5859375 C24.25647003 37.60326431 24.25647003 37.60326431 25.36297607 37.62094116 C29.04723208 37.72853178 31.86291492 37.97721889 35 40 C34.67 40.7115625 34.34 41.423125 34 42.15625 C32.93006267 45.19888427 32.85612526 47.29878702 33 50.5 C33.18292265 54.5700289 32.72038887 57.29041149 31 61 C30.34 61 29.68 61 29 61 C28.814375 62.6396875 28.814375 62.6396875 28.625 64.3125 C26.75128074 79.24871926 26.75128074 79.24871926 25 81 C22.92737924 81.08767112 20.85179706 81.10695873 18.77734375 81.09765625 C16.88725586 81.09282227 16.88725586 81.09282227 14.95898438 81.08789062 C13.61848891 81.07953403 12.27799412 81.07106907 10.9375 81.0625 C9.59310058 81.0574866 8.2486994 81.05292342 6.90429688 81.04882812 C3.60282059 81.03699488 0.30143197 81.02050971 -3 81 C-3 84.3 -3 87.6 -3 91 C-3.33 91 -3.66 91 -4 91 C-4 87.37 -4 83.74 -4 80 C5.57 79.67 15.14 79.34 25 79 C25.33 74.38 25.66 69.76 26 65 C26.57768802 61.43634014 27.18749213 57.95891244 27.9375 54.4375 C28.19176758 53.16422852 28.19176758 53.16422852 28.45117188 51.86523438 C29.32788773 47.60832888 30.36144512 44.0963872 32 40 C19.79 40 7.58 40 -5 40 C-5.061875 35.400625 -5.12375 30.80125 -5.1875 26.0625 C-5.21481201 24.63043213 -5.24212402 23.19836426 -5.27026367 21.72290039 C-5.31540502 14.76385229 -5.25789408 8.30210946 -2 2 C-1.34 1.34 -0.68 0.68 0 0 Z " fill="#206DBD" transform="translate(196,131)"/>
<path d="M0 0 C0.81265823 -0.00191345 1.62531647 -0.0038269 2.46260071 -0.00579834 C4.17974152 -0.00715616 5.89689273 -0.00348789 7.61401367 0.00488281 C10.2123184 0.01551872 12.80992076 0.00501 15.40820312 -0.0078125 C23.70924356 -0.01380279 31.46102203 0.16612003 39.55078125 2.265625 C39.55078125 2.925625 39.55078125 3.585625 39.55078125 4.265625 C40.78828125 4.245 42.02578125 4.224375 43.30078125 4.203125 C46.21486375 4.19795819 48.76031452 4.33546942 51.55078125 5.265625 C51.55078125 5.925625 51.55078125 6.585625 51.55078125 7.265625 C52.54078125 7.595625 53.53078125 7.925625 54.55078125 8.265625 C49.54621503 7.75495498 44.78227736 6.86807659 39.875 5.75390625 C31.06936244 3.90719057 22.39598081 3.71328005 13.42578125 3.765625 C12.61540405 3.76738739 11.80502686 3.76914978 10.97009277 3.77096558 C-2.03698881 3.83389687 -14.10852744 4.85340152 -26.44921875 9.265625 C-27.22120605 9.53858398 -27.99319336 9.81154297 -28.78857422 10.09277344 C-36.87157529 13.03235266 -44.45480304 16.46311863 -51.6640625 21.19921875 C-53.44921875 22.265625 -53.44921875 22.265625 -55.44921875 22.265625 C-54.95421875 20.780625 -54.95421875 20.780625 -54.44921875 19.265625 C-53.45921875 19.265625 -52.46921875 19.265625 -51.44921875 19.265625 C-51.44921875 18.605625 -51.44921875 17.945625 -51.44921875 17.265625 C-48.42358044 14.4727281 -45.3211673 13.50464854 -41.44921875 12.265625 C-38.74793304 10.97370575 -36.09639232 9.61920898 -33.46875 8.18359375 C-29.59955199 6.12921657 -26.94247308 4.85714733 -22.44921875 5.265625 C-22.11921875 4.935625 -21.78921875 4.605625 -21.44921875 4.265625 C-18.77863024 4.12447339 -16.12489637 4.22315393 -13.44921875 4.265625 C-13.44921875 3.605625 -13.44921875 2.945625 -13.44921875 2.265625 C-9.0123025 0.05293481 -4.85405343 -0.0253886 0 0 Z " fill="#D9F3FD" transform="translate(157.44921875,35.734375)"/>
<path d="M0 0 C1.20865723 0.00088623 2.41731445 0.00177246 3.66259766 0.00268555 C4.93151855 0.015979 6.20043945 0.02927246 7.5078125 0.04296875 C9.45179932 0.05807495 9.45179932 0.05807495 11.43505859 0.07348633 C15.16799585 0.11156799 18.90019968 0.16891924 22.6328125 0.23046875 C23.57962891 0.23916992 24.52644531 0.24787109 25.50195312 0.25683594 C27.75588843 0.28246893 30.00515862 0.3404879 32.2578125 0.41796875 C34.04058594 0.47017578 34.04058594 0.47017578 35.859375 0.5234375 C38.6328125 1.23046875 38.6328125 1.23046875 40.5234375 3.28515625 C41.91796897 6.9875391 41.9158316 10.28113784 41.7578125 14.16796875 C41.72497515 15.67569579 41.69640133 17.18352112 41.671875 18.69140625 C41.65930664 19.44647461 41.64673828 20.20154297 41.63378906 20.97949219 C41.63143233 26.41176608 42.15290731 31.82296567 42.6328125 37.23046875 C41.3128125 37.89046875 39.9928125 38.55046875 38.6328125 39.23046875 C37.32089253 32.27832594 37.52223192 25.34601972 37.5703125 18.29296875 C37.57482422 17.03677734 37.57933594 15.78058594 37.58398438 14.48632812 C37.59571569 11.40099212 37.6121315 8.31575559 37.6328125 5.23046875 C17.44664275 2.61374304 -3.45759727 0.20543705 -22.3671875 9.23046875 C-21.3671875 6.23046875 -21.3671875 6.23046875 -19.51171875 5.1328125 C-18.74214844 4.81441406 -17.97257813 4.49601562 -17.1796875 4.16796875 C-16.42300781 3.84699219 -15.66632813 3.52601562 -14.88671875 3.1953125 C-9.75663549 1.23076899 -5.54014054 -0.02104478 0 0 Z " fill="#1F7AD8" transform="translate(191.3671875,87.76953125)"/>
<path d="M0 0 C11.55 0 23.1 0 35 0 C35 29.37 35 58.74 35 89 C22 87 22 87 18 85 C23.29481709 84.90710847 27.64210878 85.23458697 33 86 C33 57.95 33 29.9 33 1 C22.11 1 11.22 1 0 1 C0 0.67 0 0.34 0 0 Z " fill="#488CCC" transform="translate(116,211)"/>
<path d="M0 0 C11.88 0 23.76 0 36 0 C36 0.33 36 0.66 36 1 C20.16 1.495 20.16 1.495 4 2 C3.17291642 10.12059525 3.17291642 10.12059525 2.68359375 18.2265625 C2.64548584 19.17611816 2.60737793 20.12567383 2.56811523 21.10400391 C2.52501221 22.26593262 2.48190918 23.42786133 2.4375 24.625 C2.293125 28.37875 2.14875 32.1325 2 36 C13.22 36 24.44 36 36 36 C36 36.99 36 37.98 36 39 C24.12 39 12.24 39 0 39 C0 26.13 0 13.26 0 0 Z " fill="#D5F5FD" transform="translate(115,172)"/>
<path d="M0 0 C0.66 0 1.32 0 2 0 C1.84660156 1.010625 1.69320312 2.02125 1.53515625 3.0625 C0.70827968 9.67751253 0.63660125 16.34294734 0.4375 23 C0.293125 27.62 0.14875 32.24 0 37 C12.21 37 24.42 37 37 37 C35.68 43.27 34.36 49.54 33 56 C32.67 56 32.34 56 32 56 C31.97287847 54.083412 31.95354903 52.1667127 31.9375 50.25 C31.92589844 49.18265625 31.91429687 48.1153125 31.90234375 47.015625 C32 44 32 44 33 40 C21.45 39.67 9.9 39.34 -2 39 C-3.20140187 22.18037383 -3.20140187 22.18037383 -3.25 15 C-3.270625 14.20722656 -3.29125 13.41445312 -3.3125 12.59765625 C-3.34560402 7.62377776 -2.65680125 4.36274732 0 0 Z " fill="#CFF2FE" transform="translate(191,134)"/>
<path d="M0 0 C0.33 0 0.66 0 1 0 C-0.00631876 16.7719793 -9.83189502 31.79379475 -18 46 C-18.66 46 -19.32 46 -20 46 C-20.24363281 46.72574219 -20.48726563 47.45148438 -20.73828125 48.19921875 C-22.15514759 51.34439883 -23.83115811 53.30204281 -26.1875 55.8125 C-29.70323387 59.59389221 -33.09731883 63.43331256 -36.39453125 67.40625 C-38.13308768 69.13211623 -39.76424381 70.0300407 -42 71 C-42 71.66 -42 72.32 -42 73 C-44.1171875 74.7265625 -44.1171875 74.7265625 -46.875 76.625 C-47.77992188 77.25664062 -48.68484375 77.88828125 -49.6171875 78.5390625 C-52 80 -52 80 -54 80 C-52.46988182 75.40964546 -48.77263629 73.93296647 -44.625 71.75 C-43.820625 71.37875 -43.820625 71.37875 -43 71 C-43 70.34 -43 69.68 -43 69 C-42.34 69 -41.68 69 -41 69 C-41 68.34 -41 67.68 -41 67 C-39.609375 65.6328125 -39.609375 65.6328125 -37.75 64.125 C-32.30538417 59.86105649 -32.30538417 59.86105649 -29 54 C-28.01 54 -27.02 54 -26 54 C-25.87625 52.9171875 -25.87625 52.9171875 -25.75 51.8125 C-24.68326209 47.81223283 -22.38741174 45.33191527 -19.4375 42.5 C-16.83756155 39.78702074 -15.20472012 37.0747806 -14.5 33.375 C-14 31 -14 31 -12.62890625 29.68359375 C-6.56325891 23.41430358 -4.00504657 12.37538808 -3 4 C-2.34 4 -1.68 4 -1 4 C-0.67 2.68 -0.34 1.36 0 0 Z " fill="#2A77C7" transform="translate(298,198)"/>
<path d="M0 0 C1.00530762 0.00459229 2.01061523 0.00918457 3.04638672 0.01391602 C10.43171582 0.10383576 17.44994422 0.7151004 24.6875 2.25 C27.1625 2.745 27.1625 2.745 29.6875 3.25 C30.0175 14.47 30.3475 25.69 30.6875 37.25 C27.284375 37.37375 23.88125 37.4975 20.375 37.625 C12.6835455 37.93984825 5.19179123 38.40085647 -2.3125 40.25 C-2.3125 39.26 -2.3125 38.27 -2.3125 37.25 C7.9175 36.59 18.1475 35.93 28.6875 35.25 C28.6875 25.02 28.6875 14.79 28.6875 4.25 C21.00320714 3.60964226 13.49845445 3.02842029 5.8125 3 C4.86503906 2.99605225 3.91757813 2.99210449 2.94140625 2.98803711 C-3.8534666 3.04408325 -9.87848713 3.84668388 -16.4375 5.69140625 C-19.69005466 6.32335641 -22.10050885 5.97174206 -25.3125 5.25 C-18.28737766 -0.59077607 -8.73020922 -0.08266412 0 0 Z " fill="#C2EDFD" transform="translate(199.3125,89.75)"/>
<path d="M0 0 C9.93255461 0.88683523 18.03764199 4.78983463 27 9 C28.20462891 9.55300781 28.20462891 9.55300781 29.43359375 10.1171875 C43.6290111 16.87691005 65.60378599 29.02344978 72.24609375 43.765625 C72.49488281 44.50296875 72.74367188 45.2403125 73 46 C73.66 46 74.32 46 75 46 C75 46.66 75 47.32 75 48 C71.59048278 46.86349426 70.62363724 45.74186875 68.3125 43.0625 C67.37857422 41.99708984 67.37857422 41.99708984 66.42578125 40.91015625 C65 39 65 39 65 37 C64.34 37 63.68 37 63 37 C63 36.34 63 35.68 63 35 C62.45859375 34.92007813 61.9171875 34.84015625 61.359375 34.7578125 C58.13295669 33.72151258 55.93879578 31.92990869 53.25 29.875 C52.72067871 29.47337646 52.19135742 29.07175293 51.64599609 28.65795898 C48.51037956 26.25360519 45.5359649 23.7318211 42.625 21.0625 C39.61776073 18.34466033 37.02478665 16.905577 33 16 C33 15.34 33 14.68 33 14 C32.175 13.7525 31.35 13.505 30.5 13.25 C27.90129994 12.32189283 25.77273799 11.39660033 23.37109375 10.1171875 C18.14776339 7.47002629 12.67545638 5.83624544 7.09570312 4.11328125 C5.04664137 3.46045257 3.02069847 2.73594637 1 2 C0.67 1.34 0.34 0.68 0 0 Z " fill="#2279D4" transform="translate(200,42)"/>
<path d="M0 0 C0.80232056 -0.00031219 1.60464111 -0.00062439 2.43127441 -0.00094604 C11.43075021 0.02564216 20.07133853 0.34720466 28.875 2.4375 C28.875 2.7675 28.875 3.0975 28.875 3.4375 C27.6154248 3.42702637 26.35584961 3.41655273 25.05810547 3.40576172 C20.32050494 3.36916713 15.58291652 3.34645803 10.84521484 3.32763672 C8.80678191 3.31766805 6.76836294 3.30408824 4.72998047 3.28662109 C-16.13175953 2.93221439 -16.13175953 2.93221439 -36.2578125 7.8515625 C-38.125 8.4375 -38.125 8.4375 -42.125 8.4375 C-42.125 9.0975 -42.125 9.7575 -42.125 10.4375 C-44.435 10.7675 -46.745 11.0975 -49.125 11.4375 C-49.455 12.4275 -49.785 13.4175 -50.125 14.4375 C-53.755 14.7675 -57.385 15.0975 -61.125 15.4375 C-43.8021511 2.44536333 -20.91773108 -0.01874533 0 0 Z " fill="#2A75C9" transform="translate(171.125,38.5625)"/>
<path d="M0 0 C2.56954999 2.56954999 2.98324896 4.77080502 4 8.25 C5.44538233 13.1517964 5.44538233 13.1517964 7.0234375 18.01171875 C10.66757363 29.16277532 11.28726484 40.01920916 11.3125 51.6875 C11.32047607 53.50326538 11.32047607 53.50326538 11.32861328 55.35571289 C11.26633947 63.39613571 10.44107661 71.09181368 9 79 C8.67 79 8.34 79 8 79 C8.01571045 77.3754187 8.01571045 77.3754187 8.03173828 75.71801758 C8.06837587 71.63829959 8.09105699 67.55859564 8.10986328 63.47875977 C8.11982244 61.72450299 8.13339466 59.97026237 8.15087891 58.21606445 C8.24163992 48.86501103 8.18877454 39.86387735 6.43310547 30.63549805 C6.00633233 28.03853295 5.92430774 25.62628296 6 23 C5.34 23 4.68 23 4 23 C2.0921453 15.34458305 0.51599184 7.8822202 0 0 Z " fill="#307BCC" transform="translate(291,118)"/>
<path d="M0 0 C1.96712873 2.60978215 3.90192041 5.23923528 5.8125 7.890625 C6.87474078 9.3439395 7.93724821 10.79705914 9 12.25 C9.53367187 12.99507812 10.06734375 13.74015625 10.6171875 14.5078125 C11.39449219 15.56355469 11.39449219 15.56355469 12.1875 16.640625 C12.65542969 17.28547852 13.12335938 17.93033203 13.60546875 18.59472656 C14.06566406 19.0584668 14.52585937 19.52220703 15 20 C15.99 20 16.98 20 18 20 C18.33 20.99 18.66 21.98 19 23 C19.66 23.33 20.32 23.66 21 24 C21.103125 24.61875 21.20625 25.2375 21.3125 25.875 C22.29676995 28.91728893 24.32447145 29.42212419 27 31 C27 31.99 27 32.98 27 34 C29.63904371 35.41377341 32.07120629 36.37240135 35 37 C35.495 38.98 35.495 38.98 36 41 C37.918125 41.185625 37.918125 41.185625 39.875 41.375 C43.75 41.75 43.75 41.75 46 44 C46 44.99 46 45.98 46 47 C33.00052642 43.92117731 18.58252919 29.65291953 11 19 C11 18.34 11 17.68 11 17 C10.34 17 9.68 17 9 17 C7.17220002 14.76470988 5.48118887 12.5366251 3.8125 10.1875 C3.33619141 9.54490234 2.85988281 8.90230469 2.36914062 8.24023438 C1.16014439 6.55183876 0.07084809 4.77922343 -1 3 C-0.67 2.01 -0.34 1.02 0 0 Z " fill="#367FCC" transform="translate(60,237)"/>
<path d="M0 0 C1.32 0.33 2.64 0.66 4 1 C3.67 1.7115625 3.34 2.423125 3 3.15625 C1.93006267 6.19888427 1.85612526 8.29878702 2 11.5 C2.18292265 15.5700289 1.72038887 18.29041149 0 22 C-0.66 22 -1.32 22 -2 22 C-2.185625 23.6396875 -2.185625 23.6396875 -2.375 25.3125 C-4.24871926 40.24871926 -4.24871926 40.24871926 -6 42 C-8.07262076 42.08767112 -10.14820294 42.10695873 -12.22265625 42.09765625 C-13.48271484 42.09443359 -14.74277344 42.09121094 -16.04101562 42.08789062 C-17.38151109 42.07953403 -18.72200588 42.07106907 -20.0625 42.0625 C-21.40689942 42.0574866 -22.7513006 42.05292342 -24.09570312 42.04882812 C-27.39717941 42.03699488 -30.69856803 42.02050971 -34 42 C-34 45.3 -34 48.6 -34 52 C-34.33 52 -34.66 52 -35 52 C-35 48.37 -35 44.74 -35 41 C-25.43 40.67 -15.86 40.34 -6 40 C-5.67 35.38 -5.34 30.76 -5 26 C-4.39971084 22.45829398 -3.76897409 18.99938932 -3 15.5 C-2.64506872 13.82307832 -2.29088259 12.14599872 -1.9375 10.46875 C-1.77378906 9.70175781 -1.61007813 8.93476563 -1.44140625 8.14453125 C-0.88498291 5.44120016 -0.42496351 2.72684917 0 0 Z " fill="#2073D2" transform="translate(227,170)"/>
<path d="M0 0 C1.23878906 -0.01611328 2.47757813 -0.03222656 3.75390625 -0.04882812 C12.5929581 -0.0534366 20.44562787 1.13518822 29 3.3125 C29 3.9725 29 4.6325 29 5.3125 C28.03964844 5.168125 27.07929688 5.02375 26.08984375 4.875 C7.16756403 2.23156716 -12.36200418 0.89436563 -30 9.3125 C-29 6.3125 -29 6.3125 -27.14453125 5.21484375 C-26.37496094 4.89644531 -25.60539063 4.57804687 -24.8125 4.25 C-24.05582031 3.92902344 -23.29914063 3.60804687 -22.51953125 3.27734375 C-14.7593348 0.30560961 -8.27493085 -0.02100236 0 0 Z " fill="#2874C2" transform="translate(199,87.6875)"/>
<path d="M0 0 C0.66 0 1.32 0 2 0 C1.84660156 1.0003125 1.69320312 2.000625 1.53515625 3.03125 C0.68666864 9.81915084 0.63402659 16.66889609 0.4375 23.5 C0.39422263 24.90886473 0.35060569 26.31771907 0.30664062 27.7265625 C0.20109429 31.1509546 0.09898202 34.57541292 0 38 C-0.99 38.495 -0.99 38.495 -2 39 C-2.73044066 31.00428349 -3.14394442 23.02669177 -3.25 15 C-3.27126953 14.19973389 -3.29253906 13.39946777 -3.31445312 12.57495117 C-3.34364264 7.61116911 -2.65135596 4.35380557 0 0 Z " fill="#E2FAFE" transform="translate(191,134)"/>
<path d="M0 0 C0.99 0.33 1.98 0.66 3 1 C3.5625 2.9375 3.5625 2.9375 4 5 C4.66 5.66 5.32 6.32 6 7 C6 8.32 6 9.64 6 11 C6.99 11.33 7.98 11.66 9 12 C10.125 18.75 10.125 18.75 9 21 C9.95326172 21.38478516 9.95326172 21.38478516 10.92578125 21.77734375 C13 23 13 23 14.1875 26.5625 C15.55725869 33.93252907 15.67391829 41.52586396 16 49 C15.67 49 15.34 49 15 49 C14.63648438 47.13408203 14.63648438 47.13408203 14.265625 45.23046875 C12.45719123 36.16916787 10.42230265 27.60587404 7 19 C6.49043963 17.44059163 5.99008936 15.87813682 5.5 14.3125 C4.50077163 11.2430471 3.28502035 8.43520636 1.8125 5.5625 C0 2 0 2 0 0 Z " fill="#D4F2FC" transform="translate(286,106)"/>
<path d="M0 0 C0.33 0 0.66 0 1 0 C0.85761163 2.04190981 0.71092972 4.08352045 0.5625 6.125 C0.48128906 7.26195312 0.40007812 8.39890625 0.31640625 9.5703125 C0.02485329 12.73060263 -0.47824525 15.86947148 -1 19 C-10.9 19 -20.8 19 -31 19 C-31 18.34 -31 17.68 -31 17 C-22.09 17 -13.18 17 -4 17 C-3.67 14.36 -3.34 11.72 -3 9 C-2.67 8.67 -2.34 8.34 -2 8 C-1.835 6.845 -1.67 5.69 -1.5 4.5 C-1 1 -1 1 0 0 Z " fill="#C6EAFB" transform="translate(222,191)"/>
<path d="M0 0 C1.00998047 0.00064453 2.01996094 0.00128906 3.06054688 0.00195312 C7.59336334 0.02888075 11.75011204 0.18974707 16.1875 1.1875 C16.1875 1.5175 16.1875 1.8475 16.1875 2.1875 C15.59437012 2.20208252 15.00124023 2.21666504 14.39013672 2.23168945 C3.68544793 2.52484089 -6.55843254 2.83576662 -16.9375 5.6640625 C-20.1781875 6.25407897 -22.61697826 5.9007861 -25.8125 5.1875 C-18.62911504 -0.77704716 -8.90024335 -0.11002253 0 0 Z " fill="#DAF6FE" transform="translate(199.8125,89.8125)"/>
<path d="M0 0 C2.31425 3.471375 3.07241172 6.81589893 4 10.8125 C5.8734114 19.20655366 5.8734114 19.20655366 9.125 27.125 C10 29 10 29 10 33 C10.66 33 11.32 33 12 33 C15 38.625 15 38.625 15 42 C15.66 42 16.32 42 17 42 C17 43.65 17 45.3 17 47 C14.00601118 44.43372387 12.69416446 41.52386208 11 38 C10.36191406 36.93910156 9.72382812 35.87820312 9.06640625 34.78515625 C6.92384887 31.05764634 5.59169488 27.29776724 4.375 23.1875 C4.05752808 22.14082153 4.05752808 22.14082153 3.73364258 21.07299805 C1.65810286 14.09457047 -0.14106238 7.32241978 0 0 Z " fill="#307AC4" transform="translate(42,191)"/>
<path d="M0 0 C0.66 0 1.32 0 2 0 C1.51864536 5.95359688 0.75456426 11.73656015 -0.5 17.578125 C-3.12556724 30.29571631 -1.8625445 43.13884543 -1 56 C-1.33 56 -1.66 56 -2 56 C-4.97988692 45.25540952 -5.12993415 36.10217336 -4.1875 25.125 C-4.07563955 23.64727313 -3.96560409 22.16940695 -3.85742188 20.69140625 C-3.59253886 17.12575774 -3.3033438 13.56260792 -3 10 C-2.34 10 -1.68 10 -1 10 C-1.01160156 9.36191406 -1.02320313 8.72382813 -1.03515625 8.06640625 C-1.04869141 6.82697266 -1.04869141 6.82697266 -1.0625 5.5625 C-1.07410156 4.73878906 -1.08570313 3.91507813 -1.09765625 3.06640625 C-1 1 -1 1 0 0 Z " fill="#D8F8FE" transform="translate(42,134)"/>
<path d="M0 0 C9.92824358 0.88645032 18.04447366 4.78343968 27 9 C27.9075 9.42667969 28.815 9.85335937 29.75 10.29296875 C34.25851987 12.47342851 38.24405496 14.61964947 42 18 C37.545 17.01 37.545 17.01 33 16 C33 15.34 33 14.68 33 14 C32.175 13.7525 31.35 13.505 30.5 13.25 C27.90129994 12.32189283 25.77273799 11.39660033 23.37109375 10.1171875 C18.14776339 7.47002629 12.67545638 5.83624544 7.09570312 4.11328125 C5.04664137 3.46045257 3.02069847 2.73594637 1 2 C0.67 1.34 0.34 0.68 0 0 Z " fill="#317CC7" transform="translate(200,42)"/>
<path d="M0 0 C0.66 0.33 1.32 0.66 2 1 C-0.77866937 5.80923544 -2.99325894 7.71431386 -8 10 C-8.99 11.485 -8.99 11.485 -10 13 C-13.53976013 15.40672433 -16.68258087 17.10978493 -21 16.75 C-21.66 16.5025 -22.32 16.255 -23 16 C-18.85254172 12.49625332 -14.43325709 9.69345274 -9.8125 6.875 C-8.37996698 5.99991749 -6.9489073 5.12241722 -5.51953125 4.2421875 C-4.89151611 3.8591748 -4.26350098 3.47616211 -3.61645508 3.08154297 C-1.83741472 1.96706617 -1.83741472 1.96706617 0 0 Z " fill="#D3F0FB" transform="translate(254,271)"/>
<path d="M0 0 C-0.5625 1.8125 -0.5625 1.8125 -2 4 C-5.375 5.625 -5.375 5.625 -9 7 C-9.63421875 7.32613281 -10.2684375 7.65226562 -10.921875 7.98828125 C-16.3527945 10.63228153 -22.9883298 12.54912474 -29 13 C-29.66 12.34 -30.32 11.68 -31 11 C-29.82824219 10.62488281 -28.65648437 10.24976563 -27.44921875 9.86328125 C-19.41055015 7.25619175 -11.57325741 4.6146541 -3.96875 0.8828125 C-2 0 -2 0 0 0 Z " fill="#D1EFFB" transform="translate(231,287)"/>
<path d="M0 0 C-1.50908449 3.84130598 -3.8029487 5.48803112 -7 8 C-7.66 8.86625 -8.32 9.7325 -9 10.625 C-11 13 -11 13 -13.625 13.9375 C-16.34773762 14.83088135 -16.34773762 14.83088135 -17.3125 18.125 C-17.6528125 19.548125 -17.6528125 19.548125 -18 21 C-18.66 21 -19.32 21 -20 21 C-17.72123598 11.88494393 -11.66664986 5.9902293 -4 1 C-2 0 -2 0 0 0 Z " fill="#D5F1FB" transform="translate(174,95)"/>
<path d="M0 0 C0.33 0 0.66 0 1 0 C1.33 12.21 1.66 24.42 2 37 C1.34 37 0.68 37 0 37 C-0.12375 38.299375 -0.2475 39.59875 -0.375 40.9375 C-0.5859375 43.15234375 -0.5859375 43.15234375 -1 45 C-1.99 45.495 -1.99 45.495 -3 46 C-2.86722656 45.10925781 -2.73445313 44.21851563 -2.59765625 43.30078125 C-0.61812818 28.92955715 -0.3636781 14.48651111 0 0 Z " fill="#CBEFFC" transform="translate(302,155)"/>
<path d="M0 0 C1.96712873 2.60978215 3.90192041 5.23923528 5.8125 7.890625 C6.87474078 9.3439395 7.93724821 10.79705914 9 12.25 C9.53367187 12.99507812 10.06734375 13.74015625 10.6171875 14.5078125 C11.39449219 15.56355469 11.39449219 15.56355469 12.1875 16.640625 C12.65542969 17.28547852 13.12335938 17.93033203 13.60546875 18.59472656 C14.06566406 19.0584668 14.52585937 19.52220703 15 20 C15.99 20 16.98 20 18 20 C18.33 20.99 18.66 21.98 19 23 C19.66 23.33 20.32 23.66 21 24 C21 24.66 21 25.32 21 26 C16.06789169 24.76697292 13.78225429 23.28039122 11 19 C11 18.34 11 17.68 11 17 C10.34 17 9.68 17 9 17 C7.17220002 14.76470988 5.48118887 12.5366251 3.8125 10.1875 C3.33619141 9.54490234 2.85988281 8.90230469 2.36914062 8.24023438 C1.16014439 6.55183876 0.07084809 4.77922343 -1 3 C-0.67 2.01 -0.34 1.02 0 0 Z " fill="#2978CC" transform="translate(60,237)"/>
<path d="M0 0 C0.33 0 0.66 0 1 0 C0.97026682 6.42236674 -0.40989736 10.38711638 -4.33203125 15.46875 C-6.21033779 17.19309699 -7.50913718 17.61097153 -10 18 C-9.67 16.68 -9.34 15.36 -9 14 C-8.34 14 -7.68 14 -7 14 C-6.773125 13.175 -6.54625 12.35 -6.3125 11.5 C-4.73798357 7.30128952 -2.64025547 3.62460158 0 0 Z " fill="#D1EFFA" transform="translate(287,230)"/>
<path d="M0 0 C2.31 0 4.62 0 7 0 C7 0.99 7 1.98 7 3 C7.62648438 3.13277344 8.25296875 3.26554687 8.8984375 3.40234375 C9.71570313 3.57894531 10.53296875 3.75554687 11.375 3.9375 C12.18710938 4.11152344 12.99921875 4.28554688 13.8359375 4.46484375 C16 5 16 5 18 6 C18 6.66 18 7.32 18 8 C20.64 8.33 23.28 8.66 26 9 C26.33 9.99 26.66 10.98 27 12 C17.1618657 9.99902353 8.79610773 5.6463756 0 1 C0 0.67 0 0.34 0 0 Z " fill="#357FCC" transform="translate(106,284)"/>
<path d="M0 0 C3.48331435 3.01887244 4.79157144 5.56909529 6 10 C6.66 10 7.32 10 8 10 C9.36389525 12.62035018 10.71632173 15.24556999 12.0625 17.875 C12.45244141 18.62136719 12.84238281 19.36773437 13.24414062 20.13671875 C13.60830078 20.85214844 13.97246094 21.56757812 14.34765625 22.3046875 C14.68804932 22.96452637 15.02844238 23.62436523 15.37915039 24.30419922 C15.58403076 24.86381348 15.78891113 25.42342773 16 26 C15.67 26.66 15.34 27.32 15 28 C14.34 28 13.68 28 13 28 C12.67 25.69 12.34 23.38 12 21 C10.68 20.67 9.36 20.34 8 20 C7.7525 19.01 7.505 18.02 7.25 17 C6.04115191 12.76903168 4.33423051 8.73841605 2 5 C1.34 4.67 0.68 4.34 0 4 C0 2.68 0 1.36 0 0 Z " fill="#3580CA" transform="translate(275,90)"/>
<path d="M0 0 C0.33 0 0.66 0 1 0 C1.08131463 1.43655854 1.13933559 2.8744483 1.1875 4.3125 C1.22230469 5.11300781 1.25710938 5.91351563 1.29296875 6.73828125 C0.92931665 9.54567546 -0.00908075 10.0843044 -2 12 C-2.65767997 14.30599039 -3.00188456 16.57445515 -3.375 18.94140625 C-4 21 -4 21 -7 23 C-7.33 23.99 -7.66 24.98 -8 26 C-8.66 25.67 -9.32 25.34 -10 25 C-9.40703125 23.865625 -8.8140625 22.73125 -8.203125 21.5625 C-5.99999034 17.15623067 -4.33256032 12.6588638 -2.75 8 C-2.3478125 6.83791016 -2.3478125 6.83791016 -1.9375 5.65234375 C-1.28678233 3.76991049 -0.64267935 1.88519275 0 0 Z " fill="#BEE6F9" transform="translate(298,203)"/>
<path d="M0 0 C-1.32 0.33 -2.64 0.66 -4 1 C-4 1.99 -4 2.98 -4 4 C-6.31 4.33 -8.62 4.66 -11 5 C-11.33 5.99 -11.66 6.98 -12 8 C-15.63 8.33 -19.26 8.66 -23 9 C-18.87029923 5.90272442 -15.10046497 4.1766577 -10.375 2.25 C-9.21097656 1.75693359 -9.21097656 1.75693359 -8.0234375 1.25390625 C-7.2809375 0.94839844 -6.5384375 0.64289062 -5.7734375 0.328125 C-5.09716309 0.0487207 -4.42088867 -0.23068359 -3.72412109 -0.51855469 C-2 -1 -2 -1 0 0 Z " fill="#3883CE" transform="translate(133,45)"/>
<path d="M0 0 C0.33 0 0.66 0 1 0 C1 8.91 1 17.82 1 27 C-9.125 27 -9.125 27 -15 25 C-15 24.67 -15 24.34 -15 24 C-9.70518291 23.90710847 -5.35789122 24.23458697 0 25 C0 16.75 0 8.5 0 0 Z " fill="#2E7AC4" transform="translate(149,272)"/>
<path d="M0 0 C0.99 0.33 1.98 0.66 3 1 C1.71034824 2.37562854 0.37310707 3.70766393 -1 5 C-1.66 5 -2.32 5 -3 5 C-3 5.66 -3 6.32 -3 7 C-3.66 7 -4.32 7 -5 7 C-5.33 7.99 -5.66 8.98 -6 10 C-6.66 10 -7.32 10 -8 10 C-8.226875 10.556875 -8.45375 11.11375 -8.6875 11.6875 C-10.35896766 14.63246684 -12.55276352 16.68156544 -15 19 C-15 15.84918025 -14.72101535 14.58152302 -13 12 C-10.875 11.25 -10.875 11.25 -9 11 C-9 10.34 -9 9.68 -9 9 C-8.34 9 -7.68 9 -7 9 C-7 8.01 -7 7.02 -7 6 C-6.01 6 -5.02 6 -4 6 C-3.896875 5.38125 -3.79375 4.7625 -3.6875 4.125 C-3 2 -3 2 0 0 Z " fill="#D0EFFB" transform="translate(80,71)"/>
<path d="M0 0 C4.48304037 1.47595483 8.93216475 3.03228548 13.375 4.625 C14.01566406 4.85445313 14.65632813 5.08390625 15.31640625 5.3203125 C16.87781405 5.87962276 18.43893701 6.43972808 20 7 C20 7.33 20 7.66 20 8 C14.80790596 8.21192221 10.873261 7.5912689 6 6 C6 5.34 6 4.68 6 4 C5.05125 4.04125 4.1025 4.0825 3.125 4.125 C0 4 0 4 -2 2 C-1.34 2 -0.68 2 0 2 C0 1.34 0 0.68 0 0 Z " fill="#DAF5FC" transform="translate(114,289)"/>
<path d="M0 0 C1.32 0.33 2.64 0.66 4 1 C2.37829621 2.00533667 0.75252763 3.00411907 -0.875 4 C-1.77992187 4.556875 -2.68484375 5.11375 -3.6171875 5.6875 C-6 7 -6 7 -8 7 C-8 7.66 -8 8.32 -8 9 C-10.31 10.32 -12.62 11.64 -15 13 C-15 11.68 -15 10.36 -15 9 C-8.375 5 -8.375 5 -5 5 C-4.67 4.01 -4.34 3.02 -4 2 C-2.68 2 -1.36 2 0 2 C0 1.34 0 0.68 0 0 Z " fill="#D8F7FD" transform="translate(98,58)"/>
<path d="M0 0 C0.66 0.33 1.32 0.66 2 1 C0.71034824 2.37562854 -0.62689293 3.70766393 -2 5 C-2.66 5 -3.32 5 -4 5 C-4.2475 5.53625 -4.495 6.0725 -4.75 6.625 C-6.29696975 9.56424252 -8.13014369 12.25754408 -10 15 C-10.94467607 12.44937462 -11.02758299 11.11309027 -10.375 8.4375 C-8.69962526 5.4675175 -6.96075117 4.59425063 -4 3 C-3.67 2.34 -3.34 1.68 -3 1 C-2.01 0.67 -1.02 0.34 0 0 Z " fill="#1D77D5" transform="translate(166,97)"/>
<path d="M0 0 C5.72398793 0.74660712 11.34853777 1.82877141 17 3 C16.34 4.32 15.68 5.64 15 7 C14.34 7 13.68 7 13 7 C13 6.34 13 5.68 13 5 C12.22914063 4.89042969 11.45828125 4.78085937 10.6640625 4.66796875 C9.15972656 4.43013672 9.15972656 4.43013672 7.625 4.1875 C6.62726563 4.03667969 5.62953125 3.88585937 4.6015625 3.73046875 C2 3 2 3 0 0 Z " fill="#E0F6FD" transform="translate(134,297)"/>
<path d="M0 0 C1.37562854 1.28965176 2.70766393 2.62689293 4 4 C4 4.66 4 5.32 4 6 C4.66 6 5.32 6 6 6 C7.2890625 7.53125 7.2890625 7.53125 8.625 9.5 C9.07101563 10.1496875 9.51703125 10.799375 9.9765625 11.46875 C10.48316406 12.22671875 10.48316406 12.22671875 11 13 C10.01 13.33 9.02 13.66 8 14 C3 8.25 3 8.25 3 6 C1.68 5.34 0.36 4.68 -1 4 C-0.67 2.68 -0.34 1.36 0 0 Z " fill="#C5E7F9" transform="translate(65,248)"/>
<path d="M0 0 C-2.08205657 1.29376347 -4.16557304 2.58506554 -6.25 3.875 C-6.83652344 4.23980469 -7.42304688 4.60460937 -8.02734375 4.98046875 C-14.74540951 9.13208242 -14.74540951 9.13208242 -17 10 C-17.99 9.67 -18.98 9.34 -20 9 C-19.34 9 -18.68 9 -18 9 C-17.67 8.01 -17.34 7.02 -17 6 C-15.1875 5.12109375 -15.1875 5.12109375 -13 4.4375 C-10.85458962 3.79318716 -10.85458962 3.79318716 -9 3 C-8.67 2.34 -8.34 1.68 -8 1 C-3.6 -1.2 -3.6 -1.2 0 0 Z " fill="#2A78C7" transform="translate(244,279)"/>
<path d="M0 0 C0.43570313 0.37511719 0.87140625 0.75023437 1.3203125 1.13671875 C5.18607599 4.45859777 9.07657648 7.74642927 13 11 C11 12 11 12 8.125 11.3125 C4.79319911 9.91314362 3.1597358 8.87964774 1 6 C0.25 2.75 0.25 2.75 0 0 Z " fill="#D6F2FD" transform="translate(76,262)"/>
<path d="M0 0 C0.33 0 0.66 0 1 0 C1.3125 2.25 1.3125 2.25 1 5 C-1.4375 7.125 -1.4375 7.125 -4 9 C-4.33 9.99 -4.66 10.98 -5 12 C-6.65 12 -8.3 12 -10 12 C-9.61328125 11.55269531 -9.2265625 11.10539062 -8.828125 10.64453125 C-6.39439259 7.81923299 -3.99472951 4.99330506 -1.6875 2.0625 C-1.130625 1.381875 -0.57375 0.70125 0 0 Z " fill="#D6F2FC" transform="translate(276,248)"/>
<path d="M0 0 C1.32 0.33 2.64 0.66 4 1 C3.79503906 1.64066406 3.59007812 2.28132812 3.37890625 2.94140625 C1.81172636 7.97287851 0.56957826 12.75988003 0 18 C-0.99 18 -1.98 18 -3 18 C-2 12 -1 6 0 0 Z " fill="#2B7CCF" transform="translate(227,170)"/>
<path d="M0 0 C-12.52631579 6.71052632 -12.52631579 6.71052632 -18.234375 5.54296875 C-18.81703125 5.36378906 -19.3996875 5.18460938 -20 5 C-17.93950145 4.18243762 -15.87651147 3.37115266 -13.8125 2.5625 C-12.66394531 2.11003906 -11.51539063 1.65757813 -10.33203125 1.19140625 C-2.91866029 -1.45933014 -2.91866029 -1.45933014 0 0 Z " fill="#2979CA" transform="translate(149,41)"/>
<path d="M0 0 C4.95 2.31 9.9 4.62 15 7 C14.34 7.66 13.68 8.32 13 9 C11.2009755 8.46149601 9.41083736 7.89324145 7.625 7.3125 C6.62726563 6.99925781 5.62953125 6.68601562 4.6015625 6.36328125 C2 5 2 5 0 0 Z " fill="#D2EFFC" transform="translate(99,281)"/>
<path d="M0 0 C0.99 0 1.98 0 3 0 C3 1.32 3 2.64 3 4 C3.66 4 4.32 4 5 4 C8 9.625 8 9.625 8 13 C8.66 13 9.32 13 10 13 C10 14.65 10 16.3 10 18 C7.00601118 15.43372387 5.69416446 12.52386208 4 9 C3.27864769 7.74547424 2.54939646 6.49545881 1.8125 5.25 C0 2 0 2 0 0 Z " fill="#4388D2" transform="translate(49,220)"/>
<path d="M0 0 C-1.72601379 0.81917642 -3.4559647 1.63006016 -5.1875 2.4375 C-6.63189453 3.11619141 -6.63189453 3.11619141 -8.10546875 3.80859375 C-10.76631586 4.90381422 -13.16784755 5.54954796 -16 6 C-15 3 -15 3 -12.25 1.375 C-7.67568677 -0.56028637 -4.77892348 -1.33083945 0 0 Z " fill="#2F7BCC" transform="translate(224,290)"/>
<path d="M0 0 C4.24223102 -0.3636198 6.58168085 0.4606772 10 3 C10 3.66 10 4.32 10 5 C10.99 5.33 11.98 5.66 13 6 C12.67 6.99 12.34 7.98 12 9 C9.997193 7.69161864 7.99773901 6.37857806 6 5.0625 C5.42765625 4.68931641 4.8553125 4.31613281 4.265625 3.93164062 C2.82614271 2.98055411 1.41085511 1.99305724 0 1 C0 0.67 0 0.34 0 0 Z " fill="#CEEEFA" transform="translate(242,59)"/>
<path d="M0 0 C2.58366245 0.14120016 5.16682885 0.28778333 7.75 0.4375 C8.47960937 0.47681641 9.20921875 0.51613281 9.9609375 0.55664062 C13.4272973 0.76147098 16.65333026 1.0852002 20 2 C20 2.66 20 3.32 20 4 C20.99 4.33 21.98 4.66 23 5 C15.23216563 4.20736384 7.6370361 2.58110513 0 1 C0 0.67 0 0.34 0 0 Z " fill="#CCF0FD" transform="translate(189,39)"/>
<path d="M0 0 C0.99 0.33 1.98 0.66 3 1 C1.26943376 4.46113247 -2.46966467 5.71925805 -6 7 C-9 6.75 -9 6.75 -11 6 C-8.12835434 3.29727467 -6.69008159 2.05208163 -2.6875 1.75 C-1.3571875 1.87375 -1.3571875 1.87375 0 2 C0 1.34 0 0.68 0 0 Z " fill="#EFFCFC" transform="translate(242,281)"/>
<path d="M0 0 C0.66 0.33 1.32 0.66 2 1 C2.99 1 3.98 1 5 1 C5.66 1.33 6.32 1.66 7 2 C2.48178138 4.88663968 2.48178138 4.88663968 -0.125 5.5 C-2.12715693 5.86620054 -2.12715693 5.86620054 -3.5625 7.5625 C-4.2740625 8.2740625 -4.2740625 8.2740625 -5 9 C-5.99 9 -6.98 9 -8 9 C-8 8.34 -8 7.68 -8 7 C-7.01 6.34 -6.02 5.68 -5 5 C-3.31384218 3.35305515 -1.64429829 1.68873879 0 0 Z " fill="#0E78F0" transform="translate(229,280)"/>
<path d="M0 0 C4.11018964 3.35973367 7.94640442 6.60282237 11 11 C11 11.66 11 12.32 11 13 C11.66 13 12.32 13 13 13 C13 13.66 13 14.32 13 15 C9.59048278 13.86349426 8.62363724 12.74186875 6.3125 10.0625 C5.68988281 9.35222656 5.06726563 8.64195313 4.42578125 7.91015625 C3 6 3 6 3 4 C2.34 4 1.68 4 1 4 C0.67 2.68 0.34 1.36 0 0 Z " fill="#327AC6" transform="translate(262,75)"/>
<path d="M0 0 C2.87977887 1.43988944 3.54708125 3.50134238 5.0625 6.3125 C5.58972656 7.27800781 6.11695313 8.24351562 6.66015625 9.23828125 C7.77926558 11.54501681 8.51890769 13.49950786 9 16 C6 15 6 15 4.4375 12.0625 C3.7259375 10.5465625 3.7259375 10.5465625 3 9 C2.34 8.34 1.68 7.68 1 7 C0.59952556 4.67724823 0.2602896 2.34260643 0 0 Z " fill="#C9ECFA" transform="translate(50,224)"/>
<path d="M0 0 C0.66 0 1.32 0 2 0 C2.33 1.98 2.66 3.96 3 6 C1.8553125 6.5878125 1.8553125 6.5878125 0.6875 7.1875 C-2.24716071 9.16668978 -3.40126898 10.8866817 -5 14 C-6 12 -6 12 -5.1875 9.4375 C-4 7 -4 7 -2 6 C-1.27306096 4.02111039 -0.60183749 2.02045442 0 0 Z " fill="#0E7AF0" transform="translate(60,100)"/>
<path d="M0 0 C0.66 0.33 1.32 0.66 2 1 C0.35 5.95 -1.3 10.9 -3 16 C-3.33 16 -3.66 16 -4 16 C-4.46450943 9.49686791 -3.32575612 5.5825192 0 0 Z " fill="#D7F5FE" transform="translate(48,117)"/>
<path d="M0 0 C7.26153846 -0.61538462 7.26153846 -0.61538462 11 2.5 C11.66 3.325 12.32 4.15 13 5 C12.01 5.495 12.01 5.495 11 6 C8.3984375 5.00390625 8.3984375 5.00390625 5.375 3.5625 C3.87066406 2.85287109 3.87066406 2.85287109 2.3359375 2.12890625 C1.56507813 1.75636719 0.79421875 1.38382813 0 1 C0 0.67 0 0.34 0 0 Z " fill="#D3F2FD" transform="translate(212,44)"/>
<path d="M0 0 C0.66 0 1.32 0 2 0 C1.34005027 4.00418935 0.11658275 7.50544452 -1.4375 11.25 C-1.86933594 12.30703125 -2.30117188 13.3640625 -2.74609375 14.453125 C-4 17 -4 17 -6 18 C-5.38825004 13.84010028 -3.87021829 10.74043657 -2 7 C-1.23376154 4.68259587 -0.61475622 2.36444701 0 0 Z " fill="#1276EE" transform="translate(291,211)"/>
<path d="M0 0 C0.33 0 0.66 0 1 0 C1.08119503 2.24940295 1.13927819 4.49964871 1.1875 6.75 C1.22230469 8.00296875 1.25710938 9.2559375 1.29296875 10.546875 C0.98802939 14.14109357 0.45605371 15.44725126 -2 18 C-1.8590651 15.56212615 -1.71245458 13.12482147 -1.5625 10.6875 C-1.52318359 9.99720703 -1.48386719 9.30691406 -1.44335938 8.59570312 C-1.25072585 5.52838465 -0.97677283 2.93031848 0 0 Z " fill="#0F73E1" transform="translate(298,184)"/>
<path d="M0 0 C1.75 0.0625 1.75 0.0625 4 1 C6.97319519 5.33237013 8.48316747 8.7024666 9 14 C2 4.9 2 4.9 2 2 C1.34 2 0.68 2 0 2 C0 1.34 0 0.68 0 0 Z " fill="#D1F0FC" transform="translate(273,86)"/>
<path d="M0 0 C15.3125 -0.3125 15.3125 -0.3125 20 4 C18.02 4 16.04 4 14 4 C14 3.34 14 2.68 14 2 C13.15695313 2.02320313 12.31390625 2.04640625 11.4453125 2.0703125 C9.80175781 2.09738281 9.80175781 2.09738281 8.125 2.125 C7.03445312 2.14820313 5.94390625 2.17140625 4.8203125 2.1953125 C2 2 2 2 0 0 Z " fill="#1473DD" transform="translate(184,41)"/>
<path d="M0 0 C1.56454159 4.02014661 0.46223974 7.69925681 -0.4375 11.75 C-0.58509766 12.44738281 -0.73269531 13.14476562 -0.88476562 13.86328125 C-1.24868033 15.5772021 -1.62329068 17.28884581 -2 19 C-2.33 19 -2.66 19 -3 19 C-3.12009261 13.23555464 -2.99809046 7.68911563 -2 2 C-1.34 1.34 -0.68 0.68 0 0 Z " fill="#2576C5" transform="translate(45,134)"/>
<path d="M0 0 C2.57146057 2.57146057 2.80117997 4.6050417 3.625 8.125 C3.88539062 9.22070312 4.14578125 10.31640625 4.4140625 11.4453125 C4.70410156 12.70988281 4.70410156 12.70988281 5 14 C2 13 2 13 0.8125 10.9375 C-0.23642055 7.14524878 -0.13319932 3.92937998 0 0 Z " fill="#CDEEFC" transform="translate(44,206)"/>
<path d="M0 0 C0.66 0 1.32 0 2 0 C0.515 6.435 0.515 6.435 -1 13 C-3.1202151 9.81967735 -3.2495865 9.45432601 -2.75 5.9375 C-2.66234375 5.24527344 -2.5746875 4.55304688 -2.484375 3.83984375 C-2 2 -2 2 0 0 Z " fill="#2E7ECE" transform="translate(153,112)"/>
<path d="M0 0 C3.71599191 -0.20086443 4.77208445 -0.1519437 8 2 C8.6875 5.125 8.6875 5.125 9 8 C7.68388323 7.04663979 6.37221039 6.08714226 5.0625 5.125 C4.33160156 4.59132813 3.60070312 4.05765625 2.84765625 3.5078125 C1 2 1 2 0 0 Z " fill="#D1EFFA" transform="translate(255,68)"/>
<path d="M0 0 C0.99 0 1.98 0 3 0 C3.33 5.61 3.66 11.22 4 17 C3.67 17 3.34 17 3 17 C2.49622232 14.73000175 1.99709981 12.45896997 1.5 10.1875 C1.08234375 8.29064453 1.08234375 8.29064453 0.65625 6.35546875 C0 3 0 3 0 0 Z " fill="#C5EBFB" transform="translate(37,173)"/>
<path d="M0 0 C0.33 0 0.66 0 1 0 C1.08131463 1.43655854 1.13933559 2.8744483 1.1875 4.3125 C1.22230469 5.11300781 1.25710938 5.91351563 1.29296875 6.73828125 C0.93801608 9.47851584 0.10633718 10.29171079 -2 12 C-3.12377697 8.69564916 -2.89554742 6.9493138 -1.5625 3.75 C-1.27503906 3.04359375 -0.98757813 2.3371875 -0.69140625 1.609375 C-0.46324219 1.07828125 -0.23507812 0.5471875 0 0 Z " fill="#D5F3FD" transform="translate(298,203)"/>
<path d="M0 0 C1.23593891 3.70781672 0.5678132 4.67510253 -0.9375 8.1875 C-1.31777344 9.08855469 -1.69804687 9.98960937 -2.08984375 10.91796875 C-2.54037109 11.94857422 -2.54037109 11.94857422 -3 13 C-3.66 13 -4.32 13 -5 13 C-4.74379316 11.3934324 -4.46944129 9.7897517 -4.1875 8.1875 C-4.03667969 7.29417969 -3.88585937 6.40085938 -3.73046875 5.48046875 C-2.94604607 2.81678744 -2.11372201 1.74309678 0 0 Z " fill="#3A80CA" transform="translate(196,131)"/>
<path d="M0 0 C1 2 1 2 0.9375 4.3125 C-0.42084798 8.20643086 -2.7191576 9.55681949 -6 12 C-6 8.36804504 -5.04546845 7.25286089 -3 4.3125 C-2.443125 3.50425781 -1.88625 2.69601563 -1.3125 1.86328125 C-0.879375 1.24839844 -0.44625 0.63351563 0 0 Z " fill="#3E88CE" transform="translate(65,90)"/>
<path d="M0 0 C4.28357759 -0.36716379 6.50348319 0.54298819 10 3 C10.66 3.66 11.32 4.32 12 5 C9.44345185 5.95582656 8.39658231 6.17802782 5.859375 5.0390625 C5.16328125 4.57242188 4.4671875 4.10578125 3.75 3.625 C3.04359375 3.16351563 2.3371875 2.70203125 1.609375 2.2265625 C1.07828125 1.82179687 0.5471875 1.41703125 0 1 C0 0.67 0 0.34 0 0 Z " fill="#CFEFFB" transform="translate(232,53)"/>
<path d="M0 0 C2.67868487 1.33934244 2.74954078 2.51692397 3.6875 5.3125 C4.09548828 6.48232422 4.09548828 6.48232422 4.51171875 7.67578125 C5.03839183 10.18274511 4.8178554 11.60132343 4 14 C0.68557793 9.53273547 0.33990833 5.37992836 0 0 Z " fill="#1377E6" transform="translate(47,206)"/>
<path d="M0 0 C0.66 0.33 1.32 0.66 2 1 C-0.31 3.97 -2.62 6.94 -5 10 C-5.66 9.34 -6.32 8.68 -7 8 C-4.53846154 3.2 -4.53846154 3.2 -1.8125 2.1875 C-0.9153125 2.0946875 -0.9153125 2.0946875 0 2 C0 1.34 0 0.68 0 0 Z " fill="#DAF5FD" transform="translate(71,80)"/>
<path d="M0 0 C1.66926454 0.97473126 3.33535642 1.95489789 5 2.9375 C6.3921875 3.75541016 6.3921875 3.75541016 7.8125 4.58984375 C8.534375 5.05519531 9.25625 5.52054687 10 6 C10 6.33 10 6.66 10 7 C8.081875 6.8453125 8.081875 6.8453125 6.125 6.6875 C5.04605469 6.60048828 5.04605469 6.60048828 3.9453125 6.51171875 C2 6 2 6 0 3 C0 2.01 0 1.02 0 0 Z " fill="#DBF6FE" transform="translate(89,274)"/>
<path d="M0 0 C0.33 0.99 0.66 1.98 1 3 C0.2884375 3.6496875 0.2884375 3.6496875 -0.4375 4.3125 C-2.23686957 6.02309613 -2.23686957 6.02309613 -3 9 C-4.32 8.67 -5.64 8.34 -7 8 C-7 7.34 -7 6.68 -7 6 C-5.46875 4.4921875 -5.46875 4.4921875 -3.5 2.875 C-2.8503125 2.33617187 -2.200625 1.79734375 -1.53125 1.2421875 C-1.0259375 0.83226562 -0.520625 0.42234375 0 0 Z " fill="#D0EFFB" transform="translate(263,263)"/>
<path d="M0 0 C0.33 0 0.66 0 1 0 C1.36504603 1.58086048 1.71660506 3.16483907 2.0625 4.75 C2.25972656 5.63171875 2.45695312 6.5134375 2.66015625 7.421875 C2.99825872 9.98679028 2.81158635 11.57091639 2 14 C1.34 13.67 0.68 13.34 0 13 C-1.19811544 8.42537741 -0.83154187 4.61967708 0 0 Z " fill="#C5E9FA" transform="translate(41,190)"/>
<path d="M0 0 C0.99 0.33 1.98 0.66 3 1 C1.02 4.96 -0.96 8.92 -3 13 C-4.04449911 9.86650268 -3.93423645 9.01031744 -3 6 C-2.34 6 -1.68 6 -1 6 C-1.020625 5.195625 -1.04125 4.39125 -1.0625 3.5625 C-1 1 -1 1 0 0 Z " fill="#D0F1FD" transform="translate(55,101)"/>
<path d="M0 0 C0.66 0.33 1.32 0.66 2 1 C0.02 3.97 -1.96 6.94 -4 10 C-5.06484722 5.7406111 -5.0097548 4.71804639 -3 1 C-2.01 0.67 -1.02 0.34 0 0 Z " fill="#DBF6FC" transform="translate(63,90)"/>
<path d="M0 0 C-1.32 0.33 -2.64 0.66 -4 1 C-4 1.99 -4 2.98 -4 4 C-6.64 4 -9.28 4 -12 4 C-8.71298741 1.21868166 -4.24676932 -2.12338466 0 0 Z " fill="#4088D3" transform="translate(133,45)"/>
<path d="M0 0 C0.33 0 0.66 0 1 0 C0.125 7.75 0.125 7.75 -1 10 C-1.66 10 -2.32 10 -3 10 C-3 8.02 -3 6.04 -3 4 C-2.34 4 -1.68 4 -1 4 C-0.67 2.68 -0.34 1.36 0 0 Z " fill="#337DD0" transform="translate(298,198)"/>
<path d="M0 0 C2 3 2 3 1.6875 5.5 C1.17901328 7.34904262 0.60642538 9.18072387 0 11 C-0.99 11 -1.98 11 -3 11 C-3 9.68 -3 8.36 -3 7 C-2.01 7 -1.02 7 0 7 C0 4.69 0 2.38 0 0 Z " fill="#1373E0" transform="translate(227,181)"/>
<path d="M0 0 C0.66 0 1.32 0 2 0 C0.25 4.875 0.25 4.875 -2 6 C-1.125 1.125 -1.125 1.125 0 0 Z M-3 6 C-3 6.99 -3 7.98 -3 9 C-3.99 9.66 -4.98 10.32 -6 11 C-4.125 7.125 -4.125 7.125 -3 6 Z " fill="#E7F9FD" transform="translate(266,260)"/>
<path d="M0 0 C0.33 0 0.66 0 1 0 C0.91253716 1.43861294 0.80434652 2.87597508 0.6875 4.3125 C0.62949219 5.11300781 0.57148438 5.91351563 0.51171875 6.73828125 C-0.08206694 9.36272334 -0.95780294 10.30820672 -3 12 C-2.69106068 10.3743193 -2.3777305 8.74947252 -2.0625 7.125 C-1.88847656 6.22007812 -1.71445312 5.31515625 -1.53515625 4.3828125 C-1 2 -1 2 0 0 Z " fill="#E2F8FC" transform="translate(287,230)"/>
<path d="M0 0 C0.66 0.33 1.32 0.66 2 1 C2.59355614 3.64860427 2.74209269 6.29197322 3 9 C1.68 8.34 0.36 7.68 -1 7 C-0.67 4.69 -0.34 2.38 0 0 Z " fill="#1072DB" transform="translate(289,117)"/>
<path d="M0 0 C4.85077588 1.11940982 7.777893 2.1334716 11 6 C6.545 5.01 6.545 5.01 2 4 C2 3.34 2 2.68 2 2 C1.34 2 0.68 2 0 2 C0 1.34 0 0.68 0 0 Z " fill="#1077EC" transform="translate(217,49)"/>
<path d="M0 0 C3.57104439 1.87949705 5.54744301 3.17053157 7 7 C4.20171644 6.61402985 3.1794116 6.19863427 1.25 4.0625 C0 2 0 2 0 0 Z " fill="#CEF1FC" transform="translate(69,255)"/>
<path d="M0 0 C1.8125 0.75 1.8125 0.75 2.8125 2.75 C-0.5625 3.375 -0.5625 3.375 -4.1875 3.75 C-4.8475 3.09 -5.5075 2.43 -6.1875 1.75 C-3.9127187 0.36888278 -2.68578639 -0.30694702 0 0 Z " fill="#CDEAF9" transform="translate(180.1875,92.25)"/>
<path d="M0 0 C-0.33 0.99 -0.66 1.98 -1 3 C-3.64 3 -6.28 3 -9 3 C-7.14340032 -0.71319936 -3.69365381 -0.09982848 0 0 Z " fill="#1574DD" transform="translate(209,293)"/>
<path d="M0 0 C0.33 0.66 0.66 1.32 1 2 C0.22265625 3.9453125 0.22265625 3.9453125 -0.9375 6.125 C-1.31777344 6.84945312 -1.69804687 7.57390625 -2.08984375 8.3203125 C-2.39019531 8.87460938 -2.69054687 9.42890625 -3 10 C-3.66 10 -4.32 10 -5 10 C-3.84414715 6.08788267 -2.64465038 3.1254959 0 0 Z " fill="#C0E7FA" transform="translate(159,106)"/>
<path d="M0 0 C0.66 0.33 1.32 0.66 2 1 C0.71034824 2.37562854 -0.62689293 3.70766393 -2 5 C-2.66 5 -3.32 5 -4 5 C-4.33 5.99 -4.66 6.98 -5 8 C-5.33 7.01 -5.66 6.02 -6 5 C-4.21653709 1.96811304 -3.40424844 1.13474948 0 0 Z " fill="#2B79C8" transform="translate(166,97)"/>
<path d="M0 0 C4.875 4.625 4.875 4.625 6 8 C5.34 8 4.68 8 4 8 C3.67 7.34 3.34 6.68 3 6 C0.98330173 4.86649466 0.98330173 4.86649466 -1 4 C-0.67 2.68 -0.34 1.36 0 0 Z " fill="#C9EBF9" transform="translate(59,240)"/>
<path d="M0 0 C0.66 0 1.32 0 2 0 C2.33 1.65 2.66 3.3 3 5 C3.66 5 4.32 5 5 5 C5 6.65 5 8.3 5 10 C1.55783328 7.3401439 1.00495326 4.09711714 0 0 Z " fill="#2D77C6" transform="translate(54,228)"/>
<path d="M0 0 C0.66 0.66 1.32 1.32 2 2 C1.96712417 4.72869407 1.43602229 7.2966618 1 10 C0.34 10 -0.32 10 -1 10 C-0.67 6.7 -0.34 3.4 0 0 Z " fill="#3A86D2" transform="translate(223,190)"/>
<path d="M0 0 C3.0916909 2.52956528 3.90931332 5.22454612 5 9 C3.0625 8.4375 3.0625 8.4375 1 7 C0.25 3.375 0.25 3.375 0 0 Z " fill="#1077E0" transform="translate(276,94)"/>
<path d="M0 0 C3.82097239 0.53069061 6.06171403 1.49701566 9 4 C8.67 4.66 8.34 5.32 8 6 C1.125 2.25 1.125 2.25 0 0 Z " fill="#2070C0" transform="translate(240,60)"/>
<path d="M0 0 C1.32 0.33 2.64 0.66 4 1 C1.03 2.65 -1.94 4.3 -5 6 C-4.67 4.68 -4.34 3.36 -4 2 C-2.68 2 -1.36 2 0 2 C0 1.34 0 0.68 0 0 Z " fill="#CFEEFC" transform="translate(98,58)"/>
<path d="M0 0 C1.6396875 0.0928125 1.6396875 0.0928125 3.3125 0.1875 C3.3125 0.8475 3.3125 1.5075 3.3125 2.1875 C0.0125 2.5175 -3.2875 2.8475 -6.6875 3.1875 C-3.6875 0.1875 -3.6875 0.1875 0 0 Z " fill="#1A6ECF" transform="translate(152.6875,39.8125)"/>
<path d="M0 0 C1.98 0.99 3.96 1.98 6 3 C5.67 3.99 5.34 4.98 5 6 C3.0625 5.25 3.0625 5.25 1 4 C0.25 1.875 0.25 1.875 0 0 Z " fill="#DCF8FD" transform="translate(99,281)"/>
<path d="M0 0 C-0.33 0.99 -0.66 1.98 -1 3 C-2.32 3 -3.64 3 -5 3 C-5 3.66 -5 4.32 -5 5 C-6.32 4.67 -7.64 4.34 -9 4 C-3.375 0 -3.375 0 0 0 Z " fill="#C6E8FA" transform="translate(247,278)"/>
<path d="M0 0 C1 3 1 3 0 6 C-1.65 6 -3.3 6 -5 6 C-3.35 4.02 -1.7 2.04 0 0 Z " fill="#BEE1F5" transform="translate(271,254)"/>
<path d="M0 0 C-0.66 1.65 -1.32 3.3 -2 5 C-3.65 4.67 -5.3 4.34 -7 4 C-2.25 0 -2.25 0 0 0 Z " fill="#CFEBF8" transform="translate(238,283)"/>
<path d="M0 0 C1.33332095 2.6666419 0.67102033 4.16680303 0 7 C-2 5.6875 -2 5.6875 -4 4 C-4 3.01 -4 2.02 -4 1 C-2.68 0.67 -1.36 0.34 0 0 Z " fill="#0F74E7" transform="translate(63,234)"/>
<path d="M0 0 C0.66 0 1.32 0 2 0 C1.88601335 1.62580966 1.75844341 3.25067157 1.625 4.875 C1.52058594 6.23238281 1.52058594 6.23238281 1.4140625 7.6171875 C1 10 1 10 -1 12 C-1.02687279 10.18757948 -1.04633715 8.37504767 -1.0625 6.5625 C-1.07410156 5.55316406 -1.08570313 4.54382813 -1.09765625 3.50390625 C-1 1 -1 1 0 0 Z " fill="#C3E9FA" transform="translate(42,134)"/>
</svg>
