<?xml version="1.0" encoding="UTF-8"?>
<svg version="1.1" xmlns="http://www.w3.org/2000/svg" width="157" height="154">
<path d="M0 0 C51.81 0 103.62 0 157 0 C157 50.82 157 101.64 157 154 C105.19 154 53.38 154 0 154 C0 103.18 0 52.36 0 0 Z " fill="#111619" transform="translate(0,0)"/>
<path d="M0 0 C51.81 0 103.62 0 157 0 C157 50.82 157 101.64 157 154 C105.19 154 53.38 154 0 154 C0 103.18 0 52.36 0 0 Z M45 16 C44.01 16.33 43.02 16.66 42 17 C42 17.66 42 18.32 42 19 C41.13375 19.22429688 40.2675 19.44859375 39.375 19.6796875 C35.52192732 21.1870238 32.94028612 23.31019651 30 26.125 C29.4745459 26.6214502 28.9490918 27.11790039 28.40771484 27.62939453 C16.65192744 38.93233396 8.65109947 54.91744321 7.83203125 71.375 C7.70585441 94.79342219 14.62735554 110.44553145 30.57421875 127.578125 C35.42313498 132.41923299 40.85336383 137 48 137 C48 137.66 48 138.32 48 139 C50.04009755 139.65077296 52.08215669 140.29539824 54.125 140.9375 C55.83042969 141.47697266 55.83042969 141.47697266 57.5703125 142.02734375 C71.43399494 145.95907146 84.54636332 144.46395063 98 140 C99.39025391 139.54947266 99.39025391 139.54947266 100.80859375 139.08984375 C107.27078809 136.76103424 112.57090215 133.1607876 118 129 C118.84046875 128.36191406 119.6809375 127.72382812 120.546875 127.06640625 C131.22779213 118.06926427 140.95265486 101.57383853 142.8125 87.625 C142.8977818 86.08442563 142.95798056 84.54236076 143 83 C143.07347656 82.01 143.14695313 81.02 143.22265625 80 C144.00011726 62.77624835 138.23086279 45.14344537 127 32 C125.02043058 30.30911778 123.02054804 28.64169528 121 27 C120.319375 26.278125 119.63875 25.55625 118.9375 24.8125 C117.05948064 22.83353062 117.05948064 22.83353062 114.3125 21.9375 C113.549375 21.628125 112.78625 21.31875 112 21 C111.505 19.515 111.505 19.515 111 18 C92.8589285 5.9185766 63.55965886 5.29250451 45 16 Z " fill="#F5F5F6" transform="translate(0,0)"/>
<path d="M0 0 C1.51400391 0.01740234 1.51400391 0.01740234 3.05859375 0.03515625 C4.07050781 0.04417969 5.08242187 0.05320313 6.125 0.0625 C6.90746094 0.07410156 7.68992187 0.08570313 8.49609375 0.09765625 C8.49609375 2.09765625 8.49609375 2.09765625 6.30078125 4.390625 C5.37523437 5.28394531 4.4496875 6.17726563 3.49609375 7.09765625 C0.97368072 9.81066962 -1.50973022 12.55547269 -3.98828125 15.30859375 C-5.5461657 17.03581346 -7.1167447 18.75178523 -8.70703125 20.44921875 C-9.34125 21.13757813 -9.97546875 21.8259375 -10.62890625 22.53515625 C-11.18835938 23.13199219 -11.7478125 23.72882813 -12.32421875 24.34375 C-13.87597778 26.2985473 -13.87597778 26.2985473 -13.50390625 30.09765625 C-12.48803977 32.0056324 -12.48803977 32.0056324 -11.01953125 33.8125 C-10.23449219 34.84213867 -10.23449219 34.84213867 -9.43359375 35.89257812 C-8.87929687 36.59962891 -8.325 37.30667969 -7.75390625 38.03515625 C-7.21507812 38.73833984 -6.67625 39.44152344 -6.12109375 40.16601562 C-3.89486891 43.06282283 -1.63804088 45.93095996 0.65234375 48.77734375 C2.59955701 51.22786213 4.43752466 53.73074564 6.24609375 56.28515625 C6.8596875 57.14496094 7.47328125 58.00476563 8.10546875 58.890625 C9.49609375 61.09765625 9.49609375 61.09765625 9.49609375 63.09765625 C10.15609375 63.09765625 10.81609375 63.09765625 11.49609375 63.09765625 C11.49609375 64.08765625 11.49609375 65.07765625 11.49609375 66.09765625 C7.95585015 66.36041221 4.41811242 66.51925954 0.87109375 66.66015625 C-0.12792969 66.73556641 -1.12695312 66.81097656 -2.15625 66.88867188 C-5.17253414 66.97856114 -7.59625503 66.92059222 -10.50390625 66.09765625 C-13.2431731 63.45927091 -14.79515445 60.46471828 -16.50390625 57.09765625 C-17.88398536 55.08675289 -19.27728362 53.08476669 -20.69140625 51.09765625 C-21.34496094 50.16953125 -21.99851563 49.24140625 -22.671875 48.28515625 C-24.39115447 45.84398101 -24.39115447 45.84398101 -27.50390625 45.09765625 C-30.80659674 48.29380833 -33.92249464 51.62451201 -37.00390625 55.03515625 C-38.18146484 56.32873047 -38.18146484 56.32873047 -39.3828125 57.6484375 C-41.09170134 59.62168483 -42.49941406 61.56223379 -43.94140625 63.72265625 C-46.95177458 66.51275373 -47.84686266 66.45041791 -51.81640625 66.47265625 C-53.38096015 66.3767274 -54.94496066 66.26111851 -56.50390625 66.09765625 C-55.64256425 61.56799634 -52.99402797 59.07137425 -49.87890625 55.84765625 C-48.7831331 54.68818103 -47.68807832 53.52802647 -46.59375 52.3671875 C-46.06249512 51.80725098 -45.53124023 51.24731445 -44.98388672 50.67041016 C-42.06206532 47.56543268 -39.23260903 44.37361976 -36.50390625 41.09765625 C-35.90707031 40.46988281 -35.31023438 39.84210938 -34.6953125 39.1953125 C-33.21945434 37.14097642 -33.21945434 37.14097642 -34.01953125 34.7421875 C-35.82607104 31.52369424 -37.95714434 28.66066318 -40.25390625 25.78515625 C-41.16189717 24.62925083 -42.06945101 23.47300194 -42.9765625 22.31640625 C-43.41371582 21.76210937 -43.85086914 21.2078125 -44.30126953 20.63671875 C-45.80354511 18.71419637 -47.25015053 16.75370065 -48.69140625 14.78515625 C-51.31232248 11.2480458 -54.20370056 7.99961135 -57.18359375 4.76171875 C-58.50390625 3.09765625 -58.50390625 3.09765625 -58.50390625 1.09765625 C-38.07199384 -0.53629344 -38.07199384 -0.53629344 -32.3359375 3.11328125 C-30.34218592 5.68934713 -28.89093165 8.15628174 -27.50390625 11.09765625 C-26.7314874 12.23595772 -25.94327143 13.36397664 -25.12890625 14.47265625 C-23.78506274 16.64348038 -22.57296644 18.78135917 -21.50390625 21.09765625 C-17.06900771 16.80404651 -13.30090336 12.17383577 -9.4921875 7.328125 C-8.83605469 6.59207031 -8.17992187 5.85601562 -7.50390625 5.09765625 C-6.84390625 5.09765625 -6.18390625 5.09765625 -5.50390625 5.09765625 C-5.19453125 4.45828125 -4.88515625 3.81890625 -4.56640625 3.16015625 C-2.99869591 0.11695382 -2.99869591 0.11695382 0 0 Z " fill="#EDEFF0" transform="translate(98.50390625,42.90234375)"/>
<path d="M0 0 C3.0625 -0.625 3.0625 -0.625 7 0 C8.97177649 2.05045086 10.34011332 4.27935052 11.85546875 6.6875 C14.50520765 10.78035718 17.4497723 14.58800132 20.4375 18.4375 C24.71810665 23.99423715 28.91864026 29.59205818 33.01171875 35.2890625 C35.88173281 39.20220544 38.85906299 43.03109446 41.85229492 46.85058594 C45 50.89400965 45 50.89400965 45 52 C42.4375 52.5625 42.4375 52.5625 39 52 C36.91623718 49.82563879 35.23317186 47.53828112 33.515625 45.06640625 C32.16160384 42.89049701 32.16160384 42.89049701 30 42 C29.484375 41.05125 28.96875 40.1025 28.4375 39.125 C26.01536196 34.73321125 22.85726992 31.08951222 19.65234375 27.25 C16.50775917 23.44130423 13.53147043 19.5087416 10.5625 15.5625 C10.04236328 14.87615479 9.52222656 14.18980957 8.98632812 13.48266602 C8.49712891 12.82967529 8.00792969 12.17668457 7.50390625 11.50390625 C6.85143921 10.63487671 6.85143921 10.63487671 6.18579102 9.74829102 C4.93315729 7.90144932 3.95428081 6.01489972 3 4 C2.34 4 1.68 4 1 4 C0.67 2.68 0.34 1.36 0 0 Z " fill="#1F2224" transform="translate(53,50)"/>
<path d="M0 0 C1.51400391 0.01740234 1.51400391 0.01740234 3.05859375 0.03515625 C4.07050781 0.04417969 5.08242187 0.05320313 6.125 0.0625 C7.29869141 0.07990234 7.29869141 0.07990234 8.49609375 0.09765625 C8.49609375 2.09765625 8.49609375 2.09765625 6.55859375 4.09765625 C6.11257812 4.52433594 5.6665625 4.95101562 5.20703125 5.390625 C1.46332573 9.12578325 -1.98625005 13.15083067 -5.50390625 17.09765625 C-6.82390625 16.76765625 -8.14390625 16.43765625 -9.50390625 16.09765625 C-9.50390625 15.43765625 -9.50390625 14.77765625 -9.50390625 14.09765625 C-11.48390625 15.08765625 -13.46390625 16.07765625 -15.50390625 17.09765625 C-14.10199272 14.10511007 -12.47023136 11.50219515 -10.50390625 8.84765625 C-9.98828125 8.14125 -9.47265625 7.43484375 -8.94140625 6.70703125 C-8.46703125 6.1759375 -7.99265625 5.64484375 -7.50390625 5.09765625 C-6.84390625 5.09765625 -6.18390625 5.09765625 -5.50390625 5.09765625 C-5.19453125 4.45828125 -4.88515625 3.81890625 -4.56640625 3.16015625 C-2.99869591 0.11695382 -2.99869591 0.11695382 0 0 Z " fill="#E6E8E8" transform="translate(98.50390625,42.90234375)"/>
<path d="M0 0 C0.66 0.33 1.32 0.66 2 1 C2 1.99 2 2.98 2 4 C1.360625 4.103125 0.72125 4.20625 0.0625 4.3125 C-0.9584375 4.6528125 -0.9584375 4.6528125 -2 5 C-2.33 5.99 -2.66 6.98 -3 8 C-5.546875 9.23828125 -5.546875 9.23828125 -8.75 10.3125 C-9.79671875 10.67988281 -10.8434375 11.04726562 -11.921875 11.42578125 C-15.39652173 12.07397042 -16.9151447 11.61669268 -20 10 C-15.75518156 7.78575577 -11.31794127 6.08802908 -6.875 4.31640625 C-4.25009828 3.11451511 -2.21781848 1.82863399 0 0 Z " fill="#DCDDDE" transform="translate(112,132)"/>
<path d="M0 0 C3.25 -0.375 3.25 -0.375 7 0 C9.5625 2.625 9.5625 2.625 11 6 C10.25 9.375 10.25 9.375 9 12 C4.125 7.375 4.125 7.375 3 4 C2.34 4 1.68 4 1 4 C0.67 2.68 0.34 1.36 0 0 Z " fill="#333437" transform="translate(53,50)"/>
<path d="M0 0 C-7.6026331 3.8442208 -14.51046612 4.95688062 -23 4 C-25.88671875 2.9765625 -25.88671875 2.9765625 -28 2 C-27.67 1.34 -27.34 0.68 -27 0 C-25.75863281 0.01160156 -24.51726562 0.02320313 -23.23828125 0.03515625 C-21.59635568 0.04453868 -19.95442847 0.0536384 -18.3125 0.0625 C-17.49587891 0.07087891 -16.67925781 0.07925781 -15.83789062 0.08789062 C-10.5544031 0.10928126 -5.00186274 -1.66728758 0 0 Z " fill="#DDDFE0" transform="translate(92,143)"/>
<path d="M0 0 C0.66 0.33 1.32 0.66 2 1 C0.6875 3.9375 0.6875 3.9375 -1 7 C-1.99 7.33 -2.98 7.66 -4 8 C-4.73323796 10.01508358 -4.73323796 10.01508358 -5 12 C-7.475 11.01 -7.475 11.01 -10 10 C-3.84965831 2.51708428 -3.84965831 2.51708428 0 0 Z " fill="#262829" transform="translate(36,21)"/>
<path d="M0 0 C2.20009864 3.30014795 2.62319003 4.1718327 2 8 C0.53800979 10.38416865 -0.98558711 11.98558711 -3 14 C-3.99 14 -4.98 14 -6 14 C-4.16508812 9.25981099 -2.08058541 4.63586749 0 0 Z " fill="#D8D8DC" transform="translate(139,98)"/>
<path d="M0 0 C0.95003906 0.20238281 1.90007812 0.40476562 2.87890625 0.61328125 C3.82636719 0.80277344 4.77382812 0.99226562 5.75 1.1875 C8.20488174 1.86090007 10.22388137 2.69382298 12.44140625 3.92578125 C5.85417332 4.97137378 0.84906666 4.75870539 -5.55859375 2.92578125 C-3.74185571 0.50958083 -3.09641687 -0.08981973 0 0 Z M-4.55859375 3.92578125 C-1.55859375 4.92578125 -1.55859375 4.92578125 -1.55859375 4.92578125 Z " fill="#1D1F23" transform="translate(87.55859375,10.07421875)"/>
<path d="M0 0 C3.47132095 1.40929697 4.88093274 2.90605083 6.75 6.125 C7.39195313 7.21167969 7.39195313 7.21167969 8.046875 8.3203125 C8.51867187 9.15175781 8.51867187 9.15175781 9 10 C6.6875 9.8125 6.6875 9.8125 4 9 C2.1875 6.4375 2.1875 6.4375 1 4 C-0.98 4.66 -2.96 5.32 -5 6 C-3.63016497 2.83884224 -3.0109362 2.0072908 0 0 Z " fill="#34373A" transform="translate(71,87)"/>
<path d="M0 0 C2.31 0.66 4.62 1.32 7 2 C7 2.66 7 3.32 7 4 C8.65 4.33 10.3 4.66 12 5 C12 5.99 12 6.98 12 8 C8.28111761 7.49287967 5.26545761 6.88391785 2 5 C2 4.34 2 3.68 2 3 C1.01 2.67 0.02 2.34 -1 2 C-0.67 1.34 -0.34 0.68 0 0 Z " fill="#DEDFE1" transform="translate(41,135)"/>
<path d="M0 0 C0.33 1.32 0.66 2.64 1 4 C0.01 4.495 0.01 4.495 -1 5 C-1.33 5.66 -1.66 6.32 -2 7 C-3.64646685 8.68662458 -5.31183067 10.35511706 -7 12 C-7 11.34 -7 10.68 -7 10 C-8.65 10.66 -10.3 11.32 -12 12 C-10.71034824 10.62437146 -9.37310707 9.29233607 -8 8 C-7.34 8 -6.68 8 -6 8 C-5.67 7.01 -5.34 6.02 -5 5 C-4.34 5 -3.68 5 -3 5 C-2.690625 4.360625 -2.38125 3.72125 -2.0625 3.0625 C-1 1 -1 1 0 0 Z " fill="#C6C6C8" transform="translate(126,120)"/>
<path d="M0 0 C0.33 1.32 0.66 2.64 1 4 C0.01 4.33 -0.98 4.66 -2 5 C-3.22969878 8.51190809 -3.22969878 8.51190809 -4 12 C-5.32 12.33 -6.64 12.66 -8 13 C-8 8.21861363 -7.16772988 7.615713 -4 4.25 C-3.2575 3.45078125 -2.515 2.6515625 -1.75 1.828125 C-1.1725 1.22484375 -0.595 0.6215625 0 0 Z " fill="#2E3233" transform="translate(92,60)"/>
<path d="M0 0 C1.65 1.65 3.3 3.3 5 5 C4.67 5.66 4.34 6.32 4 7 C3.67 6.67 3.34 6.34 3 6 C2.67 6.99 2.34 7.98 2 9 C-1 8 -1 8 -3 5 C-3 4.01 -3 3.02 -3 2 C-2.01 2 -1.02 2 0 2 C0 1.34 0 0.68 0 0 Z " fill="#2D3033" transform="translate(73,69)"/>
<path d="M0 0 C1.5625 1.125 1.5625 1.125 3 3 C2.75896128 6.77627333 1.88638485 9.73026626 0 13 C-0.66 12.67 -1.32 12.34 -2 12 C-1.85831863 10.56208484 -1.71148957 9.1246763 -1.5625 7.6875 C-1.48128906 6.88699219 -1.40007812 6.08648437 -1.31640625 5.26171875 C-1 3 -1 3 0 0 Z " fill="#2C2F34" transform="translate(139,85)"/>
<path d="M0 0 C0.33 0 0.66 0 1 0 C1.144375 0.763125 1.28875 1.52625 1.4375 2.3125 C1.9632594 5.08172908 1.9632594 5.08172908 3 8 C2.67 8.66 2.34 9.32 2 10 C1.34 10 0.68 10 0 10 C0 13.63 0 17.26 0 21 C-0.33 21 -0.66 21 -1 21 C-1.02719556 18.62492145 -1.04693247 16.25016036 -1.0625 13.875 C-1.07087891 13.20984375 -1.07925781 12.5446875 -1.08789062 11.859375 C-1.10782292 7.79318646 -0.78890161 3.9879908 0 0 Z " fill="#313437" transform="translate(9,62)"/>
<path d="M0 0 C1.1446875 0.495 1.1446875 0.495 2.3125 1 C4.99069135 2.17436686 4.99069135 2.17436686 8 2 C8.66 3.32 9.32 4.64 10 6 C7.8125 6.8125 7.8125 6.8125 5 7 C2.1875 4.6875 2.1875 4.6875 0 2 C0 1.34 0 0.68 0 0 Z " fill="#2D2E32" transform="translate(83,90)"/>
<path d="M0 0 C2.7972908 2.06756277 3.02692273 3.14440371 3.6875 6.6875 C3.790625 7.780625 3.89375 8.87375 4 10 C3.01 10.66 2.02 11.32 1 12 C0.63762737 10.37681021 0.28534843 8.7513642 -0.0625 7.125 C-0.25972656 6.22007813 -0.45695313 5.31515625 -0.66015625 4.3828125 C-1 2 -1 2 0 0 Z " fill="#DCDEE0" transform="translate(139,48)"/>
<path d="M0 0 C0.33 0.66 0.66 1.32 1 2 C-8.41002278 3.51708428 -8.41002278 3.51708428 -13 1 C-4.14893617 -1.38297872 -4.14893617 -1.38297872 0 0 Z " fill="#35393C" transform="translate(61,138)"/>
<path d="M0 0 C-0.34879632 3.25543229 -1.02133261 4.01873107 -3.5625 6.25 C-4.366875 6.8275 -5.17125 7.405 -6 8 C-6.1875 5.125 -6.1875 5.125 -6 2 C-3 0 -3 0 0 0 Z " fill="#1B1F22" transform="translate(63,81)"/>
<path d="M0 0 C1.32 0.66 2.64 1.32 4 2 C-3.0547046 6.07877462 -3.0547046 6.07877462 -7 5.75 C-7.66 5.5025 -8.32 5.255 -9 5 C-6.06279492 3.47700477 -3.0831351 2.19899698 0 1 C0 0.67 0 0.34 0 0 Z " fill="#1C1E21" transform="translate(105,133)"/>
<path d="M0 0 C1.9668026 1.9668026 2.9371637 3.5444659 4.1875 6 C4.55230469 6.70125 4.91710937 7.4025 5.29296875 8.125 C5.52628906 8.74375 5.75960938 9.3625 6 10 C5.67 10.66 5.34 11.32 5 12 C4.34 12 3.68 12 3 12 C0.97649676 8.96474514 0.67875982 7.80573798 0.375 4.3125 C0.30023438 3.50425781 0.22546875 2.69601563 0.1484375 1.86328125 C0.09945313 1.24839844 0.05046875 0.63351563 0 0 Z " fill="#C7CBCE" transform="translate(13,102)"/>
<path d="M0 0 C1.65 0 3.3 0 5 0 C4.04663979 1.31611677 3.08714226 2.62778961 2.125 3.9375 C1.59132813 4.66839844 1.05765625 5.39929687 0.5078125 6.15234375 C-1 8 -1 8 -3 9 C-3 8.01 -3 7.02 -3 6 C-2.34 6 -1.68 6 -1 6 C-0.67 4.02 -0.34 2.04 0 0 Z " fill="#232529" transform="translate(84,51)"/>
<path d="M0 0 C0.33 0.99 0.66 1.98 1 3 C-0.97779587 6.8764799 -2.19654895 8.6600784 -6.25 10.375 C-7.61125 10.684375 -7.61125 10.684375 -9 11 C-8.60167969 10.54109375 -8.20335938 10.0821875 -7.79296875 9.609375 C-5.08857938 6.47728415 -2.42008229 3.36122541 0 0 Z " fill="#404445" transform="translate(105,45)"/>
<path d="M0 0 C0.89130413 2.6739124 1.47731534 5.23723823 2 8 C0.68 8 -0.64 8 -2 8 C-2 7.34 -2 6.68 -2 6 C-2.66 5.67 -3.32 5.34 -4 5 C-2.68 3.35 -1.36 1.7 0 0 Z " fill="#212426" transform="translate(25,31)"/>
<path d="M0 0 C0.66 0.33 1.32 0.66 2 1 C0.06745228 3.0245738 -1.63158688 4.42105792 -4 6 C-6.6875 5.125 -6.6875 5.125 -9 4 C-6.06195683 2.47657021 -3.13439441 1.07229283 0 0 Z " fill="#BABEBF" transform="translate(101,138)"/>
<path d="M0 0 C-2.88035092 2.24027294 -5.84866512 4.16172132 -9 6 C-9.33 4.35 -9.66 2.7 -10 1 C-9.01 1.495 -9.01 1.495 -8 2 C-4.77208445 -0.1519437 -3.71599191 -0.20086443 0 0 Z " fill="#DBDDDE" transform="translate(42,18)"/>
<path d="M0 0 C2.475 0.495 2.475 0.495 5 1 C5.33 2.65 5.66 4.3 6 6 C4.02 5.01 2.04 4.02 0 3 C0 2.01 0 1.02 0 0 Z " fill="#131317" transform="translate(83,87)"/>
<path d="M0 0 C0.66 0 1.32 0 2 0 C2.625 1.8125 2.625 1.8125 3 4 C2.01 5.485 2.01 5.485 1 7 C0.34 7 -0.32 7 -1 7 C-2 4 -2 4 -1.0625 1.8125 C-0.5365625 0.9153125 -0.5365625 0.9153125 0 0 Z " fill="#202528" transform="translate(78,57)"/>
<path d="M0 0 C0.99 0 1.98 0 3 0 C3 1.65 3 3.3 3 5 C3.66 5 4.32 5 5 5 C4.67 5.99 4.34 6.98 4 8 C2.35 6.02 0.7 4.04 -1 2 C-0.67 1.34 -0.34 0.68 0 0 Z " fill="#1D2225" transform="translate(64,43)"/>
<path d="M0 0 C1.98567708 0.5859375 3.97135417 1.171875 5.95703125 1.7578125 C5.62703125 2.7478125 5.29703125 3.7378125 4.95703125 4.7578125 C1.65703125 3.7678125 -1.64296875 2.7778125 -5.04296875 1.7578125 C-2.04296875 -0.2421875 -2.04296875 -0.2421875 0 0 Z " fill="#DCDCDC" transform="translate(101.04296875,11.2421875)"/>
<path d="M0 0 C-0.25 1.875 -0.25 1.875 -1 4 C-3.0625 5.25 -3.0625 5.25 -5 6 C-5.66 5.34 -6.32 4.68 -7 4 C-2.25 0 -2.25 0 0 0 Z " fill="#EFEFF1" transform="translate(119,130)"/>
<path d="M0 0 C0.66 1.32 1.32 2.64 2 4 C1.01 4.66 0.02 5.32 -1 6 C-1.99 5.67 -2.98 5.34 -4 5 C-2.25 1.125 -2.25 1.125 0 0 Z " fill="#1A1E22" transform="translate(54,88)"/>
<path d="M0 0 C2.475 0.99 2.475 0.99 5 2 C5 2.99 5 3.98 5 5 C3.125 4.6875 3.125 4.6875 1 4 C0.34 3.01 -0.32 2.02 -1 1 C-0.67 0.67 -0.34 0.34 0 0 Z " fill="#E0E1E2" transform="translate(33,130)"/>
<path d="M0 0 C1.485 0.99 1.485 0.99 3 2 C3.1875 5.625 3.1875 5.625 3 9 C0.9375 6.75 0.9375 6.75 -1 4 C-0.75 1.6875 -0.75 1.6875 0 0 Z " fill="#161A1E" transform="translate(75,74)"/>
<path d="M0 0 C0.66 0 1.32 0 2 0 C2.33 1.98 2.66 3.96 3 6 C2.01 6 1.02 6 0 6 C-1.125 2.25 -1.125 2.25 0 0 Z " fill="#141519" transform="translate(63,58)"/>
<path d="M0 0 C1.7074998 1.28062485 3.37373596 2.61767557 5 4 C5 4.66 5 5.32 5 6 C3.35 5.67 1.7 5.34 0 5 C0 3.35 0 1.7 0 0 Z " fill="#C0C2C4" transform="translate(24,120)"/>
<path d="M0 0 C1.32 1.32 2.64 2.64 4 4 C3.67 4.66 3.34 5.32 3 6 C2.01 5.67 1.02 5.34 0 5 C-0.33 5.66 -0.66 6.32 -1 7 C-1.66 6.01 -2.32 5.02 -3 4 C-2.01 3.34 -1.02 2.68 0 2 C0 1.34 0 0.68 0 0 Z " fill="#3D3E41" transform="translate(83,82)"/>
<path d="M0 0 C1.32 1.32 2.64 2.64 4 4 C3.34 5.98 2.68 7.96 2 10 C1.34 9.01 0.68 8.02 0 7 C0.66 7 1.32 7 2 7 C2 6.34 2 5.68 2 5 C1.34 4.67 0.68 4.34 0 4 C0 2.68 0 1.36 0 0 Z " fill="#37383B" transform="translate(60,52)"/>
<path d="M0 0 C1.32 0.99 2.64 1.98 4 3 C3.34 4.65 2.68 6.3 2 8 C1.01 7.67 0.02 7.34 -1 7 C-0.67 4.69 -0.34 2.38 0 0 Z " fill="#333537" transform="translate(65,59)"/>
<path d="M0 0 C1.5 1.3125 1.5 1.3125 3 3 C3 3.99 3 4.98 3 6 C1.68 5.67 0.36 5.34 -1 5 C-0.67 3.35 -0.34 1.7 0 0 Z " fill="#111215" transform="translate(59,53)"/>
</svg>
